<svg width="32" height="33" viewBox="0 0 32 33" fill="none" xmlns="http://www.w3.org/2000/svg">
<path d="M19.7833 0.30669C19.9065 0.30669 19.9065 0.184013 19.9065 0.184013C19.66 0.184013 19.7833 0.368028 19.7833 0.30669Z" fill="white"/>
<path d="M17.318 0.858732V0.797394C17.1948 0.858732 17.1331 0.92007 17.0099 1.04275C17.1331 0.92007 17.2564 0.92007 17.318 0.858732Z" fill="white"/>
<path d="M15.2843 1.71747C15.5925 1.77881 15.9622 1.28811 16.3936 1.22677H16.4553L16.5785 0.981415C16.0855 1.22677 15.5925 1.5948 15.2843 1.71747Z" fill="white"/>
<path d="M14.0516 1.96283C14.1749 1.96283 13.8667 2.14684 14.2982 1.84015H14.2365C14.1749 1.84015 14.1133 1.90149 14.0516 1.96283Z" fill="white"/>
<path d="M14.2366 1.84015C14.4215 1.65613 14.0517 1.84015 14.2366 1.84015V1.84015Z" fill="white"/>
<path d="M13.3738 2.45353L13.5586 2.20818C13.497 2.20818 13.2505 2.33085 13.3121 2.26951C13.0656 2.51487 13.1889 2.51487 13.3738 2.45353Z" fill="white"/>
<path d="M13.2505 2.76022L13.3737 2.63754C13.3121 2.63754 13.2505 2.69888 13.2505 2.76022Z" fill="white"/>
<path d="M13.5587 2.39219L13.3121 2.63754C13.3738 2.63754 13.4354 2.69888 13.4354 2.51487C13.497 2.63754 13.497 2.51487 13.5587 2.39219Z" fill="white"/>
<path d="M13.7435 2.33086C13.9284 2.26952 14.1133 2.14684 13.9284 2.39219C14.3598 2.02417 14.1749 1.96283 13.7435 2.33086Z" fill="white"/>
<path d="M15.2843 1.96282C15.3459 1.96282 15.4076 1.90149 15.5308 1.90149L15.6541 1.77881C15.5925 1.84015 15.2843 1.90149 15.2843 1.96282Z" fill="white"/>
<path d="M11.833 3.55762C11.833 3.61896 12.0179 3.55762 12.0795 3.61896L12.2028 3.43494C12.0795 3.49628 11.8946 3.61896 11.833 3.55762Z" fill="white"/>
<path d="M12.0179 3.61896L11.833 3.92565C12.0795 3.6803 12.0795 3.61896 12.0179 3.61896Z" fill="white"/>
<path d="M13.3121 3.00558L13.6819 2.51487L13.2505 3.06691L13.3121 3.00558Z" fill="white"/>
<path d="M10.8469 4.47769L10.9085 4.23234L10.7853 4.60037L10.8469 4.47769Z" fill="white"/>
<path d="M10.2923 5.02974C10.2923 4.90706 10.1074 5.02974 10.1074 4.90706C9.9841 5.02974 9.92247 5.15241 9.86084 5.33643C9.9841 5.21375 10.1074 5.15241 10.2923 5.02974Z" fill="white"/>
<path d="M9.79919 5.52044C9.86082 5.4591 9.86082 5.39776 9.92245 5.33643C9.86082 5.33643 9.79919 5.4591 9.79919 5.52044Z" fill="white"/>
<path d="M11.4015 4.29368C11.3399 4.29368 11.2783 4.29368 11.0934 4.41635H11.2783C11.3399 4.35502 11.3399 4.29368 11.4015 4.29368Z" fill="white"/>
<path d="M11.2783 4.35502C11.155 4.4777 11.0934 4.53903 11.0934 4.53903C11.0934 4.53903 11.155 4.4777 11.2783 4.35502Z" fill="white"/>
<path d="M12.5726 3.43494C12.4494 3.61896 12.2028 3.92565 12.5726 3.74164C12.6343 3.61896 12.4494 3.6803 12.5726 3.43494Z" fill="white"/>
<path d="M11.6481 4.29368L11.9562 4.04833C11.9562 4.04833 11.833 4.04833 11.8946 3.92565L11.6481 4.29368Z" fill="white"/>
<path d="M11.5249 4.41635L11.6482 4.29368L11.5249 4.35502V4.41635Z" fill="white"/>
<path d="M10.2306 5.33643C10.169 5.4591 10.0457 5.52044 9.92249 5.64312C10.0457 5.58178 10.2306 5.52044 10.3539 5.39776C10.3539 5.33643 10.3539 5.21375 10.2306 5.33643Z" fill="white"/>
<path d="M8.505 6.19517L8.56664 6.25651V6.19517H8.505Z" fill="white"/>
<path d="M10.4155 5.39777C10.5387 5.33643 10.5387 5.27509 10.6004 5.15241C10.5387 5.21375 10.4771 5.27509 10.4155 5.39777C10.3539 5.39777 10.3539 5.39777 10.4155 5.39777Z" fill="white"/>
<path d="M9.42944 5.7658C9.49107 5.7658 9.5527 5.7658 9.67596 5.7658C9.61433 5.70446 9.42944 5.70446 9.42944 5.7658Z" fill="white"/>
<path d="M10.662 4.9684C10.6003 5.02974 10.6003 5.09108 10.6003 5.15241C10.662 5.09108 10.662 5.02974 10.662 4.9684C10.7236 4.9684 10.662 4.9684 10.662 4.9684Z" fill="white"/>
<path d="M8.13525 7.11524C8.13525 6.99257 8.50503 6.80855 8.87481 6.86989C9.18296 6.68587 8.81318 6.37918 8.56666 6.19517C8.56666 6.25651 8.56666 6.31784 8.32014 6.44052C8.4434 6.50186 8.99807 6.44052 8.81318 6.62454C8.38177 6.80855 8.4434 6.62454 8.25851 6.62454C8.4434 6.74721 7.76547 6.86989 7.8271 7.11524C7.95036 7.0539 8.07362 7.0539 8.19688 6.99256C8.19688 7.0539 8.01199 7.11524 8.13525 7.11524Z" fill="white"/>
<path d="M9.05969 6.07249L9.18295 6.01115C9.05969 6.01115 8.93643 6.01115 8.75154 6.01115C8.56665 6.13383 8.56665 6.19517 8.56665 6.19517C8.75154 6.19517 8.93643 6.13383 9.05969 6.07249Z" fill="white"/>
<path d="M9.6759 5.82713C9.6759 6.01115 9.42938 6.19516 9.61427 6.19516C9.92242 6.01115 9.79916 5.94981 9.98405 5.82713C9.49101 6.13383 10.1073 5.70446 9.6759 5.82713C9.79916 5.7658 9.86079 5.70446 9.92242 5.64312C9.86079 5.70446 9.73753 5.70446 9.6759 5.70446C9.6759 5.70446 9.73753 5.70446 9.6759 5.70446V5.82713C9.6759 5.7658 9.6759 5.7658 9.6759 5.82713C9.55264 5.82713 9.6759 5.7658 9.6759 5.82713C9.6759 5.7658 9.6759 5.7658 9.6759 5.7658C9.55264 5.88847 9.36775 5.94981 9.18286 6.07249C9.30612 6.01115 9.49101 5.94981 9.6759 5.82713Z" fill="white"/>
<path d="M12.5109 4.23234C12.4493 4.23234 12.4493 4.23234 12.5109 4.23234C12.4493 4.23234 12.4493 4.29368 12.5109 4.23234Z" fill="white"/>
<path d="M12.2644 4.35502C12.2644 4.29368 12.2644 4.23234 12.3877 4.171C12.5109 4.10966 12.4493 4.23234 12.4493 4.23234C12.5109 4.171 12.6342 3.92565 12.3877 4.10966V4.171C12.1411 4.29368 11.7714 4.41635 11.833 4.41635C11.8946 4.35502 12.0179 4.35502 12.2644 4.35502Z" fill="white"/>
<path d="M10.9701 5.27509C10.8469 5.39777 10.7236 5.52045 10.6003 5.64312C10.662 5.64312 10.7852 5.58178 10.8469 5.52045C11.0934 5.33643 10.9701 5.33643 10.9701 5.27509Z" fill="white"/>
<path d="M8.4433 6.13383V6.01115C8.38167 6.07249 8.32004 6.19517 8.19678 6.25651L8.4433 6.13383Z" fill="white"/>
<path d="M7.827 6.2565V6.13383L7.70374 6.19517L7.827 6.2565Z" fill="white"/>
<path d="M19.1053 30.3011L19.2286 30.1784C19.167 30.2398 19.1053 30.3011 19.1053 30.3011Z" fill="white"/>
<path d="M0.986084 21.2231C0.986084 21.5297 0.986084 21.8364 1.04771 21.7751L1.10934 21.6524C1.04771 21.4684 0.986084 21.3457 0.986084 21.2231Z" fill="white"/>
<path d="M9.86079 29.5037V29.4424C9.79916 29.4424 9.73753 29.381 9.6759 29.381C9.6759 29.381 9.73753 29.4424 9.86079 29.5037Z" fill="white"/>
<path d="M10.3539 29.2584L10.4771 29.5037C10.4771 29.5037 10.4155 29.381 10.3539 29.2584Z" fill="white"/>
<path d="M23.4195 25.7621V25.5167C23.2963 25.7621 23.4195 25.7007 23.4195 25.7621Z" fill="white"/>
<path d="M1.72565 10.6729C1.60239 10.8569 1.54076 10.9796 1.47913 11.1636C1.66402 10.9182 1.84891 10.7955 1.72565 10.6729Z" fill="white"/>
<path d="M19.5367 31.7119C19.5984 31.6506 19.66 31.5892 19.5984 31.5279C19.5367 31.6506 19.5367 31.7119 19.5367 31.7119Z" fill="white"/>
<path d="M1.29419 11.7156C1.29419 11.6543 1.35582 11.6543 1.35582 11.5929C1.35582 11.4703 1.41745 11.2862 1.47908 11.1022C1.35582 11.2862 1.29419 11.4703 1.29419 11.7156Z" fill="white"/>
<path d="M21.9403 1.10409C22.0019 1.10409 22.1252 1.16543 22.1868 1.22676C22.1868 1.16543 22.0636 1.10409 21.9403 1.10409Z" fill="white"/>
<path d="M4.68384 6.74721C4.86873 6.62453 4.68384 6.68587 4.68384 6.74721V6.74721Z" fill="white"/>
<path d="M5.67003 6.86989L5.6084 6.93123C5.6084 6.93123 5.67003 6.93123 5.67003 6.86989Z" fill="white"/>
<path d="M4.93036 6.68587C4.86873 6.68587 4.8071 6.74721 4.68384 6.74721C4.74547 6.68588 4.86873 6.68587 4.93036 6.68587Z" fill="white"/>
<path d="M4.93042 6.62453C4.99205 6.62453 5.05368 6.56319 5.11531 6.56319C5.05368 6.56319 5.05368 6.50186 4.93042 6.62453Z" fill="white"/>
<path d="M4.43738 6.86988C4.56064 6.80855 4.62227 6.74721 4.74553 6.74721C4.6839 6.74721 4.6839 6.74721 4.6839 6.74721C4.62227 6.74721 4.56064 6.80855 4.43738 6.86988Z" fill="white"/>
<path d="M5.11533 23.3699C4.80717 23.4312 4.68391 23.3085 4.49902 23.2472L4.56065 23.6766C4.74554 23.5539 4.93043 23.4312 5.11533 23.3699Z" fill="white"/>
<path d="M21.0159 28.3996L20.6461 28.5836C20.831 28.0929 21.0775 27.9089 20.7078 28.0929C20.9543 28.3996 19.7217 29.1357 19.9682 29.5037L19.7217 29.6264C19.7833 29.5651 19.7833 29.5651 19.8449 29.5037C19.3519 29.6877 19.7833 29.9944 19.2903 30.3011C19.1054 30.4238 18.9821 30.4238 19.0437 30.3011C18.9205 30.4238 18.8588 30.5465 18.7356 30.6691C18.6123 30.7305 18.6123 30.6691 18.7356 30.6078C18.5507 30.7305 18.3658 30.8532 18.1809 30.9758C18.1193 31.0985 17.996 31.2825 17.8728 31.3439C17.6879 31.3439 17.9344 31.2825 17.8728 31.2212C17.7495 31.2825 17.6879 31.3439 17.5646 31.4665C17.3797 31.4052 17.6879 31.2212 17.8728 31.1598C17.503 30.7918 17.6879 31.2825 16.8867 31.2212C17.0099 31.1599 17.1332 31.1598 17.1948 31.0985C16.9483 30.9145 16.7018 31.0372 16.2704 30.9758C16.332 31.0372 17.0716 31.2212 16.7018 31.4052C16.5785 31.4052 16.4553 31.4052 16.2087 31.5279C16.2087 31.4052 15.9622 31.4665 15.7157 31.4665V31.2825C15.4076 31.3439 15.4692 31.4665 15.2843 31.5279C14.9761 31.4665 14.9145 31.3439 14.8529 31.2212C14.3598 31.1599 15.161 31.5279 14.5447 31.4665C14.1133 31.3439 13.8052 31.3439 13.2505 31.3439C13.004 31.1598 13.3121 31.2212 13.2505 31.1598C13.1272 31.1598 13.0656 31.2212 12.9423 31.2212C12.8807 31.2212 12.9423 31.1598 12.9423 31.1598C12.6958 31.1598 12.8807 31.3439 12.5109 31.2212C12.326 31.4052 11.9563 30.6078 11.4632 30.6078C11.4016 30.4851 11.5865 30.5465 11.5865 30.4851C10.9702 30.3011 11.0934 30.3011 10.6004 30.1171C10.5388 29.9944 10.4771 29.8717 10.4155 29.6877C10.5388 30.0558 10.1074 29.8717 9.73757 29.6264C9.73757 29.7491 9.7992 29.8717 9.7992 29.9331C9.61431 29.8104 9.49105 29.6264 9.30616 29.5037C9.30616 29.4424 9.36779 29.4424 9.49105 29.4424C9.42942 29.4424 9.42942 29.381 9.36779 29.381C9.30616 29.1357 9.49105 29.197 9.61431 29.2584C9.61431 29.3197 9.61431 29.4424 9.61431 29.5037C9.7992 29.5651 9.98409 29.5651 10.0457 29.5037C9.98409 29.5037 9.92247 29.4424 9.86084 29.381C9.92247 29.381 9.92247 29.381 9.92247 29.381C9.92247 29.381 9.86084 29.3197 9.73757 29.2584L9.86084 29.013H9.7992C9.67594 28.7677 9.61431 28.5223 9.49105 28.2769C8.99801 27.9089 8.50497 27.6022 7.88867 26.9275C8.13519 27.0502 8.13519 26.8048 8.32008 26.7435C8.32008 27.0502 8.81312 27.2955 8.99801 27.7249C8.87475 27.4796 8.99801 27.4796 9.05964 27.5409C8.87475 27.3569 8.62823 27.1115 8.44334 26.9275C8.5666 26.8662 8.44334 26.6822 8.38171 26.4981C8.25845 26.8048 7.82704 26.0688 7.51889 25.8848C7.58052 25.8234 7.70378 25.7621 8.01193 26.1301C7.88867 25.5781 7.334 25.8848 7.14911 25.4554C7.21074 25.5167 7.27237 25.5781 7.334 25.5781C7.08747 25.4554 6.71769 25.026 6.84095 25.026L6.90258 25.0874C6.65606 24.842 6.22465 24.474 5.85487 24.29C5.48509 24.0446 5.05368 23.9219 4.99205 24.0446C4.99205 23.9833 5.23857 23.7993 5.3002 23.7993C4.74553 23.7993 4.25249 23.9219 3.82107 24.0446C4.00596 23.8606 3.82107 23.2472 4.37575 23.3085C4.25249 23.1859 4.06759 23.1245 3.82107 23.0632C3.8827 23.1245 3.8827 23.4312 3.75944 23.4312C3.57455 23.0632 3.63618 23.1859 3.38966 22.7565C3.45129 22.8792 3.08151 23.0632 2.95825 22.8178C3.01988 22.8178 3.20477 22.5725 3.2664 22.5725C3.08151 22.5112 2.83499 22.4498 2.58847 22.3271C2.71173 22.3885 2.83499 22.1431 2.83499 22.0204C2.95825 22.0818 2.71173 21.5297 2.58847 21.4684L2.71173 21.7138C2.52684 21.4071 2.40358 21.3457 2.21869 21.223C2.0338 21.1004 1.78728 21.039 1.72565 20.671C1.84891 20.7323 2.21869 20.7323 2.15706 20.3643C2.0338 20.303 1.78728 20.2416 1.54076 20.0576C1.29423 19.8736 1.04771 19.6282 0.924453 19.2602L0.862823 19.0762L0.677932 18.5855C0.862823 18.7082 1.04771 19.0149 1.29423 19.2602C1.54076 19.5056 1.78728 19.8123 1.97217 19.9963C1.97217 19.7509 2.09543 19.8736 1.97217 19.5056C2.0338 19.3829 2.15706 19.6896 2.15706 19.7509C2.09543 19.4442 2.09543 19.1989 2.0338 18.8922C1.84891 18.9535 1.72565 18.2788 1.60239 18.2788C1.72565 18.5855 1.78728 18.8922 1.97217 19.1989C1.78728 19.2602 1.29423 18.7082 1.29423 18.0335C1.35586 17.8494 1.66402 18.1561 1.72565 18.0948C1.66402 18.0335 1.54076 17.4814 1.60239 17.4201L1.72565 17.6654C1.78728 17.2974 1.4175 17.052 1.66402 16.6227C1.66402 16.5 1.97217 16.1933 1.84891 16.132C1.60239 16.3773 0.862823 16.3773 0.677932 16.1933C0.677932 16.132 0.986083 15.3959 1.10934 15.2119C1.35586 14.9665 1.47913 15.6413 1.66402 15.4572C1.60239 15.4572 1.54076 15.2732 1.54076 15.2119C1.60239 15.0892 1.72565 15.2732 1.72565 14.9665C1.54076 14.9052 1.84891 14.2918 1.60239 14.7825C1.60239 14.4145 1.72565 14.4145 1.78728 14.0465C1.66402 14.4145 1.47913 13.8624 1.47913 13.4944C1.54076 13.5558 1.60239 13.4944 1.66402 13.4331C1.84891 12.7584 2.09543 12.3903 2.28032 11.7769C2.34195 11.7156 2.52684 11.4703 2.52684 11.5929C2.52684 11.4703 2.46521 11.4089 2.52684 11.1636C2.89662 10.9182 2.46521 11.6543 2.71173 11.4089C2.58847 11.3476 2.71173 10.8569 2.77336 10.5502C2.58847 10.5502 2.46521 11.1636 2.46521 11.4703C2.21869 11.4089 2.09543 10.7955 2.28032 10.1208C2.46521 9.56877 2.52684 9.99814 2.52684 9.87546C2.77336 9.38475 2.83499 9.1394 2.83499 8.95539C2.89662 8.71003 2.89662 8.52602 3.2664 8.21933C3.63618 8.03531 3.51292 8.40334 3.69781 8.46468C3.45129 8.83271 3.20477 8.95539 3.01988 9.20074C3.08151 9.07806 3.20477 9.01672 3.2664 8.89405C3.20477 9.01672 3.08151 9.32342 2.95825 9.44609C3.08151 9.38475 3.32803 8.95539 3.63618 8.58736C3.94433 8.21933 4.37575 7.8513 4.74553 7.72862C4.80716 7.60594 5.05368 7.48327 4.86879 7.42193C4.80716 7.48327 4.74553 7.48327 4.6839 7.54461C4.56064 7.54461 4.62227 7.42193 4.6839 7.36059C4.74553 7.29925 4.86879 7.17658 4.6839 7.23791C4.93042 6.99256 5.3002 6.68587 5.85487 6.62453L5.97813 6.80855C5.97813 6.74721 5.60835 6.74721 5.48509 6.86988C5.66998 6.68587 6.28628 6.99256 6.47117 6.74721C6.34791 6.68587 6.22465 6.68587 6.10139 6.62453C6.47117 6.50185 6.90258 6.31784 7.334 6.37918C7.14911 6.19516 7.27237 6.37918 6.96421 6.19516C7.08747 6.31784 6.84095 6.31784 6.5328 6.31784C6.22465 6.31784 5.97813 6.37918 6.22465 6.50185C5.85487 6.2565 5.60835 6.44052 5.05368 6.37918C5.11531 6.44052 5.23857 6.44052 4.80716 6.56319L4.74553 6.62453C4.86879 6.62453 4.93042 6.62453 4.99205 6.62453C4.80716 6.80855 4.25249 7.11524 4.12922 7.29925C3.8827 7.42193 4.19086 7.17658 4.00596 7.17658C3.94433 7.23791 3.8827 7.36059 3.82107 7.48327C3.69781 7.36059 3.20477 7.72862 3.57455 7.29925C3.45129 7.42193 3.32803 7.54461 3.20477 7.66728C2.95825 7.8513 2.6501 8.15799 2.52684 8.40334C2.34195 8.58736 2.34195 9.01672 2.34195 8.77137C2.21869 9.01672 2.09543 9.26208 2.0338 9.50743H1.97217C1.60239 10.1822 1.60239 10.9795 1.10934 11.6543C1.04771 11.8996 1.04771 12.145 0.862823 12.513L0.739563 12.5743C0.677932 12.881 0.369781 13.4331 0.493042 13.6171C0.12326 13.8624 0.12326 15.0892 0 15.6413L0.12326 15.7026C0.0616302 16.0706 0.0616302 16.4387 0.12326 16.9294H0.246521C0.308151 17.1134 0.246521 17.4201 0.246521 17.6654C0.246521 17.9721 0.184891 18.2788 0.184891 18.5855C0.12326 18.5242 0.12326 18.4015 0.184891 18.2788C0.0616302 18.6468 0.184891 19.0762 0.246521 19.5056C0.431412 19.8736 0.493042 20.2416 0.554672 20.6097C0.677932 20.7937 0.677932 20.9164 0.677932 21.039C0.677932 21.039 0.677932 21.039 0.677932 20.9777V21.039C0.677932 21.1004 0.677932 21.223 0.677932 21.2844C0.677932 21.223 0.677932 21.1004 0.677932 21.039C0.739563 21.1617 0.862823 21.3457 0.924453 21.5297L0.801193 21.6524C0.801193 21.6524 0.801193 21.6524 0.801193 21.7138C0.862823 21.8978 0.924453 21.8364 0.986084 21.7138C1.04771 21.7751 1.10934 21.8978 1.17097 21.8978C1.04771 22.1431 1.54076 22.3271 1.4175 22.6338C1.54076 22.6952 2.15706 23.3699 2.40358 23.3085C2.40358 23.3085 2.40358 23.3699 2.34195 23.3085C2.46521 23.4926 2.6501 23.6766 2.83499 23.7379C2.83499 23.7993 2.83499 23.8606 2.83499 23.9833C3.01988 24.0446 3.2664 24.0446 3.45129 23.9833C3.69781 24.2286 3.75944 24.29 3.45129 24.3513C4.12922 24.4126 3.94433 24.474 4.56064 24.5353H4.86879C5.05368 24.5967 5.36183 24.658 5.42346 24.7807C5.54672 25.026 5.97813 25.3327 6.47117 25.7621C6.90258 26.1914 7.39563 26.7435 7.64215 27.2342C7.82704 26.8662 7.82704 27.7249 8.07356 27.6636C8.01193 27.7862 8.07356 27.9089 7.9503 27.7862C8.32008 28.2156 8.25845 28.5836 8.68986 28.829C8.62823 28.9517 8.50497 28.7677 8.50497 28.829C8.5666 28.8903 8.68986 28.9517 8.68986 29.013C8.68986 29.0743 8.5666 28.9517 8.50497 28.8903C8.87475 29.4424 9.12127 29.3197 9.36779 29.2584C9.42942 29.5651 9.55268 29.7491 9.86084 29.8104C9.86084 29.9331 9.92247 30.1784 9.67594 29.8717C9.73757 29.9331 9.92247 30.2398 10.169 30.4851C10.4155 30.7305 10.662 30.9145 10.7237 30.8532C10.7237 30.9145 10.9702 31.0372 11.0318 31.0985C11.4632 31.4052 11.4632 31.4052 11.9563 31.6506L11.833 31.5892C12.1412 31.4665 12.2028 31.7119 12.5726 31.8346C12.9423 32.0799 13.0656 32.0799 13.1889 32.0799C13.3121 32.0799 13.3738 32.1413 13.8052 32.3253V32.1413C13.9284 31.8346 14.5447 32.5093 15.0994 32.3866L14.9145 32.2639C15.2227 32.2026 15.7157 32.7546 16.0239 32.7546C16.0855 32.7546 15.9006 32.816 15.839 32.816C16.6402 33 15.9622 32.632 16.5169 32.5706C16.6402 32.6933 16.3936 32.8773 16.825 32.816C17.0716 32.8773 17.8728 32.3253 18.4891 32.3253C18.3658 32.2639 18.2425 32.2639 18.4274 32.0799C18.6123 32.0186 18.9205 31.9572 19.167 31.8959C19.4135 31.7732 19.7217 31.6506 19.7833 31.4665C19.8449 31.4665 19.8449 31.4665 19.9066 31.4665C20.1531 31.2212 20.6461 30.7305 20.6461 30.5465C21.2008 30.7305 21.8171 29.0743 22.1252 29.4424L22.7416 28.7677V28.829C23.173 28.461 23.2346 28.2156 23.2962 27.9703C23.4195 27.9089 23.3579 27.9703 23.3579 28.0316C23.9742 27.4796 24.0358 27.4182 24.3439 26.7435L24.5288 26.8048C24.5905 26.6208 25.5149 26.0688 25.9463 25.3327C25.9463 25.3327 25.9463 25.3941 25.9463 25.4554C26.4394 24.658 27.7336 24.1059 27.5487 23.4926L27.8569 22.9405C27.3022 23.4926 27.7336 22.6952 27.4871 22.8792C27.672 22.6338 28.165 22.3885 27.9185 22.6952H27.8569C27.9801 23.0019 28.5964 22.0204 28.7197 22.1431C29.2127 21.5297 29.7058 20.9164 30.1988 20.303C30.4453 19.9963 30.6302 19.6282 30.8151 19.1989C31 18.8309 31.0616 18.4628 31.1849 18.0948L30.9384 18.2175L31.0616 17.7268C31.1233 17.6041 31.2465 17.6041 31.1849 17.9721C31.3698 17.7881 31.1849 17.3587 31.1849 17.2974C31.3698 16.5613 31.3698 17.6041 31.4314 17.4201L31.493 17.1134L31.1233 17.1747C31.0616 16.9294 31 16.868 31.0616 16.4387C31.1233 16.132 31.1849 16.316 31.2465 16.1933C31.2465 16.1933 31.2465 16.132 31.2465 16.0093C31.2465 15.7639 31.2465 15.5799 31.3082 15.3346L31.0616 15.6413C31 15.3346 31.0616 15.0279 30.8767 15.3346C31 15.0892 31 14.4758 30.8767 13.8624C30.7535 13.2491 30.507 12.697 30.507 12.5743C30.1988 12.2063 30.0139 11.8383 29.7058 11.4089C29.7674 11.5316 29.6441 11.7156 29.3976 11.3476C29.829 11.2249 28.9662 10.6115 28.9662 10.1822C29.0278 10.5502 28.165 9.38475 28.2266 9.87546C28.0418 9.63011 28.3499 9.75278 28.2266 9.50743C27.6103 9.01672 27.2406 8.03531 26.7475 7.23791C26.6859 7.23791 26.6859 7.42193 26.501 7.29925V6.74721C26.3777 6.56319 26.1312 6.74721 26.1928 6.31784C26.1928 6.37918 26.1312 6.50185 26.0696 6.37918C25.9463 5.88847 25.8231 5.4591 25.5765 4.9684C25.3917 4.47769 25.0835 3.92565 24.7137 3.49628C23.9742 2.63754 23.173 1.96282 22.3101 1.22676C22.6183 1.41078 22.4334 1.2881 22.1869 1.22676C22.3101 1.2881 22.1252 1.34944 22.1252 1.41078C21.8787 1.22676 21.6322 1.04275 21.3857 0.858731C21.1392 0.981408 20.3996 0.613378 20.2763 0.736055H20.5845C20.3996 0.797393 20.4612 0.981408 20.5845 1.10408C20.7078 1.2881 20.831 1.47211 20.7694 1.59479C21.0159 1.53345 21.2008 1.71747 21.4473 1.90148C21.6938 2.0855 21.8787 2.26951 22.2485 2.33085C22.3101 2.45353 22.1252 2.33085 22.1252 2.45353C22.3101 2.45353 22.495 2.51487 22.7416 2.76022H22.6799C23.1113 3.06691 23.2962 3.31226 23.5427 3.61895C23.7893 3.92565 23.9742 4.23234 24.2207 4.66171L24.2823 4.53903C24.4056 4.72304 24.3439 4.78438 24.3439 4.90706C24.6521 5.02974 24.0358 4.35501 24.4056 4.41635C24.3439 4.60037 24.5288 4.9684 24.6521 5.33643C24.7753 5.70446 24.8986 6.13382 24.837 6.31784C24.9602 6.68587 24.9602 6.13382 25.0835 6.50185V6.74721L25.2068 6.80855C25.2684 7.0539 25.2684 7.23791 25.2068 7.29925C25.2068 7.23791 25.0835 7.11524 25.0835 7.0539C25.1451 7.42193 25.5765 7.91264 25.5765 8.03531C25.5149 7.91264 25.4533 7.78996 25.4533 7.66728C26.008 8.64869 26.6859 9.81412 27.5487 10.5502V10.4275C28.165 10.9182 27.9801 10.9795 28.5964 11.5316H28.5348C28.7197 11.5929 28.8429 11.7156 28.9662 11.8996C28.7813 11.7769 29.0278 12.2677 28.8429 12.145C29.336 12.697 29.1511 12.3903 29.5825 12.7584V12.881C29.7674 13.0037 29.829 13.0037 29.9523 13.3717C29.7674 13.0651 29.8907 13.6784 29.6441 13.3717C29.6441 14.2305 30.1988 14.5372 29.829 14.9665C30.1988 15.3346 29.9523 14.2305 30.0139 14.4145C30.0755 14.2305 30.3221 14.7212 30.2604 14.9665C30.2604 15.2732 29.8907 15.4572 29.829 16.132C29.829 16.0706 29.829 16.0706 29.829 16.0093C29.7058 16.2546 29.8907 16.5 29.7058 16.8067C29.8907 16.9907 29.6441 17.2361 29.829 17.2974C29.829 17.1134 29.8907 16.868 29.8907 16.684C29.8907 17.052 30.1372 17.4201 29.829 18.0335C29.7674 17.9721 29.7674 17.7881 29.7674 17.6654C29.6441 17.8494 29.7674 18.0335 29.6441 18.1561C29.3976 18.0335 29.7674 17.3587 29.6441 16.9907C29.5209 17.1747 29.7058 17.7268 29.4592 17.4814C29.7058 17.7881 29.2744 18.1561 29.3976 18.6468L29.2744 18.5855C29.2744 18.6468 29.2744 18.8309 29.2744 18.9535C29.2744 18.8922 29.2127 18.7695 29.1511 18.7082C29.2127 19.0762 28.7813 19.2602 28.7197 19.5669C29.0278 18.9535 28.9662 19.5056 29.2127 19.3216C29.0895 19.7509 28.9662 19.8123 28.7813 19.8736C28.5964 19.9349 28.4115 19.9963 28.165 20.4256C28.2266 20.303 28.5348 20.0576 28.4732 20.2416C28.3499 20.3643 28.1034 20.5483 27.9801 20.6097C27.5487 21.1617 28.165 20.6097 28.0417 20.9164C27.7336 20.9777 27.8569 21.223 27.7336 21.5297L27.6103 21.4684C26.994 22.0204 27.7336 21.8364 27.1173 22.3271L27.1789 21.9591L26.994 22.2658L26.9324 22.0818C26.7475 22.5112 26.6243 22.5725 26.3161 22.8178C26.4394 22.8178 26.501 23.0632 26.2545 23.3085C26.008 23.4312 26.2545 23.1245 25.8847 23.4926C25.8847 23.3699 25.8847 23.1859 26.1312 23.0632C26.1312 23.0019 26.1312 22.9405 26.1312 22.8792C25.8847 23.0019 25.6382 23.3699 25.5149 23.4926C25.5765 23.4312 25.6382 23.3699 25.6998 23.3699L25.33 24.0446C25.2068 24.1059 25.2684 23.9833 25.2684 23.9219C25.2068 24.0446 25.1451 24.1673 25.0219 24.3513C24.9602 24.2286 24.8986 24.1673 25.0219 23.8606L24.6521 24.474C24.5905 24.474 24.2823 24.658 24.3439 24.5353C24.0358 24.7807 23.8509 25.3941 23.4195 25.7621C23.4195 25.8234 23.4195 25.8234 23.3579 25.9461C22.9881 26.3141 22.5567 26.4981 22.3101 27.0502L21.9404 27.1729C21.6322 27.5409 22.4334 27.0502 22.002 27.6636C21.6938 28.0929 21.7555 27.6636 21.5706 27.7862C21.4473 28.0316 21.2624 28.5223 20.831 28.7677C20.831 28.5836 20.9543 28.5223 21.0159 28.3996ZM16.7634 31.3439C16.8867 31.2825 17.0099 31.1599 17.1332 31.2212C17.0716 31.4665 16.9483 31.4052 16.7634 31.3439ZM9.61431 28.645C9.67594 28.7063 9.73757 28.829 9.7992 28.9517C9.67594 28.8903 9.61431 28.7677 9.61431 28.645ZM3.20477 8.03531C3.01988 8.21933 3.08151 8.15799 3.20477 8.03531V8.03531ZM3.69781 7.66728C3.69781 7.60594 3.69781 7.60594 3.69781 7.60594C3.69781 7.66728 3.57455 7.72862 3.51292 7.8513C3.51292 7.8513 3.57455 7.78996 3.69781 7.66728ZM31.1233 16.132L31.0616 16.2546C31.0616 16.0093 31.0616 16.0706 31.1233 16.132Z" fill="white"/>
<path d="M10.2922 29.3197C10.2922 29.381 10.2922 29.381 10.2306 29.381C10.2922 29.381 10.3539 29.381 10.2922 29.3197Z" fill="white"/>
<path d="M23.4194 25.8234C23.4811 25.7621 23.4194 25.7621 23.4194 25.8234V25.8234Z" fill="white"/>
<path d="M1.84885 15.5186C1.78722 15.6413 1.78722 15.6413 1.72559 15.7026C1.78722 15.7026 1.84885 15.6413 1.84885 15.5186Z" fill="white"/>
<path d="M6.53274 6.13383C6.40948 6.13383 6.28622 6.19517 6.16296 6.19517C6.34785 6.13383 6.40948 6.19517 6.53274 6.19517C6.47111 6.19517 6.40948 6.19517 6.53274 6.13383Z" fill="white"/>
<path d="M9.42943 6.68587C9.49106 6.62453 9.55269 6.62453 9.55269 6.62453L9.49106 6.56319C9.30617 6.68587 9.18291 6.74721 9.42943 6.68587Z" fill="white"/>
<path d="M6.90259 6.62453C6.90259 6.74721 7.14911 6.68587 7.39563 6.68587C7.39563 6.68587 7.39563 6.68587 7.334 6.68587C7.39563 6.50186 7.14911 6.56319 6.90259 6.62453Z" fill="white"/>
<path d="M7.39563 6.68587C7.45726 6.68587 7.51889 6.68587 7.58052 6.68587C7.64215 6.62453 7.51889 6.68587 7.39563 6.68587Z" fill="white"/>
<path d="M4.19088 7.11524C4.31414 7.0539 4.19088 6.93123 4.25251 6.93123C4.25251 6.80855 4.12925 6.99256 4.00599 7.11524C4.00599 7.23792 3.94436 7.36059 4.19088 7.11524Z" fill="white"/>
<path d="M7.08746 7.0539L6.9642 6.86989L6.84094 7.0539H7.08746Z" fill="white"/>
<path d="M5.23853 7.23792C5.36179 7.23792 5.48505 7.17658 5.60831 7.17658C5.60831 7.17658 5.60831 7.11524 5.66994 7.11524C5.48505 7.11524 5.23853 7.23792 5.23853 7.23792Z" fill="white"/>
<path d="M5.66992 7.05391C5.79318 6.99257 5.91644 6.99257 5.97807 6.93123C5.91644 6.99257 5.79318 7.05391 5.66992 7.05391Z" fill="white"/>
<path d="M2.58847 10.1822L2.46521 10.5502C2.52684 10.6115 2.58847 10.4889 2.58847 10.3662C2.58847 10.3048 2.6501 10.1822 2.58847 10.1822Z" fill="white"/>
<path d="M3.51289 9.32342C3.45126 9.38476 3.38963 9.38476 3.328 9.38476L3.51289 9.50743V9.32342Z" fill="white"/>
<path d="M3.0199 10.3662C3.08153 10.4275 2.95827 10.9182 3.14316 10.4888C3.08153 10.4275 3.20479 10.0595 3.0199 10.3662Z" fill="white"/>
<path d="M1.29424 16.0706V15.948H0.986084L1.29424 16.0706Z" fill="white"/>
<path d="M2.58841 20.9164C2.46515 20.487 2.34189 20.9164 2.28026 20.487C2.157 20.4257 2.34189 20.7937 2.21863 20.7323C2.46515 20.9777 2.46515 21.1004 2.58841 20.9164Z" fill="white"/>
<path d="M2.28036 20.7937C2.28036 20.7323 2.21873 20.7323 2.1571 20.671C2.21873 20.7323 2.28036 20.7937 2.28036 20.7937Z" fill="white"/>
<path d="M20.831 0.490703L20.5228 0.368027L20.7077 0.490703H20.831Z" fill="white"/>
<path d="M20.1531 0.613382L20.0915 0.429367L19.845 0.552044C19.9066 0.552044 20.0915 0.552044 20.1531 0.613382Z" fill="white"/>
<path d="M15.9623 31.0372C15.9623 31.1598 16.0239 31.1598 16.2088 31.1598C16.1472 31.0985 16.0239 31.0985 15.9623 31.0372Z" fill="white"/>
<path d="M19.2286 29.9331L19.167 29.9944L19.4135 30.0558L19.2286 29.9331Z" fill="white"/>
<path d="M21.509 27.3569C21.3857 27.4795 21.3241 27.6022 21.2008 27.7249C21.3857 27.4796 21.6938 27.5409 21.509 27.3569Z" fill="white"/>
<path d="M10.2921 12.145C10.3538 12.0836 10.2305 12.0223 10.2305 12.0223C10.1689 12.145 10.2921 12.145 10.2921 12.145Z" fill="white"/>
<path d="M10.0456 13.1264L9.98401 13.0651L10.0456 13.2491V13.1264Z" fill="white"/>
<path d="M9.6759 13.8625C9.92242 13.8625 9.73753 13.5558 9.92242 13.4331H9.98405L9.86079 13.3104C9.79916 13.4944 9.79916 13.8011 9.6759 13.8625Z" fill="white"/>
<path d="M9.05957 14.1691C9.1212 14.1691 9.1212 14.2918 9.1212 14.0465C9.1212 14.1078 9.1212 14.1078 9.05957 14.1691Z" fill="white"/>
<path d="M9.12126 14.1078C9.12126 13.9851 9.05963 14.1078 9.12126 14.1078V14.1078Z" fill="white"/>
<path d="M9.05952 14.5372L8.99789 14.4145C8.93626 14.4145 8.87463 14.5372 8.87463 14.4758C8.87463 14.5985 8.93626 14.5985 9.05952 14.5372Z" fill="white"/>
<path d="M9.18282 14.6598V14.5985C9.12119 14.5985 9.12119 14.5985 9.18282 14.6598Z" fill="white"/>
<path d="M9.12122 14.4758L9.18285 14.5985C9.24448 14.5985 9.30611 14.5985 9.18285 14.5372C9.24448 14.5372 9.18285 14.5372 9.12122 14.4758Z" fill="white"/>
<path d="M9.18286 14.4145C9.24449 14.3532 9.30612 14.2918 9.36775 14.4145C9.36775 14.1691 9.24449 14.1691 9.18286 14.4145Z" fill="white"/>
<path d="M9.86074 13.9851L9.92237 13.9238L9.86074 13.8011C9.984 13.8625 9.79911 13.9851 9.86074 13.9851Z" fill="white"/>
<path d="M8.81311 15.2732C8.87474 15.2732 8.93637 15.2732 8.998 15.2732L8.93637 15.1506C8.87474 15.2119 8.87474 15.2732 8.81311 15.2732Z" fill="white"/>
<path d="M8.99792 15.2732L9.05956 15.3959C9.05956 15.2732 8.99792 15.2732 8.99792 15.2732Z" fill="white"/>
<path d="M9.42941 14.7212L9.30615 14.4758L9.42941 14.7825V14.7212Z" fill="white"/>
<path d="M8.6898 15.8253L8.62817 15.7026L8.75143 15.8866L8.6898 15.8253Z" fill="white"/>
<path d="M8.68977 16.132C8.62814 16.0706 8.50488 16.1933 8.50488 16.132C8.50488 16.2546 8.62814 16.316 8.68977 16.3773C8.62814 16.3773 8.62814 16.2546 8.68977 16.132Z" fill="white"/>
<path d="M8.75143 16.5613C8.75143 16.5 8.6898 16.5 8.62817 16.4387C8.6898 16.5 8.6898 16.5 8.75143 16.5613Z" fill="white"/>
<path d="M8.99789 15.6413C8.99789 15.6413 8.87463 15.6413 8.87463 15.7639L8.99789 15.6413Z" fill="white"/>
<path d="M8.998 15.6413C8.998 15.7026 8.998 15.7639 8.998 15.7639C8.93637 15.7639 8.93637 15.7639 8.998 15.6413Z" fill="white"/>
<path d="M9.24451 15.0892C9.30614 15.1506 9.36777 15.3346 9.49103 15.2119C9.36777 15.1506 9.30614 15.2119 9.24451 15.0892Z" fill="white"/>
<path d="M9.18285 15.5799L9.24448 15.4572C9.18285 15.4572 9.18285 15.4572 9.12122 15.4572L9.18285 15.5799Z" fill="white"/>
<path d="M9.18285 15.6413V15.5799H9.12122L9.18285 15.6413Z" fill="white"/>
<path d="M8.87463 16.316C8.93626 16.3773 8.93626 16.4387 8.93626 16.5C8.93626 16.4387 8.99789 16.316 8.99789 16.2547C8.93626 16.2547 8.87463 16.1933 8.87463 16.316Z" fill="white"/>
<path d="M8.99792 17.2974L9.05956 17.2361H8.99792V17.2974Z" fill="white"/>
<path d="M8.99791 16.2547C8.99791 16.1933 8.99791 16.132 8.93628 16.132C8.99791 16.132 8.99791 16.1933 8.99791 16.2547C8.99791 16.2547 9.05954 16.2547 8.99791 16.2547Z" fill="white"/>
<path d="M8.81311 16.7454C8.81311 16.684 8.87474 16.684 8.87474 16.6227C8.87474 16.684 8.81311 16.7454 8.81311 16.7454Z" fill="white"/>
<path d="M8.93628 16.0093C8.93628 16.0706 8.99791 16.0706 8.99791 16.0706L8.93628 16.0093Z" fill="white"/>
<path d="M9.86076 17.3587C9.7375 17.3587 9.61424 17.2361 9.7375 17.1134C9.61424 16.9907 9.24446 17.1134 9.05957 17.2361C9.1212 17.2361 9.18283 17.2361 9.24446 17.3587C9.30609 17.2974 9.36772 17.052 9.49098 17.1134C9.55261 17.2974 9.49098 17.2361 9.42935 17.3587C9.55261 17.2361 9.67587 17.5427 9.92239 17.4814C9.86076 17.4201 9.86076 17.4201 9.79913 17.3587C9.79913 17.3587 9.86076 17.4201 9.86076 17.3587Z" fill="white"/>
<path d="M8.998 16.9907C8.93637 16.9907 8.93637 17.052 8.81311 17.1747C8.87474 17.2974 8.93637 17.2974 8.998 17.2974V16.9907Z" fill="white"/>
<path d="M8.99791 16.684C9.12117 16.7454 9.1828 16.868 9.30606 16.7454C9.30606 16.5613 9.1828 16.6227 9.12117 16.5613C9.1828 16.8067 9.05954 16.4387 8.99791 16.684C8.99791 16.6227 8.99791 16.5613 8.99791 16.5613C8.99791 16.6227 8.93628 16.684 8.93628 16.684C8.93628 16.6227 8.93628 16.6227 8.99791 16.684C8.93628 16.6227 8.99791 16.684 8.99791 16.684C8.93628 16.7454 8.93628 16.684 8.99791 16.684H8.93628C8.93628 16.8067 8.99791 16.868 8.99791 16.9294C8.99791 16.868 8.99791 16.8067 8.99791 16.684Z" fill="white"/>
<path d="M9.61429 15.4573C9.61429 15.4573 9.55266 15.3959 9.55266 15.3346C9.61429 15.2732 9.61429 15.3346 9.67592 15.3346C9.67592 15.2732 9.61429 15.2119 9.49103 15.2732C9.4294 15.3959 9.24451 15.4573 9.24451 15.4573C9.4294 15.5186 9.49103 15.5186 9.61429 15.4573Z" fill="white"/>
<path d="M9.30615 16.0706C9.30615 16.132 9.36778 16.1933 9.36778 16.316C9.42941 16.2546 9.42941 16.2546 9.49104 16.1933H9.42941C9.42941 16.0706 9.36778 16.0706 9.30615 16.0706Z" fill="white"/>
<path d="M8.93637 17.2974H8.81311L8.998 17.4201L8.93637 17.2974Z" fill="white"/>
<path d="M8.99789 17.6041H8.87463L8.99789 17.6654V17.6041Z" fill="white"/>
<path d="M14.2366 22.5112C14.2982 22.6338 14.4215 22.8178 14.4215 22.6952V22.5725C14.2982 22.5112 14.2366 22.5112 14.2366 22.5112Z" fill="white"/>
<path d="M18.5506 20.487C18.489 20.5483 18.5506 20.5483 18.5506 20.6097C18.5506 20.5483 18.5506 20.487 18.5506 20.487Z" fill="white"/>
<path d="M19.3518 14.9052H19.2285C19.2285 14.9666 19.2901 14.9052 19.3518 14.9052Z" fill="white"/>
<path d="M10.3538 20.4256C10.3538 20.5483 10.4154 20.6097 10.4154 20.671C10.4154 20.5483 10.477 20.4256 10.3538 20.4256Z" fill="white"/>
<path d="M21.2008 17.2974C21.2008 17.2361 21.1392 17.2361 21.1392 17.2361C21.1392 17.2361 21.1392 17.2974 21.2008 17.2974Z" fill="white"/>
<path d="M10.6003 20.855C10.6003 20.855 10.6003 20.7937 10.6003 20.855C10.5387 20.7937 10.477 20.7323 10.4154 20.671C10.477 20.7323 10.477 20.855 10.6003 20.855Z" fill="white"/>
<path d="M10.9701 11.5929L11.0317 11.5316C11.0317 11.4703 11.0317 11.5316 10.9701 11.5929Z" fill="white"/>
<path d="M9.30611 18.8309C9.24448 18.7695 9.24448 18.8309 9.30611 18.8309V18.8309Z" fill="white"/>
<path d="M9.24443 18.7695C9.24443 18.7082 9.24443 18.7082 9.24443 18.7695C9.24443 18.7082 9.1828 18.7082 9.24443 18.7695Z" fill="white"/>
<path d="M15.8389 20.9164C15.7773 21.1004 15.7157 21.1004 15.6541 21.039L15.7773 21.4071L15.8389 20.9164Z" fill="white"/>
<path d="M19.7216 16.0706L19.5984 16.1933C19.4135 16.0706 19.4751 15.948 19.2902 16.0706C19.7216 16.0706 19.4135 16.5 19.7833 16.5613L19.7216 16.6227C19.7216 16.6227 19.7216 16.6227 19.7216 16.5613C19.5367 16.7454 20.0298 16.684 19.9682 16.868C19.9065 16.9294 19.8449 16.9907 19.8449 16.9294C19.9065 16.9907 19.9065 17.052 19.9065 17.1134C19.9065 17.1747 19.8449 17.1134 19.8449 17.1134V17.3587C19.9065 17.4201 19.9681 17.4814 20.0298 17.5427C19.9681 17.6041 19.9682 17.4814 19.9682 17.4814L20.0298 17.6654C19.9065 17.7268 19.8449 17.5427 19.8449 17.4814C19.4135 17.5427 19.9681 17.6041 19.5984 17.7881V17.6654C19.3518 17.6654 19.4135 17.7881 19.2286 17.8494C19.2902 17.8494 19.66 17.7268 19.7216 17.8494C19.66 17.8494 19.66 17.9108 19.7216 18.0335C19.5984 17.9721 19.5984 18.0948 19.5984 18.1561L19.4135 18.0948C19.4135 18.2175 19.5367 18.2175 19.5984 18.3401C19.5367 18.4628 19.3518 18.4015 19.2286 18.3401C19.1053 18.4628 19.4751 18.3401 19.4135 18.5242C19.2902 18.6468 19.2902 18.7695 19.2902 18.9535C19.167 19.0149 19.2286 18.8922 19.1053 18.8922L19.167 19.0762C19.167 19.0762 19.1053 19.0762 19.1053 19.0149C19.1053 19.1375 19.2902 19.1375 19.2286 19.2602C19.3518 19.4442 18.7972 19.2602 18.8588 19.5669C18.7972 19.5669 18.7972 19.4442 18.7355 19.4442C18.6739 19.6896 18.6739 19.6283 18.6739 19.9349C18.6123 19.9349 18.5507 19.9349 18.489 19.9349C18.6739 19.9963 18.6739 20.1803 18.6123 20.4256C18.6739 20.4256 18.7355 20.487 18.7972 20.487L18.6739 20.7323C18.6123 20.7323 18.6123 20.671 18.6123 20.5483V20.6097C18.489 20.6097 18.489 20.487 18.4274 20.3643C18.489 20.3643 18.489 20.4256 18.5507 20.4256C18.5507 20.303 18.489 20.1803 18.4274 20.0576V20.119C18.4274 20.0576 18.4274 20.0576 18.3658 20.0576C18.3658 20.0576 18.3658 20.119 18.3658 20.1803L18.1192 20.0576L18.1809 20.119C18.0576 20.119 17.996 20.1803 17.8727 20.1803C17.8111 20.487 17.8727 20.855 17.5646 21.1004C17.5646 20.9164 17.4413 20.855 17.3797 20.671C17.5646 20.7937 17.5646 20.487 17.7495 20.4256C17.6878 20.4256 17.6262 20.3643 17.6262 20.303C17.5646 20.4256 17.5029 20.487 17.4413 20.6097C17.3797 20.487 17.3181 20.5483 17.2564 20.487C17.4413 20.7323 17.1332 20.7937 17.0715 20.9164C17.0099 20.7937 17.0099 20.7323 17.1332 20.671C16.8866 20.487 17.0715 21.1004 16.825 20.9777C16.8866 20.9777 16.8866 20.9777 16.8866 20.9164C16.825 21.039 16.6401 21.039 16.6401 20.9164H16.7017C16.4552 20.9777 16.0238 21.1004 16.0238 21.3457C16.0238 21.2844 15.9622 21.039 15.9622 20.9777C15.9006 21.2844 15.7773 21.5911 15.654 21.8978C15.654 21.6524 15.4691 21.1617 15.5924 21.039C15.5308 21.039 15.4691 20.9777 15.3459 21.1004C15.4075 21.1004 15.4691 21.4071 15.4075 21.4684C15.2226 21.223 15.2843 21.3457 15.0994 21.1617C15.161 21.223 15.0994 21.5911 15.0377 21.5297C15.0377 21.4684 15.0377 21.1617 15.0377 21.1617C14.9761 21.2844 14.9145 21.4071 14.7912 21.5297C14.8528 21.4684 14.7912 21.223 14.7296 21.1617C14.7296 21.223 14.5447 21.1617 14.4831 21.1617L14.5447 21.223C14.2982 21.1617 14.2365 21.7138 13.99 21.6524C14.0516 21.5911 14.1133 21.223 13.99 21.1617C13.9284 21.3457 13.6202 21.9591 13.3121 22.0204V21.8978C13.2505 21.8978 13.1888 21.9591 13.0656 21.9591C13.2505 21.7138 13.6819 21.2844 13.8668 21.1004C13.8051 20.9777 13.8668 20.9777 13.7435 20.9777C13.7435 20.855 13.8668 20.855 13.8668 20.855L13.8051 20.7323C13.7435 20.9164 13.497 20.855 13.497 21.039C13.6202 21.039 13.7435 20.9777 13.8668 20.9164C13.8668 21.1004 13.5586 21.4684 13.3121 21.3457C13.2505 21.223 13.497 21.039 13.497 20.9164C13.4353 20.9777 13.2505 20.9777 13.2505 20.9164L13.3737 20.855C13.3121 20.7323 13.0656 21.039 13.0039 20.7937C12.9423 20.7323 13.0039 20.487 12.9423 20.6097C12.9423 20.855 12.6342 21.5297 12.5109 21.6524C12.5109 21.6524 12.326 21.3457 12.326 21.1617C12.326 20.9777 12.6342 20.855 12.6958 20.671C12.6958 20.7323 12.5725 20.7323 12.5725 20.7323C12.5725 20.671 12.6958 20.6097 12.5725 20.5483C12.4493 20.7323 12.3876 20.4256 12.4493 20.671C12.326 20.671 12.3876 20.5483 12.2644 20.487C12.2027 20.6097 11.8946 20.7937 11.7713 20.7323C11.833 20.671 11.833 20.6097 11.833 20.6097C11.6481 20.4256 11.5864 20.2416 11.4015 20.0576C11.4015 19.9963 11.4015 19.8736 11.4632 19.8736C11.4015 19.8736 11.3399 19.8736 11.2783 19.8736C11.3399 19.6283 11.4015 19.9963 11.5248 19.7509C11.4015 19.8123 11.2783 19.7509 11.155 19.6896C11.0318 19.8123 11.2783 19.9349 11.4015 19.9349C11.2167 20.119 10.8469 20.1803 10.6004 19.9963C10.4155 19.8736 10.662 19.8123 10.6004 19.8123C10.4155 19.4442 10.0457 19.7509 9.98405 19.3216C10.0457 19.1375 10.2922 19.1375 10.3538 19.0762C10.4771 19.1989 10.4155 19.3829 10.4771 19.4442V19.2602C10.5387 19.2602 10.662 19.3829 10.662 19.4442C10.7236 19.2602 10.3538 18.8309 10.3538 18.5242C10.2922 18.5242 10.1689 18.4015 10.1689 18.5242L10.2306 18.5855C10.1689 18.7082 9.98405 18.4628 9.98405 18.6468C9.86079 18.5855 9.6759 18.4628 9.6759 18.2175L9.86079 18.1561C9.79916 18.1561 9.79916 18.2788 9.86079 18.3401C9.73753 18.2788 9.98405 17.9721 9.73753 17.9721C9.6759 18.0335 9.6759 18.0948 9.6759 18.1561C9.55264 18.0335 9.30612 17.9108 9.36775 17.7268C9.18286 17.8494 9.36775 17.7881 9.18286 17.9108C9.42938 17.7268 9.30612 18.3401 9.49101 18.0948C9.30612 18.2788 9.42938 18.3401 9.30612 18.5855C9.36775 18.5855 9.42938 18.4628 9.42938 18.6468H9.49101C9.49101 18.5855 9.55264 18.5855 9.55264 18.5242C9.6759 18.5242 9.79916 18.7695 9.92242 18.8309C9.92242 18.8922 9.86079 18.8309 9.79916 18.8922L9.92242 18.9535C9.79916 19.0149 9.79916 19.2602 9.6759 19.0762L9.73753 19.2602C9.73753 19.3829 9.79916 19.5669 9.86079 19.6283C9.86079 19.7509 10.1073 19.7509 9.98405 19.7509C10.0457 19.8123 10.1073 19.8736 10.2306 19.9349C10.4155 20.1803 10.7852 20.303 10.8469 20.671C10.9701 20.7323 11.0318 20.7937 11.155 20.9164L11.0934 21.039C11.2167 21.1004 11.3399 21.4071 11.4632 21.3457C11.4015 21.7138 11.9562 21.7751 12.1411 21.9591L12.2027 21.8364C12.326 21.8978 12.5109 21.9591 12.6958 21.9591L12.7574 21.8364C12.9423 21.8364 13.1272 22.0818 13.3737 22.1431C13.3121 22.2045 13.2505 22.1431 13.2505 22.0818C13.497 22.5111 13.9284 22.0204 14.1749 22.3271C14.2365 22.2658 14.2982 22.3271 14.3598 22.3271L14.4214 22.3885C14.4214 22.3271 14.3598 22.3271 14.3598 22.3271C14.4214 22.3271 14.4831 22.3271 14.6063 22.2658V22.3885C14.668 22.4498 14.668 22.3271 14.668 22.2045C14.7296 22.2045 14.7296 22.1431 14.7912 22.1431C14.8528 22.3885 14.9761 22.0818 15.0994 22.3271C15.161 22.2045 15.5308 22.2658 15.5308 21.9591C15.5308 22.0204 15.5308 22.0204 15.5308 22.0204C15.5924 22.0204 15.7157 22.0818 15.7773 21.9591L15.8389 22.1431L16.0238 21.8978C16.1471 22.0204 16.2087 22.0818 16.1471 22.2045C16.3936 21.9591 16.332 22.0818 16.5169 21.8364V21.9591C16.5785 21.9591 16.7017 21.7751 16.7634 21.8364C16.8866 21.8978 17.1332 21.8978 17.3797 21.7751C17.6262 21.6524 17.9344 21.5911 18.1809 21.5911C17.9344 21.2844 18.4274 21.6524 18.3658 21.4071C18.4274 21.4684 18.489 21.4684 18.489 21.5911C18.6739 21.4071 18.9204 21.5297 18.9204 21.223C18.9821 21.2844 18.9204 21.3457 18.9821 21.4071C18.9821 21.4071 18.9821 21.2844 19.0437 21.3457C19.1053 21.3457 19.0437 21.4071 19.0437 21.4684C19.2902 21.3457 19.1053 21.1004 18.9821 20.855C19.167 20.855 19.167 20.7937 19.167 20.6097C19.2286 20.671 19.3518 20.671 19.2286 20.7937C19.2902 20.7323 19.7216 20.5483 19.5984 20.3643C19.66 20.3643 19.7216 20.303 19.7216 20.2416C19.8449 20.119 19.9065 20.119 20.0298 19.9349H19.9682C19.8449 19.7509 20.0298 19.8123 20.0914 19.6283C20.4612 19.4442 20.0914 19.4442 20.4612 19.2602L20.3379 19.1989C20.0914 19.0149 20.6461 19.0149 20.6461 18.7695H20.5228C20.4612 18.6468 21.0775 18.6468 21.1391 18.5855C21.2008 18.5855 21.1391 18.6468 21.1391 18.7082C21.4473 18.4628 20.9542 18.5855 21.0159 18.3401C21.1391 18.3401 21.2624 18.4628 21.324 18.3401C21.4473 18.2788 21.1391 17.7881 21.3856 17.6654C21.324 17.6654 21.2008 17.7268 21.2008 17.6041C21.2008 17.4201 21.5705 17.2361 21.324 17.052H21.3856C21.324 16.9294 21.2624 16.6227 21.1391 16.5613C21.3856 16.5 21.324 16.316 21.2624 16.132C21.2008 15.948 21.0775 15.8253 21.324 15.8253C21.324 15.7026 21.2624 15.5799 21.2624 15.4572H21.324C21.324 15.2119 21.2008 15.1506 21.0775 15.0892C21.0775 15.0279 21.1391 15.0892 21.2008 15.0892C21.2008 14.7212 21.2008 14.7212 20.8926 14.4758L21.0159 14.4145C20.8926 14.3532 21.0775 13.8625 20.7693 13.6171H20.831C20.5228 13.3717 20.831 12.5743 20.2763 12.7584C20.2147 12.697 20.153 12.6357 20.0298 12.6357C20.153 12.9424 19.7833 12.697 19.7833 12.881C19.7216 12.8197 19.7216 12.513 19.8449 12.6357V12.697C20.0914 12.5743 19.7216 12.329 19.9065 12.2063C19.5367 11.7156 19.2286 11.1636 18.7972 10.7342L18.6739 10.9182C18.6123 10.8569 18.5507 10.8569 18.489 10.7955C18.489 10.7342 18.5507 10.6115 18.6739 10.7342C18.6739 10.6115 18.4274 10.6729 18.3658 10.6729C18.1809 10.4275 18.6123 10.5502 18.5507 10.4888L18.4274 10.4275V10.4888C18.3041 10.4888 18.2425 10.5502 18.1192 10.4888C18.0576 10.3662 18.1192 10.3662 18.1192 10.3048C18.1192 10.3048 18.1192 10.3048 18.0576 10.2435L17.5029 10.1822V10.3662C17.3797 10.3662 17.3181 10.2435 17.3181 10.4888C17.3181 10.1208 16.4552 9.99814 16.3936 9.87546C16.2087 9.9368 16.0238 9.9368 15.8389 9.87546C15.9006 9.9368 15.9006 10.1208 15.7157 10.0595C15.8389 9.63011 15.4075 9.87546 15.2843 9.56877C15.4075 9.75279 14.7912 9.63011 14.9761 9.87546C14.8528 9.87546 14.9761 9.69145 14.8528 9.63011C14.4831 9.81412 14.0516 9.63011 13.6202 9.81412C13.6202 9.87546 13.7435 9.9368 13.6819 10.0595L13.3737 9.81412C13.3121 9.87546 13.4353 10.1208 13.1888 9.99814C13.2505 10.0595 13.3121 10.0595 13.2505 10.1208C12.819 10.1822 12.4493 10.4275 12.1411 10.6729C11.833 10.9182 11.4632 11.1636 11.0318 11.3476C11.2167 11.3476 11.155 11.4089 11.0934 11.4703C11.155 11.4703 11.2167 11.5929 11.2783 11.5929C11.155 11.6543 11.0318 11.6543 10.9085 11.7156C11.0318 11.8996 10.662 12.0223 10.7852 12.145L10.8469 12.0223C10.9085 12.2677 11.3399 12.2063 11.5864 12.3903C11.4632 12.0836 12.1411 12.3903 12.0179 11.961C12.0795 11.961 12.0795 12.0836 12.1411 12.0836C12.0795 11.961 12.1411 11.8996 12.2644 11.8383V11.8996C12.5109 11.6543 12.7574 11.6543 13.1272 11.4703L13.0039 11.3476C13.0656 11.2862 13.1272 11.3476 13.1888 11.3476C13.1888 11.1022 12.9423 11.4703 12.9423 11.2249C13.1888 11.4089 13.497 10.9182 13.7435 11.2249C13.8668 11.1636 13.6202 11.1022 13.7435 11.0409L13.8051 11.1022V10.9796C13.8668 10.9796 13.99 11.0409 13.99 11.1022L13.9284 11.1636C14.0516 11.2249 14.1749 11.0409 14.2365 11.0409H14.1133C14.4214 10.8569 14.8528 10.8569 15.161 10.6729V10.6115C15.4075 10.4888 15.3459 10.6729 15.654 10.6729C15.7157 10.6115 15.7773 10.5502 15.9006 10.6115C15.8389 10.6729 16.0238 10.7955 15.9006 10.8569C16.2087 10.7955 16.0238 10.7955 16.332 10.5502V10.6729C16.4552 10.6115 16.4552 10.5502 16.5785 10.5502C16.4552 10.6115 16.5785 10.7342 16.4552 10.7955C16.6401 11.1636 17.0099 10.7342 16.9483 11.1022C17.1948 10.9182 16.7634 10.7955 16.8866 10.7955C16.8866 10.6729 17.1332 10.6115 17.1948 10.7342C17.2564 10.7955 17.1332 11.1636 17.3797 11.2862H17.3181C17.3797 11.4089 17.5029 11.2862 17.5646 11.4703C17.7495 11.3476 17.6878 11.5929 17.8111 11.4089L17.5646 11.2862C17.6878 11.2862 17.996 11.1636 18.0576 11.4089C17.996 11.4089 17.9344 11.4703 17.8727 11.4703C17.8727 11.5929 17.996 11.5316 17.996 11.5929C17.8111 11.7769 17.7495 11.4703 17.5029 11.5316C17.5029 11.6543 17.8111 11.5316 17.6262 11.7156C17.9344 11.5316 17.8111 11.8996 18.0576 11.8383L17.9344 11.961C17.996 11.961 18.0576 11.961 18.1192 11.961L17.9344 12.0223C18.1192 12.0223 17.996 12.2677 18.1809 12.329C17.996 12.145 18.2425 12.145 18.2425 12.0223C18.6123 12.145 18.1192 12.4517 18.3658 12.6357C18.3041 12.6357 18.3041 12.4517 18.4274 12.4517C18.4274 12.513 18.489 12.6357 18.4274 12.697C18.6123 12.881 18.5507 12.5743 18.6739 12.5743C18.6123 12.7584 18.7972 12.6357 18.9204 12.697L18.7972 12.7584C18.8588 13.0651 19.1053 12.6357 19.167 12.9424H18.9204L19.0437 13.0037L18.8588 13.0651C19.0437 13.1264 19.0437 13.1877 19.0437 13.3104C19.1053 13.2491 19.2902 13.1877 19.3518 13.3104C19.2902 13.4331 19.2286 13.3104 19.2902 13.4944C19.167 13.4944 19.0437 13.4944 19.167 13.3717C19.1053 13.3717 19.0437 13.3717 19.0437 13.3717C18.9821 13.4944 19.1053 13.5558 19.167 13.6171V13.5558C19.2902 13.6171 19.3518 13.6171 19.4751 13.6784C19.4135 13.7398 19.4135 13.7398 19.3518 13.7398C19.4135 13.8011 19.4751 13.8011 19.5367 13.8625C19.4135 13.9238 19.2902 13.9238 19.2286 13.8625L19.4751 14.0465C19.4135 14.1078 19.4135 14.2305 19.3518 14.2305C19.3518 14.3532 19.7216 14.4758 19.66 14.6598C19.66 14.6598 19.7216 14.6598 19.7216 14.7212C19.7216 14.9052 19.66 15.0892 19.8449 15.2119L19.66 15.3346C19.7216 15.4572 19.9065 15.1506 20.0298 15.3959C20.153 15.5799 19.8449 15.5186 19.8449 15.5799C19.9681 15.6413 20.2147 15.7639 20.0298 15.948C19.7216 16.132 19.7216 16.0706 19.7216 16.0706ZM19.66 17.9108C19.66 17.8494 19.5984 17.7881 19.66 17.7881C19.7833 17.8494 19.7216 17.8494 19.66 17.9108ZM18.1809 20.4256C18.1809 20.3643 18.2425 20.3643 18.3041 20.3643C18.2425 20.4256 18.2425 20.4256 18.1809 20.4256ZM9.6759 19.4442C9.6759 19.5669 9.6759 19.5056 9.6759 19.4442V19.4442ZM9.6759 19.1989C9.61427 19.1989 9.61427 19.1989 9.6759 19.1989C9.6759 19.1989 9.6759 19.2602 9.6759 19.3216C9.6759 19.2602 9.6759 19.2602 9.6759 19.1989ZM17.7495 10.4275C17.6878 10.4888 17.6878 10.4275 17.7495 10.4275V10.4275Z" fill="white"/>
<path d="M18.3041 20.0576L18.3657 20.119C18.3657 20.0576 18.3657 20.0576 18.3041 20.0576Z" fill="white"/>
<path d="M12.5725 20.5483C12.5725 20.6097 12.5725 20.6097 12.5725 20.671C12.6341 20.671 12.6341 20.6097 12.5725 20.5483Z" fill="white"/>
<path d="M8.99792 18.1561L9.05956 18.2788C9.05956 18.2175 9.05956 18.1561 9.05956 18.1561C9.05956 18.2175 8.99792 18.2175 8.99792 18.1561Z" fill="white"/>
<path d="M9.73752 16.868C9.67589 16.868 9.73752 16.868 9.73752 16.868L9.61426 16.8067C9.61426 16.9294 9.67589 16.9907 9.73752 16.868Z" fill="white"/>
<path d="M9.42932 17.9108C9.55258 17.8494 9.49095 17.7881 9.42932 17.7268C9.30606 17.7881 9.36769 17.8494 9.42932 17.9108Z" fill="white"/>
<path d="M9.49096 17.7268V17.6654C9.3677 17.6654 9.42933 17.6654 9.49096 17.7268Z" fill="white"/>
<path d="M9.49095 18.9535C9.49095 18.8922 9.30606 19.0149 9.36769 18.9535C9.1828 19.0149 9.61421 19.1989 9.49095 18.9535Z" fill="white"/>
<path d="M9.86079 17.7881L9.6759 17.8494H9.86079V17.7881Z" fill="white"/>
<path d="M9.92235 18.4628V18.3401H9.86072C9.86072 18.4015 9.86072 18.5242 9.92235 18.4628Z" fill="white"/>
<path d="M9.86082 18.2788C9.86082 18.2175 9.86082 18.2175 9.79919 18.1561C9.79919 18.2175 9.86082 18.2788 9.86082 18.2788Z" fill="white"/>
<path d="M10.6003 19.8123L10.7236 19.9349C10.7852 19.9349 10.7852 19.8736 10.7236 19.8123C10.7236 19.8123 10.662 19.8123 10.6003 19.8123Z" fill="white"/>
<path d="M10.7236 19.2602C10.7236 19.3216 10.662 19.3216 10.662 19.3829L10.8469 19.2602H10.7236Z" fill="white"/>
<path d="M10.9701 19.5669C11.0317 19.5669 11.2166 19.6282 11.0934 19.5056C11.0934 19.5056 10.9701 19.4442 10.9701 19.5669Z" fill="white"/>
<path d="M12.5108 21.1617V21.1004L12.3259 21.4071L12.5108 21.1617Z" fill="white"/>
<path d="M14.4831 20.9164C14.3598 20.855 14.4214 21.1004 14.2982 20.9777C14.2365 21.039 14.4214 21.039 14.3598 21.1004C14.4831 21.1004 14.5447 21.1004 14.4831 20.9164Z" fill="white"/>
<path d="M10.5387 11.8383L10.4154 11.8996H10.5387V11.8383Z" fill="white"/>
<path d="M10.5387 12.145L10.3538 12.0223L10.477 12.2063L10.5387 12.145Z" fill="white"/>
<path d="M19.5984 16.8067V16.868L19.7833 16.8067H19.5984Z" fill="white"/>
<path d="M19.2902 15.7639C19.2902 15.8253 19.3518 15.8253 19.3518 15.8866C19.2902 15.8253 19.5367 15.7026 19.2902 15.7639Z" fill="white"/>
<path d="M27.5487 22.4498C27.4871 22.5725 27.4871 22.5112 27.4871 22.5725C27.6103 22.3885 27.5487 22.4498 27.5487 22.4498Z" fill="white"/>
<path d="M29.0278 20.7323V20.7937L29.2127 20.487L29.0278 20.7323Z" fill="white"/>
<path d="M30.1988 18.9535C30.0755 19.1376 29.8907 19.6896 29.6441 19.9963L29.5825 20.0576L29.5209 20.2416C29.829 19.8123 30.0755 19.1989 30.1988 18.9535Z" fill="white"/>
<path d="M30.6918 17.8494C30.6301 17.9108 30.7534 17.6041 30.6301 18.0948V18.0335C30.6301 18.0335 30.6918 17.9721 30.6918 17.8494Z" fill="white"/>
<path d="M30.6302 18.0948C30.5686 18.2788 30.6918 17.9108 30.6302 18.0948V18.0948Z" fill="white"/>
<path d="M30.7534 16.9907C30.7534 17.1134 30.7534 17.2361 30.7534 17.2974C30.7534 17.2361 30.7534 16.9294 30.7534 17.052C30.815 16.684 30.815 16.8067 30.7534 16.9907Z" fill="white"/>
<path d="M30.6918 16.684V16.868C30.7534 16.8067 30.7534 16.7454 30.6918 16.684Z" fill="white"/>
<path d="M30.7534 17.1747C30.7534 17.052 30.7534 16.9294 30.6918 16.8067C30.6918 16.868 30.6918 16.868 30.6918 16.9907C30.7534 16.9907 30.7534 17.052 30.7534 17.1747Z" fill="white"/>
<path d="M30.7534 17.3587C30.6918 17.5427 30.6918 17.7881 30.6918 17.4201C30.6301 17.7268 30.6301 17.8494 30.6301 17.8494C30.6301 17.8494 30.7534 17.7268 30.7534 17.3587Z" fill="white"/>
<path d="M30.1988 18.8309L30.0755 19.0149L30.0139 19.1989C30.0755 19.0762 30.1988 18.7695 30.1988 18.8309Z" fill="white"/>
<path d="M30.815 15.1506L30.7534 15.2732V15.5186C30.7534 15.3959 30.7534 15.2119 30.815 15.1506Z" fill="white"/>
<path d="M30.6301 16.6227C30.6918 16.8067 30.6918 16.9907 30.7534 17.1747C30.7534 16.9294 30.6918 16.7454 30.6301 16.5V16.6227Z" fill="white"/>
<path d="M31 14.4145V14.5372V14.6599C31 14.4145 30.9384 14.4145 30.9384 14.2305C30.9384 14.2918 31 14.3532 31 14.4145Z" fill="white"/>
<path d="M30.7535 13.4331C30.8767 13.5558 30.7535 13.1877 30.8151 13.3717C30.6918 13.1264 30.5686 12.9424 30.4453 12.8197C30.5686 13.0037 30.6918 13.1877 30.7535 13.4331Z" fill="white"/>
<path d="M30.2604 12.5743C30.322 12.6357 30.3836 12.7584 30.4453 12.8197C30.3836 12.697 30.322 12.6357 30.2604 12.5743Z" fill="white"/>
<path d="M30.8767 15.0892C30.9383 15.0892 30.9383 15.0279 30.9383 14.7212L30.8767 14.9052C30.8767 14.9665 30.9383 15.0892 30.8767 15.0892Z" fill="white"/>
<path d="M30.6302 15.8253C30.6302 15.6413 30.6302 15.2732 30.5686 15.6413C30.5686 15.7639 30.5686 15.5186 30.6302 15.8253Z" fill="white"/>
<path d="M30.815 14.8439C30.815 14.7825 30.815 14.7212 30.815 14.7212C30.7534 14.7212 30.815 14.7825 30.815 14.8439C30.7534 14.7825 30.6918 14.7825 30.6918 14.8439C30.6918 14.9052 30.6918 14.9665 30.6301 14.9665C30.6301 14.9665 30.6918 14.9052 30.6918 14.9665V14.7825C30.6301 14.7212 30.815 14.7825 30.7534 14.7212C30.815 14.7212 30.815 14.7825 30.815 14.8439Z" fill="white"/>
<path d="M30.8151 15.0279C30.8767 14.9665 30.8151 14.9052 30.8151 14.7825C30.8151 14.9052 30.8151 14.9665 30.8151 15.0279Z" fill="white"/>
<path d="M30.5069 13.1264C30.3836 13.0037 30.322 12.8197 30.1987 12.697C30.322 12.881 30.3836 13.0651 30.5069 13.2491C30.5685 13.3104 30.6301 13.3717 30.5069 13.1264Z" fill="white"/>
<path d="M29.1511 11.1636L29.2128 11.2249L29.1511 11.1636Z" fill="white"/>
<path d="M30.507 13.3104C30.5686 13.4944 30.6302 13.5558 30.6919 13.6171C30.6302 13.4944 30.5686 13.3717 30.507 13.3104C30.507 13.2491 30.507 13.2491 30.507 13.3104Z" fill="white"/>
<path d="M29.9523 12.145C30.0139 12.2063 30.0139 12.329 30.0755 12.3903C30.0755 12.329 30.0139 12.145 29.9523 12.145Z" fill="white"/>
<path d="M30.815 13.8011C30.7534 13.7398 30.7534 13.6784 30.6918 13.6171C30.7534 13.7398 30.7534 13.8011 30.815 13.8011C30.815 13.8624 30.815 13.8624 30.815 13.8011Z" fill="white"/>
<path d="M28.4115 11.0409C28.4731 11.0409 28.7812 11.2862 28.9661 11.5929C29.2127 11.8383 29.2743 11.5316 29.2127 11.1636C29.151 11.1636 29.151 11.1636 28.9045 10.9182C28.9661 11.0409 29.2743 11.5929 29.0894 11.4089C28.7812 11.0409 28.9045 11.1022 28.7812 10.9182C28.8429 11.1022 28.2882 10.5502 28.2882 10.7342L28.5964 11.0409C28.4731 11.0409 28.3498 10.9796 28.4115 11.0409Z" fill="white"/>
<path d="M29.5824 11.7156L29.6441 11.8383C29.5824 11.7156 29.5208 11.5929 29.4592 11.3476C29.2743 11.1636 29.2126 11.1636 29.2126 11.1636L29.5824 11.7156Z" fill="white"/>
<path d="M30.0139 12.3903C29.8907 12.329 29.6442 12.0836 29.7058 12.2677C29.9523 12.6357 29.9523 12.4517 30.0756 12.697C29.7058 12.145 30.2605 12.8197 30.0139 12.3903C30.0756 12.513 30.1372 12.6357 30.1988 12.697C30.1988 12.5743 30.1372 12.513 30.0139 12.3903C30.0756 12.4517 30.0756 12.4517 30.0139 12.3903C30.0756 12.3903 30.0139 12.3903 30.0139 12.3903C29.9523 12.2063 30.0139 12.329 30.0139 12.3903C30.0756 12.3903 30.0756 12.3903 30.0139 12.3903C29.9523 12.2063 29.7674 12.0223 29.6442 11.8383C29.7058 11.961 29.8291 12.145 30.0139 12.3903Z" fill="white"/>
<path d="M30.5069 14.9665C30.5069 15.0279 30.5069 15.0279 30.5069 15.2119C30.5069 15.3346 30.5069 15.2119 30.4453 15.2119C30.4453 15.3346 30.4453 15.5186 30.5069 15.2732V15.2119C30.5069 15.0892 30.5686 14.9052 30.6302 14.8439C30.6302 14.7825 30.7535 14.7825 30.7535 14.7212C30.7535 14.7212 30.7535 14.7825 30.7535 14.7212C30.7535 14.6598 30.6918 14.7212 30.6918 14.7212C30.6918 14.7212 30.6302 14.7212 30.6302 14.7825C30.5686 14.8439 30.5686 14.9052 30.5069 14.9665Z" fill="white"/>
<path d="M30.6302 13.8625C30.5686 13.6784 30.4453 13.4944 30.3837 13.3104L30.4453 13.6171C30.5686 13.9238 30.5686 13.8625 30.6302 13.8625Z" fill="white"/>
<path d="M29.1511 11.1022H29.2743L28.9662 10.9182L29.1511 11.1022Z" fill="white"/>
<path d="M28.7196 10.4888H28.7812L28.658 10.3662L28.7196 10.4888Z" fill="white"/>
<path d="M15.2227 0.858734C14.9145 0.858734 14.6064 0.797395 14.7296 0.920072L14.8529 1.04275C14.9761 0.920072 15.0994 0.858734 15.2227 0.858734Z" fill="white"/>
<path d="M4.74548 7.29926H4.80711C4.86874 7.23792 4.93037 7.23792 4.93037 7.17658C4.86874 7.23792 4.80711 7.23792 4.74548 7.29926Z" fill="white"/>
<path d="M4.56061 7.78996L4.31409 7.72862C4.37572 7.72862 4.43735 7.72862 4.56061 7.78996Z" fill="white"/>
<path d="M3.14307 22.0818L3.32796 22.1431C3.14307 21.9591 3.2047 22.0818 3.14307 22.0818Z" fill="white"/>
<path d="M24.9603 4.04832C24.8986 3.86431 24.7754 3.68029 24.7137 3.55762C24.837 3.86431 24.837 4.04832 24.9603 4.04832Z" fill="white"/>
<path d="M0.369751 16.1933C0.369751 16.316 0.369751 16.316 0.431381 16.316C0.431381 16.2547 0.369751 16.1933 0.369751 16.1933Z" fill="white"/>
<path d="M24.3439 3.06692C24.3439 3.12826 24.4055 3.12826 24.4055 3.18959C24.5288 3.31227 24.652 3.43495 24.7137 3.55762C24.652 3.37361 24.5904 3.18959 24.3439 3.06692Z" fill="white"/>
<path d="M21.3856 28.7677C21.4473 28.7063 21.4473 28.7677 21.3856 28.7677V28.7677Z" fill="white"/>
<path d="M26.2545 24.1673C26.1928 24.2286 26.1312 24.29 26.0696 24.4126C26.1312 24.3513 26.1312 24.29 26.2545 24.1673Z" fill="white"/>
<path d="M27.179 8.09666C27.3022 8.21933 27.2406 8.09666 27.179 8.09666V8.09666Z" fill="white"/>
<path d="M27.2406 8.95539C27.2406 8.95539 27.179 8.89405 27.179 8.95539C27.179 8.89405 27.179 8.89405 27.2406 8.95539Z" fill="white"/>
<path d="M27.3021 8.28067C27.3021 8.21933 27.2405 8.158 27.2405 8.09666C27.2405 8.158 27.2405 8.21933 27.3021 8.28067Z" fill="white"/>
<path d="M27.3021 8.28067C27.3021 8.34201 27.3638 8.34201 27.3638 8.40335C27.3638 8.40335 27.3638 8.34201 27.3021 8.28067Z" fill="white"/>
<path d="M27.1173 7.91264C27.1789 7.97398 27.1789 8.03532 27.2406 8.09666V8.03532C27.1789 8.03532 27.1789 7.97398 27.1173 7.91264Z" fill="white"/>
<path d="M10.7853 29.7491C10.9085 29.8104 10.8469 29.8104 10.7853 29.7491V29.7491Z" fill="white"/>
<path d="M11.8947 4.35502C12.0179 4.10966 12.1412 4.04832 12.2644 3.98699L11.8947 3.80297V4.35502Z" fill="white"/>
<path d="M1.41746 19.4442V19.0762C1.60236 19.5056 1.60236 19.8123 1.66399 19.4442C1.54073 19.4442 1.41746 19.1375 1.41746 18.7695C1.35583 18.4015 1.35583 18.0948 1.23257 18.0335C1.23257 17.9721 1.2942 17.8494 1.2942 17.7881C1.2942 17.8494 1.2942 17.8494 1.2942 17.9108C1.47909 17.4201 1.10931 17.5428 1.17094 16.9294C1.23257 16.684 1.2942 16.5613 1.2942 16.7454C1.2942 16.5613 1.2942 16.4387 1.2942 16.2546C1.2942 16.132 1.35583 16.132 1.35583 16.316C1.35583 16.0706 1.41746 15.8253 1.41746 15.5799C1.35583 15.4572 1.35583 15.2119 1.35583 15.0892C1.41746 14.9052 1.35583 15.2119 1.41746 15.1506V14.7212C1.54073 14.5985 1.54073 14.9052 1.47909 15.2119C1.84888 14.9052 1.47909 14.8439 1.78725 14.0465L1.72562 14.4145C1.97214 14.2305 1.97214 13.8625 2.15703 13.4331C2.0954 13.5558 1.72562 14.2918 1.72562 13.8011C1.78725 13.6784 1.84888 13.4944 1.78725 13.2491C1.91051 13.2491 1.91051 13.0037 1.97214 12.697L2.0954 12.7584C2.0954 12.4517 2.03377 12.4517 1.97214 12.2677C2.03377 11.8996 2.15703 11.8383 2.28029 11.777C2.40355 11.2249 2.03377 12.145 2.0954 11.4703C2.28029 11.0409 2.28029 10.6729 2.34192 10.1208C2.46518 9.81413 2.40355 10.1822 2.46518 10.1208C2.46518 9.99814 2.46518 9.9368 2.46518 9.81413C2.46518 9.75279 2.52681 9.75279 2.52681 9.81413C2.58844 9.56877 2.40355 9.75279 2.46518 9.38476C2.34192 9.20074 2.95822 8.77138 3.08148 8.34201C3.328 8.34201 3.328 8.46468 3.38963 8.52602C3.63615 8.03532 3.63615 8.09665 3.9443 7.72862H4.12919C4.19082 7.72862 4.25245 7.72862 4.31409 7.72862C4.00593 7.66729 4.31409 7.42193 4.7455 7.29926C4.62224 7.23792 4.49898 7.17658 4.43735 7.17658L5.05365 7.0539C5.11528 7.0539 5.05365 7.11524 4.99202 7.23792C5.05365 7.23792 5.05365 7.17658 5.11528 7.17658C5.3618 7.23792 5.23854 7.29926 5.11528 7.42193C5.05365 7.42193 4.93039 7.36059 4.86876 7.36059C4.7455 7.48327 4.56061 7.60595 4.62224 7.66729C4.68387 7.66729 4.7455 7.60595 4.80713 7.60595C4.7455 7.60595 4.7455 7.66729 4.7455 7.66729C4.7455 7.66729 4.80713 7.66729 4.93039 7.60595L5.11528 7.78996V7.72862C5.42343 7.72862 5.73158 7.72862 5.9781 7.72862C6.53277 7.36059 6.96418 6.99256 7.76538 6.44052C7.64212 6.68587 7.82701 6.68587 7.88864 6.80855C7.58049 6.74721 7.27234 7.23792 6.71766 7.36059C6.96418 7.29926 6.96418 7.36059 6.90255 7.42193C7.14908 7.29926 7.45723 7.11524 7.70375 6.93123C7.76538 7.0539 7.95027 6.93123 8.13516 6.86989C7.82701 6.74721 8.6282 6.37918 8.87472 6.13383C8.93635 6.19517 8.93635 6.31784 8.56657 6.5632C9.12124 6.50186 8.93635 5.94981 9.36776 5.82714C9.30613 5.88848 9.2445 5.88848 9.2445 5.94981C9.42939 5.7658 9.92244 5.45911 9.86081 5.58178L9.79917 5.64312C10.4155 5.27509 11.4632 4.41636 11.4016 4.171C11.4016 4.171 11.5248 4.47769 11.5248 4.53903C11.7097 4.04833 11.833 3.61896 12.0179 3.12825C12.0795 3.37361 12.6958 3.61896 12.2644 3.98699C12.3876 3.92565 12.5725 3.86431 12.8191 3.61896C12.6958 3.61896 12.3876 3.49628 12.5109 3.37361C13.0039 3.37361 12.8191 3.31227 13.3737 3.25093C13.1888 3.31227 13.1888 2.8829 13.4354 2.76022C13.4354 2.82156 13.6202 3.06691 13.5586 3.12825C13.6819 2.94424 13.8051 2.76022 13.99 2.51487C13.8668 2.63755 14.1133 2.82156 14.2982 2.82156C14.1749 2.76022 14.7912 2.57621 14.9761 2.51487L14.668 2.57621C15.3459 2.33085 15.0994 1.84015 15.8389 1.53346C15.7773 1.65613 15.7773 2.02416 16.1471 1.96283C16.2087 1.71747 16.5785 0.858736 17.1948 0.552045L17.3181 0.613383C17.4413 0.552045 17.6262 0.429368 17.8111 0.36803C17.6878 0.552045 17.4413 0.858736 17.1948 1.10409C16.9483 1.41078 16.7018 1.65613 16.5169 1.84015C16.825 1.84015 16.6401 1.96283 17.0099 1.77881C17.1948 1.84015 16.825 1.96283 16.7018 2.02416L17.6262 1.77881C17.5646 1.65613 17.7495 1.5948 17.8727 1.47212C17.996 1.41078 18.1809 1.2881 18.1193 1.22677L17.2564 1.84015C17.1332 1.65613 17.6878 1.04275 18.3041 0.981413C18.489 1.04275 18.2425 1.34944 18.3041 1.47212C18.3041 1.41078 18.489 1.34944 18.6123 1.34944C18.7356 1.34944 18.8588 1.2881 18.9204 1.34944L18.6739 1.47212C18.9821 1.53346 19.2286 1.16543 19.5984 1.41078C19.7216 1.41078 19.9065 1.77881 19.9682 1.65613C19.8449 1.34944 19.9065 0.613383 20.153 0.490706C20.2147 0.490706 20.9542 0.981413 21.0159 1.22677C21.1391 1.53346 20.4612 1.47212 20.5845 1.71747C20.6461 1.65613 20.7694 1.65613 20.831 1.65613C20.9542 1.77881 20.7077 1.77881 21.0159 1.90149C21.2008 1.71747 21.5705 2.26952 21.2624 1.84015C21.5705 1.96283 21.5705 2.0855 21.8787 2.26952C21.8787 2.0855 22.4334 2.14684 22.7415 2.33085C22.6799 2.33085 22.6799 2.45353 22.6799 2.51487C23.1729 3.00558 23.3578 3.37361 23.7892 3.92565C23.7892 3.98699 23.9125 4.29368 23.7892 4.23234C23.8509 4.29368 23.9741 4.29368 24.0974 4.47769C24.159 4.90706 23.7892 4.10967 23.7892 4.47769C23.9125 4.41636 24.2206 4.78439 24.4672 5.02974C24.5904 4.84572 24.0974 4.41636 23.8509 4.23234C24.0358 4.10967 24.5904 4.35502 25.0835 4.90706C25.4532 5.33643 25.0835 5.21375 25.1451 5.27509C25.6381 6.19517 25.9463 5.88848 26.1928 6.74721C26.1928 7.11524 25.9463 6.86989 25.8847 6.99256C25.6381 6.62453 25.6381 6.31784 25.5149 6.07249L25.6381 6.44052C25.5149 6.31784 25.33 6.07249 25.2684 5.94981C25.2684 6.13383 25.5149 6.50186 25.6998 6.93123C25.9463 7.36059 26.1312 7.91264 26.3161 8.28067C26.4393 8.40335 26.5626 8.58736 26.5626 8.46468L26.4393 8.21933C26.4393 7.97398 26.8091 8.58736 26.6859 8.28067C26.9324 8.52602 27.1789 8.77137 27.4254 9.20074L27.3638 9.38476C27.3638 9.32342 27.2405 9.07807 27.1789 9.01673C27.3638 9.1394 27.4254 9.75279 27.7336 9.81413L27.6103 9.50743C27.8568 9.75279 28.2266 9.99814 28.4115 10.3662C28.4115 10.1208 28.3499 10.3048 28.2882 9.9368C28.2882 10.2435 27.6719 9.01673 27.7336 9.50743C27.7336 9.13941 27.487 9.01673 27.4254 8.58736C27.3638 8.6487 27.4254 8.77138 27.2405 8.46468C27.2405 8.46468 27.1789 8.46468 27.1789 8.40335C27.1789 8.46468 27.2405 8.58736 27.1789 8.58736C26.994 8.52602 26.7475 8.03532 26.6242 7.8513C26.5626 7.66729 26.6859 7.91264 26.6859 7.78996L26.501 7.54461C26.5626 7.48327 26.4393 6.93123 26.6859 7.36059L26.501 6.93123C26.4393 6.62454 26.3161 6.31784 26.1312 6.13383C26.0696 5.94981 25.7614 5.70446 25.9463 5.82714C25.823 5.64312 25.6998 5.39777 25.5149 5.21375C25.1451 4.53903 24.5288 4.04833 24.2206 3.25093C24.0358 3.06691 23.8509 2.8829 23.6043 2.57621L23.666 2.45353C23.4195 2.26952 23.0497 1.65613 22.8648 1.65613C22.8648 1.41078 22.5566 1.10409 22.1252 0.858736C21.7554 0.613383 21.2624 0.429368 21.0159 0.245353L20.9542 0.36803C20.7077 0.122677 20.2763 0 19.7216 0V0.122677C19.2902 0.184015 18.5507 -0.122677 17.8111 0.0613383C17.8727 0 18.0576 0 18.1809 0C17.996 0 17.7495 0 17.503 0.0613383C17.2564 0.122677 17.1332 0.184015 16.9483 0.306691C16.5785 0.490706 16.2703 0.674721 15.9006 0.674721C15.7773 0.797398 15.5924 0.797398 15.4692 0.797398C15.4692 0.797398 15.4692 0.797398 15.5308 0.797398H15.4692C15.4075 0.797398 15.2843 0.797398 15.2226 0.797398C15.2843 0.797398 15.4075 0.797398 15.4692 0.797398C15.3459 0.858736 15.161 0.920074 14.9761 1.04275L14.8529 0.920074C14.8529 0.920074 14.8529 0.920074 14.7912 0.920074C14.6063 0.920074 14.668 1.04275 14.7912 1.10409C14.7296 1.16543 14.668 1.22677 14.6063 1.2881C14.3598 1.10409 14.1749 1.5948 13.8668 1.41078C13.8051 1.5948 13.0039 1.96283 13.0656 2.26952C13.0656 2.26952 13.0039 2.26952 13.0656 2.20818C12.8807 2.26952 12.6342 2.39219 12.5109 2.51487L12.326 2.39219L12.0795 2.8829C11.7713 2.94424 11.6481 2.94424 11.7713 2.69888C11.3399 3.43494 11.3399 3.18959 10.9701 3.74164L10.9085 3.61896C10.7236 3.74164 10.5387 4.04833 10.4155 4.04833C9.92243 4.171 8.56657 5.45911 7.45723 5.82714C7.64212 5.88848 7.51886 5.94981 7.33397 6.01115C7.21071 6.07249 7.02581 6.13383 7.02581 6.25651C6.96418 6.19517 6.77929 6.25651 6.90255 6.13383C6.40951 6.37918 6.10136 6.25651 5.79321 6.5632C5.73158 6.50186 5.85484 6.44052 5.79321 6.37918C5.73158 6.37918 5.60832 6.50186 5.54669 6.44052C5.48506 6.37918 5.60832 6.37918 5.66995 6.31784C5.17691 6.50186 5.17691 6.68587 5.17691 6.93123C4.86876 6.86989 4.7455 6.86989 4.49898 7.0539C4.37572 6.99256 4.19082 6.93123 4.56061 6.86989C4.49898 6.86989 4.37572 6.86989 4.25245 6.86989C4.06756 6.86989 3.88267 6.93123 3.69778 6.99256C3.63615 7.0539 3.51289 7.0539 3.45126 7.11524C3.38963 7.17658 3.328 7.23792 3.26637 7.23792C3.14311 7.29926 3.08148 7.42193 3.14311 7.42193C3.01985 7.42193 2.89659 7.66729 2.83496 7.72862C2.46518 8.15799 2.46518 8.15799 2.21866 8.6487L2.28029 8.58736C2.34192 8.83271 2.15703 8.95539 1.97214 9.38476C1.54073 10.1822 1.91051 9.75279 1.54073 10.6115H1.66399C1.91051 10.7342 1.35583 11.3476 1.35583 11.8996L1.47909 11.5929C1.47909 11.8996 1.04768 12.329 0.924423 12.5743C0.924423 12.6357 0.924423 12.4517 0.924423 12.3903C0.677902 13.0651 1.04768 12.513 0.986053 13.0651C0.862793 13.1264 0.801163 12.881 0.739532 13.2491C0.677902 13.4331 0.801163 14.2918 0.554642 14.7825C0.616272 14.6599 0.739532 14.5985 0.677902 14.8439C0.616272 15.2119 0.308121 15.8866 0.431381 16.2546C0.431381 16.316 0.369751 16.316 0.369751 16.316C0.369751 16.6227 0.369751 17.2974 0.493011 17.4814C0.308121 17.6041 0.369751 18.0948 0.431381 18.5242C0.493011 18.9535 0.616272 19.3216 0.493011 19.3829L0.616272 19.8736L0.739532 20.3643H0.677902C0.739532 20.671 0.862793 20.855 0.924423 20.9777C0.986053 21.1004 1.10931 21.223 1.17094 21.2844C1.23257 21.4071 1.17094 21.3457 1.10931 21.3457C1.2942 21.7751 1.47909 21.9591 1.66399 22.1431C1.84888 22.3271 2.03377 22.3885 2.40355 22.5725V22.6952C2.58844 22.7565 3.328 23.4926 4.06756 23.9219C4.06756 23.9219 4.00593 23.9219 3.9443 23.9219C4.80713 24.3513 5.54669 25.4554 6.03973 25.4554C6.22462 25.5781 6.40951 25.7007 6.53277 25.8234C5.9781 25.2714 6.71766 25.8234 6.53277 25.5167C6.77929 25.7007 7.02582 26.1301 6.77929 25.8848L6.71766 25.8234C6.53277 25.8234 7.33397 26.5595 7.21071 26.6208C7.45723 26.9275 7.58049 27.2342 7.58049 27.5409C7.58049 27.6636 7.58049 28.0316 7.76538 28.2769C7.82701 28.3996 7.95027 28.461 8.0119 28.5223L8.25842 28.7063C8.87472 29.197 9.42939 29.6264 10.0457 30.0558L10.1073 29.7491L10.5387 30.0558C10.662 30.1784 10.662 30.2398 10.3538 29.9944C10.4771 30.1784 10.9085 30.3011 10.9085 30.3011C11.5248 30.7305 10.6004 30.2398 10.7853 30.3625L11.0318 30.5465L10.9701 30.4851C11.2167 30.6078 11.2167 30.5465 11.6481 30.7918C11.8946 30.9758 11.7713 30.9145 11.833 30.9758C11.833 30.9758 11.833 30.9758 11.9562 31.0372C12.1411 31.1598 12.326 31.2825 12.5109 31.3439L12.326 31.1598C12.6342 31.2825 12.8807 31.4665 12.6342 31.2212C12.8191 31.4052 13.3737 31.6506 13.9284 31.8346C14.4831 32.0186 15.0994 32.1413 15.2226 32.1413C15.7157 32.1413 16.0855 32.1413 16.5169 32.1413C16.3936 32.1413 16.332 32.0799 16.7634 32.0799C16.5785 32.2026 17.5646 32.1413 17.9344 32.0799C17.7495 32.0799 18.0576 32.0186 18.3658 31.8959C18.6123 31.7732 18.8588 31.6506 18.6123 31.7119C18.9204 31.5279 18.6739 31.7119 18.9204 31.6506C19.66 31.1598 20.3996 30.4238 21.0159 29.5651C21.0159 29.5651 20.8926 29.6877 21.0159 29.5037C21.1391 29.381 21.2624 29.197 21.3857 29.0743C21.5089 28.8903 21.4473 28.8903 21.6938 28.5836C21.6322 28.645 21.6322 28.7063 21.6938 28.5836C22.002 28.1543 22.1868 27.6636 22.4334 27.2342C22.6799 26.7435 23.2346 26.6208 23.7276 26.4368C23.9741 26.3755 24.2823 26.3141 24.4672 26.1301C24.6521 25.9461 24.8369 25.7621 25.0218 25.5781C25.3916 25.21 25.6998 24.7807 26.0696 24.3513C25.8847 24.5967 26.0079 24.4126 26.1312 24.2286C26.0696 24.3513 26.1312 24.2286 26.1312 24.2286L26.6859 23.5539C26.7475 23.4312 27.2405 22.8178 27.3022 22.6952L27.1173 22.9405C27.3022 22.6338 26.7475 23.3085 26.8091 23.2472C26.5626 23.6152 26.1312 24.1059 25.7614 24.658C25.6381 24.7807 25.823 24.5353 25.7614 24.5967C25.6381 24.7193 25.5149 24.9033 25.2684 25.21V25.1487C24.8986 25.5167 24.6521 25.8234 24.3439 26.0688C24.0358 26.2528 23.5427 26.2528 22.988 26.4981H23.0497C22.8032 26.6208 22.7415 26.6208 22.6799 26.6822C22.5566 26.8048 22.6799 26.6822 22.8648 26.5595C23.0497 26.4981 23.2346 26.3755 23.1113 26.4981C23.0497 26.4981 22.8648 26.5595 22.7415 26.6822C22.5566 26.8048 22.4334 26.9888 22.3101 27.1729C22.1252 27.6022 21.9403 27.9703 21.8171 28.0316C21.6322 28.3996 21.8787 27.9703 21.6938 28.2769L21.6322 28.3383L21.5705 28.461C21.4473 28.7063 21.324 28.7677 21.324 28.7677C21.3857 28.7063 21.4473 28.645 21.4473 28.5836C21.2624 28.829 20.8926 29.381 20.831 29.4424L21.0775 29.1357C20.4612 29.9944 19.5367 31.0372 18.6123 31.4665H18.6739C18.3041 31.6506 18.1809 31.6506 17.996 31.7119C17.8111 31.7119 17.6878 31.7732 17.2564 31.7732H17.3181C17.1332 31.7732 16.8867 31.8346 16.7018 31.8346C16.9483 31.8346 16.2703 31.7732 16.5785 31.7732C15.7157 31.7732 16.1471 31.7732 15.5924 31.8346L15.3459 31.8959C15.161 31.8959 15.161 31.8959 14.7296 31.8346C15.0994 31.8959 14.4831 31.7119 14.8529 31.7732C13.99 31.4665 13.5586 31.4052 13.2505 31.0985C12.8191 31.0372 13.9284 31.4665 13.7435 31.4052C13.9284 31.5279 13.3737 31.3439 13.1272 31.2212C12.8807 31.0985 12.7574 30.8532 12.1411 30.4851C12.2028 30.5465 12.2028 30.5465 12.2644 30.5465C12.0179 30.3625 11.7713 30.3011 11.5248 30.0558C11.3399 29.9944 11.155 29.8104 11.0318 29.8717C11.2167 29.9944 11.4016 30.1171 11.5865 30.2398C11.2783 30.0558 10.8469 29.9944 10.4155 29.5651C10.4771 29.5651 10.662 29.6877 10.7853 29.6877C10.662 29.5651 10.4771 29.5037 10.3538 29.381C10.4771 29.3197 11.0318 29.8104 11.4016 29.9944C11.2783 29.8717 10.7236 29.6264 10.9701 29.6264C10.662 29.5651 10.4155 29.197 9.92243 29.013L9.98407 28.9517C9.92243 28.8903 9.73754 28.829 9.67591 28.7677L9.92243 28.829C9.55265 28.645 9.36776 28.277 8.99798 28.0929C9.67591 28.5836 9.12124 28.277 9.30613 28.5223C8.87472 28.277 8.81309 28.1543 8.68983 27.9703C8.6282 27.9089 8.56657 27.7862 8.50494 27.7249C8.44331 27.6022 8.44331 27.6636 8.38168 27.5409C8.38168 27.6022 8.44331 27.7249 8.32005 27.6636C8.32005 27.6022 8.32005 27.6022 8.32005 27.5409C8.32005 27.4182 8.32005 27.2955 8.38168 27.2342C8.13516 26.2528 8.32005 27.4182 8.19679 26.9888C8.19679 26.6822 8.0119 26.5595 7.82701 26.3141L7.88864 26.2528C7.64212 25.8848 7.58049 25.8234 7.51886 25.8234C7.45723 25.8234 7.3956 25.8234 7.14908 25.5167C7.27234 25.5781 7.33397 25.6394 7.45723 25.7007C7.33397 25.5781 7.27234 25.5167 7.14908 25.3941H7.27234C6.90255 25.1487 6.84092 25.026 6.53277 24.7193C6.5944 24.842 6.40951 24.7807 6.10136 24.5353C5.91647 24.3513 6.28625 24.5353 5.85484 24.2286C5.9781 24.29 6.16299 24.29 6.28625 24.5353C6.34788 24.5353 6.40951 24.5967 6.47114 24.5967C6.28625 24.3513 5.91647 24.1059 5.79321 23.9833C5.85484 24.0446 5.91647 24.1059 5.91647 24.1059L5.17691 23.7993C5.11528 23.6766 5.17691 23.7379 5.30017 23.7993C5.17691 23.6766 5.05365 23.6766 4.86876 23.5539C4.93039 23.5539 4.99202 23.4926 5.30017 23.6152L4.62224 23.2472C4.62224 23.1859 4.37572 22.9405 4.43735 23.0019C4.12919 22.6952 3.51289 22.5112 3.14311 22.1431C3.08148 22.1431 3.08148 22.1431 2.95822 22.0818C2.77333 21.8978 2.65007 21.7751 2.46518 21.6524C2.34192 21.4684 2.15703 21.3457 2.03377 21.1004V20.7937C1.84888 20.4257 2.03377 21.2844 1.72562 20.6097C1.47909 20.1803 1.78725 20.4256 1.72562 20.2416C1.66399 20.119 1.54073 19.9963 1.47909 19.8123C1.41746 19.6283 1.35583 19.3829 1.35583 19.1375C1.41746 19.1989 1.41746 19.3216 1.41746 19.4442ZM1.78725 13.8625C1.78725 13.9851 1.78725 14.2305 1.72562 14.2918C1.60236 14.1691 1.72562 14.0465 1.78725 13.8625ZM5.66995 7.42193C5.60832 7.48327 5.42343 7.48327 5.30017 7.48327C5.3618 7.42193 5.48506 7.42193 5.66995 7.42193ZM26.4393 6.62454C26.3161 6.37918 26.3777 6.44052 26.4393 6.62454V6.62454ZM26.6242 7.11524C26.6242 7.17658 26.6242 7.17658 26.6242 7.11524C26.6242 7.11524 26.5626 6.99256 26.5626 6.86989C26.501 6.93123 26.501 6.99257 26.6242 7.11524ZM11.8946 30.9758L11.833 30.9145C12.0795 31.0372 11.9562 31.0372 11.8946 30.9758Z" fill="white"/>
<path d="M4.62225 7.72862C4.56062 7.66728 4.56062 7.66728 4.56062 7.66728C4.49899 7.66728 4.49899 7.66728 4.62225 7.72862Z" fill="white"/>
<path d="M20.7077 1.77881C20.6461 1.71747 20.5845 1.65613 20.5845 1.5948C20.5845 1.65613 20.5845 1.71747 20.7077 1.77881Z" fill="white"/>
<path d="M28.0417 9.38476L27.8568 9.1394C27.9184 9.26208 27.9801 9.32342 27.9801 9.38476C27.9801 9.38476 27.9801 9.26208 28.0417 9.38476Z" fill="white"/>
<path d="M29.2743 12.0836C29.3359 12.145 29.3359 12.145 29.3976 12.2063V12.145C29.2743 11.961 29.2127 11.8996 29.2743 12.0836Z" fill="white"/>
<path d="M27.9185 9.81413C27.8569 9.87546 27.9801 10.0595 28.165 10.2435V10.1822C28.2883 10.1822 28.1034 9.99814 27.9185 9.81413Z" fill="white"/>
<path d="M28.2266 10.3048C28.2882 10.3662 28.3498 10.4275 28.3498 10.4888C28.4115 10.4275 28.2882 10.3662 28.2266 10.3048Z" fill="white"/>
<path d="M26.9324 7.72863C26.9324 7.8513 27.0556 7.72862 27.0556 7.78996C27.1173 7.78996 27.0556 7.66729 26.9324 7.60595C26.8707 7.48327 26.8091 7.48327 26.9324 7.72863Z" fill="white"/>
<path d="M27.7952 10.1822L27.8568 9.99814H27.7335L27.7952 10.1822Z" fill="white"/>
<path d="M26.8091 8.58736L26.994 8.89405C26.994 8.89405 27.0556 8.89405 27.0556 8.95539C26.994 8.77137 26.8707 8.58736 26.8091 8.58736Z" fill="white"/>
<path d="M27.1173 9.01673C27.1789 9.13941 27.2406 9.20075 27.3022 9.26208C27.2406 9.20075 27.1789 9.07807 27.1173 9.01673Z" fill="white"/>
<path d="M27.487 9.75279L27.4254 9.69145L27.3021 9.4461L27.487 9.75279Z" fill="white"/>
<path d="M24.9602 5.02974L24.7136 4.72305C24.652 4.72305 24.7136 4.84572 24.7753 4.9684C24.8369 4.9684 24.9602 5.09108 24.9602 5.02974Z" fill="white"/>
<path d="M25.2684 6.25651C25.2684 6.13383 25.2684 6.13383 25.2684 6.07249L25.0835 6.13383L25.2684 6.25651Z" fill="white"/>
<path d="M24.5904 5.27509C24.5288 5.27509 24.159 4.84572 24.4672 5.27509C24.5288 5.33643 24.7753 5.64312 24.5904 5.27509Z" fill="white"/>
<path d="M20.3995 1.04275L20.5228 1.10409L20.5844 0.797401L20.3995 1.04275Z" fill="white"/>
<path d="M15.5308 2.51487C15.9623 2.3922 15.5308 2.26952 15.9623 2.20818C16.0239 2.0855 15.5925 2.26952 15.7157 2.14684C15.4692 2.33086 15.2843 2.3922 15.5308 2.51487Z" fill="white"/>
<path d="M15.7157 2.14684C15.7773 2.14684 15.7773 2.0855 15.839 2.02416C15.7157 2.14684 15.7157 2.14684 15.7157 2.14684Z" fill="white"/>
<path d="M26.9324 23.2472L27.1173 23.0019L26.994 23.1859L26.9324 23.2472Z" fill="white"/>
<path d="M27.3021 22.7565L27.487 22.5725C27.4254 22.6338 27.3021 22.6952 27.3021 22.7565Z" fill="white"/>
<path d="M2.2186 13.0651C2.15697 13.0651 2.09534 13.1264 2.09534 13.3104L2.2186 13.0651Z" fill="white"/>
<path d="M1.41745 17.1134V17.052L1.29419 17.1747L1.41745 17.1134Z" fill="white"/>
<path d="M1.91049 20.303C1.84886 20.1803 1.78723 20.0576 1.78723 19.935C1.84886 20.1803 1.78723 20.3643 1.91049 20.303Z" fill="white"/>
<path d="M19.9065 15.7639L19.8448 15.6413L19.9065 15.7639Z" fill="white"/>
<path d="M19.7216 14.9665C19.7216 15.0279 19.7832 15.2732 19.7832 15.3959L19.8448 15.4572C19.8448 15.2732 19.7832 15.0892 19.7216 14.9665Z" fill="white"/>
<path d="M19.7833 14.4758C19.7833 14.5372 19.7216 14.4145 19.7833 14.5985C19.7833 14.5372 19.7833 14.5372 19.7833 14.4758Z" fill="white"/>
<path d="M19.66 14.1691L19.7217 14.2918C19.7217 14.2305 19.7217 14.1691 19.66 14.1691C19.7217 14.0465 19.66 14.1078 19.66 14.1691Z" fill="white"/>
<path d="M19.5984 14.0465C19.66 14.1078 19.66 14.1078 19.5984 14.0465V14.0465Z" fill="white"/>
<path d="M19.66 14.2918C19.66 14.4145 19.7217 14.4758 19.66 14.2918C19.7217 14.5985 19.7217 14.5372 19.66 14.2918Z" fill="white"/>
<path d="M19.66 14.9052V14.9666V15.0279C19.7217 15.0279 19.7217 14.9052 19.66 14.9052Z" fill="white"/>
<path d="M19.5367 13.4331L19.4751 13.4944L19.5367 13.5558V13.4331Z" fill="white"/>
<path d="M19.4751 13.4944L19.4135 13.3717C19.4751 13.4944 19.4751 13.4944 19.4751 13.4944Z" fill="white"/>
<path d="M19.5367 14.0465L19.66 14.2305L19.5367 14.0465Z" fill="white"/>
<path d="M19.4135 12.9424L19.4751 13.0037L19.4135 12.881V12.9424Z" fill="white"/>
<path d="M19.2901 12.6357C19.3518 12.697 19.3518 12.513 19.3518 12.5743C19.2901 12.513 19.2285 12.4517 19.2285 12.3903C19.2901 12.3903 19.2901 12.513 19.2901 12.6357Z" fill="white"/>
<path d="M19.167 12.2677L19.2286 12.329L19.167 12.2677Z" fill="white"/>
<path d="M19.4135 13.1877C19.4135 13.1877 19.4135 13.1264 19.4135 13.0651V13.1877C19.3519 13.1264 19.4135 13.1264 19.4135 13.1877Z" fill="white"/>
<path d="M19.3518 13.1264C19.3518 13.0651 19.3518 13.0037 19.2902 13.0037C19.3518 13.0037 19.3518 13.0651 19.3518 13.1264Z" fill="white"/>
<path d="M19.4751 13.7398C19.4134 13.6784 19.3518 13.5558 19.3518 13.6784C19.4134 13.7398 19.4134 13.6171 19.4751 13.7398Z" fill="white"/>
<path d="M19.3518 13.2491V13.3717C19.3518 13.3717 19.3518 13.3104 19.4134 13.3717L19.3518 13.2491Z" fill="white"/>
<path d="M19.2902 13.1877L19.3518 13.2491V13.1877H19.2902Z" fill="white"/>
<path d="M19.167 12.513C19.1053 12.4517 19.1053 12.3903 19.0437 12.329C19.1053 12.4517 19.1053 12.513 19.167 12.513C19.167 12.5743 19.2286 12.5743 19.167 12.513Z" fill="white"/>
<path d="M19.167 12.5743C19.167 12.6357 19.2286 12.6357 19.2286 12.697C19.2286 12.697 19.167 12.6357 19.167 12.5743Z" fill="white"/>
<path d="M19.2902 12.7584C19.2902 12.7584 19.2286 12.7584 19.2902 12.7584C19.2286 12.7584 19.2286 12.7584 19.2902 12.7584C19.2902 12.8197 19.2902 12.7584 19.2902 12.7584Z" fill="white"/>
<path d="M18.1809 11.777C18.2425 11.7156 18.3658 11.8383 18.4274 11.961C18.5507 12.0223 18.6739 11.8383 18.7355 11.6543C18.7355 11.6543 18.6739 11.6543 18.5507 11.5929C18.5507 11.6543 18.6123 11.8996 18.489 11.8383C18.3658 11.7156 18.4274 11.7156 18.4274 11.5929C18.4274 11.7156 18.1809 11.4703 18.0576 11.5929L18.1809 11.6543C18.2425 11.777 18.1809 11.7156 18.1809 11.777Z" fill="white"/>
<path d="M18.8587 11.8996C18.8587 11.8996 18.8587 11.8383 18.8587 11.7156C18.7971 11.6543 18.7971 11.6543 18.7355 11.6543L18.8587 11.8996Z" fill="white"/>
<path d="M19.0437 12.2063C18.982 12.2063 18.8588 12.0836 18.8588 12.2063C18.9204 12.329 18.982 12.2677 19.0437 12.3903C18.8588 12.145 19.0437 12.4517 19.0437 12.2063C19.0437 12.2677 19.1053 12.329 19.1053 12.329C19.0437 12.329 19.0437 12.2677 19.0437 12.2063C18.982 12.145 19.0437 12.2063 19.0437 12.2063C19.0437 12.145 18.982 12.0223 18.9204 11.961C18.9204 12.0223 18.982 12.0836 19.0437 12.2063Z" fill="white"/>
<path d="M19.2285 13.4944C19.2285 13.4944 19.2901 13.4944 19.2901 13.5558C19.2901 13.6171 19.2901 13.5558 19.2285 13.5558C19.2285 13.5558 19.2901 13.6784 19.2901 13.5558C19.2901 13.4331 19.2901 13.3104 19.2901 13.3104C19.2901 13.3717 19.2285 13.3717 19.2285 13.4944Z" fill="white"/>
<path d="M19.1053 12.881C19.0437 12.8197 19.0437 12.7584 18.9821 12.697C18.9821 12.7584 18.9821 12.7584 18.9821 12.8197C19.0437 12.881 19.1053 12.881 19.1053 12.881Z" fill="white"/>
<path d="M18.7972 11.5929H18.8588L18.674 11.5316L18.7972 11.5929Z" fill="white"/>
<path d="M18.6123 11.3476H18.6739L18.6123 11.2862V11.3476Z" fill="white"/>
<path d="M11.5247 10.8569C11.4015 10.8569 11.155 10.7342 11.2782 10.8569L11.4015 10.9182C11.4015 10.9182 11.4631 10.8569 11.5247 10.8569Z" fill="white"/>
<path d="M9.24449 15.2732C9.24449 15.2119 9.24449 15.2119 9.18286 15.1506C9.18286 15.2119 9.24449 15.2119 9.24449 15.2732Z" fill="white"/>
<path d="M9.67587 15.4572L9.55261 15.5186C9.55261 15.5799 9.61424 15.5186 9.67587 15.4572Z" fill="white"/>
<path d="M11.7714 20.5483L11.8946 20.487C11.7714 20.4257 11.7714 20.5483 11.7714 20.5483Z" fill="white"/>
<path d="M15.8389 9.63011C15.7773 9.56877 15.654 9.56877 15.5924 9.50743C15.7157 9.56877 15.7773 9.69145 15.8389 9.63011Z" fill="white"/>
<path d="M9.12122 19.4442C9.18285 19.4442 9.18285 19.5056 9.18285 19.4442C9.12122 19.4442 9.12122 19.3829 9.12122 19.4442Z" fill="white"/>
<path d="M15.2842 9.50743C15.3458 9.50743 15.3458 9.50743 15.2842 9.50743C15.4074 9.50743 15.4691 9.50743 15.5923 9.50743C15.5307 9.4461 15.4074 9.38476 15.2842 9.50743Z" fill="white"/>
<path d="M17.811 10.4275C17.811 10.4275 17.811 10.3662 17.7494 10.3662C17.811 10.3662 17.811 10.4275 17.811 10.4275Z" fill="white"/>
<path d="M17.6879 10.3048C17.7495 10.3048 17.7495 10.3662 17.7495 10.3662C17.7495 10.3048 17.7495 10.3048 17.6879 10.3048Z" fill="white"/>
<path d="M11.2166 13.1877C11.155 13.0037 11.2166 13.0037 11.2782 13.0037L10.9701 12.8197L11.2166 13.1877Z" fill="white"/>
<path d="M10.7236 19.8123L10.662 19.6282C10.8469 19.6282 10.9085 19.7509 10.9085 19.6282C10.7236 19.8123 10.5387 19.2602 10.2922 19.4442V19.3216C10.2922 19.3216 10.2922 19.3216 10.3539 19.3829C10.3539 19.1375 10.1073 19.3829 9.98407 19.1989C9.98407 19.1375 9.98407 19.0762 10.0457 19.0762C9.98407 19.0149 9.92244 19.0149 9.86081 18.9535C9.86081 18.8922 9.92244 18.8922 9.92244 18.9535L9.79918 18.7082C9.73755 18.7082 9.61429 18.6468 9.61429 18.6468C9.61429 18.5855 9.67592 18.6468 9.67592 18.6468C9.61429 18.5855 9.55266 18.5855 9.55266 18.5242C9.61429 18.4628 9.73755 18.5242 9.73755 18.5855C9.92244 18.3401 9.61429 18.5242 9.67592 18.1561L9.73755 18.2788C9.86081 18.1561 9.79918 18.0335 9.86081 17.9108C9.79918 17.9721 9.67592 18.2788 9.55266 18.1561C9.55266 18.0948 9.55266 18.0335 9.49103 17.9721C9.61429 17.9108 9.55266 17.8494 9.55266 17.7881H9.67592C9.61429 17.7268 9.55266 17.7268 9.49103 17.6654C9.49103 17.5427 9.61429 17.4814 9.67592 17.4814C9.67592 17.2974 9.49103 17.6041 9.4294 17.4201C9.49103 17.2361 9.4294 17.1747 9.30614 16.9294C9.36777 16.8067 9.36777 16.9294 9.4294 16.9294L9.30614 16.8067H9.36777C9.30614 16.7453 9.18288 16.8067 9.18288 16.6227C8.99799 16.5613 9.49103 16.3773 9.30614 16.1933C9.36777 16.132 9.36777 16.2546 9.49103 16.2546C9.49103 15.8866 9.49103 15.948 9.36777 15.7026L9.55266 15.5799C9.36777 15.6413 9.30614 15.4572 9.24451 15.2732C9.18288 15.2732 9.12125 15.3346 9.05962 15.3346C9.05962 15.2732 9.05962 15.1506 9.05962 15.0892C9.12125 15.0892 9.12125 15.0892 9.18288 15.1506V15.0892C9.24451 15.0279 9.36777 15.0892 9.4294 15.2119C9.36777 15.2119 9.36777 15.2119 9.30614 15.2732C9.36777 15.3346 9.49103 15.4572 9.55266 15.4572V15.3959L9.61429 15.4572C9.61429 15.4572 9.61429 15.3959 9.55266 15.3959H9.73755L9.67592 15.3346L9.92244 15.0892C9.79918 14.8439 9.67592 14.5372 9.73755 14.1691C9.79918 14.2918 9.92244 14.2918 10.1073 14.3532C9.92244 14.3532 10.0457 14.5985 9.92244 14.7825C9.98407 14.7212 10.0457 14.7825 10.0457 14.7825V14.4145C10.169 14.4758 10.169 14.4145 10.2306 14.3532C9.98407 14.2918 10.169 14.0465 10.169 13.9238C10.2306 13.9851 10.2922 14.0465 10.2306 14.1691C10.4771 14.1078 10.0457 13.8011 10.2922 13.7398C10.2922 13.8011 10.2306 13.8011 10.2922 13.8011C10.2922 13.6784 10.4155 13.5558 10.4771 13.6171V13.6784C10.662 13.4944 10.9702 13.0651 10.7853 12.881C10.7853 12.881 10.9702 13.1264 11.0318 13.1264C10.9085 12.8197 10.7853 12.513 10.7236 12.2063C10.8469 12.3903 11.3399 12.6357 11.2783 12.881C11.3399 12.881 11.4016 12.8197 11.4632 12.697C11.4016 12.697 11.155 12.5743 11.155 12.513C11.4632 12.5743 11.3399 12.513 11.5865 12.5743C11.5248 12.5743 11.3399 12.2677 11.4016 12.2063C11.4016 12.2677 11.6481 12.4517 11.6481 12.513L11.5865 12.0836C11.5865 12.145 11.7713 12.329 11.8946 12.329C11.833 12.2677 12.0795 12.2063 12.0795 12.145H11.9562C12.2028 12.0223 11.833 11.5929 12.0795 11.4089C12.0795 11.4703 12.2644 11.8383 12.3877 11.7769C12.326 11.5929 12.1411 10.9182 12.2644 10.6115L12.3877 10.6729C12.4493 10.6115 12.4493 10.5502 12.5109 10.4888C12.5109 10.7955 12.5725 11.4703 12.5109 11.7156C12.6342 11.7156 12.5725 11.7769 12.6958 11.7156C12.8191 11.7769 12.6958 11.8996 12.6958 11.8996L13.004 11.7769C12.8807 11.5929 13.1272 11.4703 13.004 11.3476C12.9423 11.4703 12.8807 11.5929 12.8191 11.7156C12.6958 11.5316 12.6958 11.0409 12.9423 10.9795C13.0656 11.0409 13.0656 11.3476 13.1272 11.4089C13.1272 11.3476 13.2505 11.1636 13.3121 11.2249L13.2505 11.3476C13.3737 11.3476 13.3121 10.9796 13.5586 11.1022C13.6203 11.1022 13.8051 11.2862 13.7435 11.1636C13.5586 10.9796 13.2505 10.2435 13.2505 10.0595C13.2505 10.0595 13.6819 10.1822 13.7435 10.2435C13.8668 10.3662 13.7435 10.7342 13.8668 10.8569C13.8668 10.7955 13.8668 10.7342 13.8668 10.6729C13.9284 10.6729 13.8668 10.8569 13.99 10.7955C13.9284 10.6115 14.2366 10.7342 13.99 10.6115C14.1133 10.5502 14.1133 10.6115 14.2982 10.5502C14.2366 10.4275 14.3598 10.0595 14.4831 9.99814C14.4831 10.0595 14.5447 10.1208 14.5447 10.1208C14.8529 10.1208 14.9761 10.1822 15.2226 10.1822C15.2226 10.2435 15.3459 10.3048 15.2843 10.3662C15.3459 10.3048 15.3459 10.2435 15.4075 10.2435C15.5308 10.4275 15.2226 10.2435 15.3459 10.4888C15.3459 10.3662 15.5308 10.3662 15.6541 10.2435C15.6541 10.0595 15.4075 10.1822 15.2843 10.2435C15.2843 9.99814 15.5308 9.75278 15.8389 9.69145C16.0855 9.69145 15.9006 9.87546 15.9622 9.87546C16.3936 10.0595 16.4552 9.56877 16.7634 9.87546C16.825 10.0595 16.6401 10.1208 16.6401 10.2435C16.4552 10.2435 16.4552 10.0595 16.2704 9.99814C16.332 10.0595 16.332 10.0595 16.3936 10.1208C16.332 10.1208 16.2087 10.1822 16.1471 10.1208C16.2087 10.1822 16.332 10.2435 16.5169 10.3662C16.5785 10.4275 16.7018 10.4275 16.7634 10.4888C16.825 10.5502 16.8867 10.6115 16.9483 10.6729C17.0099 10.6729 17.1332 10.6729 17.1332 10.6115L17.0099 10.5502C17.0099 10.4275 17.2564 10.5502 17.1948 10.4275C17.3797 10.4275 17.5646 10.4888 17.6878 10.6729L17.8727 11.0409C17.8727 10.9796 17.8111 10.8569 17.7495 10.8569C17.8727 10.8569 17.8111 11.2249 18.0576 11.1636L17.996 10.9795C18.1809 11.0409 18.3658 11.1022 18.4274 11.2862C18.489 11.1636 18.3658 11.2862 18.4274 11.0409C18.3658 11.1636 18.3042 11.0409 18.2425 10.9795C18.1809 10.9182 18.1193 10.7955 18.0576 10.9795C18.1193 10.7342 17.9344 10.7342 17.9344 10.4888C17.9344 10.5502 17.9344 10.6115 17.8111 10.4888H17.7495C17.7495 10.5502 17.7495 10.5502 17.7495 10.6115C17.6262 10.6729 17.4413 10.4888 17.3181 10.4888C17.2564 10.4275 17.3797 10.4888 17.3797 10.3662H17.2564C17.3181 10.2435 17.1332 10.0595 17.3797 10.1208C17.3181 10.0595 17.2564 10.0595 17.1948 9.99814C17.1332 9.87546 16.9483 9.75278 16.825 9.75278C16.7634 9.69145 16.5169 9.81412 16.6401 9.75278H16.2704V9.69145C15.9622 9.56877 15.5924 9.81412 15.2226 9.50743C15.0994 9.56877 15.0378 9.56877 14.8529 9.56877L14.7912 9.44609C14.668 9.50743 14.3598 9.32342 14.2982 9.50743C14.1133 9.20074 13.6203 9.56877 13.3737 9.56877L13.4354 9.75278C13.2505 9.81412 13.1272 9.87546 13.004 9.99814L13.0656 10.1208C12.9423 10.3048 12.6342 10.1822 12.3877 10.3662C12.3877 10.3048 12.4493 10.3048 12.5109 10.3048C12.0795 10.1822 12.0795 10.8569 11.7097 10.7955C11.7097 10.8569 11.6481 10.9182 11.5865 10.9182C11.5248 10.9182 11.5248 10.9182 11.4632 10.9182C11.5248 10.9182 11.5248 10.9182 11.5865 10.9182C11.5248 10.9795 11.4632 11.0409 11.4632 11.1022L11.3399 10.9795C11.2167 10.9795 11.3399 11.1022 11.4632 11.1636C11.4632 11.2249 11.4632 11.2249 11.4632 11.2862C11.2783 11.1636 11.3399 11.4703 11.0934 11.3476C11.155 11.4703 10.8469 11.7156 11.0318 11.8996C11.0318 11.8996 10.9702 11.8996 11.0318 11.8383C10.9702 11.8996 10.8469 11.8996 10.8469 12.0223L10.662 11.8996L10.7236 12.2677C10.5387 12.2677 10.4771 12.2677 10.4771 12.0836C10.4771 12.4517 10.4155 12.329 10.4155 12.6357L10.3539 12.5743C10.2922 12.6357 10.3539 12.8197 10.2306 12.8197C9.92244 12.8197 9.67592 13.5558 9.30614 13.9238C9.61429 13.9851 9.05962 14.0465 9.30614 14.1691C9.24451 14.1691 9.18288 14.2305 9.12125 14.1078C9.05962 14.3532 8.87473 14.4145 8.99799 14.6598C8.93636 14.6598 8.93636 14.5372 8.87473 14.5985V14.7212C8.8131 14.7212 8.8131 14.6598 8.8131 14.5985C8.75147 14.8439 8.93636 14.9665 9.12125 15.0279C8.99799 15.0892 8.99799 15.2119 9.05962 15.3346C8.99799 15.3346 8.87473 15.3959 8.93636 15.2732C8.87473 15.3346 8.68984 15.7639 8.87473 15.8253C8.8131 15.8253 8.8131 15.948 8.87473 15.948C8.8131 16.132 8.8131 16.132 8.8131 16.3773L8.87473 16.316C9.05962 16.4387 8.87473 16.5 8.87473 16.6227C8.68984 16.9907 8.93636 16.8067 8.75147 17.1134H8.87473C9.12125 17.1134 8.75147 17.4201 8.87473 17.6654L8.93636 17.6041C9.05962 17.7268 8.68984 17.9721 8.68984 18.0948C8.68984 18.1561 8.62821 18.0335 8.62821 18.0335C8.56658 18.4015 8.75147 18.0335 8.87473 18.2788C8.8131 18.3401 8.68984 18.2788 8.68984 18.4628C8.68984 18.5855 9.05962 18.8309 9.05962 19.0762C9.05962 19.0149 9.12125 18.9535 9.18288 19.0149C9.30614 19.1375 9.18288 19.5056 9.4294 19.5669V19.6282C9.55266 19.6896 9.73755 19.9349 9.86081 19.8736C9.61429 20.1803 10.4771 20.303 10.2306 20.5483C10.3539 20.6097 10.4155 20.7323 10.5387 20.7937C10.7236 20.9777 10.8469 20.9777 10.9702 20.9164C10.9702 20.9777 10.9702 20.9777 10.9085 20.9777C11.155 21.223 11.2167 21.223 11.5248 21.2844V21.4071C11.5865 21.4071 11.6481 21.5297 11.7713 21.5911C11.8946 21.7138 12.0795 21.7751 12.2644 21.8364C12.2644 21.8364 12.2644 21.8364 12.2028 21.8364C12.5725 21.8978 13.004 22.3885 13.1888 22.1431H13.4354C13.1272 22.0204 13.497 22.0204 13.4354 21.9591C13.5586 21.9591 13.7435 22.1431 13.5586 22.0818C13.4354 22.2045 13.9284 22.2658 13.8668 22.3271C14.4831 22.4498 15.0994 22.5725 15.7157 22.5725L15.6541 22.4498H15.8389C15.9006 22.4498 15.9006 22.5111 15.7773 22.5111C15.8389 22.5725 16.0238 22.4498 16.0238 22.4498C16.332 22.4498 15.9006 22.5725 16.0238 22.5725H16.1471C16.2704 22.5111 16.2704 22.5111 16.3936 22.4498C16.5169 22.4498 16.4552 22.5111 16.5169 22.5111C16.5169 22.5111 16.5169 22.5111 16.5785 22.5111L16.825 22.4498L16.7018 22.3885C16.825 22.3271 16.9483 22.3271 16.825 22.2658C17.0099 22.3885 17.7495 22.0818 17.8727 22.0204C17.996 21.8978 18.1809 21.8364 18.3658 21.7751C18.3042 21.7751 18.2425 21.7751 18.4274 21.6524C18.4274 21.7751 18.7356 21.5297 18.8588 21.5297C18.7972 21.5297 18.9205 21.4684 18.9821 21.4071C19.0437 21.3457 19.167 21.2844 19.0437 21.2844C19.167 21.223 19.0437 21.2844 19.167 21.2844C19.4135 21.039 19.7216 20.7937 19.9682 20.4256C19.9682 20.4256 19.9065 20.487 19.9682 20.3643C20.0298 20.303 20.0914 20.2416 20.0914 20.1803C20.1531 20.119 20.0914 20.119 20.1531 19.9963C20.1531 19.9963 20.0914 20.0576 20.1531 19.9963C20.5228 19.2602 20.5228 18.4015 20.5228 17.6041C20.5228 17.7268 20.5228 17.6654 20.5228 17.5427C20.5228 17.6041 20.5228 17.5427 20.5228 17.5427V17.2361C20.5228 17.1747 20.4612 16.868 20.4612 16.868V16.9907C20.3996 16.868 20.4612 17.1747 20.3996 17.1747C20.4612 17.3587 20.3996 17.6041 20.4612 17.8494C20.4612 17.9108 20.4612 17.7881 20.4612 17.8494C20.4612 17.9108 20.4612 17.9721 20.4612 18.1561C20.4612 18.5855 20.4612 18.7695 20.3379 19.1989C20.3379 19.3216 20.2763 19.3216 20.2763 19.3829C20.2763 19.5056 20.3379 19.1375 20.3379 19.1989C20.2763 19.3216 20.1531 19.8736 20.0298 19.9349C19.9682 20.0576 20.0914 19.9349 20.0298 20.0576V20.119C19.9682 20.1803 19.9065 20.2416 19.9065 20.2416L19.9682 20.1803C19.9065 20.303 19.7833 20.487 19.7216 20.487L19.8449 20.3643C19.5984 20.7323 19.2286 21.039 18.9205 21.223H18.9821C18.7356 21.4071 18.7356 21.3457 18.489 21.4684C18.4274 21.5297 18.3658 21.5911 18.3042 21.5911C18.3658 21.5297 18.1193 21.5911 18.2425 21.5297C17.9344 21.6524 18.1193 21.5911 17.9344 21.7751H17.8727C17.8111 21.8364 17.8111 21.8364 17.6878 21.8978C17.8111 21.8364 17.5646 21.8364 17.6878 21.7751C17.3181 21.7751 17.1948 21.9591 17.0099 21.8364C16.8867 22.0204 17.3181 21.8364 17.2564 21.8978C17.3181 21.8978 17.1332 22.0204 17.0099 22.0204C16.8867 22.0204 16.7634 21.8978 16.5169 21.8978C16.5169 21.8978 16.5169 21.8978 16.5785 21.8978C16.4552 21.8978 16.3936 21.9591 16.2704 21.8978C16.2087 21.9591 16.0855 21.8978 16.0855 22.0204C16.1471 22.0204 16.2704 22.0204 16.332 22.0204C16.2087 22.0818 16.0855 22.2045 15.8389 22.1431C15.8389 22.1431 15.9006 22.0818 15.9622 22.0818C15.9006 22.0204 15.8389 22.0818 15.7773 22.0818C15.7773 21.9591 16.0855 22.0818 16.2087 21.9591C16.1471 21.8978 15.9006 22.0204 16.0238 21.8978C15.9006 22.0204 15.7773 21.8978 15.5924 21.9591V21.8978C15.5924 21.8978 15.5308 21.9591 15.4692 21.8978L15.5924 21.8364C15.4075 21.8978 15.2843 21.7138 15.161 21.7751C15.4692 21.8364 15.2226 21.8978 15.3459 21.9591C14.9761 22.0204 15.161 21.7751 14.7296 21.7138C14.7912 21.7138 14.9145 21.7751 14.8529 21.8364C14.7912 21.7751 14.668 21.7751 14.668 21.7138C14.4214 21.6524 14.668 21.7751 14.5447 21.8364C14.4831 21.7137 14.4214 21.8364 14.2982 21.8364V21.7751C13.99 21.6524 14.1749 21.8978 13.9284 21.7751L14.0517 21.7138H13.9284L13.99 21.6524C13.8051 21.6524 13.8051 21.6524 13.6203 21.5911C13.6203 21.6524 13.5586 21.7138 13.4354 21.6524C13.3737 21.5911 13.497 21.5911 13.3121 21.5297C13.3737 21.4684 13.4354 21.4684 13.497 21.5297L13.5586 21.4684C13.497 21.3457 13.3121 21.3457 13.2505 21.3457C13.2505 21.3457 13.3121 21.3457 13.3121 21.4071H13.004C13.004 21.3457 13.004 21.3457 13.0656 21.3457C13.004 21.3457 12.9423 21.3457 12.8807 21.3457C12.9423 21.2844 12.9423 21.223 13.0656 21.223C12.9423 21.223 12.8807 21.1617 12.8191 21.1617C12.8191 21.1004 12.7574 21.039 12.7574 21.039C12.6342 20.9164 12.3877 20.9777 12.2644 20.855H12.2028C12.0795 20.7323 11.9562 20.6097 11.7713 20.5483V20.3643C11.6481 20.303 11.7713 20.6097 11.5248 20.487C11.3399 20.3643 11.5248 20.3643 11.5248 20.2416C11.4016 20.2416 11.155 20.2416 11.155 19.9963C10.662 19.6896 10.662 19.7509 10.7236 19.8123ZM9.55266 18.0948C9.61429 18.0948 9.67592 18.1561 9.61429 18.2175C9.49103 18.2788 9.55266 18.2175 9.55266 18.0948ZM9.55266 15.0892C9.55266 15.1506 9.55266 15.1506 9.49103 15.2119C9.49103 15.1506 9.55266 15.0892 9.55266 15.0892ZM17.0715 9.99814C17.0099 9.87546 17.0099 9.9368 17.0715 9.99814V9.99814ZM17.2564 10.1822C17.3181 10.1822 17.3181 10.1208 17.2564 10.1822C17.2564 10.1822 17.1948 10.1208 17.1332 10.1208C17.1948 10.1208 17.1948 10.1822 17.2564 10.1822ZM16.2087 22.3271C16.2087 22.2658 16.2087 22.2658 16.2087 22.3271V22.3271Z" fill="white"/>
<path d="M14.1133 11.1022C14.0516 11.1022 14.0516 11.1022 14.0516 11.0409C14.0516 11.1022 14.0516 11.1022 14.1133 11.1022Z" fill="white"/>
<path d="M18.3042 10.8569L18.1809 10.7342C18.2425 10.7955 18.2425 10.7955 18.3042 10.8569C18.3042 10.8569 18.3042 10.7955 18.3042 10.8569Z" fill="white"/>
<path d="M18.5507 12.145C18.5507 12.2063 18.5507 12.2063 18.5507 12.145H18.6123C18.5507 12.145 18.489 12.0836 18.5507 12.145Z" fill="white"/>
<path d="M18.1808 11.1636C18.1192 11.2249 18.1808 11.2862 18.2424 11.3476C18.3657 11.2862 18.2424 11.2249 18.1808 11.1636Z" fill="white"/>
<path d="M18.2424 11.3476L18.3041 11.4089C18.3657 11.4089 18.3041 11.4089 18.2424 11.3476Z" fill="white"/>
<path d="M17.5646 10.2435C17.5646 10.3048 17.6878 10.1822 17.6878 10.1822C17.7495 10.1822 17.2564 10.1822 17.5646 10.2435Z" fill="white"/>
<path d="M17.996 11.4089L18.0576 11.3476H17.9343L17.996 11.4089Z" fill="white"/>
<path d="M17.5029 10.8569C17.5646 10.9182 17.5646 10.9182 17.6262 10.9796H17.6878C17.6262 10.9182 17.5646 10.8569 17.5029 10.8569Z" fill="white"/>
<path d="M17.6879 10.9796C17.7495 11.0409 17.7495 11.0409 17.8111 11.0409C17.7495 11.0409 17.6879 10.9796 17.6879 10.9796Z" fill="white"/>
<path d="M17.811 11.2862L17.7494 11.1636L17.811 11.2862Z" fill="white"/>
<path d="M16.0854 10.1822C16.0238 10.1822 15.9621 10.1822 15.9005 10.1822C15.9005 10.2435 15.9005 10.2435 15.9621 10.2435C16.0238 10.2435 16.0854 10.2435 16.0854 10.1822Z" fill="white"/>
<path d="M16.4552 10.6729C16.4552 10.6115 16.4552 10.6115 16.3935 10.5502L16.3319 10.7342L16.4552 10.6729Z" fill="white"/>
<path d="M16.0238 10.6115C16.0238 10.6729 15.7773 10.7342 15.9622 10.7342C15.9622 10.6729 16.1471 10.6729 16.0238 10.6115Z" fill="white"/>
<path d="M13.7435 10.6729H13.8051L13.6819 10.3662L13.7435 10.6729Z" fill="white"/>
<path d="M12.3876 12.2677C12.5725 12.2063 12.326 12.0836 12.4493 12.0836C12.4493 12.0223 12.326 12.0836 12.326 12.0223C12.326 12.145 12.2028 12.145 12.3876 12.2677Z" fill="white"/>
<path d="M20.1531 16.9907L20.0914 16.868V16.9907H20.1531Z" fill="white"/>
<path d="M9.79918 17.7881C9.73755 17.7881 9.73755 17.8494 9.73755 17.9108C9.73755 17.8494 9.73755 17.7881 9.79918 17.7881Z" fill="white"/>
<path d="M10.2306 19.0762V19.0149L10.1689 19.1375L10.2306 19.0762Z" fill="white"/>
<path d="M11.155 19.8736C11.0934 19.8123 11.0317 19.8123 11.0317 19.8123C11.0934 19.8123 11.0317 19.9963 11.155 19.8736Z" fill="white"/>
</svg>
