<svg width="44" height="26" viewBox="0 0 44 26" fill="none" xmlns="http://www.w3.org/2000/svg">
<path d="M6.71779 24.2149C6.65649 24.2149 6.65649 24.3375 6.65649 24.3375C6.8404 24.3375 6.71779 24.1536 6.71779 24.2149Z" fill="white"/>
<path d="M8.00513 23.847V23.9084L8.18904 23.7857L8.00513 23.847Z" fill="white"/>
<path d="M9.23127 23.847C9.10867 23.6631 8.80215 23.9084 8.55693 23.847L8.49563 23.7857L8.43433 23.9697C8.74084 23.9084 9.04736 23.7857 9.23127 23.847Z" fill="white"/>
<path d="M9.90557 24.2762C9.84427 24.2149 10.0282 24.2149 9.78296 24.2762C9.78296 24.2762 9.84427 24.2762 9.90557 24.2762Z" fill="white"/>
<path d="M9.78292 24.2762C9.66031 24.2762 9.84422 24.3375 9.78292 24.2762V24.2762Z" fill="white"/>
<path d="M10.3347 24.1536L10.1508 24.2149C10.2121 24.2762 10.3347 24.2762 10.2734 24.2762C10.5186 24.2762 10.4573 24.2762 10.3347 24.1536Z" fill="white"/>
<path d="M10.5186 24.031L10.4573 24.0923C10.4573 24.0923 10.4573 24.0923 10.5186 24.031Z" fill="white"/>
<path d="M10.2734 24.1536L10.4573 24.0923C10.4573 24.031 10.396 23.9697 10.396 24.0923C10.3347 24.031 10.3347 24.0923 10.2734 24.1536Z" fill="white"/>
<path d="M10.1508 24.0923C10.0282 24.031 9.90555 24.031 10.0895 23.9697C9.78294 23.9697 9.84425 24.1536 10.1508 24.0923Z" fill="white"/>
<path d="M9.29258 23.6018L9.16997 23.5405L9.04736 23.6018C9.10867 23.5405 9.29258 23.6631 9.29258 23.6018Z" fill="white"/>
<path d="M11.4382 24.2149C11.4382 24.1536 11.3769 24.0923 11.3769 24.031L11.2543 24.0923C11.2543 24.1536 11.3769 24.1536 11.4382 24.2149Z" fill="white"/>
<path d="M11.3156 24.031L11.4995 23.9084C11.3769 23.9697 11.3156 23.9697 11.3156 24.031Z" fill="white"/>
<path d="M10.5186 23.7857L10.212 23.9697L10.5799 23.7857H10.5186Z" fill="white"/>
<path d="M12.1124 24.1536L12.0511 24.2762L12.2351 24.0923L12.1124 24.1536Z" fill="white"/>
<path d="M12.6029 24.0923C12.5416 24.2149 12.7255 24.2149 12.6642 24.2762C12.7868 24.2762 12.9094 24.1536 12.9707 24.0923C12.8481 24.1536 12.7255 24.1536 12.6029 24.0923Z" fill="white"/>
<path d="M13.1546 24.031C13.0933 24.031 13.032 24.0923 12.9707 24.1536C13.032 24.0923 13.0933 24.0923 13.1546 24.031Z" fill="white"/>
<path d="M11.806 23.9697C11.806 23.9697 11.8673 24.0923 11.9899 24.0923L11.9286 23.9697C11.8673 23.9697 11.8673 23.9697 11.806 23.9697Z" fill="white"/>
<path d="M11.009 23.847C11.1316 23.7857 11.3156 23.6631 11.1316 23.6018C11.0703 23.6631 11.1929 23.7244 11.009 23.847Z" fill="white"/>
<path d="M11.7447 23.7857H11.5608C11.5608 23.847 11.6221 23.847 11.5608 23.9084L11.7447 23.7857Z" fill="white"/>
<path d="M11.8059 23.7244L11.7446 23.7857H11.8059V23.7244Z" fill="white"/>
<path d="M12.7868 23.9084C12.8481 23.847 12.9707 23.847 13.0934 23.7857C12.9707 23.7857 12.8481 23.7857 12.7255 23.7857C12.7255 23.847 12.6642 23.9084 12.7868 23.9084Z" fill="white"/>
<path d="M12.6643 23.7857C12.603 23.7857 12.5417 23.7857 12.4803 23.847C12.5417 23.847 12.6643 23.847 12.6643 23.7857C12.7256 23.7857 12.7256 23.7857 12.6643 23.7857Z" fill="white"/>
<path d="M13.3999 23.9084C13.3386 23.9084 13.2772 23.847 13.2159 23.847C13.2772 23.9084 13.3999 23.9697 13.3999 23.9084Z" fill="white"/>
<path d="M12.419 23.9697C12.4803 23.9697 12.4803 23.9084 12.5416 23.9084C12.4803 23.847 12.419 23.9084 12.419 23.9697C12.419 23.9084 12.3577 23.9084 12.419 23.9697Z" fill="white"/>
<path d="M14.3194 22.8662C14.3194 22.9888 14.1355 23.1114 13.8903 23.0501C13.7064 23.1727 13.8903 23.5405 14.0742 23.7244C14.0742 23.6631 14.0742 23.6018 14.2581 23.5405C14.1968 23.4792 13.829 23.4179 13.9516 23.2953C14.1968 23.234 14.1968 23.2953 14.3194 23.3566C14.1968 23.234 14.6259 23.1114 14.5033 22.8662L14.3194 22.9888C14.3194 22.9275 14.3807 22.8662 14.3194 22.8662Z" fill="white"/>
<path d="M13.7063 23.7244H13.645C13.7676 23.7244 13.8289 23.7857 13.9515 23.847C14.0741 23.7857 14.0741 23.7244 14.1354 23.6631L13.7063 23.7244Z" fill="white"/>
<path d="M13.2773 23.7857C13.3386 23.6631 13.5225 23.6018 13.3999 23.4179C13.1547 23.4792 13.216 23.5405 13.0934 23.6018C13.4612 23.5405 12.9708 23.7244 13.2773 23.7857C13.216 23.7857 13.1547 23.7857 13.0934 23.847C13.1547 23.847 13.216 23.847 13.2773 23.9084C13.216 23.847 13.216 23.847 13.2773 23.7857C13.2773 23.7857 13.2773 23.847 13.2773 23.7857C13.2773 23.7857 13.3999 23.7857 13.2773 23.7857C13.2773 23.847 13.2773 23.847 13.2773 23.847L13.6451 23.7244C13.5225 23.7244 13.4612 23.7244 13.2773 23.7857Z" fill="white"/>
<path d="M11.4381 23.3566C11.4381 23.3566 11.3768 23.4179 11.3155 23.4179C11.2542 23.3566 11.3155 23.3566 11.3155 23.2953C11.2542 23.3566 11.1316 23.4179 11.3155 23.4792C11.4994 23.5405 11.6833 23.6631 11.6833 23.6631C11.622 23.5405 11.5607 23.4792 11.4381 23.3566Z" fill="white"/>
<path d="M12.3577 23.5405L12.6642 23.4792L12.4803 23.3566V23.4179C12.3577 23.4179 12.3577 23.4792 12.3577 23.5405Z" fill="white"/>
<path d="M14.1355 23.7857V23.9084L14.2581 23.7244L14.1355 23.7857Z" fill="white"/>
<path d="M14.5646 23.7244V23.847L14.6872 23.7244H14.5646Z" fill="white"/>
<path d="M26.1509 9.13422L26.0896 9.07291C26.0896 9.13422 26.1509 9.13422 26.1509 9.13422Z" fill="white"/>
<path d="M24.2505 20.2914C24.4344 20.3528 24.6796 20.4141 24.557 20.2914L24.4344 20.1688C24.4344 20.2914 24.3118 20.2914 24.2505 20.2914Z" fill="white"/>
<path d="M28.1127 14.5902C28.1127 14.6515 28.1127 14.7128 28.174 14.7128C28.1127 14.6515 28.1127 14.5902 28.1127 14.5902Z" fill="white"/>
<path d="M27.5609 14.4063L27.6835 14.2224C27.6222 14.2837 27.6222 14.345 27.5609 14.4063Z" fill="white"/>
<path d="M23.5148 7.0499L23.3309 7.1112C23.5148 7.17251 23.4535 7.0499 23.5148 7.0499Z" fill="white"/>
<path d="M18.7333 22.5597C18.8559 22.5597 18.9785 22.5597 19.0398 22.5597C18.8559 22.4984 18.7333 22.4371 18.7333 22.5597Z" fill="white"/>
<path d="M27.4383 8.52118C27.377 8.45988 27.3157 8.45988 27.3157 8.52118C27.377 8.58249 27.4383 8.58249 27.4383 8.52118Z" fill="white"/>
<path d="M19.3462 22.4371H19.2849C19.2236 22.4984 19.1623 22.5597 19.0397 22.5597C19.1623 22.5597 19.2849 22.5597 19.3462 22.4371Z" fill="white"/>
<path d="M7.94385 0.306519C8.00515 0.306519 8.06646 0.306519 8.12776 0.306519C8.06646 0.306519 8.06645 0.245216 7.94385 0.306519Z" fill="white"/>
<path d="M16.1585 23.4179C16.0972 23.4179 16.0972 23.4179 16.0972 23.4179C16.0972 23.4792 16.0972 23.4792 16.1585 23.4179Z" fill="white"/>
<path d="M16.4037 23.3566C16.3424 23.3566 16.2811 23.3566 16.2811 23.3566C16.2811 23.4179 16.3424 23.3566 16.4037 23.3566Z" fill="white"/>
<path d="M25.5992 17.6554C25.5992 17.8393 25.5379 17.9006 25.4153 17.9006L25.7218 18.1458L25.5992 17.6554Z" fill="white"/>
<path d="M25.1089 8.09206C25.1089 8.15336 25.1702 8.21466 25.1702 8.33727C24.8637 8.33727 24.7411 8.15336 24.8024 8.39858C25.1089 8.09206 25.3541 8.889 25.7219 8.58249C25.7219 8.64379 25.7219 8.70509 25.7219 8.7664C25.7219 8.7664 25.6606 8.7664 25.6606 8.70509C25.6606 9.01161 26.0284 8.64379 26.151 8.95031C26.2123 9.07291 26.2123 9.13422 26.0897 9.13422L26.3349 9.25682C26.3963 9.31813 26.2736 9.31813 26.2736 9.25682C26.335 9.31813 26.3963 9.44073 26.5189 9.56334C26.5802 9.56334 26.7641 9.62464 26.8254 9.68595C26.8254 9.80856 26.7641 9.68595 26.7028 9.68595L26.8867 9.86986C26.8254 9.99247 26.6415 9.86986 26.5802 9.74725C26.2736 10.1151 26.7641 9.86986 26.7028 10.3603C26.6415 10.299 26.6415 10.2377 26.5802 10.1764C26.3963 10.3603 26.5802 10.4829 26.5189 10.7281C26.5802 10.6668 26.7028 10.1764 26.8867 10.3603C26.8867 10.4216 26.8867 10.5442 27.0093 10.6055C26.8867 10.6668 26.948 10.7894 27.0093 10.912L26.8254 10.9733C26.948 11.0959 27.0093 11.0959 27.1319 11.1572C27.1932 11.3411 27.0093 11.4024 26.8867 11.5251C26.948 11.8316 27.0706 11.2798 27.1932 11.5864C27.1932 11.8316 27.3158 12.0155 27.4384 12.2607C27.3771 12.4446 27.3158 12.2607 27.2545 12.322L27.4384 12.4446C27.4384 12.5059 27.3771 12.5059 27.3771 12.4446C27.4384 12.5672 27.561 12.4446 27.6223 12.6285C27.8062 12.6898 27.3771 13.0576 27.561 13.3029C27.4997 13.3642 27.4384 13.3029 27.3771 13.3029C27.561 13.6707 27.4997 13.6094 27.6836 13.9159L27.561 14.1611C27.7449 13.9772 27.8675 14.2224 27.9901 14.4676C28.0515 14.4063 28.1127 14.345 28.1741 14.345C28.1741 14.4676 28.2354 14.5902 28.2354 14.7128C28.1741 14.7741 28.1127 14.7128 28.0514 14.6515C28.0514 14.6515 28.0514 14.7128 28.1128 14.7128C27.9901 14.8354 27.9288 14.7128 27.8062 14.6515C27.8675 14.5902 27.9288 14.5902 27.9288 14.5289C27.8062 14.4063 27.6836 14.345 27.561 14.345C27.561 14.345 27.6223 14.4063 27.6223 14.4676L27.561 14.4063C27.561 14.4063 27.561 14.4676 27.6223 14.5289L27.3771 14.5902L27.4384 14.6515L27.2545 15.0193C27.3771 15.3259 27.6223 15.6937 27.4997 16.2454C27.3771 16.0615 27.2545 16.1228 27.1319 16.0002C27.3771 15.9389 27.1932 15.6324 27.3158 15.3872C27.2545 15.5098 27.1932 15.4485 27.1319 15.3872C27.1319 15.5711 27.1319 15.6937 27.1319 15.8776C27.0093 15.8163 27.0093 15.9389 26.8867 16.0002C27.0706 16.0002 27.0706 16.1228 27.0093 16.2454C26.948 16.368 26.8867 16.4906 26.8867 16.6132C26.7641 16.5519 26.7028 16.4906 26.8867 16.3067C26.5802 16.368 27.0093 16.7358 26.7641 16.8585C26.7641 16.7971 26.8254 16.7971 26.7641 16.7358C26.7641 16.9198 26.5189 17.1037 26.5189 16.9811L26.5802 16.9198C26.335 17.165 25.8445 17.6554 25.9671 17.9006C25.9671 17.9006 25.7832 17.6554 25.7832 17.5941C25.8445 17.9619 25.7832 18.3297 25.7832 18.6976C25.7219 18.4523 25.2315 18.2071 25.3541 17.9006C25.2928 17.9006 25.1702 17.9619 25.0476 18.1458C25.1089 18.1458 25.3541 18.3297 25.2928 18.391C24.9863 18.3297 25.1089 18.391 24.7411 18.3297C24.8637 18.3297 24.925 18.6976 24.8024 18.7589C24.8024 18.6976 24.6185 18.4523 24.6185 18.391C24.5572 18.5749 24.5571 18.6976 24.4958 18.8815C24.5571 18.7589 24.3732 18.6363 24.2506 18.575C24.3119 18.6363 24.0054 18.7589 23.9441 18.8202H24.128C23.7602 19.0041 24.0054 19.4332 23.6376 19.6171C23.6376 19.5558 23.515 19.188 23.3311 19.2493C23.3311 19.4332 23.3311 20.1688 23.0859 20.4754L22.9633 20.4141L22.7794 20.6593C22.8407 20.3528 23.0246 19.6171 23.1472 19.3106C22.9633 19.3106 23.0246 19.2493 22.8407 19.3106C22.718 19.2493 22.902 19.1267 22.9633 19.0654C22.7793 19.1267 22.6567 19.188 22.4728 19.2493C22.5954 19.4332 22.2276 19.6171 22.2889 19.7397L22.718 19.3106C22.8407 19.4945 22.6567 19.9849 22.2889 20.1075C22.1663 20.0462 22.2276 19.7397 22.1663 19.6784C22.1663 19.7397 21.9211 19.9236 21.8598 19.9236L21.9824 19.7397C21.7372 19.7397 21.7985 20.1075 21.492 20.0462C21.4307 20.0462 21.1242 19.9236 21.1855 20.0462C21.4307 20.2301 21.7372 20.8432 21.6759 21.0884C21.6146 21.0884 21.1242 21.0884 21.0015 20.9658C20.8176 20.8432 21.0629 20.4754 20.8789 20.3528C20.8789 20.4141 20.8176 20.4754 20.8176 20.5367C20.695 20.5367 20.8176 20.3528 20.6337 20.4754C20.695 20.6593 20.2659 20.598 20.6337 20.6593C20.4498 20.7819 20.4498 20.7206 20.2046 20.7819C20.3272 20.9045 20.1433 21.2723 20.0207 21.3949C20.0207 21.3336 19.9594 21.2723 19.8981 21.2723C19.5303 21.3949 19.2851 21.3949 18.9172 21.5175C18.8559 21.4562 18.672 21.4562 18.7333 21.3949C18.672 21.4562 18.672 21.5175 18.5494 21.5788C18.3042 21.4562 18.7946 21.4562 18.5494 21.3336C18.5494 21.4562 18.3042 21.5788 18.1816 21.7014C18.3042 21.8853 18.5494 21.6401 18.672 21.5175C18.7333 21.7627 18.5494 22.1306 18.2429 22.3758C17.9364 22.5597 18.059 22.2532 17.9977 22.3145C17.446 22.4371 17.6299 22.8662 17.1394 22.8662C16.8942 22.7436 17.0168 22.5597 16.9555 22.4371C17.2007 22.3145 17.3846 22.4371 17.5073 22.3758H17.262C17.3233 22.3145 17.5073 22.1919 17.5686 22.2532C17.3846 22.1305 16.5877 22.4984 16.0973 22.4984C16.036 22.5597 15.9134 22.6823 15.9747 22.6823L16.0973 22.621C16.2812 22.7436 15.9134 22.8662 16.0973 22.8662C15.9134 22.9888 15.7908 23.234 15.4842 23.1727L15.3616 22.9888C15.3616 23.0501 15.5455 23.0501 15.6068 22.9888C15.4842 23.1114 15.1164 22.8662 15.0551 23.1114L15.3003 23.234C15.1164 23.3566 14.9325 23.6018 14.626 23.6018C14.7486 23.7857 14.6873 23.6018 14.8712 23.7857C14.6873 23.5405 15.5455 23.6631 15.239 23.4179C15.4842 23.6018 15.6068 23.4792 15.9134 23.6018C15.9134 23.5405 15.7908 23.4792 16.036 23.4792V23.4179C15.9747 23.4179 15.9134 23.3566 15.9134 23.3566C15.9747 23.1727 16.2812 23.1114 16.4038 22.9888C16.5264 22.9888 16.4038 23.0501 16.4651 23.1114L16.5877 22.9888C16.649 23.1114 16.9555 23.1114 16.7103 23.2953L16.9555 23.234C17.1394 23.2953 17.3233 23.234 17.4459 23.1727C17.5686 23.1727 17.6912 22.9275 17.6299 23.0501L17.9977 22.8662V22.9275C18.3655 22.8049 18.7333 22.4371 19.2238 22.5597C19.3464 22.4984 19.469 22.3758 19.7142 22.3758L19.7755 22.4984C19.8981 22.3758 20.3272 22.4371 20.3272 22.3145C20.6337 22.5597 21.1242 22.0692 21.4307 22.0079L21.3694 21.8853C21.5533 21.824 21.7372 21.7014 21.9824 21.5175L21.9211 21.3949C22.105 21.211 22.4728 21.2723 22.8407 21.0884C22.8407 21.1497 22.7793 21.1497 22.6567 21.1497C23.2085 21.2723 23.3924 20.5367 23.8215 20.598C23.8828 20.5367 23.9441 20.4754 24.0054 20.4754C24.0054 20.4754 24.0054 20.4754 24.0667 20.4754C24.128 20.4754 24.1893 20.4754 24.2506 20.4754C24.1893 20.4754 24.128 20.4754 24.128 20.4754C24.1893 20.4141 24.3119 20.3528 24.3732 20.2914L24.4958 20.4141C24.6185 20.4141 24.5572 20.2914 24.4345 20.2301C24.4958 20.1688 24.4958 20.1075 24.4958 20.1075C24.6798 20.2914 24.6798 19.8623 24.925 20.0462C24.925 19.9236 25.3541 19.6784 25.2928 19.4332C25.2928 19.4332 25.3541 19.4332 25.2928 19.4945C25.4154 19.4332 25.538 19.4332 25.5993 19.3106L25.7219 19.4332C25.7219 19.3106 25.7832 19.188 25.7832 19.0654C25.9671 19.0654 26.0897 19.0654 26.0284 19.3106C26.2123 18.8815 26.2736 19.0654 26.3963 18.6363L26.4576 18.7589C26.5802 18.6976 26.5802 18.391 26.7028 18.4523C26.8867 18.4523 27.1319 18.2071 27.3771 17.9006C27.4997 17.778 27.6223 17.5328 27.7449 17.4102C27.8675 17.2263 27.9901 17.0424 28.1128 16.9198C27.7449 16.9198 28.4193 16.6745 28.1741 16.5519C28.2967 16.5519 28.358 16.4906 28.358 16.6132C28.4193 16.2454 28.6645 16.1228 28.5419 15.8163C28.6645 15.8163 28.6645 15.9389 28.7258 15.8776C28.7258 15.8163 28.6645 15.755 28.7258 15.6937C28.7871 15.6937 28.7871 15.755 28.7871 15.8163C28.8484 15.4485 28.6032 15.3259 28.358 15.2646C28.4806 15.0807 28.5419 15.0193 28.358 14.8354C28.4193 14.7741 28.5419 14.6515 28.5419 14.8967C28.5419 14.7741 28.7258 14.0998 28.5419 14.0998C28.6032 14.0385 28.5419 13.9159 28.5419 13.9159C28.5419 13.6094 28.6032 13.6094 28.5419 13.3029V13.3642C28.2967 13.2415 28.4806 13.1189 28.4193 12.935C28.5419 12.3833 28.2967 12.7511 28.4193 12.1994L28.2967 12.2607C27.9901 12.2607 28.358 11.7703 28.1741 11.5251L28.1128 11.6477C27.9901 11.5251 28.4193 11.0959 28.358 10.912C28.358 10.8507 28.4193 10.9733 28.4806 10.9733C28.5419 10.4829 28.2967 10.9733 28.1128 10.6668C28.1741 10.6055 28.4193 10.6668 28.358 10.4216C28.4193 10.299 27.8062 9.93116 27.8675 9.62464C27.8062 9.74725 27.8062 9.80856 27.6836 9.68595C27.561 9.50204 27.6223 8.95031 27.3158 8.95031C27.3158 8.889 27.3158 8.889 27.3158 8.889C27.1932 8.7664 26.8867 8.45988 26.7028 8.45988C27.0093 7.96945 25.7832 7.84684 26.0897 7.54033L25.6606 7.23381H25.7219C25.4767 6.9886 25.2928 6.9886 25.1702 7.0499C25.1089 6.9886 25.1702 6.9886 25.2315 6.9886C24.925 6.62077 24.8637 6.62078 24.3732 6.55947L24.4345 6.43686C24.3119 6.43686 24.0054 5.82383 23.4537 5.76253C23.4537 5.76253 23.515 5.70122 23.515 5.76253C22.9633 5.63992 22.5954 4.72037 22.1663 5.14949L21.7985 4.53646C22.1663 4.78167 21.6146 4.72037 21.7372 4.90428C21.5533 4.84297 21.4307 4.53646 21.6146 4.59776V4.65906C21.7985 4.41385 21.1855 4.29124 21.2468 4.10733C20.4498 3.67821 19.7142 3.18778 18.9785 2.81996V3.06517L18.7333 2.94257C18.672 2.88126 18.7333 2.75866 18.9172 2.81996C18.8559 2.63605 18.5494 2.75866 18.5494 2.81996C18.4268 2.75866 18.3655 2.69735 18.4268 2.69735C18.4268 2.69735 18.4268 2.63605 18.5494 2.63605C18.672 2.63605 18.7946 2.63605 18.7333 2.63605C18.672 2.63605 18.5494 2.57475 18.4881 2.57475C18.4881 2.57475 18.4881 2.57475 18.5494 2.63605C18.3655 2.69735 18.3655 2.75866 18.1203 2.69735C17.9977 2.63605 18.059 2.51344 18.059 2.51344C18.059 2.51344 18.059 2.51344 17.9977 2.45214L17.5073 2.26823L17.5686 2.45214C17.3846 2.51344 17.262 2.32953 17.3233 2.57475C17.2007 2.20693 16.036 2.08432 15.9134 1.96171C15.6681 2.02302 15.4229 1.96171 15.1777 1.83911C15.239 1.90041 15.239 2.08432 14.9938 2.02302C15.1777 1.65519 14.626 1.7165 14.5034 1.40998C14.626 1.65519 13.829 1.28737 14.013 1.59389C13.829 1.53259 14.013 1.47128 13.8904 1.28737C13.3999 1.28737 12.9095 0.919553 12.2965 0.85825C12.2965 0.919553 12.3578 0.980857 12.2352 1.04216L11.9899 0.735643C11.8673 0.735643 11.806 1.04216 11.6221 0.796946C11.6221 0.85825 11.6834 0.919553 11.5608 0.919553C11.0091 0.674339 10.3961 0.613036 9.84432 0.551732C9.23129 0.490429 8.67956 0.429125 8.06652 0.122608C8.25043 0.245215 8.12782 0.245215 8.00522 0.245215C8.06652 0.245215 8.00522 0.367822 8.00522 0.429125C7.82131 0.367822 7.6374 0.306519 7.45349 0.245215C7.39219 0.367822 7.26958 0.367822 7.14697 0.367822C7.02436 0.429125 6.84045 0.429125 6.84045 0.551732L7.02436 0.490429C6.90175 0.613036 7.02436 0.735643 7.14697 0.85825C7.26958 0.980857 7.39218 1.10346 7.39218 1.28737C7.57609 1.04216 7.94391 1.65519 8.31173 1.28737C8.37304 1.34868 8.25043 1.34868 8.25043 1.47128C8.37303 1.34868 8.43434 1.34868 8.67956 1.40998C9.23129 1.47128 9.4765 1.59389 10.1508 1.7778V1.65519C10.2734 1.7165 10.3347 1.7165 10.396 1.7778C10.58 1.59389 10.0282 1.7165 10.2121 1.47128C10.3348 1.7778 11.193 1.65519 11.2543 2.02302C11.4382 2.08432 11.2543 1.83911 11.4382 1.90041L11.4995 2.02302L11.5608 1.90041C11.6834 1.96171 11.7447 2.08432 11.7447 2.14562C11.6834 2.14562 11.6221 2.14562 11.6221 2.14562C11.806 2.26823 12.1125 2.20693 12.1739 2.26823L11.9899 2.20693C12.603 2.26823 13.2773 2.57475 13.8904 2.51344V2.45214C14.3808 2.45214 14.1969 2.63605 14.6873 2.69735C14.8099 2.63605 14.9325 2.63605 15.0551 2.69735C14.9325 2.75866 15.239 2.88126 15.0551 2.94257C15.5455 2.94257 15.3003 2.88126 15.6681 2.75866L15.7295 2.88126C15.8521 2.81996 15.9134 2.75866 16.1586 2.81996C15.9134 2.88126 16.2812 3.00387 16.036 3.06517C16.4651 3.433 16.8329 3.06517 16.9555 3.433C17.262 3.18778 16.5877 3.12648 16.7103 3.12648C16.649 3.00387 16.9555 2.94257 17.1394 3.06517C17.3233 3.12648 17.262 3.5556 17.6912 3.67821C17.6299 3.67821 17.6299 3.67821 17.6299 3.67821C17.7525 3.80082 17.9364 3.67821 18.1203 3.86212C18.1816 3.80082 18.2429 3.80082 18.3042 3.80082C18.3042 3.80082 18.3655 3.80082 18.4268 3.73951C18.3655 3.73951 18.3042 3.73951 18.3042 3.67821L18.1203 3.61691C18.2429 3.61691 18.3655 3.5556 18.4881 3.5556C18.6107 3.5556 18.7946 3.5556 18.9172 3.67821C18.8559 3.73951 18.7333 3.73951 18.672 3.73951C18.7333 3.86212 18.8559 3.80082 18.9172 3.86212C18.8559 3.98473 18.7333 3.92342 18.6107 3.86212C18.4881 3.80082 18.3042 3.73951 18.2429 3.80082C18.1816 3.86212 18.672 3.80082 18.4268 3.98473C18.7333 3.73951 18.7946 4.16864 19.1624 4.04603L19.1011 4.16864C19.1624 4.16864 19.2851 4.16864 19.3464 4.16864L19.1624 4.29124C19.4077 4.22994 19.469 4.59776 19.7142 4.59776C19.2851 4.41385 19.7142 4.41385 19.5916 4.22994C20.2046 4.29124 19.7142 4.72037 20.3272 4.90428C20.2659 4.90428 20.082 4.65906 20.2046 4.65906C20.3272 4.72037 20.3885 4.84297 20.4498 4.96558C20.8176 5.14949 20.4498 4.78167 20.6337 4.78167C20.695 5.02688 20.8176 4.78167 21.0629 4.84297L21.0015 4.96558C21.3694 5.2721 21.2468 4.78167 21.5533 5.02689L21.3081 5.14949L21.5533 5.2108L21.4307 5.3334C21.6759 5.3334 21.7372 5.39471 21.9211 5.57862C21.9211 5.45601 22.105 5.3334 22.2889 5.45601C22.3502 5.57862 22.1663 5.51731 22.4115 5.63992C22.2889 5.70122 22.1663 5.76253 22.1663 5.57862C22.105 5.63992 22.0437 5.63992 22.0437 5.63992C22.105 5.82383 22.3502 5.82383 22.4728 5.88513C22.4115 5.88513 22.4115 5.82383 22.4115 5.82383L22.902 5.88513C22.902 5.94644 22.8407 6.00774 22.7794 6.00774C22.8407 6.00774 22.9633 6.00774 23.0859 6.06904C23.0246 6.13035 22.9633 6.25295 22.7794 6.25295L23.2085 6.37556C23.2085 6.43686 23.3311 6.62078 23.2698 6.62078C23.3924 6.80469 23.8828 6.68208 24.0667 6.92729C24.0667 6.92729 24.128 6.92729 24.1893 6.92729C24.3732 7.1112 24.4958 7.35642 24.8637 7.41772V7.72424C25.1089 7.84684 24.8024 7.35642 25.2315 7.54033C25.538 7.66293 25.2315 7.72424 25.2315 7.84684C25.4154 7.84684 25.7832 7.84684 25.8445 8.15336C25.2315 8.21467 25.2315 8.15336 25.1089 8.09206ZM26.8867 10.4216C26.8254 10.3603 26.7028 10.299 26.7641 10.2377C26.948 10.2377 26.948 10.299 26.8867 10.4216ZM27.7449 14.958C27.6836 14.8967 27.7449 14.8354 27.8062 14.7741C27.8062 14.8354 27.8062 14.8967 27.7449 14.958ZM17.2007 23.0501C17.3233 23.0501 17.262 23.0501 17.2007 23.0501V23.0501ZM16.8942 23.0501V23.1114C16.8942 23.0501 16.9555 23.0501 17.0168 23.0501C17.0168 22.9888 16.9555 22.9888 16.8942 23.0501ZM17.9364 2.51344C17.8138 2.51344 17.8751 2.51344 17.9364 2.51344V2.51344Z" fill="white"/>
<path d="M27.6222 14.4063H27.6835C27.6835 14.4063 27.6835 14.345 27.6222 14.4063Z" fill="white"/>
<path d="M23.5763 6.9886C23.5149 6.9886 23.5149 7.0499 23.5763 6.9886V6.9886Z" fill="white"/>
<path d="M20.7562 20.4141C20.8175 20.4141 20.8788 20.4141 20.8788 20.4141C20.8788 20.4141 20.8788 20.3527 20.7562 20.4141Z" fill="white"/>
<path d="M15.3616 23.7244C15.4229 23.7244 15.4842 23.6631 15.5455 23.6631C15.4229 23.7244 15.4229 23.6631 15.3616 23.6631C15.3616 23.6631 15.4229 23.6631 15.3616 23.7244Z" fill="white"/>
<path d="M13.5838 23.0501H13.5225V23.1114C13.6451 23.1114 13.7064 23.0501 13.5838 23.0501Z" fill="white"/>
<path d="M15.1163 23.234C15.055 23.1114 14.9937 23.1727 14.8098 23.234C14.8098 23.4179 14.9324 23.3566 15.1163 23.234Z" fill="white"/>
<path d="M14.8099 23.234C14.7486 23.234 14.7486 23.234 14.6873 23.234C14.626 23.3566 14.6873 23.2953 14.8099 23.234Z" fill="white"/>
<path d="M16.5263 23.234C16.465 23.234 16.5263 23.4179 16.465 23.3566C16.465 23.5405 16.8328 23.0501 16.5263 23.234Z" fill="white"/>
<path d="M14.9324 22.8662L14.9937 22.9888L15.055 22.8662H14.9324Z" fill="white"/>
<path d="M15.9746 22.7436H15.7294C15.7294 22.7436 15.7294 22.8049 15.6681 22.8049C15.852 22.8049 15.9746 22.8049 15.9746 22.7436Z" fill="white"/>
<path d="M15.7293 22.8049C15.668 22.8049 15.6067 22.8662 15.5454 22.8662C15.5454 22.8662 15.668 22.8662 15.7293 22.8049Z" fill="white"/>
<path d="M18.1202 22.1306L18.3042 22.0079C18.3042 21.9466 18.2428 21.9466 18.1815 22.0079C18.1815 22.0692 18.1202 22.0692 18.1202 22.1306Z" fill="white"/>
<path d="M17.3232 21.9466C17.3845 21.9466 17.3845 22.0079 17.4458 22.0079L17.3845 21.824L17.3232 21.9466Z" fill="white"/>
<path d="M17.9977 21.7014C17.9977 21.6401 18.2429 21.4562 17.9977 21.5788C17.9977 21.5788 17.7524 21.7014 17.9977 21.7014Z" fill="white"/>
<path d="M21.308 20.7819H21.2467L21.3693 21.0884L21.308 20.7819Z" fill="white"/>
<path d="M23.6988 18.8202C23.4536 18.8815 23.7601 19.0041 23.5149 19.0654C23.5149 19.188 23.6988 19.0654 23.6988 19.1267C23.7601 18.9428 23.8214 18.9428 23.6988 18.8202Z" fill="white"/>
<path d="M23.6375 19.0654L23.5762 19.1267C23.6375 19.1267 23.6375 19.1267 23.6375 19.0654Z" fill="white"/>
<path d="M7.20822 0.183912H6.96301L7.14692 0.245216L7.20822 0.183912Z" fill="white"/>
<path d="M6.84041 0.490429L6.71779 0.306519L6.65649 0.490429C6.7178 0.490429 6.7791 0.429125 6.84041 0.490429Z" fill="white"/>
<path d="M26.7026 10.9733C26.7639 10.912 26.7639 10.912 26.7639 10.8507L26.7026 10.9733Z" fill="white"/>
<path d="M25.9058 9.13422L26.0284 8.95031L25.9058 9.13422Z" fill="white"/>
<path d="M24.4344 8.03075C24.4958 8.09206 24.5571 8.09206 24.6184 8.15336C24.4958 8.09206 24.5571 7.84684 24.4344 8.03075Z" fill="white"/>
<path d="M27.99 15.9389C27.9287 15.9389 27.9287 16.0615 27.9287 16.0615C27.99 16.0615 27.99 15.9389 27.99 15.9389Z" fill="white"/>
<path d="M28.9708 15.6937L28.9095 15.755L29.0934 15.6324L28.9708 15.6937Z" fill="white"/>
<path d="M29.8905 15.755C29.8292 15.5098 29.584 15.755 29.4 15.6937V15.6324L29.3387 15.8163C29.4614 15.755 29.7066 15.6937 29.8905 15.755Z" fill="white"/>
<path d="M30.3195 16.2454C30.3195 16.1841 30.4421 16.1841 30.1969 16.1841C30.2582 16.2454 30.2582 16.2454 30.3195 16.2454Z" fill="white"/>
<path d="M30.2583 16.2454C30.1357 16.2454 30.3196 16.3067 30.2583 16.2454V16.2454Z" fill="white"/>
<path d="M30.6874 16.1841L30.5648 16.2454C30.5648 16.3067 30.6874 16.3067 30.6261 16.368C30.81 16.3067 30.7487 16.3067 30.6874 16.1841Z" fill="white"/>
<path d="M30.81 16.0615H30.7487C30.7487 16.1228 30.7487 16.1228 30.81 16.0615Z" fill="white"/>
<path d="M30.6261 16.1228L30.7487 16.0615C30.7487 16.0002 30.7487 15.9389 30.6874 16.0615C30.6874 16.0002 30.6874 16.0615 30.6261 16.1228Z" fill="white"/>
<path d="M30.5035 16.1228C30.4422 16.0615 30.3196 16.0615 30.5035 15.9389C30.2583 15.9389 30.2583 16.1228 30.5035 16.1228Z" fill="white"/>
<path d="M29.9517 15.5098L29.8291 15.4485L29.7678 15.5098C29.7678 15.5098 29.9517 15.5711 29.9517 15.5098Z" fill="white"/>
<path d="M31.4843 16.368C31.4843 16.3067 31.423 16.2454 31.423 16.1841L31.3004 16.2454C31.3617 16.2454 31.4843 16.3067 31.4843 16.368Z" fill="white"/>
<path d="M31.423 16.1841L31.5456 16.1228C31.423 16.0615 31.423 16.1228 31.423 16.1841Z" fill="white"/>
<path d="M30.8713 15.8163L30.6261 15.9389L30.8713 15.8163Z" fill="white"/>
<path d="M31.9748 16.4293L31.9135 16.4906L32.0361 16.368L31.9748 16.4293Z" fill="white"/>
<path d="M32.3426 16.4293C32.2813 16.4906 32.404 16.6132 32.3426 16.6132C32.4653 16.6132 32.5266 16.5519 32.5879 16.4906C32.5266 16.5519 32.4653 16.4906 32.3426 16.4293Z" fill="white"/>
<path d="M32.7104 16.4293C32.6491 16.4293 32.6491 16.4906 32.5878 16.4906C32.6491 16.4906 32.7104 16.4293 32.7104 16.4293Z" fill="white"/>
<path d="M31.7909 16.1228C31.7909 16.1228 31.7909 16.2454 31.9135 16.2454L31.7909 16.1228C31.8522 16.1228 31.8522 16.1228 31.7909 16.1228Z" fill="white"/>
<path d="M31.8522 16.1228C31.9135 16.1228 31.9748 16.1228 31.9748 16.1228C31.9748 16.1841 31.9135 16.1841 31.8522 16.1228Z" fill="white"/>
<path d="M31.2391 15.9389C31.3004 15.8776 31.4844 15.8163 31.3618 15.6937C31.2391 15.755 31.3617 15.8163 31.2391 15.9389Z" fill="white"/>
<path d="M31.7295 16.0002L31.6069 15.9389C31.6069 16.0002 31.6069 16.0002 31.6069 16.0615L31.7295 16.0002Z" fill="white"/>
<path d="M31.7908 15.9389L31.7295 16.0002H31.7908V15.9389Z" fill="white"/>
<path d="M32.5265 16.2454C32.5878 16.1841 32.6491 16.1841 32.7717 16.1841C32.7104 16.1228 32.5878 16.1228 32.5265 16.1228C32.4652 16.1841 32.4039 16.2454 32.5265 16.2454Z" fill="white"/>
<path d="M32.4651 16.1228C32.4038 16.0615 32.3425 16.1228 32.3425 16.1841C32.3425 16.1228 32.4038 16.1228 32.4651 16.1228Z" fill="white"/>
<path d="M32.9556 16.368C32.9556 16.3067 32.8943 16.3067 32.833 16.3067C32.8943 16.3067 32.9556 16.4293 32.9556 16.368Z" fill="white"/>
<path d="M32.22 16.2454C32.2813 16.2454 32.2813 16.1841 32.2813 16.1841C32.2813 16.1841 32.22 16.1841 32.22 16.2454C32.22 16.1841 32.22 16.1841 32.22 16.2454Z" fill="white"/>
<path d="M33.8139 15.5098C33.7525 15.6324 33.5686 15.6937 33.446 15.5711C33.2621 15.6324 33.3234 16.0615 33.446 16.3067C33.446 16.2454 33.446 16.1841 33.6299 16.1841C33.5686 16.1228 33.3234 16.0002 33.446 15.8776C33.6299 15.8163 33.5686 15.9389 33.6912 16.0002C33.6299 15.8163 33.9978 15.8163 33.9978 15.5711L33.8139 15.6324C33.8139 15.5711 33.8752 15.5711 33.8139 15.5098Z" fill="white"/>
<path d="M33.2008 16.2454C33.2008 16.3067 33.2621 16.3067 33.3234 16.4293C33.446 16.368 33.446 16.368 33.446 16.3067L33.2008 16.2454Z" fill="white"/>
<path d="M32.8944 16.1841C32.9557 16.0615 33.0783 16.0002 33.017 15.8776C32.8331 15.8776 32.8944 16.0002 32.7717 16.0002C33.0783 16.0002 32.6491 16.1228 32.8944 16.1841C32.8331 16.1841 32.7718 16.1841 32.7104 16.1841C32.7718 16.1841 32.8331 16.2454 32.8331 16.2454C32.8331 16.2454 32.8331 16.2454 32.8944 16.1841C32.8944 16.2454 32.8331 16.2454 32.8944 16.1841C32.8944 16.2454 32.9557 16.2454 32.8944 16.1841V16.2454L33.2009 16.1841C33.0783 16.1841 33.017 16.1841 32.8944 16.1841Z" fill="white"/>
<path d="M31.4844 15.3872C31.4844 15.4485 31.4844 15.4485 31.4844 15.3872C31.5457 15.4485 31.5457 15.4485 31.4844 15.3872Z" fill="white"/>
<path d="M31.607 15.5098C31.607 15.5098 31.5457 15.5711 31.4844 15.5711C31.4231 15.5098 31.4844 15.5098 31.4844 15.4485C31.4231 15.5098 31.3618 15.5098 31.4844 15.6324C31.607 15.6937 31.7296 15.8776 31.7296 15.8776C31.7296 15.6937 31.6683 15.6324 31.607 15.5098Z" fill="white"/>
<path d="M32.2812 15.8163L32.5265 15.755L32.4039 15.6324V15.6937C32.2812 15.6937 32.2812 15.755 32.2812 15.8163Z" fill="white"/>
<path d="M33.5074 16.368L33.446 16.4906L33.63 16.3067L33.5074 16.368Z" fill="white"/>
<path d="M33.8139 16.4293L33.7526 16.5519L33.8139 16.4906V16.4293Z" fill="white"/>
<path d="M40.312 20.3528C40.4346 20.4141 40.6798 20.598 40.6185 20.4754L40.5572 20.3528C40.4346 20.3528 40.3733 20.3528 40.312 20.3528Z" fill="white"/>
<path d="M41.7833 15.5711C41.8446 15.6324 41.8446 15.6324 41.9059 15.6324C41.9059 15.5711 41.8446 15.5711 41.7833 15.5711Z" fill="white"/>
<path d="M40.7411 10.5442L40.6185 10.6668C40.7411 10.6668 40.6798 10.6055 40.7411 10.5442Z" fill="white"/>
<path d="M36.0822 17.7167C36.0822 17.8393 36.1435 17.9006 36.1435 17.9619C36.1435 17.778 36.1435 17.6554 36.0822 17.7167Z" fill="white"/>
<path d="M43.0094 12.2607C43.0094 12.1994 42.9481 12.1994 42.9481 12.1994C43.0094 12.2607 43.0094 12.2607 43.0094 12.2607Z" fill="white"/>
<path d="M36.3273 18.1458C36.3273 18.0845 36.3273 18.0845 36.3273 18.1458C36.266 18.0845 36.2047 18.0232 36.1434 17.9619C36.1434 18.0232 36.2047 18.1458 36.3273 18.1458Z" fill="white"/>
<path d="M34.7335 16.7358C34.6722 16.6745 34.6722 16.6745 34.7335 16.7358C34.6722 16.6745 34.6722 16.7358 34.7335 16.7358Z" fill="white"/>
<path d="M37.1243 11.3411C37.063 11.4024 37.1243 11.3411 37.1243 11.3411V11.3411Z" fill="white"/>
<path d="M41.2929 18.1458C41.3542 18.3297 41.3542 18.3297 41.2316 18.391C41.3542 18.4523 41.4768 18.5136 41.5381 18.575C41.4768 18.391 41.4155 18.2684 41.2929 18.1458Z" fill="white"/>
<path d="M41.4768 11.0959L41.4154 11.2185C41.1702 11.1572 41.2315 11.0959 41.1089 11.2185C41.2928 11.1572 41.3541 11.2185 41.4154 11.2798C41.4154 11.4024 41.4767 11.4637 41.6607 11.4637C41.6607 11.5251 41.5994 11.5251 41.5994 11.5251C41.5994 11.5251 41.5994 11.5251 41.5994 11.4637C41.4154 11.6477 41.9059 11.5251 41.8446 11.7703C41.7833 11.8316 41.722 11.8929 41.722 11.8316C41.7833 11.8929 41.7833 11.9542 41.7833 12.0155C41.7833 12.0768 41.722 12.0155 41.722 12.0155C41.722 12.0768 41.722 12.1994 41.722 12.2607C41.7833 12.322 41.8446 12.4446 41.8446 12.5059C41.7833 12.5672 41.8446 12.4446 41.7833 12.4446C41.7833 12.5059 41.7833 12.5672 41.8446 12.6285C41.722 12.6285 41.6607 12.5059 41.722 12.3833C41.2928 12.322 41.7833 12.5059 41.4154 12.6898V12.5672C41.1702 12.5059 41.2315 12.6285 40.9863 12.6898C41.0476 12.7511 41.4154 12.6898 41.4768 12.8737C41.4154 12.8737 41.3541 12.935 41.4154 13.0576C41.2928 12.9963 41.2928 13.0576 41.2315 13.1189L41.1089 12.9963C41.1089 13.1189 41.1089 13.1802 41.1089 13.3029C40.925 13.4255 40.7411 13.4255 40.5572 13.3642C40.3733 13.4868 40.4959 13.4868 40.5572 13.4868C40.6798 13.4868 40.8024 13.4868 40.6798 13.6094C40.6798 13.6094 40.6798 13.6094 40.6798 13.6707C40.5572 13.9159 40.5572 14.1611 40.5572 14.345C40.4346 14.4676 40.4959 14.345 40.4346 14.345C40.4346 14.4063 40.4959 14.4063 40.4959 14.4676H40.4346C40.4959 14.5289 40.5572 14.4676 40.6185 14.5902C40.6798 14.5902 40.6798 14.6515 40.6798 14.7741C40.6798 14.8354 40.6185 15.0807 40.8024 15.142C40.7411 15.2033 40.6798 15.142 40.6185 15.2033L40.6798 15.2646C41.0476 15.4485 41.0476 15.4485 41.4154 15.5711C41.4154 15.6324 41.4154 15.755 41.4154 15.8163C41.4154 15.6324 41.6607 15.6324 41.9059 15.6937C41.9059 15.6324 41.9672 15.5098 41.9672 15.5098C42.0285 15.5711 42.1511 15.6324 42.2124 15.6937C42.2124 15.755 42.1511 15.755 42.0285 15.755H42.0898C42.0898 15.8776 41.9672 15.8776 41.8446 15.8776C41.8446 15.8163 41.9059 15.755 41.9059 15.755C41.7833 15.755 41.5994 15.8163 41.5381 15.8776C41.5381 15.8776 41.5994 15.8776 41.6607 15.9389C41.5994 15.9389 41.5994 15.9389 41.5994 16.0002C41.5994 16.0002 41.6607 16.0002 41.722 16.0002L41.5994 16.1841L41.6607 16.1228C41.6607 16.2454 41.722 16.368 41.722 16.4293C42.0285 16.4906 42.3963 16.5519 42.5802 16.9198C42.3963 16.8585 42.335 16.9811 42.1511 16.9811C42.335 16.8585 42.0285 16.7358 41.9672 16.6132C41.9672 16.6745 41.9059 16.7358 41.8446 16.7358C41.9672 16.7971 42.0285 16.8585 42.0898 16.9198C41.9059 16.9198 42.0285 16.9811 41.9672 17.1037C42.2737 16.9811 42.2124 17.2876 42.2737 17.4102C42.1511 17.4102 42.0898 17.4102 42.0898 17.2263C41.8446 17.3489 42.4576 17.4102 42.2124 17.5941C42.2124 17.5328 42.2124 17.5328 42.2124 17.5328C42.2737 17.6554 42.1511 17.8393 42.0898 17.7167V17.6554C42.0285 17.778 41.9672 17.9006 41.9059 18.0845C41.8446 18.2684 41.8446 18.391 41.9059 18.5136L41.6607 18.2684C41.7833 18.575 41.9059 18.8815 41.9672 19.2493C41.8446 19.0654 41.3541 18.7589 41.4154 18.575C41.3541 18.575 41.2928 18.6363 41.2315 18.7589C41.2928 18.7589 41.5381 18.9428 41.4768 19.0041C41.1702 18.9428 41.2928 19.0041 41.0476 18.9428C41.1089 18.9428 41.2928 19.2493 41.1702 19.3106C41.1702 19.2493 40.9863 19.0041 40.9863 18.9428C40.9863 19.0654 40.9863 19.188 40.925 19.3719C40.925 19.3106 40.8024 19.1267 40.7411 19.0654C40.8024 19.1267 40.5572 19.1267 40.5572 19.188C40.6185 19.188 40.6185 19.2493 40.6798 19.2493C40.4346 19.2493 40.5572 19.801 40.2507 19.801C40.312 19.7397 40.2507 19.3719 40.1281 19.3106C40.1281 19.4945 39.8829 20.1688 39.515 20.2301L39.4537 20.1075C39.3924 20.1075 39.2698 20.1688 39.1472 20.1688C39.2698 20.0462 39.4537 19.9236 39.6376 19.7397C39.8216 19.5558 39.9442 19.3719 40.0055 19.2493C39.9442 19.188 40.0055 19.1267 39.8829 19.1267C39.8216 19.0041 39.9442 19.0041 40.0055 19.0041C39.9442 19.0041 39.8216 18.9428 39.7603 18.9428C39.7603 19.1267 39.515 19.0654 39.4537 19.2493C39.5763 19.188 39.6989 19.188 39.8216 19.1267C39.8216 19.3106 39.515 19.6784 39.2698 19.5558C39.2698 19.4332 39.4537 19.2493 39.4537 19.188C39.3924 19.2493 39.2085 19.2493 39.2085 19.188L39.3311 19.1267C39.2698 19.0041 39.0246 19.2493 38.9633 19.0041C38.902 18.9428 38.9633 18.6976 38.902 18.7589C38.8407 19.0041 38.4116 19.6171 38.2277 19.6784C38.2277 19.6171 38.0438 19.2493 38.1051 19.1267C38.1664 18.9428 38.5342 18.9428 38.5342 18.7589C38.4729 18.8202 38.4116 18.8202 38.3503 18.8202C38.3503 18.7589 38.4729 18.6976 38.3503 18.6363C38.1664 18.7589 38.1664 18.391 38.1664 18.6976C38.0438 18.6363 38.1051 18.5749 37.9824 18.4523C37.9211 18.5749 37.5533 18.6363 37.3694 18.575C37.4307 18.575 37.4307 18.4523 37.4307 18.4523C37.2468 18.2071 37.1855 18.0232 37.0016 17.778C37.0016 17.7167 37.0016 17.5941 37.0629 17.5941C37.0016 17.5941 36.9403 17.5941 36.879 17.5328C36.879 17.2876 37.0629 17.6554 37.1242 17.4102C37.0016 17.4715 36.8177 17.3489 36.6951 17.2876C36.5725 17.4715 36.879 17.5328 37.0016 17.5941C36.8177 17.778 36.4499 17.778 36.1433 17.6554C35.9594 17.5328 36.2046 17.4715 36.1433 17.4715C35.8368 17.1037 35.5916 17.5328 35.469 17.165C35.469 16.9198 35.6529 16.9198 35.7142 16.7971C35.8981 16.8585 35.8981 17.0424 35.9594 17.165L35.8981 16.9811C35.9594 16.9811 36.082 17.0424 36.1433 17.1037C36.1433 16.9198 35.5916 16.5519 35.3464 16.3067C35.2851 16.3067 35.1625 16.3067 35.1625 16.4293C35.2238 16.4293 35.2238 16.4293 35.2851 16.4906C35.2851 16.6745 35.0399 16.5519 35.1012 16.6745C34.9173 16.6745 34.7947 16.7971 34.6108 16.6745V16.4906C34.6108 16.5519 34.6721 16.6132 34.7947 16.6132C34.6721 16.6745 34.5495 16.3067 34.4269 16.4906C34.4882 16.5519 34.4882 16.6132 34.5495 16.6745C34.3655 16.7358 34.1816 16.9198 34.059 16.7971C34.1203 16.9811 34.1203 16.7971 34.1816 17.0424C34.1203 16.7358 34.6108 17.165 34.4882 16.8585C34.5495 17.165 34.6721 17.0424 34.7334 17.2876C34.7334 17.2263 34.7334 17.165 34.7947 17.2263C34.7947 17.2263 34.7947 17.165 34.856 17.165C34.856 17.1037 34.856 17.1037 34.856 17.0424C34.9786 16.9198 35.1625 17.0424 35.2238 16.9811C35.2851 17.0424 35.1625 17.0424 35.1625 17.1037L35.2851 17.0424C35.2238 17.165 35.3464 17.3489 35.1625 17.2876L35.2851 17.4102C35.2851 17.5328 35.4077 17.6554 35.469 17.6554C35.5303 17.7167 35.7142 17.6554 35.5916 17.7167C35.6529 17.778 35.7755 17.778 35.8368 17.8393C36.0207 18.0232 36.3886 18.1458 36.4499 18.5136C36.5725 18.5749 36.6338 18.6363 36.6951 18.7589L36.6338 18.8815C36.7564 18.9428 36.8177 19.2493 36.9403 19.2493C36.8177 19.5558 37.3694 19.801 37.492 20.0462L37.6146 19.9236C37.7372 20.0462 37.9211 20.1688 38.1664 20.2301L38.2277 20.1075C38.4729 20.1075 38.5955 20.4754 38.9633 20.598C38.902 20.6593 38.8407 20.598 38.7794 20.5367C38.902 20.7819 39.2085 20.7819 39.3924 20.7206C39.6376 20.7206 39.8216 20.598 40.0055 20.7206C40.0668 20.6593 40.1894 20.6593 40.2507 20.7206C40.2507 20.7206 40.2507 20.7206 40.312 20.7206C40.3733 20.7206 40.3733 20.7819 40.4346 20.7819C40.3733 20.7819 40.3733 20.7206 40.312 20.7206C40.3733 20.7206 40.4959 20.6593 40.5572 20.598L40.6185 20.7206C40.7411 20.7206 40.6798 20.6593 40.6185 20.5367C40.6798 20.4754 40.6798 20.4754 40.7411 20.4141C40.925 20.598 40.9863 20.2301 41.1702 20.4141C41.1702 20.2914 41.5994 20.1075 41.4768 19.8623C41.4768 19.8623 41.5381 19.8623 41.4768 19.9236C41.5994 19.8623 41.6607 19.8623 41.722 19.7397L41.9059 19.8623C41.9059 19.7397 41.9059 19.6171 41.9059 19.4945C42.0898 19.4945 42.1511 19.4945 42.1511 19.6784C42.2124 19.2493 42.2737 19.4332 42.2737 19.0654L42.335 19.1267C42.3963 19.0654 42.335 18.8202 42.4576 18.8202C42.5189 18.8202 42.5802 18.6976 42.7028 18.6363C42.7641 18.5136 42.8254 18.391 42.8867 18.2071C43.0093 17.8393 43.0093 17.4715 43.0706 17.1037C42.7641 17.2876 43.1319 16.7971 42.8867 16.7971C42.948 16.7358 43.0093 16.6132 43.0706 16.7358C42.8867 16.4293 43.0093 16.1841 42.7028 16.1228C42.7641 16.0615 42.8254 16.1228 42.8867 16.0615C42.8867 16.0615 42.7641 16.0002 42.8254 15.9389C42.8254 15.8776 42.8867 15.9389 42.948 16.0002C42.7641 15.6937 42.5189 15.8163 42.335 15.9389C42.335 15.755 42.2737 15.6937 42.0898 15.6937C42.1511 15.6324 42.1511 15.5098 42.2737 15.6324C42.2737 15.5711 42.1511 15.4485 42.0898 15.3259C42.0285 15.2646 41.9672 15.2033 41.9059 15.2646C41.9672 15.2033 41.8446 15.2033 41.8446 15.2033C41.7833 15.142 41.7833 15.0807 41.6607 15.0193C41.2928 15.0193 41.4767 14.958 41.3541 14.8967H41.4154V14.8354C41.5994 14.7741 41.3541 14.7741 41.722 14.7128H41.5381C41.2315 14.6515 41.722 14.5902 41.8446 14.5289C41.9059 14.5289 41.9059 14.4676 41.9059 14.4676H41.7833C41.7833 14.4063 41.9059 14.4063 42.0285 14.4676C42.0898 14.4676 42.1511 14.5289 42.2124 14.5289C42.2737 14.5289 42.335 14.5289 42.3963 14.5289C42.4576 14.5289 42.3963 14.5902 42.3963 14.6515C42.7641 14.4676 42.2737 14.4676 42.3963 14.2224C42.5189 14.2224 42.5802 14.4676 42.7028 14.2837C42.8254 14.2224 42.7028 13.6094 43.0093 13.4868C42.8867 13.4868 42.8254 13.5481 42.8254 13.3642C42.8254 13.2415 42.948 13.1802 43.0706 13.0576C43.1319 12.935 43.1932 12.8124 43.0706 12.6898H43.1319C43.0706 12.5059 43.0706 12.1994 42.8867 12.0768C43.1319 12.0155 43.0706 11.7703 42.948 11.5251C42.8254 11.3411 42.7028 11.1572 42.8867 11.0959C42.8254 10.9733 42.7028 10.7894 42.6415 10.6668H42.7028C42.5189 10.3603 42.335 10.3603 42.2124 10.3603C42.2124 10.299 42.2737 10.299 42.2737 10.299C41.9672 9.93116 41.9059 9.93116 41.4768 9.93116V9.74725C41.3541 9.80855 40.925 9.31813 40.4959 9.44073C40.4959 9.44073 40.4959 9.37943 40.5572 9.37943C40.0668 9.50204 39.515 8.889 39.3311 9.44073C39.2085 9.50204 39.0859 9.56334 38.9633 9.62464C39.3924 9.62464 38.9633 9.86986 39.1472 9.93116C39.0246 9.99247 38.7181 9.86986 38.902 9.80855H38.9633C38.9633 9.68595 38.8407 9.68595 38.7181 9.68595C38.5955 9.74725 38.4729 9.80855 38.4116 9.68595C37.7372 10.0538 37.1242 10.4829 36.6338 10.912L36.8177 11.0346L36.6338 11.1572C36.5725 11.1572 36.4499 11.0959 36.5725 10.9733C36.4499 10.912 36.4499 11.2185 36.5112 11.2798C36.2047 11.4024 36.4499 11.0346 36.3273 11.0959L36.266 11.2185H36.3273C36.3273 11.3411 36.3886 11.4024 36.2047 11.5251C36.082 11.5864 36.082 11.4637 36.0207 11.4637C36.0207 11.4637 36.0207 11.4637 35.9594 11.5251C35.8981 11.5864 35.8368 11.6477 35.7755 11.6477C35.8368 11.6477 35.8981 11.709 35.9594 11.709C35.8981 11.8316 35.7755 11.8316 35.9594 11.9542C35.7755 11.8929 35.5916 12.0155 35.4077 12.0768C35.2238 12.1994 35.1012 12.2607 35.0399 12.1994C34.9173 12.3833 34.7947 12.3833 34.5495 12.3833C34.6108 12.4446 34.6721 12.6285 34.4882 12.6285C34.5495 12.1994 34.1816 12.4446 33.9977 12.1994C34.1203 12.3833 33.5073 12.2607 33.6912 12.5059C33.5686 12.4446 33.6912 12.322 33.5686 12.2607C33.2008 12.4446 32.7717 12.1381 32.3425 12.1994C32.3425 12.2607 32.4038 12.322 32.2812 12.4446L32.036 12.1381C31.9747 12.1381 31.9134 12.4446 31.7908 12.2607C31.7908 12.322 31.8521 12.3833 31.7908 12.3833C30.9326 12.0768 30.013 12.4446 29.1548 11.8929C29.2774 12.0155 29.1547 12.0155 29.0934 12.0155C29.1547 12.0768 29.0934 12.1381 29.0934 12.1994L28.7256 11.9542C28.6643 12.1381 28.3578 11.8929 28.2965 12.1381H28.4191C28.2352 12.322 28.603 12.6898 28.5417 12.935C28.7256 12.6898 28.9708 13.3642 29.2774 13.0576C29.3387 13.1189 29.2161 13.1189 29.2161 13.2415C29.2774 13.1189 29.4 13.1189 29.5839 13.1802C30.0743 13.1802 30.2582 13.3642 30.7486 13.4868V13.3642C30.8713 13.3642 30.8712 13.4255 30.9326 13.4868C31.0552 13.3029 30.626 13.4255 30.7486 13.2415C30.8713 13.5481 31.5456 13.3029 31.6069 13.6707C31.7908 13.6707 31.5456 13.4868 31.7295 13.4868L31.7908 13.6094L31.8521 13.4868C31.9747 13.4868 32.036 13.6094 32.036 13.732C32.036 13.732 31.9747 13.732 31.9134 13.732C32.036 13.8546 32.3425 13.732 32.4038 13.732L32.2199 13.6707C32.7104 13.6094 33.2621 13.732 33.7525 13.5481L33.6912 13.4868C34.059 13.3642 33.9977 13.5481 34.3655 13.4868C34.4269 13.4255 34.5495 13.3642 34.6721 13.3642C34.5495 13.4255 34.856 13.4868 34.7334 13.6094C35.1012 13.4255 34.9173 13.4868 35.1625 13.1802L35.2238 13.3029C35.2851 13.1802 35.2851 13.1189 35.469 13.0576C35.3464 13.1802 35.6529 13.1802 35.5303 13.3642C35.8368 13.4255 35.9594 13.2415 36.082 13.1189C36.1433 12.9963 36.266 12.935 36.4499 12.9963C36.4499 12.6285 36.0207 13.0576 36.082 12.935C35.9594 12.8737 36.082 12.6285 36.2047 12.6285C36.3273 12.5672 36.6338 12.8124 36.879 12.5672C36.879 12.5672 36.879 12.6285 36.8177 12.6285C37.0016 12.6285 36.9403 12.3833 37.1242 12.3833C37.0629 12.1994 37.2468 12.2607 37.1242 12.0768L36.9403 12.322C37.0016 12.1381 36.9403 11.8316 37.2468 11.7703C37.2468 11.8316 37.2468 11.8929 37.2468 12.0155C37.3694 12.0155 37.3081 11.8929 37.4307 11.8929C37.5533 12.0768 37.1855 12.1994 37.1855 12.4446C37.3081 12.4446 37.3081 12.0768 37.4307 12.322C37.3081 12.0155 37.6759 12.1381 37.6759 11.8316L37.7372 11.9542C37.7372 11.8929 37.7372 11.8316 37.7985 11.7703L37.8598 11.9542C37.8598 11.709 38.1664 11.8316 38.2277 11.6477C37.9825 11.8929 38.0438 11.5864 37.8598 11.5864C38.0438 11.1572 38.289 11.709 38.5955 11.4024C38.5955 11.4637 38.3503 11.4637 38.4116 11.3411C38.4729 11.2798 38.5955 11.2798 38.7181 11.3411C38.902 11.1572 38.5955 11.2185 38.6568 11.0959C38.8407 11.2185 38.7181 10.9733 38.7794 10.8507L38.8407 10.9733C39.0859 10.9733 38.7794 10.6668 39.0246 10.6668C39.0246 10.7281 39.0246 10.7894 39.0246 10.912C39.0246 10.8507 39.0859 10.8507 39.0859 10.8507V11.0346C39.1472 10.8507 39.2085 10.912 39.2698 10.9733C39.2085 10.8507 39.2698 10.7281 39.4537 10.7281C39.5763 10.7894 39.3924 10.8507 39.6376 10.8507C39.5763 10.912 39.515 11.0346 39.4537 10.912C39.4537 10.9733 39.3924 10.9733 39.3924 11.0346C39.515 11.1572 39.699 11.0346 39.7603 11.0959C39.7603 11.0959 39.6989 11.0959 39.6989 11.0346L40.0055 10.8507C40.0668 10.912 40.0055 10.9733 39.9442 10.9733C40.0055 10.9733 40.0668 10.912 40.1281 10.912C40.0668 11.0346 40.0668 11.1572 39.9442 11.2185L40.2507 11.0959C40.2507 11.1572 40.3733 11.2798 40.312 11.2798C40.4346 11.3411 40.6798 11.0959 40.8024 11.2798L40.8637 11.2185C40.9863 11.2798 40.9863 11.4637 41.2315 11.4637C41.2315 11.5251 41.1702 11.5864 41.1089 11.6477C41.2315 11.709 41.2315 11.4024 41.4154 11.4637C41.5381 11.5251 41.2928 11.6477 41.2928 11.709C41.4154 11.709 41.6607 11.709 41.5994 11.9542C41.4768 11.1572 41.4768 11.0959 41.4768 11.0959ZM41.4154 12.8124C41.4154 12.7511 41.3541 12.6285 41.4768 12.6898C41.5994 12.8124 41.4767 12.8124 41.4154 12.8124ZM41.7833 16.0002C41.722 16.0002 41.722 15.9389 41.722 15.8776C41.722 15.9389 41.7833 15.9389 41.7833 16.0002ZM35.2851 16.9198C35.3464 17.0424 35.3464 16.9811 35.2851 16.9198V16.9198ZM35.1625 16.7971C35.1625 16.7971 35.1625 16.8585 35.2238 16.8585C35.2851 16.7971 35.2238 16.7971 35.1625 16.7971ZM35.9594 11.0346C35.9594 11.1572 35.9594 11.0959 35.9594 11.0346V11.0346Z" fill="white"/>
<path d="M41.3542 15.8163L41.4156 15.755C41.4156 15.755 41.3542 15.755 41.3542 15.8163Z" fill="white"/>
<path d="M34.243 16.6132H34.3656C34.3043 16.6132 34.3043 16.5519 34.3043 16.5519C34.3043 16.5519 34.3043 16.6132 34.243 16.6132Z" fill="white"/>
<path d="M33.2621 15.5098H33.2008V15.5711C33.2621 15.6324 33.3234 15.5711 33.2621 15.5098Z" fill="white"/>
<path d="M34.243 16.1228C34.243 16.0002 34.1817 16.0002 34.0591 16.0002C34.0591 16.1841 34.1204 16.1841 34.243 16.1228Z" fill="white"/>
<path d="M34.0591 16.0002H33.9978C33.9365 16.0615 33.9978 16.0615 34.0591 16.0002Z" fill="white"/>
<path d="M34.9786 16.7358C34.9786 16.6745 34.8559 16.8585 34.9173 16.7972C34.7333 16.9198 35.1625 16.7358 34.9786 16.7358Z" fill="white"/>
<path d="M34.243 15.6937L34.3043 15.8776L34.3656 15.755L34.243 15.6937Z" fill="white"/>
<path d="M34.9786 16.0615L34.856 15.9389C34.856 15.9389 34.856 16.0002 34.7947 16.0002C34.9173 16.0002 34.9786 16.0615 34.9786 16.0615Z" fill="white"/>
<path d="M34.7947 16.0002C34.7334 16.0002 34.6721 16.0002 34.6721 16.0002C34.7334 15.9389 34.7334 16.0002 34.7947 16.0002Z" fill="white"/>
<path d="M34.4882 15.6937L34.6108 15.755C34.6108 15.755 34.5495 15.755 34.4882 15.6937Z" fill="white"/>
<path d="M36.266 17.1037L36.3886 17.2263C36.4499 17.2263 36.4499 17.165 36.3886 17.1037C36.3886 17.1037 36.3273 17.0424 36.266 17.1037Z" fill="white"/>
<path d="M36.2047 16.4293C36.2047 16.4906 36.2047 16.4906 36.2047 16.5519L36.3273 16.4293H36.2047Z" fill="white"/>
<path d="M36.6338 16.7971C36.6951 16.7971 36.9403 16.9198 36.7564 16.7358C36.6951 16.7358 36.5112 16.6132 36.6338 16.7971Z" fill="white"/>
<path d="M38.2278 18.8815L37.9825 19.1267L38.2278 18.8815Z" fill="white"/>
<path d="M40.1895 18.7589C40.0669 18.6976 40.1895 18.9428 40.0669 18.8815C40.0669 18.9428 40.1895 18.9428 40.1895 19.0041C40.1895 18.8815 40.2508 18.9428 40.1895 18.7589Z" fill="white"/>
<path d="M40.1282 19.0041C40.1282 19.0041 40.0669 19.0654 40.1282 19.0041C40.1282 19.0654 40.1282 19.0041 40.1282 19.0041Z" fill="white"/>
<path d="M28.4191 11.2798L28.2965 11.1572L28.3578 11.2798H28.4191Z" fill="white"/>
<path d="M28.1739 11.4637V11.2798L28.0513 11.4637C28.0513 11.4024 28.1126 11.4024 28.1739 11.4637Z" fill="white"/>
<path d="M40.925 12.8124C40.9864 12.8737 41.0477 12.8737 41.0477 12.8124H40.925Z" fill="white"/>
<path d="M41.4768 11.8316L41.6607 11.7703L41.4768 11.8316Z" fill="white"/>
<path d="M41.0477 11.0959C41.0477 11.0959 41.109 11.0959 41.109 11.1572C41.0477 11.0959 41.1703 10.912 41.0477 11.0959Z" fill="white"/>
<path d="M8.25039 11.0346C8.18909 11.0346 8.25039 10.9733 8.25039 11.0346V11.0346Z" fill="white"/>
<path d="M8.25039 11.0346C8.18909 11.0959 8.25039 11.0346 8.25039 11.0346V11.0346Z" fill="white"/>
<path d="M8.25039 10.912V10.8507C8.25039 10.8507 8.18909 10.8507 8.25039 10.912C8.25039 10.8507 8.25039 10.8507 8.25039 10.912Z" fill="white"/>
<path d="M8.25032 10.912C8.18902 10.9733 8.18902 10.9733 8.25032 10.912C8.18902 11.0346 8.18902 11.0346 8.25032 10.912Z" fill="white"/>
<path d="M8.18909 9.99247C8.18909 9.99247 8.18909 9.93116 8.18909 9.86986C8.18909 9.93116 8.18909 9.99247 8.18909 9.99247C8.25039 10.0538 8.18909 10.0538 8.18909 9.99247Z" fill="white"/>
<path d="M8.25032 10.1151C8.25032 10.1151 8.18902 10.1151 8.25032 10.1151C8.18902 10.1151 8.18902 10.1151 8.25032 10.1151C8.25032 10.1151 8.25032 10.1764 8.25032 10.1151Z" fill="white"/>
<path d="M8.00513 9.50204C8.00513 9.50204 8.06643 9.56334 8.06643 9.62464C8.06643 9.68595 8.12774 9.62464 8.18904 9.56334C8.18904 9.56334 8.18904 9.56334 8.12773 9.50204C8.12773 9.50204 8.12773 9.68595 8.12773 9.62464C8.12773 9.56334 8.12773 9.56334 8.12773 9.50204C8.12773 9.56334 8.06643 9.37943 8.00513 9.44073V9.50204C8.00513 9.44073 8.00513 9.50204 8.00513 9.50204Z" fill="white"/>
<path d="M8.18911 9.86986C8.18911 9.80855 8.18911 9.74725 8.18911 9.86986C8.12781 9.93116 8.18911 9.86986 8.18911 9.93116C8.18911 9.74725 8.18911 9.93116 8.18911 9.86986V9.93116C8.18911 9.86986 8.18911 9.86986 8.18911 9.86986C8.18911 9.80855 8.18911 9.80855 8.18911 9.86986V9.74725C8.18911 9.74725 8.18911 9.80855 8.18911 9.86986Z" fill="white"/>
<path d="M5.67556 13.0576C5.61426 13.1189 5.67556 13.1189 5.67556 13.0576V13.0576Z" fill="white"/>
<path d="M5.30776 8.64379C5.18515 8.64379 5.06255 8.64379 5.12385 8.70509H5.24645C5.24645 8.70509 5.24646 8.64379 5.30776 8.64379Z" fill="white"/>
<path d="M5.12381 11.2185L5.0625 11.1572C5.0625 11.1572 5.0625 11.2185 5.12381 11.2185Z" fill="white"/>
<path d="M5.67558 11.3411L5.55298 11.4024C5.61428 11.4024 5.61428 11.3411 5.67558 11.3411Z" fill="white"/>
<path d="M5.79822 14.4063H5.92083C5.92083 14.345 5.85952 14.4063 5.79822 14.4063Z" fill="white"/>
<path d="M7.57596 7.90815C7.57596 7.84684 7.51465 7.78554 7.51465 7.78554C7.51465 7.84684 7.51465 7.90815 7.57596 7.90815Z" fill="white"/>
<path d="M7.33081 7.66293C7.33081 7.72424 7.33081 7.72424 7.33081 7.66293C7.39211 7.72424 7.45342 7.72424 7.45342 7.78554C7.45342 7.72424 7.39211 7.66293 7.33081 7.66293Z" fill="white"/>
<path d="M6.04336 9.99247C5.92075 9.93116 5.92075 9.86986 5.98205 9.86986L5.67554 9.80856L6.04336 9.99247Z" fill="white"/>
<path d="M5.67555 13.7933L5.79816 13.732C5.98207 13.7933 5.92077 13.8546 6.04338 13.7933C5.67556 13.8546 5.98207 13.5481 5.61425 13.5481L5.67555 13.4868C5.85946 13.3642 5.43034 13.4255 5.43034 13.3029C5.43034 13.2415 5.49164 13.2415 5.55295 13.2415L5.43034 13.1802H5.49164V13.0576C5.43034 13.0576 5.30774 12.9963 5.30774 12.9963C5.36904 12.935 5.36904 12.9963 5.43034 12.9963L5.30774 12.935C5.43034 12.8737 5.49164 12.935 5.49164 12.9963C5.92076 12.935 5.36904 12.935 5.61425 12.7511L5.67555 12.8124C5.92077 12.7511 5.79816 12.6898 5.98207 12.6285C5.92077 12.6285 5.61425 12.8124 5.49164 12.6898C5.55294 12.6898 5.55295 12.6285 5.43034 12.5672C5.55295 12.5672 5.55295 12.5059 5.55295 12.4446H5.73686C5.67556 12.3833 5.61425 12.3833 5.49164 12.322C5.49164 12.2607 5.67555 12.2607 5.79816 12.2607C5.85946 12.1381 5.55295 12.322 5.55295 12.1994C5.61425 12.1381 5.55295 12.0768 5.43034 11.9542C5.49164 11.8929 5.55295 11.9542 5.61425 11.9542L5.49164 11.8929H5.55295C5.49164 11.8316 5.36904 11.8929 5.30774 11.7703C5.12383 11.709 5.61425 11.6477 5.43034 11.5251C5.49164 11.5251 5.55295 11.5251 5.61425 11.5251C5.49165 11.4024 5.49165 11.4024 5.30774 11.2798L5.43034 11.2185C5.24643 11.2798 5.12383 11.1572 5.00122 11.0346C4.93992 11.0346 4.87861 11.0346 4.81731 11.0959L4.756 10.9733C4.8173 10.9733 4.87861 10.9733 4.93991 11.0346H4.8786C4.93991 10.9733 5.06251 11.0346 5.18512 11.0959C5.12382 11.0959 5.12382 11.0959 5.06252 11.0959C5.18512 11.1572 5.30773 11.2185 5.43034 11.2185C5.43034 11.2185 5.36903 11.2185 5.36903 11.1572H5.43034C5.43034 11.1572 5.43034 11.1572 5.36903 11.0959H5.61425H5.55295L5.73686 10.9733C5.55295 10.8507 5.24643 10.6668 5.18512 10.4829C5.30773 10.5442 5.43034 10.5442 5.61425 10.6055C5.43034 10.6055 5.67556 10.7281 5.61425 10.8507C5.61425 10.7894 5.73686 10.8507 5.73686 10.8507L5.61425 10.6668C5.73686 10.7281 5.73685 10.6668 5.79816 10.6055C5.49164 10.5442 5.61425 10.4216 5.55295 10.3603C5.67555 10.3603 5.73685 10.4216 5.67555 10.4829C5.92077 10.4829 5.36904 10.299 5.55295 10.2377C5.55295 10.2377 5.55295 10.2377 5.55295 10.299C5.49164 10.2377 5.55294 10.1151 5.67555 10.1764C5.73685 10.0538 5.79816 9.80856 5.55295 9.68595C5.55295 9.68595 5.79816 9.80856 5.85946 9.80856C5.61425 9.62465 5.43034 9.50204 5.18512 9.31813C5.36903 9.37943 5.79816 9.50204 5.92077 9.62465C5.98207 9.62465 5.98207 9.56334 5.92077 9.50204C5.85947 9.50204 5.61425 9.44073 5.61425 9.44073C5.85947 9.44073 5.73686 9.44073 5.92077 9.44073C5.85947 9.44073 5.61425 9.31813 5.61425 9.25682C5.67556 9.25682 5.85947 9.37943 5.92077 9.37943C5.85947 9.31813 5.79816 9.19552 5.67555 9.13422C5.73685 9.19552 5.92077 9.25682 5.98207 9.25682C5.92077 9.25682 6.04337 9.19552 5.98207 9.13422H5.92077C5.98207 9.01161 5.61425 8.8277 5.73686 8.70509C5.79816 8.7664 6.04338 8.889 6.04338 8.889C5.92077 8.7664 5.55295 8.45988 5.55295 8.27597H5.61425C5.61425 8.21467 5.61425 8.21467 5.61425 8.15336C5.73686 8.33727 5.98207 8.70509 6.04338 8.8277C6.10468 8.8277 6.10468 8.889 6.16598 8.7664C6.22728 8.7664 6.22729 8.8277 6.22729 8.889L6.34989 8.7664C6.22729 8.70509 6.28859 8.58249 6.16598 8.52118C6.16598 8.58249 6.16598 8.70509 6.22729 8.7664C6.10468 8.70509 5.92077 8.45988 6.04338 8.33727C6.10468 8.33727 6.22728 8.52118 6.28859 8.52118C6.22728 8.45988 6.28859 8.39858 6.28859 8.39858L6.4725 8.70509C6.5338 8.70509 6.4112 8.52118 6.53381 8.52118C6.53381 8.52118 6.71771 8.58249 6.65641 8.52118C6.5338 8.45988 6.22728 8.09206 6.16598 7.96945C6.16598 7.96945 6.41119 7.96945 6.4725 8.03075C6.59511 8.09206 6.5338 8.27597 6.65641 8.33727C6.65641 8.33727 6.65641 8.27597 6.65641 8.21467C6.71771 8.21467 6.71771 8.33727 6.71771 8.27597C6.65641 8.15336 6.84032 8.21467 6.71771 8.15336C6.77901 8.09206 6.77902 8.15336 6.84032 8.09206C6.77902 8.03076 6.84032 7.84684 6.90162 7.78554V7.84684C6.96292 7.84684 7.02423 7.84684 7.08553 7.90815C7.14684 7.90815 7.14683 7.96945 7.20814 7.96945C7.20814 7.96945 7.26944 8.03076 7.20814 8.09206H7.26945C7.26945 8.21467 7.20814 8.03076 7.20814 8.15336C7.26944 8.09206 7.33075 8.15336 7.39205 8.15336C7.45335 8.09206 7.33075 8.03076 7.26945 8.09206C7.33075 7.96945 7.51465 7.96945 7.63726 8.03075C7.75987 8.09206 7.63726 8.09206 7.63726 8.15336C7.75987 8.33727 7.88248 8.21467 7.88248 8.39858C7.88248 8.52118 7.75987 8.45988 7.75987 8.45988C7.69857 8.39858 7.69857 8.33727 7.69857 8.27597V8.33727C7.63726 8.33727 7.63726 8.27597 7.63726 8.21467C7.63726 8.27597 7.82117 8.52118 7.82117 8.70509L7.88248 8.7664V8.70509C7.88248 8.64379 7.94378 8.7664 7.94378 8.70509C8.00508 8.7664 8.06639 8.8277 8.06639 8.95031L8.00509 9.01161V8.95031C8.00509 9.01161 8.00509 9.13422 8.06639 9.13422V9.07291C8.1277 9.13422 8.189 9.19552 8.189 9.31813C8.2503 9.25682 8.189 9.31813 8.189 9.25682C8.12769 9.31813 8.12769 9.01161 8.12769 9.13422C8.18899 9.07291 8.12769 9.01161 8.189 8.889C8.189 8.889 8.18899 8.95031 8.12769 8.8277V8.889C8.06639 8.889 8.06639 8.7664 8.00509 8.70509C8.00509 8.64379 8.00509 8.70509 8.06639 8.70509C8.06639 8.70509 8.00509 8.70509 8.00509 8.64379C8.06639 8.64379 8.00509 8.52118 8.06639 8.58249L8.00509 8.45988C8.00509 8.39858 8.00508 8.33727 7.94378 8.27597C7.94378 8.21467 7.82118 8.21467 7.88248 8.21467C7.82118 8.15336 7.82118 8.15336 7.75987 8.09206C7.63727 7.96945 7.51465 7.90815 7.33074 7.66293C7.26944 7.66293 7.20814 7.60163 7.08553 7.60163V7.54033C7.02423 7.54033 6.77901 7.41772 6.71771 7.47902C6.65641 7.41772 6.5338 7.41772 6.41119 7.47902C6.28858 7.54033 6.16598 7.60163 6.10467 7.60163L6.16598 7.66293C6.10468 7.72424 5.98207 7.78554 5.92077 7.90815L5.98207 7.96945C5.98207 8.09206 5.73685 8.09206 5.67555 8.21467C5.67555 8.21467 5.67556 8.15336 5.73686 8.15336C5.43034 8.15336 5.61425 8.52118 5.43034 8.52118C5.43034 8.58249 5.43034 8.58249 5.36903 8.58249H5.30774C5.36904 8.58249 5.36903 8.58249 5.36903 8.58249C5.36903 8.58249 5.36903 8.64379 5.36903 8.70509H5.24643C5.18513 8.70509 5.30773 8.7664 5.36903 8.7664C5.36903 8.7664 5.36904 8.8277 5.43034 8.8277C5.24643 8.7664 5.43034 8.95031 5.24643 8.889C5.30773 8.95031 5.18513 9.07291 5.43034 9.19552H5.36903C5.30773 9.19552 5.30774 9.25682 5.30774 9.31813L5.12382 9.25682L5.30774 9.44073C5.18513 9.44073 5.12382 9.44073 5.06252 9.37943C5.18512 9.56334 5.06252 9.50204 5.24643 9.68595L5.12382 9.62465C5.12382 9.68595 5.24643 9.74725 5.12382 9.74725C4.87861 9.74725 4.93992 10.1764 4.6947 10.3603C5.06252 10.4216 4.51079 10.4216 4.756 10.4829C4.6947 10.4829 4.63339 10.4829 4.57209 10.4216C4.63339 10.5442 4.38818 10.6055 4.57209 10.7281C4.51078 10.7281 4.44949 10.6668 4.38818 10.6668C4.38818 10.6668 4.44949 10.7281 4.38818 10.7281C4.32688 10.7281 4.32687 10.6668 4.26557 10.6668C4.26557 10.7894 4.51079 10.8507 4.756 10.912C4.63339 10.9733 4.6334 10.9733 4.81731 11.0346C4.756 11.0346 4.63339 11.0959 4.63339 10.9733C4.63339 11.0346 4.44949 11.2185 4.6947 11.2798C4.6334 11.2798 4.6947 11.3411 4.6947 11.3411C4.6947 11.4637 4.63339 11.4637 4.63339 11.5251H4.6947C4.93992 11.5864 4.756 11.5864 4.756 11.709C4.57209 11.8929 4.8173 11.7703 4.63339 11.9542H4.756C5.06252 12.0155 4.57209 12.0768 4.6947 12.1994L4.756 12.1381C4.87861 12.1994 4.32687 12.2607 4.26557 12.322C4.26557 12.322 4.20427 12.322 4.20427 12.2607C4.02036 12.3833 4.38818 12.2607 4.44948 12.3833C4.32688 12.3833 4.20427 12.322 4.14296 12.4446C4.08166 12.5059 4.44948 12.6898 4.26557 12.7511C4.32687 12.7511 4.38818 12.6898 4.44948 12.7511C4.51079 12.8124 4.20427 12.9963 4.44948 13.0576H4.38818C4.44949 13.1189 4.51079 13.2415 4.63339 13.3029C4.20427 13.4255 4.87861 13.6707 4.51079 13.6707L4.57209 13.8546H4.51079C4.51079 13.9772 4.6334 13.9772 4.6947 14.0385C4.6947 14.0998 4.63339 14.0385 4.63339 14.0385C4.57209 14.2224 4.63339 14.2224 4.8786 14.345L4.756 14.4063C4.8173 14.4063 4.69469 14.7128 4.8786 14.8354H4.81731C4.93991 14.8967 4.87861 15.0193 4.93991 15.142C4.93991 15.2646 5.00121 15.3259 5.18512 15.2646L5.36903 15.3259C5.30773 15.142 5.49164 15.2646 5.49164 15.2033C5.55294 15.2646 5.49164 15.3872 5.43034 15.3259C5.24643 15.3872 5.49164 15.5098 5.43034 15.6324C5.55295 15.755 5.73686 15.8776 5.92077 15.9389C6.10468 16.0002 6.3499 16.0002 6.53381 15.9389L6.4725 16.0615C6.5338 16.0615 6.5338 16.0615 6.5951 16.0002C6.65641 16.0002 6.65641 16.0615 6.5951 16.0615C6.65641 16.0615 6.71771 15.9389 6.71771 15.9389C6.90162 15.8776 6.71771 16.0615 6.77902 16.0615L6.84032 16.0002C6.84032 15.9389 6.84032 15.8776 6.90162 15.8163C6.96292 15.8163 6.96293 15.8163 6.96293 15.8163L7.08553 15.6937H7.02423C7.02423 15.6324 7.08553 15.5711 7.02423 15.5711C7.14683 15.5711 7.33075 15.2033 7.39205 15.142C7.39205 15.0807 7.45335 14.958 7.51466 14.8967C7.51466 14.8967 7.45335 14.8967 7.51466 14.8354C7.57596 14.8967 7.63726 14.7128 7.69857 14.6515C7.63726 14.7128 7.75987 14.4063 7.69857 14.4676C7.69857 14.4063 7.69857 14.4676 7.75987 14.4063C7.82118 14.2224 7.88247 14.0385 7.94378 13.8546L8.00509 13.732C8.00509 13.6707 8.00509 13.6707 8.00509 13.6094C8.12769 13.2415 8.18899 12.8124 8.2503 12.3833C8.2503 12.4446 8.2503 12.3833 8.2503 12.3833V12.1994C8.2503 12.0155 8.2503 12.1381 8.2503 12.0155V12.0768C8.2503 12.0155 8.2503 12.1994 8.2503 12.1381C8.2503 12.1994 8.2503 12.322 8.189 12.4446C8.189 12.5672 8.189 12.5059 8.189 12.5672C8.12769 12.7511 8.1277 12.8737 8.06639 13.0576V13.1189C8.06639 13.1802 8.12769 12.9963 8.12769 13.0576C8.06639 13.1189 8.00509 13.4255 8.00509 13.4255C8.00509 13.4868 8.00509 13.4255 8.00509 13.4868C8.00509 13.5481 7.94378 13.5481 7.94378 13.5481V13.4868C7.88247 13.5481 7.88248 13.6707 7.88248 13.6707L7.94378 13.6094C7.88247 13.7933 7.75987 14.0385 7.69857 14.2224C7.63726 14.345 7.63727 14.345 7.57596 14.4676C7.57596 14.5289 7.57596 14.5289 7.51466 14.5902C7.51466 14.5289 7.45336 14.6515 7.45336 14.5902C7.39205 14.7128 7.45335 14.6515 7.39205 14.7741H7.33074C7.33074 14.8354 7.33075 14.8354 7.26945 14.8967C7.26945 14.8354 7.20814 14.8967 7.20814 14.8354C7.02423 14.8967 7.08553 15.0807 6.96293 15.0807C6.96293 15.2033 7.08553 15.0193 7.08553 15.0807C7.14684 15.0807 7.08553 15.2033 7.08553 15.2033C7.02423 15.2646 6.90163 15.2033 6.84032 15.2646C6.77902 15.2646 6.77901 15.3259 6.71771 15.3259C6.71771 15.3872 6.65641 15.3259 6.71771 15.4485C6.77901 15.4485 6.77902 15.3872 6.77902 15.3872C6.71771 15.4485 6.71771 15.5711 6.5951 15.5711C6.5951 15.5711 6.59511 15.5098 6.65641 15.5098C6.59511 15.5098 6.5951 15.5711 6.5951 15.5098C6.5951 15.3872 6.71771 15.4485 6.71771 15.3872C6.65641 15.3872 6.65641 15.5098 6.5951 15.3872C6.5951 15.5098 6.4725 15.3872 6.4725 15.5098V15.4485C6.4725 15.4485 6.47249 15.5098 6.41119 15.5098V15.4485C6.34989 15.5098 6.34989 15.3872 6.34989 15.3872C6.4112 15.4485 6.34989 15.5098 6.34989 15.5711C6.22729 15.6324 6.34989 15.3872 6.28859 15.3259C6.28859 15.3259 6.28859 15.3872 6.28859 15.4485C6.28859 15.4485 6.28859 15.3872 6.28859 15.3259C6.22728 15.2646 6.22728 15.3872 6.16598 15.3872C6.22728 15.2646 6.10468 15.3872 6.04338 15.3872L6.10467 15.3259C6.10467 15.2033 5.92077 15.4485 5.92077 15.2646C5.98207 15.2646 5.98207 15.2646 6.04338 15.2033C6.04338 15.2033 5.98207 15.2033 5.98207 15.142L6.04338 15.0807C5.98207 15.0807 5.98207 15.0193 5.98207 14.958C5.92077 15.0193 5.79816 15.0193 5.79816 14.958C5.85946 14.8967 5.92077 14.958 5.85946 14.8354C5.92077 14.8354 5.98207 14.8354 5.92077 14.8967H5.98207C6.04337 14.8354 5.98207 14.7741 5.98207 14.7741C5.98207 14.7741 5.98207 14.7741 5.98207 14.8354C5.92077 14.8354 5.85946 14.7741 5.79816 14.7741C5.85946 14.7128 5.85947 14.7128 5.92077 14.7741C5.92077 14.7741 5.85946 14.7741 5.85946 14.7128C5.92077 14.7128 6.04337 14.6515 6.10467 14.7128L5.98207 14.6515C6.04337 14.6515 6.04337 14.5289 6.10467 14.5902C6.16598 14.5289 5.92077 14.4676 5.98207 14.345H5.92077C5.92077 14.2224 6.04338 14.1611 5.92077 14.0998L6.10467 13.9772C6.04337 13.9159 5.85946 14.0998 5.79816 13.9772C5.73685 13.9159 5.92077 13.9159 5.98207 13.8546C5.85946 13.7933 5.67555 13.732 5.85946 13.6707C5.67555 13.732 5.67555 13.7933 5.67555 13.7933ZM5.61425 12.7511C5.61425 12.7511 5.73685 12.8124 5.67555 12.8124C5.49164 12.8124 5.55295 12.8124 5.61425 12.7511ZM5.43034 11.0959C5.49164 11.0959 5.43034 11.1572 5.36903 11.1572C5.36903 11.1572 5.36904 11.0959 5.43034 11.0959ZM7.94378 8.45988C7.94378 8.39858 7.94378 8.39858 7.94378 8.45988V8.45988ZM7.94378 8.58249C7.94378 8.58249 7.94378 8.52118 7.94378 8.58249C7.94378 8.52118 7.94378 8.58249 7.94378 8.58249ZM6.90162 15.8776C6.90162 15.8163 6.90162 15.8163 6.90162 15.8776V15.8776Z" fill="white"/>
<path d="M8.06641 9.19552C8.06641 9.19552 8.06641 9.25682 8.06641 9.31813C8.12771 9.31813 8.06641 9.25682 8.06641 9.19552Z" fill="white"/>
<path d="M8.00508 8.70509C8.00508 8.70509 8.06639 8.70509 8.00508 8.70509C8.12769 8.70509 7.94378 8.58249 8.00508 8.70509Z" fill="white"/>
<path d="M7.88257 8.889V8.95031C7.94387 8.95031 7.88257 8.889 7.88257 8.889Z" fill="white"/>
<path d="M7.51467 8.21467L7.45337 8.15336C7.45337 8.15336 7.45336 8.21467 7.51467 8.21467Z" fill="white"/>
<path d="M7.51465 8.52118C7.51465 8.45988 7.57595 8.45988 7.51465 8.52118V8.52118Z" fill="white"/>
<path d="M7.39214 8.33727C7.39214 8.33727 7.26953 8.33727 7.39214 8.33727C7.33083 8.33727 7.45344 8.39858 7.39214 8.33727Z" fill="white"/>
<path d="M6.47258 8.21467L6.34998 8.03075L6.47258 8.21467Z" fill="white"/>
<path d="M6.34993 9.31813C6.41123 9.25682 6.22732 9.25682 6.28862 9.19552C6.22732 9.13422 6.22732 9.19552 6.16602 9.19552C6.22732 9.25682 6.22732 9.25682 6.34993 9.31813Z" fill="white"/>
<path d="M6.22732 9.19552C6.22732 9.19552 6.16602 9.13422 6.22732 9.19552C6.16602 9.13422 6.22732 9.19552 6.22732 9.19552Z" fill="white"/>
<path d="M5.9821 12.6285C5.8595 12.6285 5.8595 12.6285 5.8595 12.6898L5.9821 12.6285Z" fill="white"/>
<path d="M6.04341 13.9159V13.8546C6.04341 13.9159 5.8595 13.9772 6.04341 13.9159Z" fill="white"/>
<path d="M10.9477 12.4446C10.9477 12.5059 11.0703 12.5059 11.0703 12.5059C11.009 12.3833 10.8864 12.4446 10.9477 12.4446Z" fill="white"/>
<path d="M10.6413 11.1572H10.7026L10.58 10.9733L10.6413 11.1572Z" fill="white"/>
<path d="M10.5798 9.99247C10.3959 10.1151 10.6411 10.4216 10.5798 10.6055L10.5185 10.6668L10.7024 10.7281C10.7024 10.4829 10.5798 10.1764 10.5798 9.99247Z" fill="white"/>
<path d="M11.009 9.31813C10.9477 9.37943 10.9477 9.19552 11.009 9.44073C11.009 9.37943 11.009 9.37943 11.009 9.31813Z" fill="white"/>
<path d="M11.009 9.44073C11.0703 9.56334 11.1316 9.31813 11.009 9.44073V9.44073Z" fill="white"/>
<path d="M10.9478 8.8277L11.0704 9.01161C11.1317 8.95031 11.1317 8.8277 11.1317 8.889C11.0704 8.70509 11.0091 8.7664 10.9478 8.8277Z" fill="white"/>
<path d="M10.7638 8.70509L10.8251 8.7664C10.8251 8.7664 10.8251 8.7664 10.7638 8.70509Z" fill="white"/>
<path d="M10.8864 8.95031L10.8251 8.7664C10.7638 8.7664 10.7025 8.8277 10.8864 8.8277C10.7638 8.8277 10.8251 8.889 10.8864 8.95031Z" fill="white"/>
<path d="M10.8864 9.07291C10.8251 9.19552 10.8251 9.31813 10.7638 9.13422C10.7638 9.44073 10.9477 9.37943 10.8864 9.07291Z" fill="white"/>
<path d="M10.396 9.93116L10.3347 10.0538L10.396 10.1764C10.3347 10.1151 10.4573 9.93116 10.396 9.93116Z" fill="white"/>
<path d="M10.9477 7.78554C10.8864 7.78554 10.8251 7.84685 10.7638 7.84685L10.8251 7.96945C10.8864 7.90815 10.8864 7.78554 10.9477 7.78554Z" fill="white"/>
<path d="M10.7638 7.90815L10.6412 7.72424C10.7025 7.84684 10.7025 7.90815 10.7638 7.90815Z" fill="white"/>
<path d="M10.5186 8.70509L10.7025 8.95031L10.5186 8.64379V8.70509Z" fill="white"/>
<path d="M10.8251 7.1112L10.9477 7.17251L10.7638 6.9886L10.8251 7.1112Z" fill="white"/>
<path d="M10.7638 6.62078C10.8864 6.68208 10.8864 6.49817 10.9477 6.55947C10.8864 6.43687 10.8251 6.31426 10.7025 6.25295C10.7638 6.37556 10.8251 6.43687 10.7638 6.62078Z" fill="white"/>
<path d="M10.58 6.13035C10.6413 6.19165 10.6413 6.25296 10.7026 6.25296C10.7026 6.19165 10.6413 6.13035 10.58 6.13035Z" fill="white"/>
<path d="M10.6412 7.41772C10.6412 7.41772 10.7638 7.35642 10.7638 7.23381L10.6412 7.29511C10.6412 7.35642 10.6412 7.35642 10.6412 7.41772Z" fill="white"/>
<path d="M10.5799 8.21467C10.5186 8.09206 10.396 7.90815 10.3347 8.15336C10.396 8.21467 10.4573 8.03076 10.5799 8.21467Z" fill="white"/>
<path d="M10.5186 7.54033V7.72424C10.5799 7.72424 10.5799 7.66293 10.6412 7.72424L10.5186 7.54033Z" fill="white"/>
<path d="M10.4573 7.41772L10.5186 7.54033V7.47902L10.4573 7.41772Z" fill="white"/>
<path d="M10.5186 6.43687C10.4573 6.37556 10.396 6.25295 10.396 6.19165C10.396 6.31426 10.396 6.43687 10.396 6.55947C10.4573 6.55947 10.5799 6.55947 10.5186 6.43687Z" fill="white"/>
<path d="M10.396 6.55947C10.396 6.62078 10.4573 6.68208 10.4573 6.74338C10.4573 6.68208 10.4573 6.62078 10.396 6.55947Z" fill="white"/>
<path d="M10.4573 5.82383C10.4573 5.88513 10.4573 5.94644 10.396 6.00774C10.4573 5.94644 10.5186 5.82383 10.4573 5.82383Z" fill="white"/>
<path d="M10.5799 6.80469C10.5799 6.74338 10.5186 6.74338 10.4573 6.68208C10.5186 6.80469 10.5186 6.80469 10.5799 6.80469C10.5799 6.86599 10.5799 6.86599 10.5799 6.80469Z" fill="white"/>
<path d="M9.29251 5.08819C9.41512 5.08819 9.59902 5.2721 9.47641 5.45601C9.59902 5.63992 9.96684 5.39471 10.1508 5.2108C10.0894 5.2108 10.0281 5.2108 9.90554 5.08819C9.84424 5.14949 9.84424 5.51731 9.72163 5.39471C9.59902 5.14949 9.72163 5.2108 9.72163 5.02689C9.59902 5.14949 9.41511 4.78167 9.2312 4.90428L9.35381 5.08819C9.41511 5.08819 9.29251 5.02689 9.29251 5.08819Z" fill="white"/>
<path d="M10.2734 5.57862L10.3347 5.63992C10.3347 5.51731 10.396 5.45601 10.4573 5.3334C10.396 5.2108 10.3347 5.2108 10.2734 5.2108V5.57862Z" fill="white"/>
<path d="M10.3347 6.00774C10.2121 5.94644 10.0895 5.82383 9.96692 5.94644C10.0282 6.19165 10.0895 6.06904 10.2121 6.19165C10.1508 5.82383 10.3347 6.31426 10.3347 6.00774C10.3347 6.06904 10.396 6.13035 10.396 6.19165C10.396 6.13035 10.396 6.06904 10.396 6.00774C10.396 6.00774 10.396 6.00774 10.3347 6.00774C10.396 6.00774 10.396 6.00774 10.3347 6.00774C10.396 5.94644 10.396 5.88513 10.3347 6.00774C10.396 6.00774 10.396 6.00774 10.396 6.00774C10.3347 5.88513 10.2734 5.76253 10.2121 5.63992C10.2734 5.70122 10.3347 5.82383 10.3347 6.00774Z" fill="white"/>
<path d="M10.0895 7.78554C10.0895 7.78554 10.1508 7.84684 10.1508 7.90815C10.1508 7.96945 10.0895 7.90815 10.0282 7.90815C10.0895 7.96945 10.1508 8.09206 10.2121 7.90815C10.2121 7.78554 10.396 7.54033 10.396 7.54033C10.2734 7.66293 10.1508 7.66293 10.0895 7.78554Z" fill="white"/>
<path d="M10.2121 6.92729L10.0895 6.62078L10.0282 6.80469H10.0895C10.0895 6.92729 10.1508 6.86599 10.2121 6.92729Z" fill="white"/>
<path d="M10.2734 5.14949H10.396L10.1508 5.02689L10.2734 5.14949Z" fill="white"/>
<path d="M10.0895 4.72037H10.2121L10.1508 4.65907L10.0895 4.72037Z" fill="white"/>
<path d="M2.85571 16.5519L2.91701 16.6132C2.91701 16.5519 2.85571 16.5519 2.85571 16.5519Z" fill="white"/>
<path d="M2.73303 3.80082C2.54912 3.86212 2.36521 3.98473 2.48782 3.98473H2.61042C2.61042 3.92342 2.67173 3.86212 2.73303 3.80082Z" fill="white"/>
<path d="M2.05874 10.6055C2.05874 10.5442 1.99744 10.4829 1.99744 10.4829C1.99744 10.5442 2.05874 10.6055 2.05874 10.6055Z" fill="white"/>
<path d="M2.6104 10.7894L2.48779 10.9733C2.5491 10.912 2.6104 10.8507 2.6104 10.7894Z" fill="white"/>
<path d="M3.71387 19.8623L3.89778 19.9236C3.77517 19.7397 3.77517 19.801 3.71387 19.8623Z" fill="white"/>
<path d="M7.88255 0.85825C7.82125 0.735643 7.69863 0.613036 7.63733 0.551733C7.75994 0.735643 7.82125 0.919554 7.88255 0.85825Z" fill="white"/>
<path d="M1.44568 16.4293C1.44568 16.4906 1.50698 16.4906 1.50698 16.4906C1.50698 16.4293 1.44568 16.4293 1.44568 16.4293Z" fill="white"/>
<path d="M7.20825 0.367822L7.26956 0.429125C7.39217 0.429125 7.51477 0.490429 7.63737 0.551732C7.57607 0.429125 7.39216 0.306518 7.20825 0.367822Z" fill="white"/>
<path d="M9.59912 3.12648C9.66042 3.18778 9.59912 3.12648 9.59912 3.12648V3.12648Z" fill="white"/>
<path d="M9.6604 3.18778C9.6604 3.24909 9.6604 3.24909 9.6604 3.24909C9.7217 3.31039 9.7217 3.31039 9.6604 3.18778Z" fill="white"/>
<path d="M9.53772 3.00387C9.53772 3.06517 9.59903 3.12648 9.59903 3.12648C9.59903 3.06517 9.59902 3.06517 9.53772 3.00387Z" fill="white"/>
<path d="M6.53394 23.0501C6.53394 23.0501 6.53394 23.1114 6.53394 23.0501C6.59524 22.9888 6.53394 23.0501 6.53394 23.0501Z" fill="white"/>
<path d="M3.40739 6.68208C3.28479 6.49817 3.28478 6.43687 3.34609 6.37556H2.97827L3.40739 6.68208Z" fill="white"/>
<path d="M3.16219 18.0232L3.22349 17.778C3.46871 17.9619 3.4074 18.1458 3.53001 17.9619C3.10089 18.0232 3.3461 17.2263 2.91698 17.2263L2.97828 17.1037C2.97828 17.165 2.97828 17.165 2.97828 17.165C3.16219 16.8585 2.67177 17.0424 2.67177 16.6745C2.67177 16.5519 2.73307 16.4906 2.79437 16.5519L2.67177 16.3067C2.67177 16.2454 2.73306 16.2454 2.73306 16.3067L2.67177 15.8776C2.61046 15.8163 2.48785 15.6937 2.42655 15.6324C2.48785 15.5098 2.48786 15.6937 2.54916 15.6324L2.42655 15.3872C2.54915 15.2646 2.61046 15.4485 2.67177 15.6324C3.03959 15.3872 2.54916 15.4485 2.79437 14.958L2.85568 15.142C3.10089 15.0193 2.97828 14.8354 3.10089 14.5902C3.03958 14.6515 2.73307 15.0807 2.67177 14.8354C2.67177 14.7741 2.73306 14.6515 2.61046 14.5289C2.73306 14.5289 2.73307 14.4063 2.67177 14.2224H2.85568C2.79437 14.0385 2.67176 14.0385 2.61046 13.9772C2.61046 13.7933 2.79437 13.732 2.91698 13.6707C2.91698 13.3642 2.67176 13.9159 2.61046 13.5481C2.67176 13.3029 2.61046 13.1189 2.48785 12.8124C2.54916 12.6285 2.61046 12.8737 2.67177 12.7511L2.48785 12.5672C2.48785 12.5059 2.54916 12.5672 2.54916 12.5672C2.48786 12.4446 2.36524 12.5672 2.30394 12.322C2.05873 12.2607 2.61046 11.8929 2.42655 11.6477C2.48785 11.5864 2.54915 11.709 2.61046 11.6477C2.48785 11.2798 2.48785 11.3411 2.30394 11.0346L2.42655 10.7894C2.24264 10.9733 2.12003 10.7281 1.99742 10.4829C1.93612 10.5442 1.87481 10.6055 1.81351 10.6055L1.75221 10.2377C1.81352 10.1764 1.87482 10.2377 1.93613 10.299C1.93613 10.299 1.93612 10.2377 1.87482 10.2377C1.93612 10.1151 2.05873 10.1764 2.18134 10.299C2.12003 10.3603 2.12003 10.3603 2.05873 10.4216C2.18134 10.5442 2.30394 10.6055 2.42655 10.6055C2.42655 10.6055 2.36525 10.5442 2.36525 10.4829L2.42655 10.5442C2.42655 10.5442 2.42655 10.4829 2.36525 10.4216L2.61046 10.3603H2.54916L2.73306 9.93116C2.54915 9.62464 2.24264 9.31813 2.24264 8.76639C2.36525 8.889 2.48785 8.8277 2.67177 8.889C2.42655 9.01161 2.73306 9.25682 2.61046 9.50204C2.67176 9.37943 2.73306 9.44073 2.73306 9.44073L2.61046 8.9503C2.73306 9.01161 2.73307 8.889 2.79437 8.76639C2.48785 8.8277 2.67176 8.39857 2.61046 8.21466C2.73306 8.21466 2.79437 8.27597 2.73306 8.52118C2.97828 8.33727 2.42655 8.15336 2.67177 7.90815C2.67177 7.96945 2.67177 7.96945 2.67177 8.03075C2.61046 7.90815 2.73307 7.60163 2.79437 7.66293V7.72424C2.91698 7.35641 3.03958 6.62077 2.79437 6.49817C2.85567 6.49817 3.10089 6.62077 3.16219 6.62077C2.91698 6.31426 2.67176 6.06904 2.48785 5.76253C2.67176 5.88513 3.2848 5.82383 3.2848 6.13035C3.3461 6.06904 3.4074 5.94644 3.3461 5.76253C3.28479 5.82383 2.97828 5.82383 2.97828 5.76253C3.2848 5.63992 3.16219 5.63992 3.4074 5.45601C3.3461 5.51731 3.03958 5.3334 3.10089 5.21079C3.16219 5.2721 3.40741 5.3334 3.46871 5.3334L3.22349 4.90428C3.22349 5.02688 3.46871 5.02688 3.59132 4.96558C3.53001 4.96558 3.71392 4.65906 3.71392 4.59776L3.59132 4.72037C3.77523 4.35255 3.2848 4.16864 3.46871 3.80081C3.53002 3.86212 3.83653 4.04603 3.95913 3.92342C3.83653 3.80081 3.3461 3.18778 3.4074 2.81996H3.53001V2.51344C3.65262 2.81996 3.95914 3.4943 4.08175 3.80081C4.20435 3.67821 4.20435 3.80081 4.26565 3.6169C4.38826 3.6169 4.32696 3.80081 4.32696 3.86212C4.38826 3.73951 4.51086 3.6169 4.57217 3.43299C4.38826 3.37169 4.57217 3.00387 4.38826 2.94257C4.38826 3.12648 4.32696 3.31039 4.32696 3.4943C4.14305 3.43299 3.95913 2.94257 4.14304 2.63605C4.26565 2.57475 4.44957 2.88126 4.51087 2.88126C4.44957 2.81996 4.57217 2.51344 4.63347 2.51344V2.69735C4.81738 2.57475 4.57217 2.26823 4.87868 2.20692C4.93999 2.14562 5.24651 2.20692 5.1239 2.08432C4.87869 2.02301 4.26566 1.59389 4.20435 1.40998C4.20435 1.40998 4.69477 1.22607 4.87868 1.22607C5.1239 1.28737 5.00129 1.7165 5.1852 1.7165C5.1239 1.65519 5.1239 1.59389 5.1852 1.53259C5.24651 1.53259 5.24651 1.65519 5.36911 1.59389C5.24651 1.40998 5.67564 1.40998 5.30782 1.40998C5.43042 1.28737 5.49173 1.34868 5.61433 1.28737C5.49173 1.22607 5.61433 0.796945 5.79824 0.674338C5.79824 0.735642 5.85954 0.796945 5.85954 0.796945C5.98215 0.796945 6.04345 0.796945 6.10475 0.796945C6.16606 0.796945 6.22737 0.858249 6.34997 0.858249C6.41128 0.858249 6.47258 0.919552 6.53389 0.919552C6.59519 0.980855 6.65648 0.980855 6.71779 1.04216C6.71779 1.10346 6.8404 1.22607 6.71779 1.28737C6.77909 1.28737 6.8404 1.22607 6.96301 1.28737C7.02431 1.53259 6.7791 1.16477 6.7791 1.47128C6.8404 1.40998 7.08561 1.47128 7.20822 1.53259C7.33082 1.34868 6.96301 1.28737 6.7791 1.28737C6.8404 1.16477 6.96301 1.10346 7.14692 1.10346C7.33083 1.10346 7.51474 1.10346 7.69865 1.22607C8.00516 1.40998 7.69865 1.47128 7.75995 1.47128C7.94387 1.7165 8.06646 1.7778 8.25038 1.7778C8.37298 1.8391 8.55689 1.90041 8.55689 2.14562C8.49559 2.39083 8.25038 2.32953 8.18908 2.39084C8.00517 2.20692 8.06646 2.02301 7.94386 1.8391L8.00516 2.08432C7.88256 2.02301 7.75995 1.96171 7.75995 1.8391C7.75995 2.02301 8.25038 2.69735 8.31168 3.12648C8.37299 3.18778 8.49559 3.24908 8.55689 3.18778L8.49559 3.06517C8.5569 2.88126 8.80211 3.24908 8.7408 3.06517C8.92472 3.18778 9.10862 3.37169 9.16993 3.6169L8.98602 3.73951C9.04733 3.73951 9.04732 3.5556 8.92472 3.4943C9.04732 3.5556 8.80211 3.98472 9.10863 3.98472L9.16993 3.73951C9.35384 3.86212 9.59906 4.04603 9.59906 4.29124C9.72167 4.10733 9.53775 4.22994 9.72166 3.98472C9.53775 4.22994 9.53775 3.37169 9.35384 3.67821C9.53775 3.43299 9.35384 3.37169 9.47644 3.06517C9.41514 3.06517 9.41514 3.18778 9.35384 3.00387H9.29254C9.29254 3.06517 9.29254 3.12648 9.23123 3.12648C9.04732 3.06517 8.92472 2.75866 8.80211 2.69735C8.80211 2.57475 8.86341 2.69735 8.92472 2.63605L8.7408 2.51344C8.86341 2.45214 8.80211 2.08432 8.98602 2.32953L8.86341 2.08432C8.86341 1.90041 8.80211 1.7165 8.6182 1.59389C8.5569 1.47128 8.31168 1.40998 8.43429 1.40998C8.31168 1.28737 8.18907 1.22607 8.12777 1.10346C7.82125 0.735642 7.33082 0.551731 6.9017 0.122607C6.77909 0.122607 6.71779 0.0613035 6.59518 0.0613035C6.47258 0.0613035 6.34998 0 6.22737 0L6.59518 0.122607C6.34997 0.122607 5.79824 0.0613035 5.73694 0.18391C5.55303 0.0613035 5.24651 0.18391 5.0013 0.306517C4.87869 0.367821 4.75608 0.490428 4.63347 0.613035C4.51087 0.674338 4.44957 0.796945 4.38826 0.858249L4.51087 0.980855C4.38826 1.04216 4.32695 1.16477 4.26565 1.22607C4.20435 1.34868 4.14305 1.47128 4.08175 1.59389L4.20435 1.65519C4.14305 1.90041 3.77523 2.08432 3.59132 2.45214C3.53001 2.39083 3.65262 2.32953 3.71392 2.26823C3.46871 2.39083 3.4074 2.63605 3.3461 2.81996C3.28479 3.06517 3.2848 3.24908 3.10089 3.43299C3.10089 3.5556 3.03959 3.6169 2.97828 3.67821C2.97828 3.67821 2.97828 3.67821 2.97828 3.73951C2.79437 3.73951 2.79437 3.80081 2.73306 3.80081C2.79437 3.80081 2.79437 3.73951 2.85568 3.73951C2.85568 3.80081 2.79437 3.92342 2.79437 4.04603H2.61046C2.54915 4.10733 2.67176 4.16864 2.79437 4.16864C2.79437 4.22994 2.79437 4.29124 2.85568 4.35255C2.61046 4.35255 2.85568 4.65906 2.54916 4.65906C2.61046 4.78167 2.48785 5.21079 2.67177 5.3334C2.61046 5.3334 2.61046 5.3334 2.61046 5.2721C2.54915 5.3947 2.48786 5.45601 2.54916 5.57861H2.36525C2.42655 5.70122 2.48786 5.76252 2.54916 5.88513C2.42655 6.00774 2.30395 6.06904 2.24264 5.88513C2.36525 6.31426 2.24264 6.19165 2.36525 6.55947L2.24264 6.49817C2.24264 6.62077 2.36525 6.80468 2.24264 6.86599C2.12004 6.98859 2.05873 7.29511 1.93613 7.66293C1.87482 8.03075 1.81352 8.45988 1.62961 8.76639C1.99743 8.70509 1.44569 9.07291 1.69091 9.13422C1.6296 9.13422 1.5683 9.25682 1.50699 9.13422C1.5683 9.50204 1.32308 9.62464 1.50699 9.86986C1.44569 9.86986 1.38439 9.80855 1.32309 9.80855C1.32309 9.80855 1.38439 9.93116 1.32309 9.93116C1.26179 9.93116 1.26178 9.86986 1.20048 9.80855C1.20048 10.1764 1.44569 10.2377 1.69091 10.2377C1.5683 10.4216 1.5683 10.4829 1.69091 10.6055C1.6296 10.6668 1.50699 10.7281 1.50699 10.5442C1.50699 10.6668 1.32308 11.2798 1.50699 11.2798C1.44569 11.3411 1.50699 11.4637 1.50699 11.4637C1.50699 11.709 1.4457 11.7703 1.4457 12.0155L1.50699 11.9542C1.75221 12.0768 1.5683 12.1994 1.5683 12.3833C1.38439 12.8737 1.62961 12.5672 1.4457 13.0576H1.5683C1.87482 13.1189 1.38439 13.4868 1.50699 13.7933L1.5683 13.6707C1.69091 13.7933 1.13918 14.0998 1.13918 14.2837C1.13918 14.345 1.07787 14.2224 1.07787 14.1611C0.893961 14.5902 1.26179 14.2224 1.32309 14.5289C1.20048 14.5902 1.07787 14.4676 1.07787 14.6515C1.01657 14.7741 1.44569 15.2033 1.26178 15.5098C1.32309 15.4485 1.38439 15.3872 1.50699 15.5098C1.5683 15.6937 1.26178 16.1228 1.50699 16.3067L1.4457 16.368C1.507 16.5519 1.62961 16.8585 1.75221 16.9811C1.26179 17.2263 2.12003 17.9619 1.69091 18.0232L1.81351 18.5136H1.75221C1.81352 18.8202 1.93612 18.9428 2.05873 19.0041C2.05873 19.0654 1.99743 19.0654 1.93613 19.0654C1.93613 19.5558 1.99742 19.6171 2.30394 19.9236L2.18134 19.9849C2.30394 20.0462 2.18134 20.7206 2.48785 21.0884H2.42655C2.61046 21.3336 2.67176 21.6401 2.73306 21.9466C2.79437 22.2532 2.91698 22.4371 3.22349 22.3758C3.3461 22.4371 3.4074 22.5597 3.53001 22.621C3.2848 22.1919 3.77523 22.5597 3.71392 22.3145C3.83653 22.4371 3.83653 22.8049 3.71392 22.621V22.5597C3.59132 22.621 3.65262 22.7436 3.71392 22.8662C3.83653 22.9888 3.89783 23.1114 3.83653 23.1727C4.14304 23.5405 4.57217 23.847 5.1239 24.031C5.67564 24.2149 6.28867 24.0923 6.7791 23.9083C6.71779 23.847 6.65649 23.7857 6.59518 23.7857C6.71779 23.7244 6.77909 23.6631 6.9017 23.6018C7.02431 23.6018 7.08561 23.6631 6.9017 23.7857C7.08561 23.847 7.20822 23.4792 7.14692 23.4179C7.57604 23.1727 7.14692 23.7244 7.26953 23.6631C7.33083 23.6018 7.39213 23.5405 7.39213 23.5405H7.33082C7.39213 23.3566 7.33082 23.2953 7.51474 23.1114C7.69865 23.0501 7.69865 23.1114 7.75995 23.1114C7.75995 23.1114 7.82125 23.1114 7.82125 23.0501L8.06647 22.7436H7.82125C7.88256 22.5597 8.06647 22.4371 7.75995 22.4984C7.94387 22.4984 8.18908 22.1919 8.37299 21.8853C8.5569 21.5788 8.6795 21.2723 8.7408 21.211C8.7408 20.9658 8.80211 20.7206 8.92472 20.4754C8.86341 20.5367 8.6795 20.4754 8.80211 20.2914C9.16993 20.5367 9.10862 19.9236 9.47644 19.8623C9.23123 19.9849 9.66036 19.188 9.29254 19.3719C9.35384 19.188 9.41515 19.4332 9.59906 19.3106C9.59906 18.8202 9.96687 18.3297 10.0895 17.7167C10.0282 17.7167 9.96688 17.778 9.90558 17.6554L10.2121 17.4102C10.2121 17.2876 9.90557 17.2263 10.1508 17.1037C10.0895 17.1037 10.0282 17.165 10.0282 17.1037C10.5186 16.0002 10.1508 14.7741 10.7638 13.6707C10.6412 13.7933 10.6412 13.732 10.6412 13.6094C10.5799 13.6707 10.5186 13.6094 10.4573 13.6094C10.5186 13.4255 10.5799 13.3029 10.7025 13.1189C10.5186 12.9963 10.7025 12.6285 10.5186 12.5672V12.7511C10.2734 12.5672 9.96688 12.9963 9.72166 12.935C9.96688 13.1802 9.29254 13.4868 9.66036 13.8546C9.59905 13.9159 9.59905 13.7933 9.47644 13.7933C9.59905 13.9159 9.59906 13.9772 9.53775 14.2224C9.53775 14.7741 9.35384 15.0193 9.16993 15.6324H9.29254C9.23124 15.755 9.23123 15.8163 9.16993 15.8163C9.35384 16.0002 9.23123 15.4485 9.47644 15.6324C9.16993 15.755 9.29254 16.6132 8.98602 16.6745C8.92472 16.8585 9.16993 16.6745 9.10863 16.8585L8.98602 16.9198L9.10863 16.9811C9.04733 17.1037 8.92471 17.165 8.86341 17.165C8.86341 17.1037 8.86341 17.0424 8.86341 17.0424C8.7408 17.2263 8.80211 17.5328 8.7408 17.5941L8.86341 17.4102C8.80211 18.0232 8.55689 18.6363 8.55689 19.188H8.6182C8.6182 19.6171 8.43429 19.4945 8.31168 19.9236C8.37299 20.0462 8.31168 20.1688 8.25038 20.2914C8.25038 20.1688 8.00516 20.4141 8.00516 20.2301C7.94386 20.7206 8.00516 20.4754 8.12777 20.8432H8.00516C8.06647 20.9658 8.06647 21.0271 8.00516 21.211C8.00516 21.0271 7.75995 21.2723 7.75995 21.0271C7.33083 21.3336 7.63734 21.7627 7.20822 21.7627C7.33082 22.1305 7.57604 21.5175 7.57604 21.6401C7.69865 21.5788 7.69865 21.9466 7.57604 22.0079C7.51474 22.1306 7.08561 22.0079 6.9017 22.2532V22.1919C6.77909 22.2532 6.77909 22.4371 6.59518 22.4371C6.65649 22.621 6.47258 22.5597 6.59518 22.7436C6.65649 22.6823 6.71779 22.5597 6.7791 22.4984C6.71779 22.5597 6.71779 22.7436 6.65649 22.8049C6.59519 22.9275 6.53388 22.9888 6.34997 23.0501C6.34997 22.9888 6.41127 22.8662 6.41127 22.8049C6.28866 22.8049 6.28867 22.9275 6.16606 22.9275C6.10476 22.8049 6.16606 22.8049 6.28867 22.6823C6.34997 22.621 6.47258 22.5597 6.47258 22.4371C6.34997 22.4371 6.28867 22.7436 6.22737 22.4984C6.28867 22.6823 6.22736 22.6823 6.10475 22.7436C6.04345 22.7436 5.92085 22.7436 5.92085 22.9275V22.8049C5.92085 22.8662 5.85954 22.9275 5.79824 22.9275C5.79824 22.8662 5.85954 22.8049 5.85954 22.7436C5.73694 22.9275 5.61433 22.621 5.55303 22.6823C5.67563 22.6823 5.67563 22.7436 5.67563 22.8049C5.67563 22.8662 5.61433 22.9275 5.67563 22.9888C5.30781 23.1114 5.55303 22.621 5.24651 22.5597C5.30781 22.5597 5.36912 22.6823 5.24651 22.7436C5.24651 22.7436 5.1852 22.6823 5.1852 22.621C5.1852 22.5597 5.1852 22.4984 5.1852 22.4984C4.93999 22.3758 5.12391 22.621 5.0013 22.621C5.0626 22.4371 4.81739 22.621 4.69478 22.4984L4.81739 22.3758C4.63348 22.0079 4.51087 22.4984 4.38826 22.1306C4.44957 22.1306 4.57217 22.1306 4.63347 22.1306L4.51087 22.0079L4.69478 21.9466C4.51087 21.824 4.44957 21.7627 4.38826 21.5788C4.32696 21.7014 4.14305 21.7014 4.02044 21.5175C4.02044 21.3336 4.20435 21.5175 4.02044 21.2723C4.14305 21.2723 4.26566 21.2723 4.20435 21.4562C4.26566 21.4562 4.32696 21.4562 4.38826 21.4562C4.38826 21.2723 4.26566 21.1497 4.20435 21.0884C4.20435 21.1497 4.20435 21.1497 4.20435 21.211C4.08174 21.1497 3.95913 21.0271 3.83653 20.9658C3.83653 20.9045 3.89783 20.9045 3.95913 20.9658C3.89783 20.9045 3.83653 20.9045 3.77523 20.7819C3.89784 20.7819 4.02044 20.7206 4.14304 20.8432C4.08174 20.7206 3.95914 20.6593 3.89783 20.5367C3.95914 20.4754 3.95914 20.2914 4.02044 20.3527C4.02044 20.1075 3.59131 19.9849 3.65262 19.6784C3.65262 19.6784 3.59132 19.6784 3.59132 19.6171C3.53001 19.3719 3.59132 19.1267 3.4074 18.8202L3.59132 18.5749C3.46871 18.3297 3.4074 18.8815 3.22349 18.5136C3.10089 18.2684 3.3461 18.391 3.4074 18.2684C3.2848 18.1458 3.03959 17.9619 3.16219 17.6554C3.10089 17.8393 3.10089 17.9006 3.16219 18.0232ZM2.67177 14.958C2.73307 15.0193 2.79437 15.142 2.73306 15.2033C2.54915 15.142 2.61046 15.0807 2.67177 14.958ZM2.42655 10.1764C2.48785 10.2377 2.42655 10.299 2.36525 10.3603C2.36525 10.299 2.36524 10.2377 2.42655 10.1764ZM9.04732 2.26823C8.98602 2.08432 8.98602 2.14562 9.04732 2.26823V2.26823ZM9.16993 2.57475C9.23123 2.57475 9.23123 2.57475 9.23123 2.57475C9.16993 2.57475 9.16993 2.51344 9.10863 2.45214C9.04733 2.45214 9.04732 2.51344 9.16993 2.57475ZM7.88256 23.234H7.82125C7.88256 23.1114 7.88256 23.1727 7.88256 23.234Z" fill="white"/>
<path d="M2.5491 10.7281H2.48779C2.48779 10.7894 2.5491 10.7894 2.5491 10.7281Z" fill="white"/>
<path d="M5.49175 1.96171C5.43044 1.96171 5.43044 1.96171 5.36914 1.96171C5.36914 2.02302 5.43044 2.02302 5.49175 1.96171Z" fill="white"/>
<path d="M10.0281 3.98473L9.90552 3.80082C9.96682 3.86212 9.90552 3.92342 9.90552 3.98473C9.96682 3.98473 9.96682 3.92342 10.0281 3.98473Z" fill="white"/>
<path d="M9.59912 5.76253C9.59912 5.76253 9.59912 5.82383 9.66042 5.82383H9.72173C9.66042 5.70122 9.59912 5.63992 9.59912 5.76253Z" fill="white"/>
<path d="M9.59911 4.29124C9.4765 4.35255 9.5378 4.41385 9.59911 4.53646C9.78302 4.53646 9.72171 4.41385 9.59911 4.29124Z" fill="white"/>
<path d="M9.6604 4.59776C9.6604 4.65907 9.72171 4.65906 9.72171 4.72037C9.72171 4.72037 9.6604 4.65907 9.6604 4.59776Z" fill="white"/>
<path d="M9.41514 2.88126C9.41514 2.94257 9.59905 2.88126 9.53774 2.88126C9.66035 2.88126 9.16992 2.57475 9.41514 2.88126Z" fill="white"/>
<path d="M9.2312 4.53646L9.35381 4.41385H9.2312V4.53646Z" fill="white"/>
<path d="M8.98608 3.4943C8.98608 3.5556 8.98608 3.61691 9.04738 3.67821C9.04738 3.67821 9.10869 3.67821 9.10869 3.73951C9.04739 3.61691 9.04739 3.4943 8.98608 3.4943Z" fill="white"/>
<path d="M9.10864 3.73951C9.10864 3.80082 9.16994 3.86212 9.16994 3.86212C9.16994 3.86212 9.10864 3.80082 9.10864 3.73951Z" fill="white"/>
<path d="M9.10867 4.29124V4.16864L9.04736 4.04603L9.10867 4.29124Z" fill="white"/>
<path d="M7.8825 1.59389L7.69859 1.47128C7.63729 1.47128 7.63729 1.53259 7.7599 1.59389C7.7599 1.59389 7.8212 1.6552 7.8825 1.59389Z" fill="white"/>
<path d="M7.94389 2.39084C7.94389 2.32953 7.9439 2.32953 8.0052 2.26823L7.82129 2.39084H7.94389Z" fill="white"/>
<path d="M7.51465 1.96171C7.45334 1.96171 7.20813 1.83911 7.39204 2.02302C7.45334 1.96171 7.63725 2.08432 7.51465 1.96171Z" fill="white"/>
<path d="M4.94002 1.7778L4.7561 1.53259L4.94002 1.7778Z" fill="white"/>
<path d="M4.14299 4.59776C4.3269 4.41385 3.95908 4.47515 4.14299 4.29124C4.08169 4.22994 4.02038 4.41385 3.95908 4.35255C3.95908 4.53646 3.89778 4.59776 4.14299 4.59776Z" fill="white"/>
<path d="M10.8865 12.9963L11.0091 12.8124L10.8865 12.935V12.9963Z" fill="white"/>
<path d="M10.7025 12.6285L10.8864 12.5672L10.7025 12.4446C10.7025 12.5059 10.7638 12.6285 10.7025 12.6285Z" fill="white"/>
<path d="M3.0396 14.4676C2.91699 14.4676 2.91699 14.5289 2.91699 14.5902L3.0396 14.4676Z" fill="white"/>
<path d="M3.1009 16.6745L2.91699 16.7358L3.1009 16.6745Z" fill="white"/>
<path d="M3.65253 18.5136C3.65253 18.4523 3.59124 18.391 3.59124 18.2684C3.59124 18.391 3.40732 18.575 3.65253 18.5136Z" fill="white"/>
</svg>
