<svg id="圖層_1" data-name="圖層 1" xmlns="http://www.w3.org/2000/svg" viewBox="0 0 39.3 34.43"><defs><style>.cls-1{fill:#b78a7b;}.cls-2{fill:#ab7a6a;}.cls-3{fill:#aa7a6a;}.cls-4{fill:#5b433a;}.cls-5{fill:#312521;}.cls-6{fill:#31221f;}.cls-7{fill:#2a201c;}</style></defs><path class="cls-1" d="M320.19,419.88c-1,5-1.58,10.15-3,15.06a11.3,11.3,0,0,1-11.17,8.65,53.31,53.31,0,0,1-13.21-.84c-5.41-1.23-7.82-4.1-7.78-9.6,0-2.31-.24-4-2.22-5.73-2.91-2.55-2-6.18-.84-9.28a6.83,6.83,0,0,1,8.06-4.45c4.69.85,9-1.21,13.5-1a3.26,3.26,0,0,0,2-.85c3-2.54,6.34-3.57,9.85-1.42S320.34,415.77,320.19,419.88Z" transform="translate(-280.9 -409.21)"/><path class="cls-2" d="M316.89,419.2c0,2,.21,4.17-2.84,4-2-.1-8.26-4.7-8.24-6.07,0-1.89,3.24-4.22,5.84-4.23C314.58,412.92,316.9,415.7,316.89,419.2Z" transform="translate(-280.9 -409.21)"/><path class="cls-3" d="M284.26,421.76c0-2.8,2.93-5.32,6-5.12,1.8.12,3,.93,2.88,3-.08,1.57-3.67,7.78-4.62,7.8C286.54,427.5,284.24,424.45,284.26,421.76Z" transform="translate(-280.9 -409.21)"/><path class="cls-4" d="M297.42,437.54l6.34-.91C301.69,439.29,299.67,439.07,297.42,437.54Z" transform="translate(-280.9 -409.21)"/><path class="cls-5" d="M301.38,435a1.68,1.68,0,0,1-1.79,1.48,1.52,1.52,0,0,1-1.76-1.47c0-.9.8-1.18,1.54-1.2S301.09,433.92,301.38,435Z" transform="translate(-280.9 -409.21)"/><path class="cls-6" d="M304.84,431.7c-.06,1-.49,1.57-1.31,1.64-1,.09-1.54-.57-1.53-1.56s.61-1.27,1.44-1.26A1.31,1.31,0,0,1,304.84,431.7Z" transform="translate(-280.9 -409.21)"/><path class="cls-7" d="M295.94,433.23c-.83,0-1.21-.51-1.24-1.33s.34-1.39,1.2-1.43a1.19,1.19,0,0,1,1.37,1.26A1.47,1.47,0,0,1,295.94,433.23Z" transform="translate(-280.9 -409.21)"/></svg>