<svg xmlns="http://www.w3.org/2000/svg" viewBox="0 0 27.22 26.61"><defs><style>.cls-1{isolation:isolate;}.cls-2{fill:#8d8d8d;mix-blend-mode:multiply;}</style></defs><title>smile</title><g class="cls-1"><g id="圖層_1" data-name="圖層 1"><path class="cls-2" d="M283.67,418.26v1.44a2,2,0,0,0,.19,1.17,1.08,1.08,0,0,0,.84.42,4.26,4.26,0,0,0,2.27-.48,2.51,2.51,0,0,0,.83-.62,1.61,1.61,0,0,0,.32-.59,8.81,8.81,0,0,0,0-1.54l0,.18a2.33,2.33,0,0,1,.05-.28c.07-.23-.09-.35-.29-.42a2.19,2.19,0,0,0-1.05,0,3.92,3.92,0,0,0-1.24.4l-.3.18a1,1,0,0,0-.35.38,7.26,7.26,0,0,0,0,1.68l0-.18a1.16,1.16,0,0,1-.17.47l.13-.19-.19.21.22-.2-.11.08.31-.18h0a3.07,3.07,0,0,1,.5-.2,4,4,0,0,1,.91-.18h.27l.29.06-.09,0,.2.1a.65.65,0,0,1-.18-.15l.1.14a2,2,0,0,1-.14-1.12v-1.42c0-.21-.49-.29-.6-.3a3.49,3.49,0,0,0-1.2.13,3.12,3.12,0,0,0-1.1.49l-.22.19a.4.4,0,0,0-.14.37Z" transform="translate(-283.66 -408.41)"/><path class="cls-2" d="M306.36,409.79a3.21,3.21,0,0,0,0,1.38,3.13,3.13,0,0,0,.57,1.26,1,1,0,0,0,.51.23,2.12,2.12,0,0,0,.56,0,2.39,2.39,0,0,0,.65-.11,3,3,0,0,0,1.78-1.24,2.5,2.5,0,0,0,.36-.9,2.42,2.42,0,0,0,0-.93,2.33,2.33,0,0,0-.4-.84l-.22-.14a1.12,1.12,0,0,0-.48-.1,2.76,2.76,0,0,0-1,.1,3.85,3.85,0,0,0-.79.32,1.39,1.39,0,0,0-.63.66,2.78,2.78,0,0,0,0,1.78.65.65,0,0,0,.48.37,2.2,2.2,0,0,0,.92.05,2.83,2.83,0,0,0,1.75-.85,1.8,1.8,0,0,0,.35-1.71.78.78,0,0,0-.63-.41,2.75,2.75,0,0,0-1.21.08,2.6,2.6,0,0,0-1.09.54c-.17.15-.43.41-.33.67a1.27,1.27,0,0,1,.07.44v-.22a1.41,1.41,0,0,1-.14.57l.11-.22a1,1,0,0,1-.17.24l3.14-.42a2.57,2.57,0,0,1-.15-.87v.22a2.63,2.63,0,0,1,.12-.69l-3.14.84.09.13-.11-.18a1.77,1.77,0,0,1,.24.93v-.22a2.06,2.06,0,0,1-.2.82l.11-.22a2,2,0,0,1-.3.42l.22-.22-.22.19.29-.21,0,0,2.51-.19-.13-.2.11.19a2.78,2.78,0,0,1-.37-1.43V410a4.07,4.07,0,0,1,.08-.61.46.46,0,0,0-.32-.54,2,2,0,0,0-1.07-.09,3.14,3.14,0,0,0-1.23.41,1.3,1.3,0,0,0-.63.66Z" transform="translate(-283.66 -408.41)"/><path class="cls-2" d="M300.72,433.16c1.17,1.77,3.55,2.14,5.47,1.68a6.08,6.08,0,0,0,4.35-4.21,8.86,8.86,0,0,0,.27-3.55c0-.33-.43-.6-.7-.71a2,2,0,0,0-1.24,0c-.76.23-1.42.76-1.32,1.61a1.49,1.49,0,0,1,0,.21c0-.16,0-.16,0,0s0,.21,0,.32a5.93,5.93,0,0,1,0,.73c0,.25-.06.49-.1.73l-.09.41c.07-.3,0,0,0,.07a5.46,5.46,0,0,1-.26.67c-.06.13-.13.24-.19.36-.15.28.14-.18,0,0a6.12,6.12,0,0,1-.45.56c-.11.12-.09.1.07-.06l-.16.14-.25.19.18-.11a.83.83,0,0,1-.16.09l-.28.14c-.35.17.36-.1.05,0l-.3.09c-.18,0-.42,0,.05,0l-.31,0H305c.44,0,.19,0,0,0l-.3,0c-.29-.05.34.12,0,0l-.28-.1-.16-.07.13.07a5.92,5.92,0,0,0-.48-.35q-.1-.09.09.09l-.12-.12a3,3,0,0,1-.2-.29,1.84,1.84,0,0,0-2.23-.28c-.62.34-1.22,1-.75,1.75Z" transform="translate(-283.66 -408.41)"/></g></g></svg>