<svg id="Layer_1" data-name="Layer 1" xmlns="http://www.w3.org/2000/svg" viewBox="0 0 904.38 500"><defs><style>.cls-1{fill:#d6d4af;}.cls-2{fill:#f2f2f2;}.cls-3{fill:#b8bfa0;}.cls-4{fill:#758c78;}.cls-5{fill:#8097a6;}.cls-6{fill:none;}</style></defs><path class="cls-1" d="M394.89,210.28c-3.71,8.75-5.51,18.26-9.72,26.79-17.86,36.15-65.81,47-100.95,261.21l367.07.22c11.77-79.09-70-234.62-122.45-296.75C448.81,107,447,132,436.58,147.18,409.86,186.25,400.59,196.82,394.89,210.28Z" transform="translate(1.6)"/><path class="cls-2" d="M652.58,500h-1.29l-368.84-.22.29-1.75C310.13,331,345,287.69,368.09,259c6.35-7.89,11.84-14.71,15.74-22.6a103.92,103.92,0,0,0,5.47-14.71c1.25-4,2.55-8.07,4.21-12,3.92-9.26,9.62-17.33,21-33.4,5.45-7.74,12.25-17.36,20.86-30,.89-1.3,1.74-2.71,2.56-4.07,3.17-5.29,6.46-10.77,13-11.29,9.3-.76,26,6.95,79.07,69.81,27.75,32.86,61.32,88.75,85.53,142.37,29.3,64.89,42.53,120.14,37.25,155.57ZM286,496.78,650,497c4.69-34.92-8.49-89-37.2-152.62-24.11-53.39-57.51-109-85.1-141.67C487.28,154.85,463,133,451.16,134c-5,.4-7.65,4.78-10.69,9.84-.84,1.4-1.71,2.85-2.65,4.22-8.63,12.62-15.43,22.25-20.89,30-11.58,16.39-16.86,23.87-20.66,32.84-1.6,3.79-2.88,7.83-4.11,11.73a106,106,0,0,1-5.64,15.14c-4,8.19-9.63,15.12-16.09,23.15C347.63,289.22,313.2,332,286,496.78Z" transform="translate(1.6)"/><path class="cls-2" d="M340.65,498.81a.5.5,0,0,1-.5-.51c1.82-111.6,39.1-234.38,51.67-256.62,2.08-3.7,4.49-7.27,6.82-10.73a122.55,122.55,0,0,0,8.69-14.29,120.91,120.91,0,0,0,5.12-12.87,114.94,114.94,0,0,1,5.67-14,100.8,100.8,0,0,1,6.67-10.5c7.36-10.69,16.51-24,18.39-42.91a.51.51,0,0,1,.55-.45.5.5,0,0,1,.45.54c-1.91,19.18-11.15,32.6-18.57,43.38a101.87,101.87,0,0,0-6.6,10.39,114.88,114.88,0,0,0-5.62,13.86,122.52,122.52,0,0,1-5.16,13,122.63,122.63,0,0,1-8.76,14.41c-2.32,3.44-4.71,7-6.78,10.66C380.15,264.35,343,386.88,341.15,498.32A.49.49,0,0,1,340.65,498.81Z" transform="translate(1.6)"/><path class="cls-2" d="M409.27,498.85a.51.51,0,0,1-.5-.44c-9.54-89-6.19-177.78-1.66-252.92,1.28-21.18,5.61-25.78,12.78-33.4a110.35,110.35,0,0,0,8.11-9.37c7.8-10.27,22.37-44.3,21.24-70.05a.5.5,0,1,1,1,0c1.14,26-13.57,60.33-21.44,70.69a111.22,111.22,0,0,1-8.18,9.46c-7,7.45-11.26,11.95-12.51,32.77-4.53,75.1-7.88,163.85,1.66,252.75a.51.51,0,0,1-.45.55Z" transform="translate(1.6)"/><path class="cls-2" d="M469.15,498.89a.5.5,0,0,1-.47-.33,756.86,756.86,0,0,1-44.3-206.94c-4-56.69,6.24-75.46,16.14-93.62,8.22-15.07,16-29.3,13.5-65.28a.49.49,0,0,1,.46-.53.5.5,0,0,1,.54.46c2.5,36.27-5.33,50.63-13.62,65.83-9.84,18-20,36.67-16,93.07a755.71,755.71,0,0,0,44.24,206.67.5.5,0,0,1-.47.67Z" transform="translate(1.6)"/><path class="cls-2" d="M503.92,498.91a.51.51,0,0,1-.49-.39c-14.54-62-30.27-124.62-46.75-186.13-21.34-79.65-13.58-94-5.36-109.22,6.46-11.95,13.13-24.31,6.58-69.24a.5.5,0,0,1,1-.14c6.6,45.25-.16,57.76-6.69,69.86-8.12,15-15.79,29.22,5.45,108.48,16.47,61.52,32.21,124.15,46.76,186.16a.52.52,0,0,1-.38.61Z" transform="translate(1.6)"/><path class="cls-2" d="M541.67,498.93a.5.5,0,0,1-.5-.51c2.66-89.56-26.71-151.27-48.16-196.33-6.35-13.34-11.83-24.85-15.85-35.58-17.18-45.88-11.51-71-7.76-87.56,1.47-6.54,2.64-11.71,2.25-16.59-.53-6.54-3.41-12.66-6.2-18.58-1.18-2.53-2.41-5.14-3.45-7.76a.5.5,0,0,1,.93-.37c1,2.59,2.25,5.19,3.43,7.7,2.82,6,5.74,12.21,6.28,18.93.41,5-.83,10.53-2.27,16.89-3.72,16.48-9.35,41.39,7.73,87,4,10.68,9.47,22.19,15.81,35.5,21.49,45.15,50.93,107,48.26,196.79A.5.5,0,0,1,541.67,498.93Z" transform="translate(1.6)"/><path class="cls-2" d="M571.51,499a.5.5,0,0,1-.5-.48c-1.92-54.75-21.45-96.93-40.34-137.73-15.84-34.22-30.8-66.53-35.52-105-.5-4.07-.88-8.26-1.24-12.31-1.21-13.42-2.47-27.3-8.37-39.47-.83-1.73-1.79-3.47-2.71-5.16-2.9-5.31-5.9-10.8-6-16.9a34.69,34.69,0,0,1,1.85-10.7c2-7,3.92-13.58-4.15-26.21a.49.49,0,0,1,.16-.69.5.5,0,0,1,.69.15c8.31,13,6.25,20.14,4.26,27a33.72,33.72,0,0,0-1.81,10.4c.09,5.86,3,11.24,5.88,16.44.92,1.7,1.88,3.46,2.73,5.21,6,12.32,7.24,26.3,8.46,39.81.37,4,.75,8.22,1.24,12.28,4.7,38.27,19.63,70.52,35.44,104.66,18.92,40.89,38.5,83.16,40.43,138.11a.5.5,0,0,1-.48.52Z" transform="translate(1.6)"/><path class="cls-2" d="M598.62,499a.51.51,0,0,1-.5-.47c-2.51-40.18-20.62-77.85-38.14-114.28-11.81-24.56-24-50-31.32-75.87C522.11,285.11,520,266,518.34,250.6c-2.07-18.88-3.56-32.53-11.47-43.95-1.61-2.32-3.51-4.58-5.36-6.76-4.7-5.58-9.56-11.35-10-18.64a27.42,27.42,0,0,1,.32-4c.48-4,1.2-10.13-.29-16.34a.5.5,0,1,1,1-.24c1.52,6.39.79,12.6.3,16.7a26.87,26.87,0,0,0-.31,3.87c.42,7,5.17,12.59,9.77,18,1.86,2.21,3.78,4.49,5.41,6.84,8.06,11.63,9.64,26.1,11.64,44.42,1.68,15.33,3.77,34.41,10.29,57.58,7.27,25.83,19.47,51.19,31.26,75.71,17.56,36.52,35.71,74.28,38.24,114.64a.49.49,0,0,1-.47.53Z" transform="translate(1.6)"/><path class="cls-2" d="M627.58,499a.49.49,0,0,1-.49-.46c-7.59-115.39-44.48-217.88-106.7-296.4l-.74-1c-7.63-9.62-15.52-19.57-19-30.72a.5.5,0,0,1,1-.3c3.4,11,11.23,20.85,18.8,30.4l.75.95c32,40.35,57.44,87.42,75.71,139.9,17.07,49.07,27.57,101.91,31.19,157.05a.49.49,0,0,1-.46.53Z" transform="translate(1.6)"/><path class="cls-3" d="M383,205.72c-48.1,32.85-73.34,37.22-107.17,107.19-28.74,59.47-45.58,119.66-50.11,185.56l108.34,0c.19-60.84,10-116.88,22.14-199.92,6.3-43.06,17.84-38.44,29.19-62.61,2.9-6.18,4.52-12.92,7.72-18.95,6.23-11.75,37.38-42.59,53.5-83.08C426.18,140.87,417.91,181.86,383,205.72Z" transform="translate(1.6)"/><path class="cls-2" d="M335.52,500l-111.44,0,.11-1.6c4.43-64.43,20.87-125.31,50.26-186.11,27.58-57,49.45-70.76,82.54-91.51,7.87-4.94,16-10,25.13-16.27,18.14-12.39,28.83-29.19,38.25-44,8.35-13.14,15.56-24.49,25.72-27.94l3.08-1.05-1.2,3c-11.3,28.38-29.91,52-42.22,67.69-5.32,6.75-9.51,12.09-11.34,15.54A79.91,79.91,0,0,0,390.15,228c-1,2.85-2.1,5.81-3.43,8.63a81.81,81.81,0,0,1-11.91,18.34c-7,8.71-13.11,16.22-17.15,43.86-1.72,11.79-3.4,23-5,33.83-9.85,66.06-17,113.78-17.12,165.87ZM227.3,497l105.24,0c.29-51.73,7.37-99.26,17.14-164.81,1.61-10.79,3.29-22,5-33.82,4.16-28.45,10.78-36.64,17.78-45.31A79,79,0,0,0,384,235.33c1.27-2.7,2.32-5.59,3.33-8.38a80.7,80.7,0,0,1,4.43-10.63c2-3.7,6.22-9.12,11.63-16,11.7-14.87,29.13-37,40.36-63.47-7.59,4.35-13.8,14.11-20.85,25.2-9.1,14.33-20.44,32.16-39.08,44.9-9.18,6.26-17.34,11.38-25.23,16.33-32.66,20.47-54.23,34-81.44,90.27C248.17,373.51,231.86,433.53,227.3,497Z" transform="translate(1.6)"/><path class="cls-2" d="M242.07,499a.5.5,0,0,1-.5-.5c.88-77,56-202.31,56.56-203.47,14.9-31.07,23.39-36.08,35.15-43a138.75,138.75,0,0,0,13-8.42c5.24-3.9,11-8.9,17.12-14.19,9.42-8.17,20.11-17.43,30.69-24,13.41-8.36,23.63-25.66,34.44-44,5.58-9.45,11.35-19.22,17.63-27.74a.51.51,0,0,1,.7-.11.5.5,0,0,1,.11.7c-6.26,8.48-12,18.23-17.58,27.65-10.88,18.43-21.15,35.83-34.78,44.32-10.51,6.55-21.16,15.78-30.56,23.93-6.12,5.3-11.9,10.31-17.18,14.23a139.27,139.27,0,0,1-13.09,8.48c-12,7.11-20,11.8-34.76,42.59-.55,1.16-55.58,126.29-56.46,203.05A.5.5,0,0,1,242.07,499Z" transform="translate(1.6)"/><path class="cls-2" d="M299.59,272.4a.55.55,0,0,1-.33-.13.49.49,0,0,1,0-.7,43.13,43.13,0,0,1,6.19-5.94,69.36,69.36,0,0,1,10.69-6.43,84,84,0,0,0,8.95-5.17c4.87-3.37,9-7.82,13-12.11a123.11,123.11,0,0,1,8.83-8.87c6.55-5.72,14.75-10.7,23.43-16,12.23-7.41,24.87-15.08,32.45-25,1-1.3,3-4.35,5.71-8.57,8.79-13.58,25.15-38.84,37.78-49.95a.49.49,0,0,1,.7.05.5.5,0,0,1,0,.7c-12.52,11-28.84,36.21-37.6,49.74-2.75,4.24-4.74,7.31-5.75,8.64-7.7,10.06-20.42,17.78-32.73,25.25-8.64,5.24-16.8,10.2-23.29,15.87a121.06,121.06,0,0,0-8.76,8.79c-4,4.33-8.2,8.82-13.16,12.26a84.55,84.55,0,0,1-9.06,5.22A69.65,69.65,0,0,0,306,266.42a43.28,43.28,0,0,0-6,5.8A.49.49,0,0,1,299.59,272.4Z" transform="translate(1.6)"/><path class="cls-2" d="M261.43,499a.51.51,0,0,1-.49-.54c14.32-171.6,70.22-232.43,87-247,2.22-1.92,4.55-3.78,6.8-5.58a134.26,134.26,0,0,0,10.62-9.1c2.71-2.67,5.23-5.61,7.66-8.45s5-5.81,7.7-8.49c1.29-1.28,3.45-3.16,6.19-5.55,15.69-13.69,52.44-45.73,59.16-80.45a.49.49,0,0,1,.58-.39.5.5,0,0,1,.4.58c-6.78,35.05-43.71,67.26-59.49,81-2.72,2.38-4.87,4.26-6.14,5.51-2.7,2.66-5.21,5.59-7.64,8.43s-5,5.82-7.71,8.51a135.84,135.84,0,0,1-10.71,9.17c-2.24,1.79-4.56,3.64-6.77,5.55-16.72,14.5-72.39,75.09-86.68,246.31A.5.5,0,0,1,261.43,499Z" transform="translate(1.6)"/><path class="cls-2" d="M274.07,499a.5.5,0,0,1-.5-.48c-1.1-32.06,6.05-72.78,21.28-121,12.26-38.85,26.24-71.57,33-87.29,1.8-4.21,3-7,3.4-8.16,2.42-6.92,30.86-40.27,61.83-65.89a.5.5,0,0,1,.7.07.49.49,0,0,1-.06.7c-29.74,24.6-59.1,58.52-61.53,65.45-.42,1.2-1.61,4-3.42,8.23-37.66,88.11-55.88,158.06-54.16,207.89a.5.5,0,0,1-.48.52Z" transform="translate(1.6)"/><path class="cls-2" d="M341.13,403.35a.5.5,0,0,1-.48-.35c-8.89-29.86-9-63.86-.23-95.75,8.68-31.63,25.65-59.9,47.78-79.6a.5.5,0,1,1,.67.74c-45.43,40.44-65.31,113.75-47.26,174.32a.49.49,0,0,1-.34.62A.34.34,0,0,1,341.13,403.35Z" transform="translate(1.6)"/><path class="cls-4" d="M411.9,255c-24.51,7.66-56.53,32.37-108.27,18.78-12.19-3.2-23.86-8.35-36.24-10.72-47.35-9-97.63,26-112.12,52.81-8,14.87-6.69,14.47-37.58,182.62l411.63,0c-16-123.4-35.72-187.56-40.67-217.93-1.29-8,.06-21.73-6.92-27.36C472.52,245.76,428,250,411.9,255Z" transform="translate(1.6)"/><path class="cls-2" d="M115.89,500l.33-1.77c6-32.4,10.72-58.65,14.56-79.73C147,329.09,147.35,327.38,154,315.16c7.76-14.35,24.75-29.85,44.34-40.45,23.23-12.56,47.87-17.22,69.38-13.11a169.22,169.22,0,0,1,21.52,6.14C294,269.36,299,271,304,272.34c39.51,10.38,67.13-1.76,89.32-11.51a182.76,182.76,0,0,1,18.13-7.25c14.86-4.64,60.92-9.85,71.21-1.56,5.72,4.61,6.3,13.56,6.82,21.45.17,2.51.32,4.88.64,6.84,1.42,8.71,4.11,20.4,7.51,35.21,8.68,37.78,21.8,94.88,33.16,182.77L531,500ZM252,263.15c-41.09,0-82.4,29.36-95.41,53.44-6.37,11.8-6.68,13.49-22.86,102.44-3.77,20.71-8.44,46.38-14.24,78l408.12,0c-11.29-86.78-24.28-143.31-32.89-180.79-3.42-14.86-6.12-26.59-7.55-35.4-.34-2.1-.5-4.54-.67-7.12-.48-7.28-1-15.53-5.71-19.31-8.59-6.92-52.35-2.94-68.44,2.08a179.57,179.57,0,0,0-17.81,7.14c-22.62,9.93-50.77,22.3-91.29,11.66-5.08-1.33-10.13-3-15-4.65a165,165,0,0,0-21.13-6A80.09,80.09,0,0,0,252,263.15Z" transform="translate(1.6)"/><path class="cls-2" d="M155.2,316.5a.5.5,0,0,1-.24-.93c74.84-41.25,80.22-40.44,110.06-36,2.18.33,4.48.67,7,1,62.85,8.92,107.38-3.53,146.68-14.51,21.87-6.12,42.52-11.9,63.53-13a.49.49,0,0,1,.52.47.5.5,0,0,1-.47.53c-20.89,1.12-41.5,6.88-63.31,13-39.39,11-84,23.49-147.09,14.54-2.47-.35-4.78-.69-7-1-29.55-4.44-34.88-5.24-109.43,35.84A.39.39,0,0,1,155.2,316.5Z" transform="translate(1.6)"/><path class="cls-2" d="M149.83,329.28a.5.5,0,0,1-.26-.93l11.08-6.62c35.48-21.19,43.91-26.23,56.89-30.17,20-6.08,41.28-4.11,61.88-2.22,9.41.87,19.15,1.77,28.64,1.89,31,.4,61.84-7.51,91.66-15.16,28.25-7.25,57.46-14.75,86.72-15.14a.48.48,0,0,1,.51.49.51.51,0,0,1-.49.51c-29.14.39-58.3,7.87-86.49,15.1-29.89,7.67-60.81,15.59-91.92,15.2-9.54-.12-19.29-1-28.72-1.89-20.51-1.89-41.71-3.84-61.5,2.17-12.86,3.91-21.27,8.94-56.67,30.08l-11.08,6.62A.59.59,0,0,1,149.83,329.28Z" transform="translate(1.6)"/><path class="cls-2" d="M146.65,342.42a.52.52,0,0,1-.43-.24.5.5,0,0,1,.17-.69,382.31,382.31,0,0,1,65.27-31.57c33-12.25,52.75-10.9,75.58-9.34a308.21,308.21,0,0,0,35.28.94c23-.92,46.84-7.15,69.9-13.17,31.61-8.25,64.31-16.78,95.87-12.1a.5.5,0,1,1-.14,1c-31.37-4.65-64,3.86-95.48,12.08-23.11,6-47,12.27-70.11,13.2a307.6,307.6,0,0,1-35.39-.95c-22.72-1.55-42.34-2.89-75.16,9.29a381,381,0,0,0-65.1,31.48A.5.5,0,0,1,146.65,342.42Z" transform="translate(1.6)"/><path class="cls-2" d="M144.6,352.49a.51.51,0,0,1-.43-.26.49.49,0,0,1,.19-.68c29.61-16.44,73.25-34.71,88.22-39,26.76-7.68,55.15-7.15,82.61-6.65,18.39.35,37.4.7,55.83-1.4,15.36-1.75,30.9-5.26,45.93-8.65,23.86-5.39,48.53-11,72.86-9.53a.5.5,0,0,1,.47.53.49.49,0,0,1-.53.47c-24.19-1.43-48.79,4.13-72.58,9.5-15.05,3.4-30.62,6.92-46,8.67-18.49,2.11-37.54,1.76-56,1.41-27.38-.5-55.7-1-82.31,6.61-14.93,4.29-58.46,22.52-88,38.92A.45.45,0,0,1,144.6,352.49Z" transform="translate(1.6)"/><path class="cls-2" d="M142.33,364.34a.5.5,0,0,1-.3-.9c24.16-18,83.81-46.11,128.49-50.05,13.31-1.18,26.89-.72,40-.29,6.36.21,12.93.43,19.39.47,33.35.19,66.92-4.65,99.41-9.31,20.46-2.93,41.62-6,62.54-7.73a.5.5,0,0,1,.08,1c-20.88,1.76-42,4.79-62.48,7.72-32.53,4.66-66.16,9.5-99.56,9.32-6.47,0-13.05-.26-19.41-.47-13.1-.43-26.64-.89-39.89.28-44.5,3.93-103.92,32-128,49.86A.54.54,0,0,1,142.33,364.34Z" transform="translate(1.6)"/><path class="cls-2" d="M139.66,378.7a.51.51,0,0,1-.4-.2.5.5,0,0,1,.1-.7c71.49-53.5,105.4-54.74,179.72-57.45,42.34-1.54,95-3.46,174.75-15a.51.51,0,0,1,.56.42.5.5,0,0,1-.42.57c-79.77,11.49-134.73,13.5-174.86,15C245,324.06,211.2,325.29,140,378.6A.49.49,0,0,1,139.66,378.7Z" transform="translate(1.6)"/><path class="cls-2" d="M135.68,400.43a.5.5,0,0,1-.4-.19.51.51,0,0,1,.1-.7c85-64.8,146.18-65.15,182.72-65.36,4,0,7.84,0,11.25-.16,26.79-.9,52.61-5.54,77.59-10,28.53-5.12,58.05-10.42,88.53-10a.5.5,0,0,1,0,1c-30.42-.44-59.86,4.85-88.34,10-25,4.49-50.88,9.14-77.74,10-3.42.12-7.23.14-11.27.16-36.42.21-97.38.56-182.12,65.15A.52.52,0,0,1,135.68,400.43Z" transform="translate(1.6)"/><path class="cls-2" d="M137.78,389a.53.53,0,0,1-.4-.19.5.5,0,0,1,.08-.7c65.47-52.24,110-55.8,149.35-58.94l3.49-.28c34.18-2.77,68.69-6.11,102.07-9.35s67.92-6.57,102.12-9.34a.5.5,0,1,1,.08,1c-34.19,2.77-68.72,6.12-102.11,9.35s-67.89,6.57-102.08,9.34l-3.49.28c-39.18,3.13-83.58,6.68-148.8,58.73A.51.51,0,0,1,137.78,389Z" transform="translate(1.6)"/><path class="cls-2" d="M133,415.4a.5.5,0,0,1-.39-.18.52.52,0,0,1,.07-.71c35.36-29.26,79-56.79,103.66-65.47,20.78-7.3,44.21-8.56,73.87-10.15,26.24-1.41,58.9-3.16,98.86-9.88,7.4-1.25,14.93-2.66,22.2-4,21.28-4,43.29-8.16,65.19-8.53a.5.5,0,0,1,.51.49.51.51,0,0,1-.49.51c-21.82.36-43.78,4.5-65,8.51-7.27,1.37-14.8,2.79-22.21,4-40,6.72-72.71,8.48-99,9.89-29.59,1.59-53,2.84-73.6,10.1-24.61,8.64-68.07,36.1-103.35,65.29A.51.51,0,0,1,133,415.4Z" transform="translate(1.6)"/><path class="cls-2" d="M130.23,430.4a.49.49,0,0,1-.36-.15.5.5,0,0,1,0-.71c44-41.79,104.47-77.74,137.71-81.83,8.49-1,17.17-.67,25.57-.31,2.88.13,5.87.26,8.81.33,23.27.54,50.22-1.54,196.31-22.89a.51.51,0,0,1,.57.42.5.5,0,0,1-.43.57c-146.16,21.36-173.15,23.43-196.48,22.9-2.94-.07-5.93-.2-8.83-.33-8.35-.36-17-.73-25.4.3-33,4.07-93.29,39.9-137.14,81.56A.45.45,0,0,1,130.23,430.4Z" transform="translate(1.6)"/><path class="cls-3" d="M372.71,498.5,776,498.23c6.2-43.57-37-129.16-63.64-159.93-19.55-22.56-44.19-40.08-65.42-61.06-23.25-23-49.69-59-82.71-69.5-13-4.13-28.89,7.12-40.18,13.59C426.72,277.07,392.27,388.69,372.71,498.5Z" transform="translate(1.6)"/><path class="cls-2" d="M370.92,500l.32-1.76C383.18,431.16,398,380.56,417.86,339c25.94-54.27,60.43-93.18,105.45-119,1.46-.83,3-1.75,4.6-2.71,11.05-6.59,24.81-14.79,36.78-11,25.88,8.22,47.69,31.83,66.94,52.65,5.7,6.18,11.09,12,16.36,17.21,8.54,8.44,17.81,16.47,26.77,24.23,13.28,11.5,27,23.39,38.73,36.92,14,16.21,31.48,45.86,44.39,75.54,8.94,20.56,23.39,59,19.61,85.59l-.18,1.28ZM558.25,208.35c-9.46,0-20,6.3-28.8,11.54-1.62,1-3.18,1.89-4.65,2.74C425.83,279.3,393.18,392.91,374.51,497l400.18-.26c5.13-43.67-37.81-127.86-63.47-157.46C699.64,325.92,686,314.1,672.8,302.67c-9-7.8-18.3-15.85-26.92-24.36-5.31-5.25-10.72-11.11-16.45-17.31-19-20.55-40.52-43.85-65.65-51.83A18.43,18.43,0,0,0,558.25,208.35Z" transform="translate(1.6)"/><path class="cls-2" d="M724.2,498.77a.51.51,0,0,1-.42-.23c-22-33.77-35.5-72.28-48.53-109.52-11.76-33.6-25.08-71.69-26.89-109.87a.5.5,0,0,1,.48-.52.48.48,0,0,1,.52.47c1.8,38,15.1,76,26.83,109.59,13,37.19,26.47,75.64,48.43,109.31a.49.49,0,0,1-.15.69A.53.53,0,0,1,724.2,498.77Z" transform="translate(1.6)"/><path class="cls-2" d="M711.29,498.78a.51.51,0,0,1-.43-.25c-22.35-37.52-44.5-96.81-67.7-181.26-4.48-16.29-9.56-34.76-9.18-53a.5.5,0,0,1,.5-.49.49.49,0,0,1,.5.51c-.38,18.11,4.68,36.51,9.14,52.74,23.18,84.35,45.3,143.56,67.6,181a.5.5,0,0,1-.17.69A.59.59,0,0,1,711.29,498.78Z" transform="translate(1.6)"/><path class="cls-2" d="M701.23,498.78a.52.52,0,0,1-.44-.25c-23-40.74-39.19-85.75-53.29-128.33-12.39-37.4-24.48-77.3-24.42-117.7a.5.5,0,0,1,.5-.5.5.5,0,0,1,.5.5c-.06,40.25,12,80.06,24.37,117.39,14.09,42.53,30.28,87.49,53.22,128.15a.51.51,0,0,1-.19.68A.57.57,0,0,1,701.23,498.78Z" transform="translate(1.6)"/><path class="cls-2" d="M682.88,498.79a.48.48,0,0,1-.45-.28c-19.21-39.79-32.22-82.72-44.79-124.23C623.16,326.5,617.8,286,621.23,250.47a.51.51,0,0,1,.54-.45.5.5,0,0,1,.45.55C618.8,286,624.16,326.34,638.59,374c12.57,41.48,25.56,84.36,44.74,124.09a.51.51,0,0,1-.23.67A.57.57,0,0,1,682.88,498.79Z" transform="translate(1.6)"/><path class="cls-2" d="M681,498.8a.49.49,0,0,1-.46-.31c-4.37-10.67-9.58-22.64-15.09-35.3C636.1,395.85,596,303.63,609,238a.5.5,0,0,1,.59-.39.48.48,0,0,1,.39.58c-13,65.36,27.07,157.41,56.33,224.63,5.51,12.67,10.72,24.64,15.09,35.32a.5.5,0,0,1-.27.65A.46.46,0,0,1,681,498.8Z" transform="translate(1.6)"/><path class="cls-2" d="M662.05,498.81a.52.52,0,0,1-.46-.29c-26.34-55.92-62-157.32-65.55-176.13-4-21.49-3.37-62.82,4.72-92.11a.5.5,0,0,1,.62-.35.5.5,0,0,1,.35.61C593.67,259.7,593,300.82,597,322.2c3.52,18.77,39.16,120,65.48,175.9a.49.49,0,0,1-.24.66A.54.54,0,0,1,662.05,498.81Z" transform="translate(1.6)"/><path class="cls-2" d="M657.33,498.81a.5.5,0,0,1-.46-.3c-17.4-39.74-33.47-80.82-49-120.56-16.19-41.38-29.75-89.1-19.42-157.44a.5.5,0,1,1,1,.15c-10.3,68.11,3.22,115.67,19.36,156.93,15.54,39.72,31.61,80.8,49,120.52a.51.51,0,0,1-.26.66A.48.48,0,0,1,657.33,498.81Z" transform="translate(1.6)"/><path class="cls-2" d="M642.33,498.82a.5.5,0,0,1-.45-.28c-39.2-81.12-61.6-148.5-70.51-212.06-5-35.6,0-44.86,11.1-65.15.65-1.2,1.33-2.43,2-3.72a.5.5,0,1,1,.88.48l-2,3.72c-11.27,20.69-15.94,29.26-11,64.53,8.89,63.46,31.27,130.74,70.42,211.76a.5.5,0,0,1-.23.67A.44.44,0,0,1,642.33,498.82Z" transform="translate(1.6)"/><path class="cls-2" d="M633.16,498.83a.51.51,0,0,1-.46-.31c-12.45-29.17-23.68-59.26-33.39-89.45-11.91-37-17.26-47.67-21.55-56.22a129.53,129.53,0,0,1-7.72-18c-8.29-23.74-14.25-88.69,4.4-123a.49.49,0,0,1,.68-.2.48.48,0,0,1,.2.67C556.8,246.42,562.74,311,571,334.55a129.52,129.52,0,0,0,7.66,17.85c4.31,8.59,9.68,19.28,21.61,56.37,9.7,30.15,20.92,60.22,33.36,89.36a.5.5,0,0,1-.26.66A.48.48,0,0,1,633.16,498.83Z" transform="translate(1.6)"/><path class="cls-2" d="M626.65,498.83a.51.51,0,0,1-.47-.32c-6.64-17.23-14.4-34.83-22.61-53.45-32.93-74.67-70.26-159.3-36.49-236.37a.5.5,0,0,1,.66-.26.5.5,0,0,1,.26.66c-33.59,76.67,3.63,161.08,36.48,235.56,8.22,18.64,16,36.25,22.63,53.5a.51.51,0,0,1-.28.65Z" transform="translate(1.6)"/><path class="cls-2" d="M607.54,498.84a.48.48,0,0,1-.45-.29A1011.53,1011.53,0,0,1,554,353.34c-14-49.87-23.67-98.51,11.2-145.44a.5.5,0,0,1,.81.6c-34.61,46.56-25,94.95-11,144.57a1011.22,1011.22,0,0,0,53,145.07.5.5,0,0,1-.25.66A.52.52,0,0,1,607.54,498.84Z" transform="translate(1.6)"/><path class="cls-2" d="M591.41,498.86a.5.5,0,0,1-.47-.33c-4.66-12.94-9.11-25.16-13.33-36.75C529.15,328.67,511,278.86,556.09,206.65a.49.49,0,0,1,.68-.15.48.48,0,0,1,.16.68C512.12,279,530.21,328.66,578.55,461.43c4.22,11.6,8.67,23.82,13.33,36.76a.5.5,0,0,1-.3.64Z" transform="translate(1.6)"/><path class="cls-2" d="M571.23,498.87a.52.52,0,0,1-.47-.33C554.62,454,535.1,395.82,527.36,340.77c-8.7-61.9-.15-106.89,25.44-133.74a.5.5,0,1,1,.72.69c-25.36,26.61-33.83,71.33-25.17,132.91,7.73,55,27.23,113.08,43.35,157.57a.5.5,0,0,1-.3.64A.47.47,0,0,1,571.23,498.87Z" transform="translate(1.6)"/><path class="cls-2" d="M557.85,498.88a.51.51,0,0,1-.46-.31c-10.23-24.7-17.19-46.9-24.58-71.28-11.14-36.75-23-79.18-22.69-117.87.32-41,14.24-74.53,42.56-102.38a.5.5,0,0,1,.71,0,.49.49,0,0,1,0,.7c-61.32,60.31-45.16,135-19.61,219.25,7.38,24.36,14.33,46.53,24.54,71.19a.49.49,0,0,1-.27.65A.41.41,0,0,1,557.85,498.88Z" transform="translate(1.6)"/><path class="cls-2" d="M539.57,498.89a.49.49,0,0,1-.47-.34c-37.59-113.43-49.87-189.88-36.52-227.23,4.86-13.59,24.2-43.11,39.8-60.76a.5.5,0,1,1,.74.67c-15.53,17.57-34.77,46.93-39.59,60.42-13.28,37.14-1,113.37,36.52,226.58a.5.5,0,0,1-.32.63A.41.41,0,0,1,539.57,498.89Z" transform="translate(1.6)"/><path class="cls-2" d="M505.15,498.91a.49.49,0,0,1-.47-.35c-14.1-45.12-21.72-94.76-21.47-139.75.3-52.64,11.32-98.5,31.87-132.61a.5.5,0,0,1,.86.52C469.7,303.47,481.49,421,505.63,498.26a.5.5,0,0,1-.33.63Z" transform="translate(1.6)"/><path class="cls-2" d="M470.88,498.93a.5.5,0,0,1-.49-.39c-21-95.76-12.85-184.74,23.58-257.31a.5.5,0,0,1,.67-.22.49.49,0,0,1,.22.67c-36.33,72.37-44.45,161.11-23.49,256.65a.5.5,0,0,1-.38.59Z" transform="translate(1.6)"/><path class="cls-4" d="M529.8,470.43C582,363.79,584.18,309.77,668.45,300.06c28.89-3.33,30.22.81,43.07,4.11,7.55,1.95,15.52,2,23,4.34,15,4.7,26.36,19.2,27.34,34.88,1.31,20.79-1,8.7,48.63,43.78,37.9,26.82,33.95,38.67,54.27,60.38,16,17.1,35.28,19,35.38,50.95,0,0-379.33-.09-379.53-.11C520.57,498.39,525.58,479.05,529.8,470.43Z" transform="translate(1.6)"/><path class="cls-2" d="M901.61,500H900.1c-379.4-.09-379.57-.11-379.67-.12l-1.75-.17.44-1.7c.21-.79,5.1-19.58,9.34-28.24,11-22.44,19.77-42.61,27.53-60.41,29-66.43,44.91-103,112.29-110.79,22.88-2.64,28.89-.6,36.51,2,2.13.72,4.34,1.47,7.11,2.18a91.28,91.28,0,0,0,10.25,1.83,80.47,80.47,0,0,1,12.78,2.53,41.39,41.39,0,0,1,28.39,36.21l.11,1.87c.34,5.54.51,8.32,1.91,10.35s4.49,3.89,10.52,7.46c7.2,4.25,18.08,10.68,35.45,23,24.59,17.4,31.67,28.45,39.16,40.15a128,128,0,0,0,15.34,20.42,102,102,0,0,0,13.73,11.76c11.8,8.89,22,16.58,22.06,40.21Zm-379.08-3.11c28,0,350.94.1,376.05.11-.47-21-9.49-27.77-20.84-36.33a103.53,103.53,0,0,1-14.12-12.1,130.4,130.4,0,0,1-15.68-20.85c-7.32-11.45-14.25-22.26-38.36-39.32-17.28-12.23-28.09-18.62-35.25-22.85-12.89-7.62-13.15-8-13.89-20.21l-.11-1.86c-.94-15-12-29.06-26.29-33.54a76.55,76.55,0,0,0-12.31-2.41,98.78,98.78,0,0,1-10.58-1.9c-2.88-.74-5.14-1.51-7.33-2.25-7.54-2.55-13-4.39-35.19-1.83-65.67,7.56-80.45,41.47-109.89,109-7.77,17.83-16.58,38-27.59,60.53C527.81,477.92,523.89,491.85,522.53,496.89Z" transform="translate(1.6)"/><path class="cls-2" d="M637.33,498.94a.45.45,0,0,1-.16,0,.51.51,0,0,1-.31-.64,284.14,284.14,0,0,0,14.81-116.14c-2.76-33.19-16.15-51.18-43.42-58.32a.5.5,0,0,1-.35-.61.48.48,0,0,1,.61-.36c27.74,7.27,41.36,25.53,44.15,59.21A285.08,285.08,0,0,1,637.81,498.6.5.5,0,0,1,637.33,498.94Z" transform="translate(1.6)"/><path class="cls-2" d="M686.6,499a.51.51,0,0,1-.47-.33c-14.25-39.61-30.86-91.46-30.75-107.21a96.58,96.58,0,0,1,1.37-13.28c2.82-19.08,6-40.71-30.85-66.21a.5.5,0,1,1,.57-.82c37.38,25.85,34.13,47.81,31.26,67.18a96.57,96.57,0,0,0-1.35,13.13c-.1,14.63,15.34,64.21,30.69,106.87a.5.5,0,0,1-.3.64A.51.51,0,0,1,686.6,499Z" transform="translate(1.6)"/><path class="cls-2" d="M694,499a.52.52,0,0,1-.47-.33c-20.67-54.79-20.59-65.21-20.41-85.95.06-7.95.14-17-.92-30.55-2.22-28.29-17.21-55.59-40.1-73a.5.5,0,1,1,.6-.8c23.12,17.6,38.26,45.16,40.49,73.73,1.07,13.63,1,22.67.93,30.64-.18,20.62-.26,31,20.35,85.59a.5.5,0,0,1-.29.65Z" transform="translate(1.6)"/><path class="cls-2" d="M701.58,499a.51.51,0,0,1-.46-.31c-1.11-2.68-3.14-7.12-5.28-11.82-2.7-5.92-5.49-12-6.83-15.45-18.15-46.38-13.82-60.66-9.63-74.47a82.7,82.7,0,0,0,2.94-11.8c3.88-25.1-12.84-47-36-77.3l-2.22-2.92a.5.5,0,0,1,.09-.7.49.49,0,0,1,.7.1l2.23,2.91c23.29,30.5,40.12,52.54,36.17,78.06a84.83,84.83,0,0,1-3,11.95c-4.14,13.64-8.42,27.75,9.6,73.8,1.33,3.39,4.11,9.5,6.81,15.41,2.15,4.7,4.18,9.15,5.29,11.85a.49.49,0,0,1-.27.65A.41.41,0,0,1,701.58,499Z" transform="translate(1.6)"/><path class="cls-2" d="M710.62,499a.48.48,0,0,1-.46-.33L708.82,495c-5.33-14.44-13.38-36.26-14.84-50.59-1-10-1.1-19.36-1.18-28.41-.26-31.57-.51-61.39-39.9-113.25a.5.5,0,0,1,.1-.7.51.51,0,0,1,.7.1c39.58,52.11,39.84,82.1,40.1,113.84.08,9,.16,18.36,1.17,28.31,1.45,14.21,9.48,36,14.79,50.35l1.33,3.62a.49.49,0,0,1-.29.64Z" transform="translate(1.6)"/><path class="cls-2" d="M725.81,499a.5.5,0,0,1-.47-.33c-.51-1.39-1.78-4.31-3.13-7.4-2.08-4.79-4.44-10.21-5.05-12.41-11.06-39.63-11.41-63.27-11.69-82.27-.44-29.4-.7-47.15-42.53-95.49a.5.5,0,0,1,.76-.66C705.76,349,706,366.9,706.47,396.52c.28,18.94.63,42.52,11.65,82,.59,2.13,2.94,7.53,5,12.28,1.41,3.24,2.63,6,3.15,7.46a.49.49,0,0,1-.3.64A.47.47,0,0,1,725.81,499Z" transform="translate(1.6)"/><path class="cls-2" d="M751.84,499a.51.51,0,0,1-.5-.45c-4.7-44.1-15.47-62.3-25.89-79.91-6-10.11-11.64-19.67-15.86-33.64a147.89,147.89,0,0,1-3.79-17.26c-3.23-18.21-6.57-37-34.73-67.63a.5.5,0,0,1,0-.71.51.51,0,0,1,.71,0c28.35,30.82,31.72,49.79,35,68.13a146.73,146.73,0,0,0,3.77,17.15c4.18,13.86,9.8,23.36,15.76,33.42,10.47,17.7,21.3,36,26,80.32a.5.5,0,0,1-.45.55Z" transform="translate(1.6)"/><path class="cls-2" d="M770.88,499a.49.49,0,0,1-.49-.42c-4.35-27-20.37-63.26-38.07-86.33-17.21-22.42-17.43-23.37-21.1-39.13-1-4.1-2.14-9.21-3.92-16-7-26.61-19.08-40.55-27.89-50.73-2-2.32-3.9-4.5-5.56-6.63a.5.5,0,0,1,.79-.61c1.64,2.1,3.53,4.28,5.52,6.59C689,316,701.2,330,708.27,356.86c1.78,6.77,3,11.89,3.93,16,3.69,15.87,3.84,16.49,20.91,38.74,17.8,23.19,33.89,59.69,38.27,86.78a.5.5,0,0,1-.41.57Z" transform="translate(1.6)"/><path class="cls-2" d="M782.35,499a.51.51,0,0,1-.49-.39c-6.23-28.8-22.41-76.13-28.67-86.49-4.59-7.59-11.32-13.88-17.83-20-8.28-7.75-16.85-15.77-21-26.48a75.57,75.57,0,0,1-3.5-15A83.32,83.32,0,0,0,708,337.35c-3.47-10.28-10.81-18.71-17.9-26.87-3.15-3.61-6.4-7.35-9.3-11.22a.5.5,0,1,1,.8-.6c2.88,3.84,6.12,7.56,9.25,11.16,7.16,8.23,14.57,16.74,18.1,27.21a85.33,85.33,0,0,1,3,13.47,75,75,0,0,0,3.44,14.78c4,10.49,12.5,18.42,20.71,26.1,6.55,6.13,13.33,12.48,18,20.19,6.3,10.41,22.55,57.91,28.8,86.79a.49.49,0,0,1-.38.59Z" transform="translate(1.6)"/><path class="cls-2" d="M799.2,499a.5.5,0,0,1-.49-.41q-1.26-6.63-2.39-12.63c-9.19-48.62-12.63-66.82-21.59-79.24-5.83-8.07-14.68-13.38-23.23-18.51-8.1-4.86-16.47-9.88-22.43-17.27-6.83-8.47-9.82-19.17-12.71-29.52-1.82-6.5-3.7-13.22-6.51-19.36-3.25-7.07-8.06-14.13-15.17-22.24a.49.49,0,0,1,.05-.7.5.5,0,0,1,.7,0c7.17,8.18,12,15.33,15.32,22.49,2.85,6.2,4.74,13,6.57,19.5,2.87,10.25,5.83,20.85,12.53,29.16,5.85,7.26,14.14,12.23,22.16,17,8.64,5.18,17.58,10.54,23.53,18.79,9.09,12.6,12.54,30.85,21.76,79.63q1.14,6,2.39,12.63a.5.5,0,0,1-.4.59Z" transform="translate(1.6)"/><path class="cls-2" d="M813.36,499a.49.49,0,0,1-.49-.4C809,480,805.14,457.06,803.17,445c-5.59-34.22-24.43-48.62-41.06-61.32-8.09-6.17-15.73-12-20.53-19.44-1.49-2.3-2.75-4.78-4-7.17a51.17,51.17,0,0,0-11.19-15.78c-1.77-1.88-3.61-3.82-5.25-5.89-4.41-5.58-7.47-12.23-10.42-18.65A113.74,113.74,0,0,0,703,301.94a.49.49,0,0,1,.15-.69.5.5,0,0,1,.69.14,113.3,113.3,0,0,1,7.79,14.95c2.93,6.37,6,13,10.31,18.45,1.6,2,3.43,4,5.19,5.82a52,52,0,0,1,11.35,16c1.22,2.38,2.47,4.83,3.93,7.09,4.71,7.28,12.28,13.07,20.3,19.19,16.77,12.81,35.78,27.33,41.44,62,2,12,5.84,35,9.69,53.52a.51.51,0,0,1-.39.59Z" transform="translate(1.6)"/><path class="cls-2" d="M844.44,499a.5.5,0,0,1-.49-.38c-22.93-91.5-26.16-93.07-80.21-119.34-19.16-9.31-21-18.45-22.85-28.12-1-5.22-2.09-10.63-5.82-16.54-2.24-3.56-5.37-6.46-9-9.8-5.5-5.08-11.74-10.84-17.2-21a.5.5,0,1,1,.88-.47c5.39,10,11.56,15.69,17,20.72,3.68,3.4,6.85,6.33,9.17,10,3.83,6.08,4.9,11.57,6,16.89,1.93,9.83,3.59,18.32,22.3,27.41,53.35,25.93,57.71,28,80.75,120a.5.5,0,0,1-.36.61Z" transform="translate(1.6)"/><path class="cls-2" d="M872.92,499a.51.51,0,0,1-.44-.26l-4.42-8.16c-46.95-86.73-46.95-86.73-75.57-104.95-7-4.46-15.73-10-27.26-18.17-14.39-10.19-16.16-17.44-18-25.11A44.23,44.23,0,0,0,743.64,332c-3.46-6.71-11.12-11.69-18.52-16.51-5.25-3.42-10.68-6.95-14.62-11.1a.48.48,0,0,1,0-.7.5.5,0,0,1,.71,0c3.86,4.07,9.24,7.57,14.44,11,7.52,4.89,15.29,9.95,18.87,16.9a44.85,44.85,0,0,1,3.63,10.59c1.83,7.49,3.56,14.56,17.64,24.53,11.51,8.15,20.22,13.69,27.22,18.15,28.84,18.35,28.84,18.35,75.92,105.31l4.42,8.16a.51.51,0,0,1-.2.68A.53.53,0,0,1,872.92,499Z" transform="translate(1.6)"/><path class="cls-2" d="M888.46,499a.5.5,0,0,1-.4-.19c-8.95-11.29-16.86-25.24-25.23-40-12-21.2-24.46-43.13-40.44-57.11-9.7-8.48-21.15-15-32.22-21.26-4.95-2.81-10.08-5.72-15-8.77-13.18-8.19-15.12-13.58-18.65-23.36-.94-2.59-2-5.53-3.41-8.9-7.68-18.35-12.64-25.23-28.7-32.51a.49.49,0,0,1-.25-.66.5.5,0,0,1,.66-.25c16.37,7.42,21.41,14.41,29.21,33,1.42,3.4,2.49,6.35,3.43,8.95,3.45,9.57,5.35,14.85,18.23,22.85,4.89,3,10,5.95,14.95,8.75,11.12,6.31,22.61,12.83,32.39,21.38C839.16,415,851.63,437,863.7,458.29c8.35,14.73,16.24,28.65,25.15,39.88a.5.5,0,0,1-.08.7A.47.47,0,0,1,888.46,499Z" transform="translate(1.6)"/><path class="cls-2" d="M624.37,499a.51.51,0,0,1-.17,0,.5.5,0,0,1-.3-.64c2.53-6.94,2.94-15.21,3.34-23.2.42-8.5.86-17.3,3.85-24.61,1.14-2.78,2.5-5.5,3.82-8.14A92,92,0,0,0,639.57,432a46.18,46.18,0,0,0-4-39c-.38-.63-.78-1.26-1.18-1.89-1.69-2.64-3.43-5.36-4-8.51a22.92,22.92,0,0,1,.16-6.62c.09-.79.19-1.58.25-2.37.79-9.6-3.06-19.77-10.55-27.91-2-2.14-3.75-4.26-5.46-6.31-3.52-4.2-6.85-8.17-11.2-11.52a.5.5,0,0,1,.61-.79c4.44,3.42,7.8,7.43,11.35,11.67,1.71,2,3.48,4.15,5.43,6.28,7.68,8.34,11.62,18.79,10.82,28.66-.07.8-.16,1.6-.26,2.4a22.94,22.94,0,0,0-.17,6.35c.49,2.94,2.18,5.58,3.81,8.13.41.64.81,1.27,1.2,1.91a47.22,47.22,0,0,1,4.11,39.9,92.3,92.3,0,0,1-4.71,10.47c-1.31,2.62-2.66,5.32-3.79,8.07-2.92,7.15-3.35,15.86-3.77,24.28-.4,8.07-.82,16.41-3.4,23.49A.48.48,0,0,1,624.37,499Z" transform="translate(1.6)"/><path class="cls-2" d="M624,499a.57.57,0,0,1-.18,0,.5.5,0,0,1-.28-.65c9.62-24.15,18.6-47.87,22.83-72.67,3-17.52,3-32.67.16-46.31-3.43-16.23-11.34-30.37-22.29-39.82a75.28,75.28,0,0,0-19.72-12.39.5.5,0,0,1,.38-.92,76.66,76.66,0,0,1,20,12.55c11.11,9.59,19.14,23.93,22.61,40.37,2.9,13.77,2.85,29-.16,46.68-4.24,24.9-13.25,48.68-22.88,72.88A.51.51,0,0,1,624,499Z" transform="translate(1.6)"/><path class="cls-2" d="M606.66,499h-.11a.49.49,0,0,1-.37-.6c3.2-13.62,9.17-26.74,15-39.43,1.58-3.47,3.21-7.05,4.75-10.58,3.08-7,6.47-15.26,7.73-23.94,1.33-9.11,0-17.73-3.82-24.27-.83-1.42-1.8-2.82-2.75-4.17-1.84-2.64-3.75-5.36-4.69-8.52a30.62,30.62,0,0,1-.8-9.58c0-1,.05-2.08,0-3.11-.17-15.93-10-31.91-24.46-39.76a.5.5,0,1,1,.48-.88c14.77,8,24.8,24.34,25,40.63,0,1,0,2.09,0,3.14a30,30,0,0,0,.75,9.28c.9,3,2.76,5.65,4.56,8.23,1,1.36,1.95,2.78,2.8,4.24,5,8.63,4.91,18.31,3.94,24.91-1.28,8.81-4.7,17.11-7.8,24.2-1.55,3.54-3.18,7.12-4.76,10.59-5.76,12.65-11.71,25.73-14.89,39.25A.5.5,0,0,1,606.66,499Z" transform="translate(1.6)"/><path class="cls-2" d="M592.87,499h-.11a.5.5,0,0,1-.38-.6c2.53-11.79,8.21-23,13.7-33.87.58-1.14,1.15-2.29,1.72-3.42,7.91-15.73,14.84-32.57,12-49.13-.45-2.62-1.14-5.25-1.81-7.79a71.61,71.61,0,0,1-2.1-9.73,73.49,73.49,0,0,1-.35-8.75,60.78,60.78,0,0,0-.58-10.26c-2.42-13.82-13.89-23.59-24.79-31.32a.49.49,0,0,1-.12-.69.5.5,0,0,1,.7-.12c11.07,7.84,22.72,17.78,25.19,32a61,61,0,0,1,.6,10.43,73.33,73.33,0,0,0,.34,8.63,72.08,72.08,0,0,0,2.07,9.59c.68,2.57,1.38,5.22,1.83,7.89,2.85,16.83-4.14,33.85-12.12,49.74L607,465c-5.46,10.8-11.11,22-13.61,33.63A.51.51,0,0,1,592.87,499Z" transform="translate(1.6)"/><path class="cls-5" d="M.1,498.5H372.55s-10.47-30.66-13.91-43.6C353.66,436.18,343,401,330.21,385c-25.68-32.24-74.86-33.24-107.67-58.19-13.22-10.05-23.24-23.61-34.49-35.81-46.83-50.77-74.24-14.68-107.91-30.8-12.79-6.13-21.36-19.33-34.6-24.44C31.36,230.27.65,229.48.1,246.43Z" transform="translate(1.6)"/><path class="cls-2" d="M374.65,500H-1.4V246.43A13.24,13.24,0,0,1,5,235.35c10.36-6.86,30.89-5,41.12-1,7.27,2.81,13.19,8,18.91,13,4.91,4.29,10,8.73,15.8,11.52,12.17,5.83,23.54,4.61,35.58,3.32,20.11-2.14,42.9-4.58,72.78,27.81,3.15,3.42,6.25,7,9.25,10.45,7.69,8.86,15.64,18,25,25.18,13.9,10.58,31.1,16.91,47.73,23,22.26,8.2,45.28,16.68,60.2,35.42,13,16.32,23.57,51.16,28.71,70.47,3.39,12.74,13.78,43.19,13.88,43.49Zm-373-3H370.46c-2.37-7-10.36-30.78-13.27-41.71-4.09-15.37-15-52.88-28.15-69.37-14.4-18.08-36-26-58.9-34.47-16.84-6.21-34.25-12.62-48.51-23.47-9.65-7.34-17.71-16.63-25.5-25.61-3-3.44-6.06-7-9.18-10.37-28.86-31.29-49.91-29-70.26-26.86-12.48,1.33-24.25,2.59-37.19-3.61-6.19-3-11.43-7.53-16.49-12-5.77-5-11.23-9.82-18-12.43-9.63-3.72-28.85-5.6-38.39.72a10.36,10.36,0,0,0-5,8.62Z" transform="translate(1.6)"/><path class="cls-2" d="M311.77,372.16c-32.95,0-58.4-5.78-77.69-17.62-17.58-10.8-27.75-25.23-36.72-38-8.24-11.7-16-22.74-28.14-29-12.59-6.51-27.51-6.53-41.94-6.55-15.79,0-32.11,0-45.3-8.63-3.93-2.56-7.9-6.39-12.1-10.44C55.07,247.68,36.64,229.9.29,245a.49.49,0,0,1-.65-.27.49.49,0,0,1,.27-.65c37-15.35,55.64,2.69,70.66,17.18,4.17,4,8.11,7.82,12,10.32C95.46,280,111.64,280,127.28,280c14.55,0,29.59,0,42.4,6.66,12.33,6.37,20.18,17.51,28.5,29.31,18.6,26.39,39.67,56.28,118,55.11a.5.5,0,0,1,.5.5.49.49,0,0,1-.49.5C314.69,372.15,313.22,372.16,311.77,372.16Z" transform="translate(1.6)"/><path class="cls-2" d="M329,383.94c-97.22-4.34-97.94-5.38-135.38-59.8l-1-1.5C165,282.69,143.26,286,122.19,289.17c-10,1.51-20.39,3.08-31.07-.18-7.1-2.16-13.77-8.12-21.49-15C53.52,259.58,33.47,241.66.28,254.36a.51.51,0,0,1-.65-.28.52.52,0,0,1,.29-.65c33.77-12.92,54.06,5.22,70.37,19.79,7.64,6.83,14.23,12.72,21.12,14.82,10.47,3.18,20.26,1.7,30.63.14,21.37-3.24,43.47-6.58,71.32,33.89l1,1.51c37.16,54,37.87,55,134.57,59.36a.5.5,0,0,1,0,1Z" transform="translate(1.6)"/><path class="cls-2" d="M328.38,408.31c-37.94,0-68.76-4.9-91.77-14.61-24.86-10.5-30.93-21.66-39.33-37.12l-.11-.21c-31.77-58.45-52.12-57.73-82.92-56.64-2.23.08-4.51.16-6.86.22-25.31.67-37.83-10.91-49.93-22.1C43.78,265.2,30.86,253.25.26,263.2a.49.49,0,0,1-.63-.32.49.49,0,0,1,.32-.63c31.16-10.13,44.29,2,58.19,14.87,12,11.05,24.31,22.51,49.23,21.83,2.34-.06,4.62-.14,6.84-.22,31.18-1.11,51.78-1.84,83.84,57.16l.11.21c8.3,15.28,14.3,26.32,38.84,36.67,25.73,10.86,61.33,15.68,105.8,14.31a.52.52,0,0,1,.51.49.5.5,0,0,1-.48.51Q335.43,408.31,328.38,408.31Z" transform="translate(1.6)"/><path class="cls-2" d="M339.64,421.85a403.8,403.8,0,0,1-70.05-5.75c-60.48-10.58-68.12-25-84.84-56.54-1.89-3.56-3.84-7.24-6-11.2-21-38.3-41.66-36.48-61.61-34.72-6.7.59-13.63,1.2-20.49.31-11.81-1.53-23.18-10.81-35.22-20.64C42.94,278.23,23.84,262.64.28,271.83a.49.49,0,0,1-.64-.28.5.5,0,0,1,.28-.65c24.1-9.4,43.43,6.38,62.13,21.64C74,302.27,85.24,311.47,96.77,313c6.76.87,13.63.26,20.27-.32,20.26-1.79,41.22-3.63,62.57,35.24,2.18,4,4.13,7.65,6,11.21,16.57,31.26,24.13,45.53,84.14,56,24.53,4.29,50.18,6.14,78.43,5.67a.5.5,0,0,1,0,1Q343.89,421.86,339.64,421.85Z" transform="translate(1.6)"/><path class="cls-2" d="M330.55,430.18c-10.47,0-21-.38-32.67-.86-97.37-4-111.85-36-123.48-61.72A131.74,131.74,0,0,0,167.62,354c-15.45-25.69-38.76-28-59.33-30.08-6.87-.69-13.36-1.34-19.22-2.8-10.37-2.59-20.88-11.29-32-20.51C39.15,285.76,20.62,270.42.28,278.3A.49.49,0,0,1-.36,278a.49.49,0,0,1,.28-.64c20.89-8.09,39.65,7.44,57.78,22.46,11,9.14,21.47,17.78,31.62,20.31,5.79,1.44,12.24,2.09,19.07,2.77,20.8,2.09,44.38,4.45,60.09,30.57a132.67,132.67,0,0,1,6.83,13.71c11.52,25.46,25.86,57.15,122.62,61.13,19.16.79,35.22,1.31,53,.32a.47.47,0,0,1,.53.47.49.49,0,0,1-.47.52C344,430,337.29,430.18,330.55,430.18Z" transform="translate(1.6)"/><path class="cls-2" d="M356.16,446.45c-50.45-2.1-157.06-20.61-176.25-41.45-6.95-7.55-10.11-17.55-13.16-27.22-2-6.2-4-12.61-7-18.35-8.8-16.8-27.45-28.4-46.4-28.86a111,111,0,0,0-16.09,1.2c-7.89,1-16,2-24,.33-9.4-2-17.59-11.83-26.25-22.26C33.93,294,20.35,277.67.25,284.13a.49.49,0,0,1-.62-.32.5.5,0,0,1,.32-.63c20.74-6.68,35.16,10.7,47.89,26,8.55,10.3,16.63,20,25.69,21.92,7.74,1.62,15.81.62,23.62-.34a112.69,112.69,0,0,1,16.23-1.21c19.31.47,38.3,12.28,47.26,29.39,3.05,5.83,5.09,12.28,7.06,18.52,3,9.57,6.14,19.46,13,26.84,18.7,20.32,126.53,39.09,175.53,41.13a.5.5,0,0,1,0,1Z" transform="translate(1.6)"/><path class="cls-2" d="M358.92,456.43c-46.78-2.22-95.45-10.09-144.68-23.39-47.54-12.84-52.61-30.14-58-48.46-2.19-7.49-4.46-15.23-9.94-22.62-7.16-9.68-17-22.94-44.47-18.51C50.29,351.78,30,325.76,15.26,306.77c-5.45-7-10.17-13.06-15.4-16a.51.51,0,0,1-.19-.69.49.49,0,0,1,.68-.18c5.41,3.06,10.18,9.18,15.7,16.28C30.68,325,50.71,350.69,101.7,342.47c25.94-4.19,36.29,6.55,45.43,18.89,5.58,7.54,7.87,15.37,10.09,22.94,5.29,18,10.28,35.08,57.28,47.77,49.16,13.28,97.76,21.14,144.44,23.36a.5.5,0,0,1,.48.52A.51.51,0,0,1,358.92,456.43Z" transform="translate(1.6)"/><path class="cls-2" d="M362.67,469C181.1,454.63,166.83,423.29,153,393c-1.94-4.25-3.94-8.66-6.4-12.88C130.73,352.76,105.36,351,78.51,349.2,53,347.46,24.16,345.5-.25,320.87a.5.5,0,0,1,0-.71.51.51,0,0,1,.71,0c24.15,24.36,51.58,26.24,78.12,28,27.12,1.85,52.75,3.6,68.93,31.41a144.61,144.61,0,0,1,6.44,13c13.67,30,27.81,61.1,208.76,75.38a.5.5,0,0,1,0,1Z" transform="translate(1.6)"/><path class="cls-2" d="M365.69,478.38C186.86,468.72,161,427.62,142.05,397.61c-3.52-5.59-6.85-10.87-10.87-15.33-18.57-20.55-50.93-24.74-79.49-28.44-23.34-3-43.49-5.62-52-16.38a.52.52,0,0,1,.08-.71.5.5,0,0,1,.7.09c8.24,10.44,28.21,13,51.33,16,28.73,3.72,61.29,7.93,80.1,28.76,4.08,4.52,7.43,9.84,11,15.46,18.79,29.83,44.53,70.68,222.81,80.31a.5.5,0,0,1,0,1Z" transform="translate(1.6)"/><path class="cls-2" d="M369.53,490c-43.87-2.93-93.56-6.25-139.72-19.42-54.47-15.55-70.33-39.31-84.33-60.27-9-13.42-17.42-26.09-35.12-34.41-12.52-5.88-26.79-6.47-40.59-7-5.16-.22-10.49-.44-15.66-.93l-1.83-.17c-11.66-1.07-39-3.59-52.5-15.25a.51.51,0,0,1-.06-.71.51.51,0,0,1,.71-.05c13.3,11.46,40.38,14,51.94,15l1.84.18c5.14.49,10.46.71,15.6.92,13.9.57,28.27,1.17,41,7.14,18,8.43,26.48,21.22,35.52,34.75,13.9,20.82,29.66,44.42,83.77,59.86,46.06,13.15,95.69,16.47,139.48,19.39a.5.5,0,0,1,0,1Z" transform="translate(1.6)"/><path class="cls-2" d="M188.71,499a.5.5,0,0,1-.48-.36c-5.86-20.24-14.71-46.29-31.37-68.38A136.65,136.65,0,0,0,65,377.71c-3.71-.43-8.31-.68-13.18-.95-17-.93-38.08-2.08-52-11.13a.5.5,0,0,1-.15-.69.5.5,0,0,1,.69-.15c13.67,8.9,34.64,10,51.49,11,4.88.27,9.49.52,13.23.95,36.09,4.15,70.7,23.94,92.57,53,16.75,22.22,25.65,48.38,31.53,68.7a.51.51,0,0,1-.34.62Z" transform="translate(1.6)"/><path class="cls-2" d="M179.82,499a.5.5,0,0,1-.48-.37C152.38,400,89.63,391.44,34.27,383.92c-12.09-1.63-23.5-3.18-34.28-5.6a.5.5,0,0,1,.22-1c10.74,2.41,22.13,4,34.19,5.59,55.67,7.56,118.77,16.12,145.9,115.44a.49.49,0,0,1-.35.61Z" transform="translate(1.6)"/><path class="cls-2" d="M142.41,499a.5.5,0,0,1-.5-.45C135.62,439.37,110.39,401.73,0,384.49a.49.49,0,0,1-.41-.57.5.5,0,0,1,.57-.42c51.92,8.11,86.35,20.76,108.38,39.81,20.08,17.37,30.67,40.55,34.34,75.13a.49.49,0,0,1-.44.55Z" transform="translate(1.6)"/><path class="cls-2" d="M90.06,499a.51.51,0,0,1-.5-.52c.89-23.17-2-43.35-8.21-58.35-10.63-25.45-49.7-45.39-81.32-50a.5.5,0,0,1-.42-.56.5.5,0,0,1,.56-.43c31.9,4.62,71.33,24.79,82.1,50.58,6.32,15.13,9.19,35.45,8.29,58.77A.5.5,0,0,1,90.06,499Z" transform="translate(1.6)"/><path class="cls-3" d="M-.1,424.73s44.56-24.13,57.41-28.48c53.61-18.15,67.24-2.48,106.72-5.94,38.79-3.39,97.4-29.94,134.94-44.36L267.6,498.5H.1Z" transform="translate(1.6)"/><path class="cls-2" d="M268.82,500H-.83l-.41-.82c-.16-.32-.16-.32-.26-37.55l-.1-36.89v-.9l.78-.42c1.83-1,44.82-24.24,57.65-28.58,34.35-11.63,52.27-9.52,71.26-7.29,10.59,1.24,21.55,2.53,35.81,1.28C195,386.1,239.14,368.3,274.63,354c8.51-3.42,16.55-6.66,23.8-9.45l2.56-1ZM1.6,497H266.37l30.57-148.66c-6.54,2.55-13.68,5.42-21.19,8.45-35.67,14.37-80.06,32.26-111.59,35-14.57,1.27-25.68,0-36.42-1.3-18.64-2.18-36.24-4.25-69.95,7.16C46.14,401.62,7.43,422.38,1.4,425.62,1.42,433.26,1.57,487.28,1.6,497Z" transform="translate(1.6)"/><path class="cls-2" d="M0,445.09A.45.45,0,0,1-.39,445a.49.49,0,0,1,0-.7c37.59-39.19,47.71-39.78,113.58-43.63,9.69-.56,20.67-1.21,33.11-2.05,49.29-3.35,126.75-37.48,138.8-47.66a.5.5,0,1,1,.65.76c-12.12,10.24-89.91,44.54-139.39,47.9-12.43.84-23.42,1.48-33.11,2.05C47.7,405.45,37.63,406,.31,444.94A.49.49,0,0,1,0,445.09Z" transform="translate(1.6)"/><path class="cls-2" d="M0,464.37a.5.5,0,0,1-.29-.09.5.5,0,0,1-.12-.7c41.17-58,90.62-56.85,114.37-56.29,1.71,0,3.28.08,4.68.09h1.44c59.72,0,132.41-23.83,177.33-58.21a.5.5,0,1,1,.61.79C253,384.47,180,408.38,120.09,408.38h-1.45c-1.4,0-3-.05-4.69-.09-23.59-.57-72.67-1.74-113.54,55.87A.48.48,0,0,1,0,464.37Z" transform="translate(1.6)"/><path class="cls-2" d="M0,476.9a.49.49,0,0,1-.32-.12.51.51,0,0,1-.06-.71C38.42,430.18,79.34,422,106.75,419.84c3.46-.28,7-.55,10.56-.82,51.84-4,110.6-8.48,156.4-34.26a.5.5,0,1,1,.49.87C228.21,411.52,169.33,416,117.38,420l-10.56.81C79.6,423,38.94,431.11.42,476.72A.53.53,0,0,1,0,476.9Z" transform="translate(1.6)"/><path class="cls-2" d="M.1,498.72a.49.49,0,0,1-.3-.1.51.51,0,0,1-.1-.7c20.86-27.77,54.42-61.18,95.85-62.67l1.52-.05c78-2.74,136.94-14.74,175.22-35.66a.49.49,0,0,1,.68.19.5.5,0,0,1-.2.68c-38.42,21-97.52,33-175.66,35.79l-1.52.05c-41,1.47-74.36,34.68-95.09,62.27A.51.51,0,0,1,.1,498.72Z" transform="translate(1.6)"/><path class="cls-2" d="M25,499a.49.49,0,0,1-.28-.09.5.5,0,0,1-.14-.69c16.32-24.34,37.75-41.15,51.76-47a82.77,82.77,0,0,1,24.4-6c13.62-1.24,27.65-1.93,42.5-2.66,44.6-2.18,90.71-4.43,128.52-22.36a.5.5,0,1,1,.43.9c-38,18-84.2,20.28-128.9,22.46-14.84.73-28.86,1.41-42.46,2.66a81.36,81.36,0,0,0-24.1,5.93c-13.87,5.81-35.12,22.49-51.32,46.65A.48.48,0,0,1,25,499Z" transform="translate(1.6)"/><path class="cls-1" d="M298.05,404.08c20.35-19.48,47.09-35.72,54.52-62.9,5.82-21.31-14.88-31.63-14.88-31.63-31.13,24.86-62.92,68.34-100.3,82.13-26.36,9.72-55.78,7.62-82.58,16.06C104.87,423.48,71.39,467.4,32,498.5l205.63-.08S252.42,447.79,298.05,404.08Z" transform="translate(1.6)"/><path class="cls-2" d="M27.63,500l3.4-2.68c11.66-9.19,23-19.74,34-29.94,26.48-24.53,53.85-49.9,89.29-61.07,12.76-4,26.25-5.69,39.3-7.31,14.47-1.79,29.44-3.65,43.21-8.73,24.46-9,46.5-30.92,67.82-52.1,11.05-11,21.49-21.35,32.06-29.8l.75-.59.86.42c.22.11,21.73,11.13,15.65,33.38-5.75,21.07-22.91,35.73-39.51,49.91-5.18,4.43-10.54,9-15.41,13.68-44.79,42.9-59.92,93.17-60.07,93.67l-.31,1.08h-1.12ZM337.85,311.34c-10.19,8.23-20.33,18.31-31.05,29-21.54,21.41-43.82,43.54-68.89,52.78-14.1,5.21-29.24,7.08-43.88,8.9-12.92,1.6-26.27,3.25-38.77,7.19-34.79,11-61.92,36.1-88.15,60.41-10,9.27-20.3,18.82-30.88,27.42l200.26-.08C239,489.31,255.29,443,297,403c4.94-4.73,10.33-9.33,15.54-13.79,16.25-13.88,33.06-28.24,38.57-48.42C356,323.08,341.58,313.49,337.85,311.34Z" transform="translate(1.6)"/><path class="cls-2" d="M241,489.32a.49.49,0,0,1-.5-.52,163.81,163.81,0,0,1,2.94-22.36c7.67-39.19,38.18-60,62.69-76.65,9.2-6.26,17.89-12.18,24.09-18.24,19-18.59,14.47-34.32,9.68-51-.55-1.91-1.1-3.83-1.61-5.76a.49.49,0,0,1,.35-.61.51.51,0,0,1,.61.36c.51,1.91,1.06,3.82,1.61,5.73,4.66,16.21,9.48,33-9.94,52-6.26,6.12-15,12.06-24.23,18.35-24.36,16.58-54.68,37.22-62.26,76a160.33,160.33,0,0,0-2.93,22.22A.5.5,0,0,1,241,489.32Z" transform="translate(1.6)"/><path class="cls-2" d="M218.86,498.92a.51.51,0,0,1-.5-.45c-6.82-66.25,28.3-88.15,56.52-105.75,8.25-5.15,16-10,22-15.5,15.66-14.39,27.36-37.45,29.81-58.74a.5.5,0,1,1,1,.12c-2.48,21.51-14.3,44.81-30.12,59.36-6,5.55-13.87,10.43-22.17,15.61-28,17.45-62.8,39.17-56,104.8a.5.5,0,0,1-.45.55Z" transform="translate(1.6)"/><path class="cls-2" d="M230.58,498.92a.49.49,0,0,1-.5-.45,99.06,99.06,0,0,1,19.73-69.34c15.14-19.58,31-29.78,45-38.79,24.07-15.47,41.47-26.64,35.86-75.31a.5.5,0,0,1,1-.12c5.67,49.29-11.94,60.61-36.32,76.27-13.94,9-29.74,19.12-44.78,38.56a98.1,98.1,0,0,0-19.53,68.63.5.5,0,0,1-.45.55Z" transform="translate(1.6)"/><path class="cls-2" d="M211.05,498.93a.51.51,0,0,1-.5-.45c-2.43-24.43,1.91-42.74,4.78-54.85a88,88,0,0,0,2.21-11.17c.28-3.26.27-6,.26-8.65,0-7.7-.06-14.35,7.5-28.81a.5.5,0,0,1,.68-.21.5.5,0,0,1,.21.67c-7.45,14.24-7.42,20.78-7.39,28.34,0,2.68,0,5.44-.26,8.75a87.5,87.5,0,0,1-2.24,11.31c-2.85,12.05-7.17,30.26-4.76,54.52a.49.49,0,0,1-.44.54Z" transform="translate(1.6)"/><path class="cls-2" d="M213.32,498.93a.5.5,0,0,1-.5-.48c-1.29-26.32,2.91-37.5,9.27-54.43.93-2.46,1.49-7.27,2.08-12.37.82-7,1.67-14.32,3.63-17.46,5.17-8.26,15.9-15.34,27.26-22.85,17.41-11.5,37.14-24.53,43.43-45.53a.49.49,0,0,1,.62-.34.51.51,0,0,1,.34.62c-6.39,21.35-26.29,34.49-43.84,46.09-11.27,7.44-21.91,14.47-27,22.55-1.84,2.94-2.72,10.43-3.49,17-.6,5.17-1.16,10-2.13,12.61-6.32,16.81-10.49,27.92-9.21,54a.5.5,0,0,1-.48.52Z" transform="translate(1.6)"/><path class="cls-2" d="M204.3,498.93a.5.5,0,0,1-.48-.39c-10.21-45.64-5.27-60.14,7.92-98.88l.66-2a.52.52,0,0,1,.64-.32.51.51,0,0,1,.31.64l-.67,2c-13.12,38.55-18,53-7.89,98.34a.5.5,0,0,1-.38.6Z" transform="translate(1.6)"/><path class="cls-2" d="M181.28,498.94a.51.51,0,0,1-.5-.43c-3.45-24.17,1.47-32.16,6.23-39.89,2.05-3.35,4-6.51,5.18-10.91,1.22-4.59.9-9.52.59-14.28-.33-5.07-.67-10.3.82-15.24,1.3-4.33,4-8.2,6.52-11.95a69.42,69.42,0,0,0,4.63-7.44.49.49,0,0,1,.67-.22.5.5,0,0,1,.22.67,67.64,67.64,0,0,1-4.7,7.55c-2.52,3.69-5.12,7.5-6.39,11.68-1.43,4.76-1.1,9.91-.77,14.88s.64,9.85-.63,14.61c-1.21,4.54-3.19,7.76-5.29,11.17-4.67,7.58-9.49,15.42-6.09,39.23a.5.5,0,0,1-.42.56Z" transform="translate(1.6)"/><path class="cls-2" d="M160.81,499a.5.5,0,0,1-.49-.43c-2.42-16.7-.22-40.26,4.52-48.48,3.82-6.64,6.22-8.59,8.15-10.16,3.67-3,5.7-4.63,13.73-38.67a.5.5,0,1,1,1,.23c-8.12,34.37-10.11,36-14.08,39.22-1.86,1.51-4.18,3.4-7.92,9.88-4.56,7.92-6.74,31.62-4.39,47.84a.5.5,0,0,1-.43.56Z" transform="translate(1.6)"/><path class="cls-2" d="M143.75,499a.49.49,0,0,1-.5-.51c.14-6.46,2.87-11.69,5.28-16.31a39.48,39.48,0,0,0,3.77-8.88,35.13,35.13,0,0,0,.51-10.16c-.43-8.65-.88-17.6,15.08-34.95l1.05-1.14c5.95-6.43,14.1-15.23,13.38-25.06a.5.5,0,0,1,1-.07c.75,10.26-7.57,19.25-13.64,25.81l-1.05,1.14c-15.68,17-15.24,25.78-14.82,34.22a35.79,35.79,0,0,1-.54,10.44,39.43,39.43,0,0,1-3.86,9.11c-2.47,4.75-5,9.65-5.16,15.87A.5.5,0,0,1,143.75,499Z" transform="translate(1.6)"/><path class="cls-2" d="M131,499a.51.51,0,0,1-.5-.42,56.83,56.83,0,0,1,10.18-42.76c1.24-1.66,2.6-3.3,3.91-4.87,3.11-3.74,6.32-7.6,8.1-12.12a46.89,46.89,0,0,0,2.12-8.35c.69-3.63,1.4-7.38,3.19-10.7a39,39,0,0,1,6.39-8c2.54-2.66,4.93-5.18,6.37-8.18a.5.5,0,0,1,.9.43c-1.51,3.15-4.07,5.84-6.54,8.44a38.19,38.19,0,0,0-6.24,7.8c-1.71,3.19-2.41,6.86-3.09,10.41a47.85,47.85,0,0,1-2.17,8.53c-1.84,4.68-5.1,8.6-8.26,12.4-1.3,1.56-2.65,3.18-3.88,4.83a56.54,56.54,0,0,0-10,42,.5.5,0,0,1-.41.57Z" transform="translate(1.6)"/><path class="cls-2" d="M110.19,499a.5.5,0,0,1-.5-.49c-.4-19.55,6.19-26,13.82-33.46,4-3.88,8.08-7.9,11.67-14.18a66.5,66.5,0,0,0,3.48-7.47c.85-2.05,1.73-4.16,2.76-6.16a84.79,84.79,0,0,1,7.24-10.93c4.67-6.35,9.49-12.91,10.84-20.13a.5.5,0,0,1,1,.18c-1.39,7.45-6.28,14.11-11,20.55a84.3,84.3,0,0,0-7.15,10.78c-1,2-1.89,4.07-2.73,6.09a66.57,66.57,0,0,1-3.53,7.58c-3.67,6.41-7.82,10.48-11.84,14.41-7.47,7.3-13.91,13.6-13.52,32.72a.52.52,0,0,1-.49.51Z" transform="translate(1.6)"/><path class="cls-2" d="M96.43,499a.5.5,0,0,1-.5-.47c-1.14-18.95,12.76-33.27,27.47-48.42,12.22-12.59,24.86-25.6,27.95-41.46a.48.48,0,0,1,.58-.39.5.5,0,0,1,.4.58c-3.15,16.15-15.89,29.27-28.21,42-14.56,15-28.31,29.16-27.19,47.67a.5.5,0,0,1-.47.53Z" transform="translate(1.6)"/><path class="cls-2" d="M85.43,499l-.1,0a.5.5,0,0,1-.39-.59c4.74-21.68,23.48-46.59,30.5-53.32,1.7-1.64,3.39-3.08,5-4.48,6.71-5.73,12.51-10.67,16.75-26.24a.5.5,0,0,1,.61-.35.48.48,0,0,1,.35.61c-4.31,15.87-10.51,21.15-17.07,26.74-1.62,1.39-3.3,2.82-5,4.44-6.95,6.67-25.52,31.35-30.21,52.81A.5.5,0,0,1,85.43,499Z" transform="translate(1.6)"/><path class="cls-2" d="M69.94,499a.57.57,0,0,1-.18,0,.5.5,0,0,1-.29-.64,99.35,99.35,0,0,0,3-9.76c.74-2.74,1.44-5.33,2.35-7.8,4.78-13,14.78-23.27,24.46-33.2,7-7.18,14.23-14.6,19.34-22.95a.5.5,0,0,1,.86.52C114.29,433.57,107,441,100,448.25c-9.6,9.85-19.53,20-24.23,32.85-.9,2.43-1.59,5-2.32,7.71a100.31,100.31,0,0,1-3,9.85A.48.48,0,0,1,69.94,499Z" transform="translate(1.6)"/><path class="cls-5" d="M318.57,377.78c30.25-31.23,17.81-37.77,17.54-62.45-.06-5.35,1.68-6.6,5.65-8,99.84-35.32,99.91-27.44,121.59-13.9,56.86,35.5,142.39,41.15,169.46,122.4,11.33,34-3.83,82.67-3.83,82.67l-400.58-.17C224,480.21,306.39,390.35,318.57,377.78Z" transform="translate(1.6)"/><path class="cls-2" d="M630.08,500H629l-401.75-.17-.28-1.14c-5.08-20.68,89.59-121,90.55-121.95l1.08,1-1.08-1c22.34-23.06,20.9-32.07,18.71-45.71a102.41,102.41,0,0,1-1.6-15.69c-.06-6,2.1-7.81,6.66-9.43,93.32-33,100.18-28.53,118.5-16.57,1.38.9,2.83,1.84,4.39,2.81,16.65,10.4,35.41,18.07,55.28,26.2,47,19.2,95.49,39,114.8,97,11.35,34.08-3.2,81.59-3.82,83.59Zm-400.37-3.17,398.15.17c2.09-7.26,13.66-50.28,3.53-80.7-18.88-56.65-66.78-76.23-113.1-95.18-19.11-7.81-38.87-15.89-55.73-26.42-1.58-1-3-1.94-4.44-2.85-17.42-11.37-23.94-15.62-115.86,16.89-3.56,1.26-4.7,2.05-4.66,6.57a99.62,99.62,0,0,0,1.56,15.25c2.25,14,3.87,24.13-19.52,48.27C300,399.13,229.18,478.53,229.71,496.83Z" transform="translate(1.6)"/><path class="cls-2" d="M593,499a.55.55,0,0,1-.25-.07.51.51,0,0,1-.18-.69c17.56-29.78,17.29-60.19,14.4-88.62-3.15-30.85-13.4-39.66-26.37-50.82-6-5.2-12.89-11.08-19.67-20a.5.5,0,1,1,.79-.6c6.72,8.8,13.53,14.65,19.53,19.81,13.14,11.3,23.53,20.23,26.71,51.48,2.92,28.6,3.17,59.2-14.53,89.23A.5.5,0,0,1,593,499Z" transform="translate(1.6)"/><path class="cls-2" d="M567,499a.38.38,0,0,1-.17,0,.49.49,0,0,1-.29-.64c12.18-32.67,18.64-58.31,21-83.15l.14-1.43c1.47-15.26,2.53-26.29-39.79-81.2a.5.5,0,1,1,.79-.61c42.57,55.22,41.49,66.41,40,81.91l-.13,1.43c-2.34,24.92-8.83,50.65-21,83.4A.5.5,0,0,1,567,499Z" transform="translate(1.6)"/><path class="cls-2" d="M241.44,498.84a.52.52,0,0,1-.47-.33,42.26,42.26,0,0,0-8.57-14.33.5.5,0,1,1,.73-.69,43.24,43.24,0,0,1,8.78,14.67.52.52,0,0,1-.29.65Z" transform="translate(1.6)"/><path class="cls-2" d="M253.72,498.84a.49.49,0,0,1-.44-.26c-4.76-9-11.83-16.58-16.74-21.47a.48.48,0,0,1,0-.7.49.49,0,0,1,.7,0c5,4.94,12.1,12.56,16.92,21.71a.5.5,0,0,1-.21.68A.59.59,0,0,1,253.72,498.84Z" transform="translate(1.6)"/><path class="cls-2" d="M267.94,498.85a.5.5,0,0,1-.47-.35,78,78,0,0,0-22.31-34.1.48.48,0,0,1,0-.7.49.49,0,0,1,.7-.05,79,79,0,0,1,22.6,34.54.5.5,0,0,1-.32.63A.45.45,0,0,1,267.94,498.85Z" transform="translate(1.6)"/><path class="cls-2" d="M281.61,498.85a.49.49,0,0,1-.5-.47c-1.26-22.12-14.79-33.7-29.23-42.93a.5.5,0,0,1,.54-.84c14,8.92,28.4,21.09,29.69,43.72a.5.5,0,0,1-.47.52Z" transform="translate(1.6)"/><path class="cls-2" d="M291.52,498.86a.49.49,0,0,1-.47-.34,133.35,133.35,0,0,0-32.37-52,.49.49,0,0,1,0-.7.5.5,0,0,1,.71,0A134.42,134.42,0,0,1,292,498.2a.51.51,0,0,1-.32.63A.45.45,0,0,1,291.52,498.86Z" transform="translate(1.6)"/><path class="cls-2" d="M301.36,498.86a.5.5,0,0,1-.49-.39,116.87,116.87,0,0,0-35.21-60.6.5.5,0,0,1,.67-.74,118,118,0,0,1,35.52,61.12.5.5,0,0,1-.38.6Z" transform="translate(1.6)"/><path class="cls-2" d="M306.48,498.87a.49.49,0,0,1-.49-.41,154.3,154.3,0,0,0-32.78-69.82.49.49,0,0,1,.07-.7.49.49,0,0,1,.7.06,155.43,155.43,0,0,1,33,70.27.51.51,0,0,1-.4.59Z" transform="translate(1.6)"/><path class="cls-2" d="M324.24,498.87a.5.5,0,0,1-.49-.43A152,152,0,0,0,284.93,415a.5.5,0,0,1,0-.71.48.48,0,0,1,.7,0,153,153,0,0,1,39.08,84,.5.5,0,0,1-.43.56Z" transform="translate(1.6)"/><path class="cls-2" d="M333.6,498.88a.5.5,0,0,1-.49-.49A149.74,149.74,0,0,0,294.55,404a.5.5,0,0,1,.74-.67,150.72,150.72,0,0,1,38.81,95.06.5.5,0,0,1-.48.52Z" transform="translate(1.6)"/><path class="cls-2" d="M346.62,498.88a.5.5,0,0,1-.5-.47c-2.3-48.36-16.27-83.87-41.54-105.53a.49.49,0,0,1-.05-.7.5.5,0,0,1,.7-.06c25.48,21.85,39.58,57.59,41.89,106.24a.5.5,0,0,1-.48.52Z" transform="translate(1.6)"/><path class="cls-2" d="M361,498.89a.5.5,0,0,1-.5-.47c-1.33-19.2-8.52-84.43-44.81-117.63a.5.5,0,1,1,.68-.74c36.56,33.46,43.79,99,45.13,118.3a.5.5,0,0,1-.46.54Z" transform="translate(1.6)"/><path class="cls-2" d="M370,498.89a.49.49,0,0,1-.5-.51c0-2.67.12-5.44.19-8.3,1.07-45.36,2.7-113.92-32.74-161.29a.5.5,0,0,1,.1-.7.51.51,0,0,1,.7.1c35.65,47.64,34,116.41,32.94,161.92-.07,2.86-.14,5.62-.19,8.29A.5.5,0,0,1,370,498.89Z" transform="translate(1.6)"/><path class="cls-2" d="M369.06,498.89a.49.49,0,0,1-.5-.47c-2.63-44.31-9.64-94.4-41.74-129.91a.5.5,0,0,1,0-.71.49.49,0,0,1,.7,0c32.31,35.74,39.36,86,42,130.52a.51.51,0,0,1-.47.53Z" transform="translate(1.6)"/><path class="cls-2" d="M386.46,498.9l-.13,0a.5.5,0,0,1-.36-.61,209.73,209.73,0,0,0-6-124.73c-10.29-27.68-19.38-37-43.67-61.91a.5.5,0,1,1,.72-.7c24.4,25,33.53,34.38,43.88,62.26a210.71,210.71,0,0,1,6.07,125.34A.5.5,0,0,1,386.46,498.9Z" transform="translate(1.6)"/><path class="cls-2" d="M398.85,498.9h-.05a.5.5,0,0,1-.45-.55c4.28-41.14,8.4-142.47-45.64-194.62a.5.5,0,1,1,.7-.72c54.35,52.45,50.23,154.16,45.94,195.45A.51.51,0,0,1,398.85,498.9Z" transform="translate(1.6)"/><path class="cls-2" d="M407.12,498.91h-.07a.5.5,0,0,1-.42-.57c4.29-29.08,4.68-60.76,1.23-99.7-3.74-42.2-10.26-65.39-40.95-99.78a.5.5,0,1,1,.74-.67c30.89,34.61,37.44,57.93,41.2,100.36,3.46,39,3.07,70.78-1.23,99.94A.51.51,0,0,1,407.12,498.91Z" transform="translate(1.6)"/><path class="cls-2" d="M419.73,498.91h-.14a.52.52,0,0,1-.35-.62c15.4-55.82,22.84-123.7-38.68-203.94a.5.5,0,0,1,.79-.61c28.72,37.46,44.62,75.06,48.59,115,3.54,35.53-3.34,66.69-9.73,89.86A.5.5,0,0,1,419.73,498.91Z" transform="translate(1.6)"/><path class="cls-2" d="M435.18,498.92l-.13,0a.5.5,0,0,1-.35-.62c2.35-8.28,4.59-15.57,6.56-22,9.92-32.3,14.9-48.52,6.32-99.94l-.29-1.74c-4.7-28.25-10.55-63.41-29.94-90.33a.5.5,0,0,1,.81-.59c19.52,27.11,25.4,62.4,30.12,90.75l.29,1.75c8.61,51.65,3.61,67.94-6.35,100.4-2,6.43-4.21,13.72-6.56,22A.49.49,0,0,1,435.18,498.92Z" transform="translate(1.6)"/><path class="cls-2" d="M434.27,498.92h-.09a.5.5,0,0,1-.4-.58c13.1-71.11-.31-149.35-35.88-209.3a.49.49,0,0,1,.17-.68.5.5,0,0,1,.69.17c17.33,29.21,29.83,63.46,36.15,99.07a310.35,310.35,0,0,1-.15,110.92A.49.49,0,0,1,434.27,498.92Z" transform="translate(1.6)"/><path class="cls-2" d="M451.89,498.93l-.13,0a.5.5,0,0,1-.36-.61l.24-.89c9.94-37.38,12.3-46.27,14.46-58.18,10-54.82-3.14-113.46-35.05-156.86a.5.5,0,1,1,.81-.59c32.07,43.62,45.23,102.54,35.23,157.63-2.17,11.95-4.54,20.84-14.48,58.26l-.24.89A.5.5,0,0,1,451.89,498.93Z" transform="translate(1.6)"/><path class="cls-2" d="M466.78,498.93a.39.39,0,0,1-.15,0,.5.5,0,0,1-.33-.62c18-59.15,32.3-136.79-17-212.88a.5.5,0,0,1,.14-.69.52.52,0,0,1,.7.15c49.51,76.43,35.15,154.36,17.11,213.71A.51.51,0,0,1,466.78,498.93Z" transform="translate(1.6)"/><path class="cls-2" d="M486.19,498.94a.41.41,0,0,1-.16,0,.49.49,0,0,1-.31-.63c20.4-58.68,33.1-114.38-18.41-201.95a.5.5,0,0,1,.86-.51c23.72,40.32,35.56,77.4,36.2,113.34.59,33.84-8.83,63.91-17.71,89.45A.5.5,0,0,1,486.19,498.94Z" transform="translate(1.6)"/><path class="cls-2" d="M502.69,499l-.15,0a.5.5,0,0,1-.33-.62c26.09-82.66,36.88-116.87-19.5-193.77a.5.5,0,1,1,.8-.59c27.55,37.57,39.35,64.71,40.72,93.69,1.31,27.77-7.08,56.67-21.06,101A.51.51,0,0,1,502.69,499Z" transform="translate(1.6)"/><path class="cls-2" d="M531.46,499l-.18,0a.49.49,0,0,1-.29-.64c28.45-76.73,23.19-86.5-27.1-180l-3-5.65a.5.5,0,1,1,.88-.48l3,5.65c50.48,93.82,55.76,103.63,27.15,180.77A.48.48,0,0,1,531.46,499Z" transform="translate(1.6)"/><path class="cls-2" d="M543.57,499l-.15,0a.5.5,0,0,1-.33-.62c1.9-6.19,4-12.44,6.13-18.49,7.06-20.55,14.37-41.79,12.69-63.54-2.54-33-32-78.63-44.57-96.72a.5.5,0,1,1,.83-.57c12.6,18.15,42.18,64,44.74,97.21,1.69,22-5.65,43.3-12.75,63.94-2.07,6-4.22,12.29-6.11,18.46A.51.51,0,0,1,543.57,499Z" transform="translate(1.6)"/><path class="cls-2" d="M548.08,499a.59.59,0,0,1-.22-.05.5.5,0,0,1-.23-.67c1.12-2.32,2.27-4.64,3.42-7,5.09-10.26,10.35-20.88,13-31.49,14.14-56.75,5-89.89-37.47-136.41a.51.51,0,0,1,0-.71.5.5,0,0,1,.71,0C570.09,369.53,579.25,402.9,565,460c-2.67,10.72-8,21.38-13.07,31.7-1.14,2.31-2.29,4.63-3.41,6.95A.52.52,0,0,1,548.08,499Z" transform="translate(1.6)"/><path class="cls-1" d="M524.23,455.68c32.46-3.36,59.35-26.15,90.21-36.77,45.88-15.78,96.15-3.6,143.1,8.66,46.76,12.21,110,17.52,142.56,70.93l-575.87-.09c3.33-15.81,30.46-12.73,43.13-19.39C441.49,440.05,495.6,458.64,524.23,455.68Z" transform="translate(1.6)"/><path class="cls-2" d="M902.77,500H900.1l-577.72-.09.39-1.81c2.37-11.3,15.13-13.65,27.46-15.93,6.29-1.17,12.23-2.26,16.43-4.47C422.55,448.31,468,451.49,498,453.59c10.19.71,19,1.33,26.05.6,19.53-2,37.49-11.43,54.86-20.53,11.25-5.9,22.89-12,35-16.17,47.88-16.47,101.15-2.55,144,8.63,7.53,2,15.39,3.72,23.71,5.59,43.17,9.7,92.11,20.68,119.76,66Zm-576.53-3.09,571.15.09c-27.24-42.34-74.58-53-116.43-62.36-8.34-1.87-16.22-3.64-23.8-5.62-42.42-11.08-95.22-24.86-142.23-8.69-11.91,4.1-23.45,10.14-34.6,16-17.62,9.23-35.84,18.77-55.94,20.85l-.16-1.49.16,1.49c-7.32.76-16.24.14-26.57-.59-31.5-2.2-74.62-5.21-129.76,23.77-4.61,2.42-10.76,3.56-17.28,4.77C340.19,487.07,329.26,489.09,326.24,496.91Z" transform="translate(1.6)"/><path class="cls-2" d="M350.1,498.91H350a.5.5,0,0,1-.41-.58,37.06,37.06,0,0,1,6.62-16.17.5.5,0,0,1,.8.61,36,36,0,0,0-6.43,15.74A.51.51,0,0,1,350.1,498.91Z" transform="translate(1.6)"/><path class="cls-2" d="M366.78,498.91h-.13a.52.52,0,0,1-.35-.62c2.55-9.41,8.12-18.57,16.54-27.22a.5.5,0,0,1,.72.7c-8.31,8.53-13.79,17.54-16.29,26.78A.5.5,0,0,1,366.78,498.91Z" transform="translate(1.6)"/><path class="cls-2" d="M381.63,498.92a.4.4,0,0,1-.15,0,.5.5,0,0,1-.32-.63c4.11-12.68,11.92-24.3,23.88-35.5a.5.5,0,0,1,.71,0,.5.5,0,0,1,0,.71c-11.83,11.09-19.55,22.56-23.61,35.08A.5.5,0,0,1,381.63,498.92Z" transform="translate(1.6)"/><path class="cls-2" d="M396.76,498.92l-.11,0a.5.5,0,0,1-.38-.6c3.6-15.26,12.82-25,23.49-36.29,1.27-1.34,2.56-2.7,3.85-4.09a.5.5,0,0,1,.71,0,.49.49,0,0,1,0,.7c-1.3,1.4-2.58,2.76-3.85,4.1-10.58,11.18-19.71,20.83-23.24,35.83A.51.51,0,0,1,396.76,498.92Z" transform="translate(1.6)"/><path class="cls-2" d="M417.87,498.92a.51.51,0,0,1-.17,0,.5.5,0,0,1-.3-.64c5.28-14.67,14.05-28.92,26.82-43.57a.51.51,0,0,1,.71-.05.49.49,0,0,1,.05.7c-12.69,14.56-21.4,28.71-26.64,43.26A.51.51,0,0,1,417.87,498.92Z" transform="translate(1.6)"/><path class="cls-2" d="M432.62,498.81h-.1a.49.49,0,0,1-.39-.59c3-15.06,13.46-28.47,23.6-41.45l2.41-3.08a.5.5,0,0,1,.7-.09.5.5,0,0,1,.08.7c-.79,1-1.59,2-2.4,3.09-10.07,12.88-20.49,26.2-23.41,41A.5.5,0,0,1,432.62,498.81Z" transform="translate(1.6)"/><path class="cls-2" d="M449.05,498.93H449a.51.51,0,0,1-.41-.58c2.64-15.07,10.48-29.74,24-44.85a.5.5,0,1,1,.75.67c-13.36,15-21.12,29.47-23.72,44.35A.51.51,0,0,1,449.05,498.93Z" transform="translate(1.6)"/><path class="cls-2" d="M461.84,498.93a.45.45,0,0,1-.16,0,.51.51,0,0,1-.31-.64c4.83-13.76,13.1-28.22,25.29-44.19a.5.5,0,0,1,.7-.09.51.51,0,0,1,.1.7c-12.13,15.89-20.35,30.25-25.14,43.91A.51.51,0,0,1,461.84,498.93Z" transform="translate(1.6)"/><path class="cls-2" d="M476.87,498.81h-.11a.49.49,0,0,1-.37-.6c3.77-16,8.22-22.29,20.13-39l3-4.27a.49.49,0,0,1,.69-.12.5.5,0,0,1,.12.7l-3,4.27c-11.82,16.58-16.24,22.79-20,38.64A.49.49,0,0,1,476.87,498.81Z" transform="translate(1.6)"/><path class="cls-2" d="M494.57,498.93h-.09a.5.5,0,0,1-.4-.58,88.26,88.26,0,0,1,11-28.93,161.21,161.21,0,0,1,9.51-13.71.5.5,0,1,1,.8.6,160.24,160.24,0,0,0-9.46,13.63,87.23,87.23,0,0,0-10.83,28.6A.49.49,0,0,1,494.57,498.93Z" transform="translate(1.6)"/><path class="cls-2" d="M509.46,498.94l-.1,0a.5.5,0,0,1-.39-.59c2.72-12.64,8.88-26.46,19.41-43.52a.5.5,0,1,1,.85.53c-10.47,17-16.59,30.68-19.28,43.2A.49.49,0,0,1,509.46,498.94Z" transform="translate(1.6)"/><path class="cls-2" d="M528.12,498.94a.5.5,0,0,1-.5-.55c1.69-17.49,6.72-34.1,14.17-46.77a.5.5,0,0,1,.86.5c-7.38,12.55-12.36,29-14,46.37A.49.49,0,0,1,528.12,498.94Z" transform="translate(1.6)"/><path class="cls-2" d="M544.25,498.94a.5.5,0,0,1-.5-.52c1-22.38,10.66-39.44,24.75-58.18a.51.51,0,0,1,.7-.1.5.5,0,0,1,.1.7c-14,18.59-23.51,35.5-24.55,57.62A.51.51,0,0,1,544.25,498.94Z" transform="translate(1.6)"/><path class="cls-2" d="M562,498.94a.49.49,0,0,1-.49-.54c2.19-24.29,12.64-48.54,30.2-70.13a.5.5,0,0,1,.71-.07.5.5,0,0,1,.07.7c-17.44,21.43-27.81,45.5-30,69.59A.49.49,0,0,1,562,498.94Z" transform="translate(1.6)"/><path class="cls-2" d="M569.05,499H569a.5.5,0,0,1-.44-.55,73.92,73.92,0,0,1,4.81-19.82c5.77-13.92,16.07-25.95,51.08-63.08a.5.5,0,0,1,.7,0,.51.51,0,0,1,0,.71c-34.91,37-45.17,49-50.89,62.78a72.68,72.68,0,0,0-4.73,19.55A.51.51,0,0,1,569.05,499Z" transform="translate(1.6)"/><path class="cls-2" d="M583.6,499h-.06a.5.5,0,0,1-.44-.55A76.29,76.29,0,0,1,589.28,476c9.58-21.19,27.57-36.89,45-52.08,4.6-4,9.35-8.17,13.88-12.36a.5.5,0,1,1,.68.73c-4.54,4.2-9.3,8.36-13.9,12.38-17.32,15.12-35.23,30.75-44.72,51.74a75.33,75.33,0,0,0-6.1,22.06A.5.5,0,0,1,583.6,499Z" transform="translate(1.6)"/><path class="cls-2" d="M606.93,499h-.06a.51.51,0,0,1-.44-.56,135.35,135.35,0,0,1,46.13-87.1.5.5,0,1,1,.66.76,134.3,134.3,0,0,0-45.79,86.46A.51.51,0,0,1,606.93,499Z" transform="translate(1.6)"/><path class="cls-2" d="M624.31,499h-.07a.5.5,0,0,1-.43-.56c4.6-33.4,19.53-64.4,42.05-87.29a.49.49,0,0,1,.7,0,.5.5,0,0,1,0,.71c-22.36,22.74-37.2,53.54-41.77,86.72A.5.5,0,0,1,624.31,499Z" transform="translate(1.6)"/><path class="cls-2" d="M642.18,499h-.08a.51.51,0,0,1-.42-.57c5-32.51,18.45-62.4,38.91-86.44a.5.5,0,0,1,.76.65c-20.34,23.9-33.72,53.62-38.68,85.94A.5.5,0,0,1,642.18,499Z" transform="translate(1.6)"/><path class="cls-2" d="M658.32,499h-.06a.5.5,0,0,1-.43-.57,183,183,0,0,1,34-85.16.5.5,0,0,1,.81.6,181.91,181.91,0,0,0-33.87,84.7A.5.5,0,0,1,658.32,499Z" transform="translate(1.6)"/><path class="cls-2" d="M672,499a.51.51,0,0,1-.5-.54,177.45,177.45,0,0,1,29.34-83.83.49.49,0,0,1,.69-.13.5.5,0,0,1,.14.69,176.46,176.46,0,0,0-29.17,83.36A.49.49,0,0,1,672,499Z" transform="translate(1.6)"/><path class="cls-2" d="M686.57,499a.51.51,0,0,1-.5-.54,194.34,194.34,0,0,1,25.58-81.86.5.5,0,0,1,.86.5,193.44,193.44,0,0,0-25.44,81.44A.49.49,0,0,1,686.57,499Z" transform="translate(1.6)"/><path class="cls-2" d="M700.61,499a.5.5,0,0,1-.5-.52,156,156,0,0,1,24.24-79.25.5.5,0,1,1,.84.54,155,155,0,0,0-24.08,78.74A.51.51,0,0,1,700.61,499Z" transform="translate(1.6)"/><path class="cls-2" d="M717.54,499a.51.51,0,0,1-.5-.51,166.6,166.6,0,0,1,19.66-76.32.5.5,0,0,1,.67-.21.5.5,0,0,1,.21.68A165.72,165.72,0,0,0,718,498.48.5.5,0,0,1,717.54,499Z" transform="translate(1.6)"/><path class="cls-2" d="M730,499a.5.5,0,0,1-.5-.5c.37-40.31,12.47-66.9,16.18-74.09a.49.49,0,0,1,.67-.22.5.5,0,0,1,.21.67c-3.67,7.15-15.69,33.56-16.06,73.65A.49.49,0,0,1,730,499Z" transform="translate(1.6)"/><path class="cls-2" d="M740.15,499a.49.49,0,0,1-.5-.5c.07-27,6.87-50.67,20.19-70.48a.51.51,0,0,1,.7-.14.49.49,0,0,1,.13.69c-13.21,19.66-19.95,43.18-20,69.93A.51.51,0,0,1,740.15,499Z" transform="translate(1.6)"/><path class="cls-2" d="M758.47,499a.51.51,0,0,1-.5-.52,158.1,158.1,0,0,1,17.42-66.74.5.5,0,1,1,.88.46A157.22,157.22,0,0,0,759,498.49.51.51,0,0,1,758.47,499Z" transform="translate(1.6)"/><path class="cls-2" d="M773.9,499a.5.5,0,0,1-.5-.51,162.29,162.29,0,0,1,14.37-63.94.51.51,0,0,1,.66-.25.5.5,0,0,1,.25.67,161.19,161.19,0,0,0-14.28,63.54A.51.51,0,0,1,773.9,499Z" transform="translate(1.6)"/><path class="cls-2" d="M788.58,499a.51.51,0,0,1-.5-.52c.68-18.61,5.2-39,13.44-60.66a.51.51,0,0,1,.65-.29.52.52,0,0,1,.29.65c-8.21,21.53-12.71,41.83-13.38,60.34A.5.5,0,0,1,788.58,499Z" transform="translate(1.6)"/><path class="cls-2" d="M798.31,499a.5.5,0,0,1-.5-.52c.92-17,5.35-37.2,12.81-58.3a.51.51,0,0,1,.64-.31.5.5,0,0,1,.3.64c-7.42,21-11.83,41.07-12.75,58A.5.5,0,0,1,798.31,499Z" transform="translate(1.6)"/><path class="cls-2" d="M805.58,499a.51.51,0,0,1-.5-.52c.92-17,4.94-35.44,12.28-56.4a.5.5,0,0,1,.64-.31.49.49,0,0,1,.3.64c-7.3,20.87-11.3,39.23-12.22,56.12A.49.49,0,0,1,805.58,499Z" transform="translate(1.6)"/><path class="cls-2" d="M819.56,499a.51.51,0,0,1-.5-.49,171.7,171.7,0,0,1,6.77-53.79.49.49,0,0,1,.62-.34.5.5,0,0,1,.33.62,170.9,170.9,0,0,0-6.72,53.48.5.5,0,0,1-.48.52Z" transform="translate(1.6)"/><path class="cls-2" d="M828,499a.51.51,0,0,1-.5-.49,172.49,172.49,0,0,1,6-51.1.5.5,0,1,1,1,.27,171.14,171.14,0,0,0-6,50.8.5.5,0,0,1-.48.52Z" transform="translate(1.6)"/><path class="cls-2" d="M835,499a.51.51,0,0,1-.5-.49A128.62,128.62,0,0,1,842,450.71a.5.5,0,0,1,.94.34,127.49,127.49,0,0,0-7.47,47.42.5.5,0,0,1-.49.52Z" transform="translate(1.6)"/><path class="cls-2" d="M843.91,499a.51.51,0,0,1-.5-.49,127.66,127.66,0,0,1,6.3-44.26.51.51,0,0,1,.64-.32.5.5,0,0,1,.31.64,126.56,126.56,0,0,0-6.25,43.91.5.5,0,0,1-.48.52Z" transform="translate(1.6)"/><path class="cls-2" d="M860.12,499a.51.51,0,0,1-.5-.46A127.45,127.45,0,0,1,861.91,461a.5.5,0,1,1,1,.21,126.15,126.15,0,0,0-2.26,37.27.5.5,0,0,1-.46.54Z" transform="translate(1.6)"/><path class="cls-2" d="M851.47,499a.51.51,0,0,1-.5-.47,108.31,108.31,0,0,1,5.4-40.8.5.5,0,1,1,1,.31A107,107,0,0,0,852,498.43a.5.5,0,0,1-.47.53Z" transform="translate(1.6)"/><path class="cls-2" d="M870.3,499a.5.5,0,0,1-.5-.48A149.54,149.54,0,0,1,872.14,468a.5.5,0,1,1,1,.18,148.91,148.91,0,0,0-2.32,30.32.49.49,0,0,1-.48.51Z" transform="translate(1.6)"/><path class="cls-2" d="M865.8,499a.5.5,0,0,1-.49-.41c-2.14-11.75-1.27-24.44,2.32-33.95a.5.5,0,0,1,.94.35c-3.53,9.35-4.38,21.84-2.28,33.42a.5.5,0,0,1-.4.58Z" transform="translate(1.6)"/><path class="cls-2" d="M876.1,499a.49.49,0,0,1-.49-.47c-.51-7.06-.73-17.46,1.08-26.87a.5.5,0,1,1,1,.19c-1.79,9.31-1.57,19.61-1.07,26.61a.48.48,0,0,1-.46.53Z" transform="translate(1.6)"/><path class="cls-2" d="M881.7,499a.5.5,0,0,1-.49-.42,45.36,45.36,0,0,1,1.28-21.77.49.49,0,0,1,.63-.32.51.51,0,0,1,.32.63,44.39,44.39,0,0,0-1.24,21.29.51.51,0,0,1-.41.58Z" transform="translate(1.6)"/><path class="cls-2" d="M888.44,499a.51.51,0,0,1-.49-.41c-1.18-6.32-1.18-11.54,0-16a.52.52,0,0,1,.62-.35.5.5,0,0,1,.35.61c-1.16,4.28-1.16,9.36,0,15.52a.51.51,0,0,1-.4.59Z" transform="translate(1.6)"/><path class="cls-2" d="M893.46,499a.49.49,0,0,1-.47-.34c-1.23-3.5-2.46-8-1.08-11.42a.5.5,0,0,1,.93.37c-1.26,3.14-.08,7.38,1.09,10.72a.51.51,0,0,1-.31.64A.45.45,0,0,1,893.46,499Z" transform="translate(1.6)"/><rect class="cls-6" x="1.6" width="900" height="500"/></svg>