<svg width="164" height="159" viewBox="0 0 164 159" fill="none" xmlns="http://www.w3.org/2000/svg">
<path d="M4.48478 45.7288C2.76638 45.7288 2.47998 46.1224 2.30098 46.2298H2.08618C3.23178 45.371 3.98358 45.8004 4.59218 45.5499H5.30818L4.48478 45.7288Z" fill="#4A2B0E"/>
<path d="M8.42285 35.8174V36.1752C8.55193 35.5454 8.71931 34.924 8.92406 34.3145C8.85246 34.9944 8.60185 35.2806 8.42285 35.8174Z" fill="#4A2B0E"/>
<path d="M16.5854 27.8381C14.9028 27.4803 13.435 30.629 11.7166 31.7383H11.2512V33.1337C12.6896 31.0567 14.4977 29.2617 16.5854 27.8381V27.8381Z" fill="#4A2B0E"/>
<path d="M23.1365 26.693C22.5637 26.4426 24.0315 25.6554 21.8835 27.2656H22.1341L23.1365 26.693Z" fill="#4A2B0E"/>
<path d="M22.1343 27.2298C21.2035 27.9096 23.0293 27.2298 22.1343 27.2298V27.2298Z" fill="#4A2B0E"/>
<path d="M26.7881 24.26L25.6067 25.3692C26.0005 25.3692 27.2893 24.904 26.9313 25.3692C28.2559 24.4389 27.8263 24.26 26.7881 24.26Z" fill="#4A2B0E"/>
<path d="M27.719 22.7929L27.0388 23.3296C27.2178 23.3654 27.4326 23.3296 27.719 22.7929Z" fill="#4A2B0E"/>
<path d="M25.6782 24.4746L27.0386 23.3296C26.7522 23.3296 26.5374 22.9002 26.3942 23.8305C26.3584 23.4011 26.2152 23.9021 25.6782 24.4746Z" fill="#4A2B0E"/>
<path d="M24.7119 24.7609C23.8169 24.9756 22.7429 25.405 23.8885 24.2242C21.3467 25.9059 22.2059 26.4426 24.7119 24.7609Z" fill="#4A2B0E"/>
<path d="M16.2629 26.371L15.0457 26.8362L14.4729 27.8381C14.7593 27.3371 16.5493 26.6573 16.2629 26.371Z" fill="#4A2B0E"/>
<path d="M36.2752 20.6818C36.2752 20.3955 35.4876 20.2524 35.237 20.0019L34.2346 20.7891C34.879 20.6818 36.0246 20.2166 36.2752 20.6818Z" fill="#4A2B0E"/>
<path d="M35.237 19.8588L36.7049 18.678C35.2013 19.2863 35.0222 19.6083 35.237 19.8588Z" fill="#4A2B0E"/>
<path d="M27.361 21.3975L25.1772 23.5801L27.8622 21.1112L27.361 21.3975Z" fill="#4A2B0E"/>
<path d="M42.7194 17.8908L42.0034 18.8569L43.328 17.3183L42.7194 17.8908Z" fill="#4A2B0E"/>
<path d="M46.9079 16.1375C46.4067 16.8889 48.1967 16.6027 47.5523 17.1752C48.5778 16.6676 49.5098 15.9901 50.3089 15.1714C49.2845 15.7972 48.1085 16.1312 46.9079 16.1375V16.1375Z" fill="#4A2B0E"/>
<path d="M51.6334 14.098C51.1507 14.4018 50.706 14.7621 50.3088 15.1714C50.7991 14.8783 51.2452 14.5168 51.6334 14.098V14.098Z" fill="#4A2B0E"/>
<path d="M39.6404 17.5688C39.8799 17.7134 40.1481 17.8043 40.4262 17.8352C40.7044 17.866 40.9859 17.8362 41.2514 17.7477L40.2848 17.3183L39.6404 17.5688Z" fill="#4A2B0E"/>
<path d="M40.2847 17.2825L41.7525 16.7458L40.2847 17.2825Z" fill="#4A2B0E"/>
<path d="M39.4617 17.6411C39.4617 17.6411 39.4981 17.532 39.4617 17.6411V17.6411Z" fill="#4A2B0E"/>
<path d="M32.0867 19.9303C32.9101 19.1073 34.7717 17.7477 32.5163 18.0697C32.0867 18.8569 33.1965 18.678 32.0867 19.9303Z" fill="#4A2B0E"/>
<path d="M38.2798 17.1036L36.4182 17.7119C36.4182 17.8908 36.9552 18.0339 36.4182 18.4275L38.2798 17.1036Z" fill="#4A2B0E"/>
<path d="M39.0676 16.5311L38.28 17.1394L38.9602 16.8889L39.0676 16.5311Z" fill="#4A2B0E"/>
<path d="M48.2682 14.5274C49.03 13.9593 49.8754 13.5127 50.7742 13.2035C49.6743 13.416 48.596 13.7274 47.5521 14.1338C47.4805 14.3842 47.1584 14.9567 48.2682 14.5274Z" fill="#4A2B0E"/>
<path d="M44.3658 15.7797C44.3658 15.7797 44.2942 15.6366 44.3658 15.7797V15.7797Z" fill="#4A2B0E"/>
<path d="M60.4761 10.2693L60.2971 10.1978V10.3409L60.4761 10.2693Z" fill="#4A2B0E"/>
<path d="M47.3018 14.0621C46.6876 14.1409 46.1254 14.4474 45.7266 14.9209C46.3095 14.6026 46.9207 14.3391 47.5524 14.1337C47.5524 14.1337 47.5524 13.919 47.3018 14.0621Z" fill="#4A2B0E"/>
<path d="M54.1751 12.9173C53.6864 12.8823 53.1959 12.8823 52.7073 12.9173C53.1727 13.0604 54.1035 13.1319 54.1751 12.9173Z" fill="#4A2B0E"/>
<path d="M44.8315 15.7439C45.0463 15.887 44.9747 15.8155 44.8315 15.7439V15.7439Z" fill="#4A2B0E"/>
<path d="M44.8312 15.7439C45.1543 15.4977 45.4539 15.2222 45.7262 14.9209C45.2954 15.1139 44.8871 15.3539 44.509 15.6365L44.8312 15.7439Z" fill="#4A2B0E"/>
<path d="M62.2661 4.72314C62.2661 5.43877 60.2613 6.6196 58.2207 6.44069C56.5381 7.44258 58.2207 9.339 60.2613 10.0189C60.2613 9.7326 60.2613 9.44635 61.9081 8.51603C61.1563 8.51603 57.5405 8.80228 58.9725 7.72883C61.3353 6.72695 61.0489 7.37099 62.3377 7.47834C61.0847 6.87005 65.2375 5.51037 64.4141 4.36536L62.2661 5.33147C62.1945 5.25991 62.9105 4.75892 62.2661 4.72314Z" fill="#4A2B0E"/>
<path d="M56.7528 11.0923L56.001 11.3785C56.9603 11.2108 57.9415 11.2108 58.9008 11.3785C60.0464 10.6987 60.2254 10.3767 60.2612 10.1262L56.6812 11.0923H56.7528Z" fill="#4A2B0E"/>
<path d="M52.6716 12.452C52.9938 11.5575 54.7122 10.663 53.3518 10.1978C51.1322 10.985 51.9914 11.3428 50.7742 12.0584C54.3542 10.7345 49.915 12.8098 52.6 12.3805C52.0131 12.7006 51.4027 12.9757 50.7742 13.2035C51.4135 13.085 52.0589 13.0013 52.7074 12.953V12.953C52.4926 12.953 52.4568 12.953 52.7074 12.953C52.6906 12.8463 52.6906 12.7377 52.7074 12.631C53.7814 12.4521 52.9222 12.631 52.7074 12.953C52.4926 13.275 52.7074 12.953 52.7074 12.953L56.2874 11.4144C55.0545 11.6557 53.8447 12.0029 52.6716 12.452V12.452Z" fill="#4A2B0E"/>
<path d="M33.5903 15.7082C33.9483 15.6366 34.0199 15.5293 33.5903 15.7082V15.7082Z" fill="#4A2B0E"/>
<path d="M35.2013 15.4935C34.9476 15.9268 34.5377 16.2468 34.0557 16.388C33.2323 16.388 34.0557 16.0302 33.7693 15.8155C33.3397 16.2449 32.2657 17.1036 33.9483 16.7458L34.1631 16.5669C35.3335 16.2366 36.5726 16.2366 37.7431 16.5669C36.996 16.0074 36.1234 15.6389 35.2013 15.4935V15.4935Z" fill="#4A2B0E"/>
<path d="M43.9724 13.5255L46.8006 12.0942H45.0464L45.2612 12.4163C43.507 12.8099 44.0798 13.1677 43.9724 13.5255Z" fill="#4A2B0E"/>
<path d="M60.9056 10.5556L60.7266 11.4502L62.1586 9.87576L60.9056 10.5556Z" fill="#4A2B0E"/>
<path d="M64.772 9.48215L64.8078 10.2336L65.7386 9.58949L64.772 9.48215Z" fill="#4A2B0E"/>
<path d="M113.675 141.767L112.923 142.339L113.675 141.767Z" fill="#4A2B0E"/>
<path d="M119.832 138.761V138.367C119.653 138.761 119.582 138.94 119.832 138.761Z" fill="#4A2B0E"/>
<path d="M151.73 35.6743C151.73 37.0698 151.516 38.6442 152.16 38.1433L152.661 37.4634C152.234 36.9357 151.917 36.3272 151.73 35.6743V35.6743Z" fill="#4A2B0E"/>
<path d="M147.756 98.3636V97.9342L146.754 97.2902L147.756 98.3636Z" fill="#4A2B0E"/>
<path d="M151.122 98.2205V100.01C151.184 99.4148 151.184 98.8152 151.122 98.2205V98.2205Z" fill="#4A2B0E"/>
<path d="M76.9799 151.177C76.6577 150.784 76.3713 150.318 76.0491 149.853C76.3355 153.074 76.5861 151.249 76.9799 151.177Z" fill="#4A2B0E"/>
<path d="M105.047 7.47838C105.879 7.91428 106.755 8.26208 107.66 8.51608C106.479 7.80045 105.512 6.90588 105.047 7.47838Z" fill="#4A2B0E"/>
<path d="M112.529 133.179C112.064 133.573 111.92 133.787 111.992 133.966C112.457 133.573 112.708 133.286 112.529 133.179Z" fill="#4A2B0E"/>
<path d="M110.847 9.19586L110.31 8.83807C109.43 8.8284 108.553 8.7204 107.697 8.51605C108.633 9.10754 109.749 9.34834 110.847 9.19586V9.19586Z" fill="#4A2B0E"/>
<path d="M8.78076 37.4276C9.25941 37.0824 9.76187 36.7716 10.2844 36.4973C9.74277 36.7368 9.23681 37.0499 8.78076 37.4276V37.4276Z" fill="#4A2B0E"/>
<path d="M76.1565 4.61579C76.2387 4.57693 76.3088 4.51645 76.3593 4.44081C76.4097 4.36517 76.4386 4.27724 76.4429 4.18643C76.4296 4.27461 76.397 4.3588 76.3475 4.433C76.298 4.5072 76.2328 4.56958 76.1565 4.61579V4.61579Z" fill="#4A2B0E"/>
<path d="M120.334 7.26369C120.226 7.049 120.262 7.08478 120.334 7.26369V7.26369Z" fill="#4A2B0E"/>
<path d="M79.3066 6.97745C79.6756 7.01628 80.0475 7.01628 80.4164 6.97745H79.3066Z" fill="#4A2B0E"/>
<path d="M79.5217 7.33527H78.8057C78.8057 7.33527 78.8057 7.54996 79.5217 7.33527Z" fill="#4A2B0E"/>
<path d="M81.7769 7.01318C81.3241 7.04796 80.8693 7.04796 80.4165 7.01318C80.4165 7.01318 80.6671 7.01318 80.6313 7.01318H81.7769Z" fill="#4A2B0E"/>
<path d="M78.9846 84.1225C79.1636 82.9059 79.0562 83.3353 78.9846 84.1225V84.1225Z" fill="#4A2B0E"/>
<path d="M162.613 56.1055V55.9624L162.542 56.1055H162.613Z" fill="#4A2B0E"/>
<path d="M161.79 59.6479C161.669 59.0315 161.673 58.3972 161.802 57.7825C161.931 57.1678 162.183 56.5854 162.542 56.0697L160.036 56.356C160.685 57.4175 161.271 58.5168 161.79 59.6479Z" fill="#4A2B0E"/>
<path d="M98.9612 148.816L101.288 148.565C99.2834 150.712 97.3502 151.141 99.6772 151.177C98.9612 148.851 107.482 147.349 106.837 145.023L108.377 144.844C107.983 145.023 107.983 145.166 107.589 145.309C110.668 145.309 108.77 142.84 112.243 141.731C113.496 141.337 114.463 141.266 113.782 141.731L116.109 139.942C116.861 139.62 116.861 139.942 116.109 140.407L119.94 138.332C120.513 137.521 121.148 136.756 121.837 136.041C122.983 136.041 121.479 136.507 121.837 136.65L123.735 135.04C124.916 135.04 123.413 136.614 121.873 137.258C124.988 138.439 123.377 135.827 128.389 134.861L126.491 136.185C128.425 136.757 129.785 135.469 132.506 135.004C131.754 135.004 126.885 135.541 128.926 133.752C129.977 133.491 130.918 132.902 131.611 132.07C132.04 132.821 133.186 132.07 134.69 131.104L135.119 132.177C136.623 130.961 136.193 130.495 136.909 129.529C137.445 129.193 138.066 129.014 138.699 129.014C139.332 129.014 139.953 129.193 140.489 129.529C143.532 127.919 137.733 129.529 141.098 127.275C143.651 126.088 145.894 124.324 147.649 122.123C149.547 121.192 147.649 122.91 148.58 122.731L149.475 120.87C149.869 120.62 149.905 120.87 149.94 121.085C150.442 120.477 150.298 120.226 150.227 119.94C150.155 119.654 150.227 119.296 151.086 118.115C150.907 117.471 152.196 116.755 153.449 115.109C154.095 114.278 154.508 113.29 154.647 112.246C154.785 111.202 154.644 110.141 154.236 109.17C154.487 108.275 154.988 109.527 155.382 109.17C154.99 107.808 154.412 106.508 153.664 105.305C153.063 104.375 152.38 103.501 151.623 102.693L151.372 99.9022C151.372 102.049 149.403 100.081 147.792 98.2562C147.646 98.8932 147.539 99.5385 147.47 100.188C146.862 99.1507 146.325 98.0773 145.752 96.9681C145.752 96.5029 146.253 96.7534 146.897 97.1828L146.468 96.6102C146.468 95.2863 147.363 95.7515 148.186 96.3956L147.9 97.8268C148.831 98.4351 149.833 98.9003 150.406 98.5067C150.122 98.2506 149.901 97.9321 149.761 97.5763C149.976 97.5763 150.191 97.791 150.263 97.5763C150.334 97.3616 150.012 97.1828 149.547 96.7534L150.513 95.6442H150.012C149.906 94.2388 149.906 92.8273 150.012 91.4219C148.783 89.9467 147.885 88.225 147.378 86.3732C146.872 84.5213 146.769 82.5824 147.076 80.6874C147.721 82.1902 148.508 81.3315 149.582 81.6893C148.866 82.1902 148.759 83.1922 148.759 84.3014C148.877 85.4912 148.877 86.6897 148.759 87.8795C148.759 86.6272 149.439 86.9492 149.618 87.2712C149.321 85.8353 149.177 84.3722 149.189 82.906C150.048 83.228 150.012 82.1188 150.692 81.1169C148.723 81.4747 150.692 77.5387 150.692 75.6065C151.301 75.6065 151.695 76.3579 150.692 78.3974C152.769 76.6084 149.869 74.6046 151.981 72.7797C151.73 73.2807 151.516 73.5311 151.73 73.8531C151.73 72.4219 153.664 69.7741 153.771 70.7044L153.52 71.2053C154.487 69.5951 155.955 67.162 157.1 64.8362C158.246 62.5104 158.998 60.3277 158.425 59.7195C159.043 60.1886 159.565 60.7716 159.964 61.437C159.758 58.5127 159.094 55.639 157.995 52.9209C159.034 53.9228 162.828 52.1337 162.47 55.8908C163.288 54.5105 163.651 52.9085 163.509 51.3108C163.186 52.0622 161.361 52.742 161.396 51.8117C163.186 49.4143 162.47 50.1658 163.688 46.8381C163.688 47.9115 161.361 46.8381 161.253 45.2279C161.575 45.4784 163.258 44.8701 163.509 45.4784C162.761 44.1821 161.859 42.9807 160.824 41.9002C161.432 42.7947 162.542 41.6856 162.828 40.6121C162.828 40.8626 162.47 39.968 162.184 38.8946C161.866 37.957 161.471 37.0474 161.003 36.1752L161.289 38C161.094 37.1929 160.705 36.4453 160.156 35.8219C159.607 35.1985 158.915 34.718 158.139 34.4219C156.707 33.8288 155.467 32.8503 154.559 31.5951C155.167 31.5951 157.423 31.2015 156.277 29.162L152.017 28.6253C150.128 28.4164 148.295 27.8582 146.611 26.9793V26.049L144.105 24.7251C147.898 24.8287 151.633 25.6799 155.096 27.2298C154.38 25.6554 155.346 26.4068 153.628 24.5104C153.413 23.4727 155.167 25.0113 155.668 25.5838C154.458 23.9814 153.167 22.4409 151.802 20.968C151.193 21.9699 147.649 18.8927 147.148 19.7872C149.035 20.8179 150.864 21.9527 152.625 23.1865C151.945 24.1526 147.721 23.1865 144.821 20.3955C144.32 19.3936 146.754 19.2147 146.969 18.8569C145.625 18.3938 144.402 17.6357 143.389 16.6384C143.998 16.6384 144.57 16.9605 145.143 17.1752C143.604 15.4219 141.277 16.2091 139.702 13.8117C138.986 13.2034 138.198 10.9491 137.661 11.4859C137.773 12.657 137.562 13.8365 137.051 14.8962C136.54 15.9559 135.748 16.8555 134.761 17.4972C134.582 17.2467 131.539 13.9191 130.931 12.8814C130.179 11.1997 134.153 11.7722 133.508 10.3409C133.293 10.5914 132.363 10.3409 132.005 10.3409C131.289 9.66104 132.864 9.66103 130.931 8.76649C130.036 9.66103 127.172 6.69114 129.57 9.19585C127.601 8.58756 127.744 7.94353 125.489 7.04899C125.847 8.05087 122.41 8.65913 120.441 8.19397C120.692 7.97928 120.441 7.4068 120.262 7.15633C118.436 6.22601 116.897 5.76082 115.465 5.11676C113.969 4.46385 112.425 3.92559 110.847 3.5066C110.56 3.14878 108.806 2.43317 109.701 2.07535C108.939 2.31859 108.132 2.39187 107.338 2.29004C105.226 0.751428 109.988 2.64783 108.52 1.03766C108.198 1.75329 105.226 1.32391 103.472 1.5386C103.83 2.61205 107.303 2.50472 109.093 2.39738C108.77 3.93598 105.513 4.6516 101.646 4.90207C98.4958 4.90207 100.393 3.79289 99.8562 3.93601C93.985 2.93413 94.701 6.22599 89.9396 4.90207C88.0064 3.86441 89.9396 2.96989 89.4026 2.29004C92.016 1.968 93.3764 3.00566 95.0948 3.00566L92.9826 2.50472C94.1547 2.18695 95.3904 2.18695 96.5626 2.50472C94.5309 1.97085 92.4333 1.72988 90.3334 1.7891C87.3978 1.7891 84.14 1.968 81.7772 1.7891C80.9896 2.18269 79.5934 2.68362 80.3094 3.00566L81.7414 2.68363C83.1376 3.3277 79.128 4.04331 80.9896 4.22222C78.9337 5.30877 76.6554 5.90866 74.3308 5.97553L73.6864 4.97365C73.6864 5.29569 75.5122 5.33147 76.2282 4.97365C75.19 5.51038 71.8606 4.18644 70.894 5.79661L72.8988 6.19021C70.9665 7.4454 68.8179 8.33108 66.5622 8.80225C67.851 9.62523 67.0992 8.55181 68.9966 9.44635C67.2424 8.12243 74.9394 8.48026 72.3618 7.22791C74.295 8.37292 75.4048 7.2279 77.8034 8.33713C77.8034 7.97931 76.9084 7.72881 78.9132 7.69303C79.0276 7.5565 79.1601 7.43616 79.307 7.33525V7.33525C78.9207 7.27653 78.5532 7.12956 78.233 6.90583C79.128 5.97551 82.2784 5.58193 83.3524 5.18833C84.4264 4.79474 82.887 5.61772 83.3524 5.97553L84.9276 5.25991C85.1424 6.04711 88.1138 6.4407 85.3572 7.04899H87.8274C89.3382 7.48578 90.9248 7.59555 92.4814 7.37101C93.627 7.5857 95.4528 6.58381 94.4146 7.19209C95.7103 7.04827 97.0131 6.9766 98.3168 6.97741V7.19209C100.178 7.51413 102.219 7.19213 104.224 7.51417C106.332 7.68322 108.381 8.29273 110.238 9.30325C111.815 9.47129 113.359 9.86906 114.821 10.484L115 11.2712C116.682 11.2712 119.296 13.597 120.191 13.2034C120.62 14.42 122.374 15.2072 124.308 16.0301C126.116 16.7217 127.854 17.5844 129.499 18.6064L130.036 17.8908C131.754 18.9285 133.616 19.7157 135.764 20.7891L136.086 20.0377C138.27 20.7176 140.274 23.6158 142.888 25.7985C142.53 25.7985 141.921 25.2618 141.563 24.7609C143.461 28.5895 148.723 29.4125 150.084 33.098C150.691 33.4813 151.126 34.0836 151.301 34.7797V34.7797V35.066L151.659 36.2825C151.639 35.9242 151.554 35.5725 151.408 35.2449C151.874 35.7458 152.482 36.533 153.127 37.2844L152.59 38.0716V38.2505C152.804 39.2166 153.341 38.7157 153.664 37.9643C154.022 38.3221 154.451 38.6083 154.738 38.8588C153.735 40.1469 156.277 41.0415 155.167 42.437C155.597 42.6159 156.026 43.7251 156.563 44.8343C157.1 45.9435 157.387 47.0528 158.174 47.3033C158.174 47.3033 157.924 47.6253 157.852 47.1243C157.672 48.1662 157.672 49.2313 157.852 50.2731L156.707 50.6309C157.138 51.4527 157.486 52.3158 157.745 53.2072C156.742 54.4953 156.134 54.8174 155.74 53.2072C155.87 54.2471 155.809 55.3021 155.561 56.3202C155.335 57.2858 155.18 58.2663 155.096 59.2543L154.559 58.7891C154.057 59.7552 153.914 61.8305 153.055 62.1526C150.943 64.1888 149.252 66.6204 148.079 69.3089C146.146 72.8871 144.499 77.0736 142.959 80.437C145.286 79.5783 141.277 83.5142 142.959 84.0152C142.422 84.373 141.993 85.4464 141.742 84.0152C141.563 88.0585 140.632 90.2411 142.243 92.8174C141.814 93.3541 141.456 92.0659 141.205 92.5311C140.955 92.9963 141.814 93.712 141.599 94.1771C141.384 94.6423 141.062 93.6762 140.74 93.0679C141.563 97.147 143.317 97.0038 144.714 96.9323C144.558 97.6533 144.63 98.4048 144.918 99.0838C145.206 99.7627 145.698 100.336 146.325 100.725C146.074 101.477 146.002 102.657 145.072 100.725C145.465 102.049 147.076 107.881 148.043 107.703C148.041 108.339 148.228 108.961 148.58 109.492C148.883 110.893 148.808 112.35 148.365 113.714L148.687 113.284C148.8 113.378 148.891 113.496 148.953 113.629C149.015 113.762 149.048 113.907 149.048 114.054C149.048 114.201 149.015 114.345 148.953 114.478C148.891 114.611 148.8 114.729 148.687 114.823C148.365 115.288 147.685 115.61 147.112 116.326C142.78 118.473 145.859 118.079 141.205 119.904L141.921 120.441C142.566 122.301 137.697 121.872 135.62 124.019H136.73C135.728 125.414 131.718 124.019 130.25 124.591C129.892 124.591 130.608 124.09 130.966 123.768C126.885 124.77 130.966 125.021 128.496 126.703C127.709 126.416 128.496 124.985 126.527 125.844C125.453 125.844 122.195 130.352 119.152 130.603C119.904 130.603 120.656 130.853 119.546 131.819C117.649 132.929 113.496 132.893 112.386 135.04C112.214 135.109 112.021 135.109 111.849 135.04C110.525 136.077 107.231 137.938 106.658 139.083C104.009 137.079 97.7798 144.772 96.67 142.268L92.0518 144.486V144.2C91.2642 144.486 90.6556 144.772 90.1186 145.023L89.4384 145.452L89.1162 145.774C88.761 146.195 88.4491 146.65 88.1854 147.134C87.72 147.134 88.1854 146.704 88.1854 146.526C86.827 146.659 85.5593 147.267 84.6054 148.243C84.2855 148.074 83.9853 147.87 83.7104 147.635L84.498 146.418C84.2116 146.418 84.498 144.915 84.498 143.699V142.768C84.5312 142.232 84.5312 141.695 84.498 141.158C84.4412 139.945 84.2368 138.744 83.8894 137.58C83.8894 137.58 84.1758 137.58 84.3548 138.045C82.887 132.821 85.8942 125.235 82.5648 123.518L81.5624 119.94C81.5624 124.484 80.1304 119.332 79.7008 121.228C79.4144 119.439 80.4526 116.576 80.7032 118.759V119.117C82.4216 119.833 81.0612 113.463 82.2068 113.535C82.0313 109.18 82.127 104.818 82.4932 100.475C82.7077 96.5113 83.3193 92.5795 84.319 88.7383L82.8154 89.2034C83.0468 88.3668 83.3217 87.5427 83.6388 86.7345C84.14 86.1978 84.8918 86.3052 84.2474 87.9154C85.214 87.3071 84.7128 85.0528 84.5696 84.8381C85.6794 83.4068 85.8942 83.9435 85.7868 84.8381C85.6794 85.7326 85.572 86.3767 85.7868 85.9831C85.968 85.5671 86.1711 85.1611 86.3954 84.7666L86.0732 84.9454C86.0525 83.4051 86.5295 81.8993 87.4336 80.6517C88.4002 78.8626 88.5792 79.9361 88.9014 79.1846C88.9014 79.1846 88.9014 78.9342 89.2236 77.9681C89.5324 76.5198 89.7121 75.0469 89.7606 73.5669L88.6508 75.2128C88.2928 73.3522 88.6508 71.4558 87.6126 73.2449C88.521 70.5594 88.6818 67.6776 88.078 64.9078C87.8738 63.2204 87.5143 61.5555 87.004 59.9341C86.6193 58.9968 86.3197 58.0268 86.109 57.0358C85.2291 56.0626 84.4271 55.0217 83.7104 53.9228C82.887 52.9209 82.171 51.7402 81.2044 50.5952C81.5624 51.275 80.918 52.3127 79.3786 50.3805C80.56 49.9511 79.9872 48.8418 78.9848 47.6253C77.8032 46.5521 76.8531 45.2493 76.1924 43.7967C76.622 44.7986 75.0826 43.7966 73.6148 42.8663C72.147 41.936 70.715 41.4351 71.5026 42.8663C69.82 41.614 71.8606 42.0434 70.7866 40.7195C65.9536 38.9662 60.9416 35.2091 54.7482 33.9209C54.5692 34.2072 55.4284 34.9586 54.0322 35.066L51.204 32.8117C49.951 32.8117 49.772 34.3145 47.624 32.8117C47.9104 33.1337 48.3042 33.5989 47.624 33.5631C41.6471 32.0463 35.4266 31.7421 29.3302 32.6686C23.0195 33.5588 16.7761 34.8738 10.6426 36.6045C12.5042 36.3541 11.4302 36.9266 10.2846 37.5707C11.108 37.2844 10.6426 38.2505 11.0006 38.5368C9.25373 39.0399 7.54329 39.6615 5.88116 40.3974C5.88116 41.8644 1.47776 43.9756 1.97896 45.2279L2.98137 44.0471C2.30117 46.4087 7.16997 44.2976 7.99337 45.9078C8.38717 44.6196 9.92657 44.1902 11.5734 43.7609C13.3466 43.4968 14.9563 42.5775 16.0842 41.1846C16.9434 41.1846 15.6546 41.9718 16.0842 42.1865C16.5854 41.1488 17.5878 40.5405 19.6642 40.2543L19.4852 40.5047C24.1713 39.0502 29.1091 38.5872 33.9842 39.1451L33.483 38.322C34.3005 38.3248 35.1073 38.5081 35.8458 38.8588C37.4568 37.5349 31.9078 38.8588 33.304 37.4275C35.1744 38.1447 37.1745 38.4616 39.1752 38.3579C41.5738 38.3579 43.865 38.8588 44.3662 39.8249C46.4784 40.1827 43.865 38.7514 45.9772 39.1092L46.4068 38.5725L47.0512 38C48.4474 38.2863 48.9844 39.1093 48.9486 39.5744C48.5088 39.5183 48.0637 39.5183 47.624 39.5744C49.2708 40.5405 52.636 40.3974 53.173 40.8268C52.5644 40.5405 51.9558 40.2543 51.2756 40.0038C57.2769 41.361 63.1027 43.402 68.6386 46.0867V45.5499C69.9019 45.9359 71.039 46.6525 71.9322 47.6253C72.8713 48.6453 73.8887 49.5904 74.9752 50.452V50.452C76.0597 50.8911 77.0102 51.6067 77.7318 52.5273C77.159 52.2411 77.338 52.7778 77.517 53.3145C77.696 53.8513 77.517 54.3164 77.0516 53.9228C80.202 56.9285 78.8058 55.1752 81.5624 57.0358L81.276 57.9304C81.8123 58.2207 82.283 58.6183 82.6587 59.0985C83.0344 59.5787 83.3071 60.1311 83.4598 60.7213C82.4216 59.1112 82.887 62.3673 81.5982 60.7213C81.5209 61.7065 81.6056 62.6976 81.8488 63.6554C82.0083 64.5153 82.2235 65.3639 82.4932 66.1959C82.8268 66.7962 82.9806 67.4797 82.9361 68.165C82.8917 68.8502 82.6509 69.5081 82.2426 70.0603C84.2116 72.243 82.9586 65.6592 83.424 66.9115C83.8894 65.7665 84.9634 68.7365 84.856 70.4897C84.7486 72.243 82.7438 73.5669 82.0994 76.3937C82.0994 76.1074 82.0994 76.0716 82.0994 75.7854C81.3834 76.7157 82.0994 77.7891 80.3452 79.0415C80.6674 80.5801 78.8058 81.5104 79.9156 82.6196C80.456 81.3934 81.0655 80.1987 81.7414 79.0415C81.3433 80.2097 81.0322 81.4056 80.8106 82.6196C80.4924 84.1935 79.9751 85.7205 79.2712 87.1639C79.0922 86.3627 79.0922 85.5319 79.2712 84.7307C78.412 85.7326 78.8416 86.9492 78.1256 87.9869C76.801 87.3786 79.128 82.7985 79.8798 80.0075C78.5552 80.7947 78.4478 85.2317 77.5886 83.2995C78.6626 85.84 75.8702 87.9154 76.9084 91.2788L76.085 90.9568C76.2783 91.7528 76.3626 92.5713 76.3356 93.3899L75.4048 91.6366C76.0134 94.2844 74.1876 96.3597 74.5814 98.7929C74.7962 93.9266 75.6554 97.7553 76.3714 95.7515C77.2664 101.655 73.9728 99.0792 74.3666 105.663C74.3666 104.768 74.8678 102.335 75.2616 103.731C75.1162 104.96 74.803 106.164 74.3308 107.309C74.6172 111.603 75.19 106.629 75.7628 108.454C74.7604 109.921 76.2282 110.565 76.622 112.426H75.727C75.369 117.328 77.5886 113.642 77.1232 118.043L75.8344 116.254L76.2282 118.509L75.2258 118.079C75.9076 119.894 76.105 121.854 75.7986 123.768C76.3714 123.16 77.3738 123.983 77.5528 126.13C77.1232 127.633 76.6578 125.379 76.98 128.384C76.565 128.082 76.2767 127.637 76.1709 127.135C76.0652 126.632 76.1493 126.109 76.4072 125.665C76.1208 125.665 75.7986 125.021 75.5122 124.878C75.2797 126.571 75.3525 128.291 75.727 129.959C75.6653 129.568 75.6653 129.169 75.727 128.778L77.2306 133.107C76.98 133.823 76.6578 133.286 76.3714 132.75C76.3714 133.644 76.98 134.217 77.159 135.541C76.4072 135.254 75.6912 135.362 75.2258 133.537L76.3356 137.688C76.0492 137.974 75.6554 139.906 75.369 139.369C75.3428 140.018 75.4029 140.668 75.548 141.301L75.8344 142.375V142.947L76.0492 143.913C76.6793 146.493 77.0393 149.131 77.1232 151.785C77.4007 152.271 77.5829 152.806 77.6602 153.36C77.6602 155.149 77.6602 156.938 77.875 158.977C81.0298 157.985 84.0483 156.602 86.8608 154.863C87.9221 154.916 88.9856 154.916 90.047 154.863C92.2666 153.753 91.0136 153.861 90.2618 153.718C89.51 153.574 89.2594 153.217 92.3382 151.642C95.417 150.068 93.8418 152.107 95.0232 152C96.5698 150.004 98.8021 148.653 101.288 148.207C100.531 148.475 99.7525 148.678 98.9612 148.816ZM128.747 133.859C128.246 134.36 127.351 135.433 126.706 135.183C126.921 133.966 127.673 134.145 128.747 133.859ZM148.043 93.3541C148.22 93.6398 148.336 93.9585 148.385 94.2907C148.435 94.6229 148.416 94.9617 148.329 95.2863C148.069 94.6778 147.982 94.009 148.079 93.3541H148.043ZM89.7248 6.04711C91.1926 6.36914 90.7272 6.36914 89.7606 6.04711H89.7248ZM86.8966 5.72509C86.6102 5.72509 86.6102 5.97551 86.8966 6.11863C87.183 6.26176 87.72 5.83241 88.436 5.86819C88.1496 5.6535 87.7558 5.5104 86.9324 5.72509H86.8966ZM88.6866 77.5029C88.5559 77.7257 88.4124 77.9407 88.257 78.1469C88.5076 76.4652 88.5792 76.9662 88.7224 77.5029H88.6866Z" fill="#4A2B0E"/>
<path d="M150.728 98.2205C150.658 98.3892 150.531 98.5283 150.37 98.614C150.585 98.7929 150.728 98.7572 150.728 98.2205Z" fill="#4A2B0E"/>
<path d="M132.756 9.33905C133.105 9.60474 133.386 9.94772 133.58 10.3409C133.723 10.162 133.58 9.94734 132.756 9.33905Z" fill="#4A2B0E"/>
<path d="M72.0396 8.76653L73.7938 8.22983C73.2504 8.34068 72.6903 8.34068 72.1469 8.22983C72.1469 8.22983 72.6124 8.65918 72.0396 8.76653Z" fill="#4A2B0E"/>
<path d="M55.0705 7.26365C54.8199 7.44256 54.4977 7.47834 54.2471 7.65725L54.4619 8.01508C55.5717 7.62149 56.2877 7.12052 55.0705 7.26365Z" fill="#4A2B0E"/>
<path d="M69.8557 6.36918C69.5693 5.68933 68.4595 6.08293 67.2065 6.36918H67.4213C67.2781 7.40685 68.5311 6.76278 69.8557 6.36918Z" fill="#4A2B0E"/>
<path d="M66.9201 6.36911C66.5352 6.49783 66.1399 6.5936 65.7387 6.65537C65.6671 7.19209 66.2399 6.72693 66.9201 6.36911Z" fill="#4A2B0E"/>
<path d="M83.3165 6.36915C82.7079 6.36915 82.9943 7.33527 82.6363 7.04901C82.2067 7.97933 86.6101 5.76087 83.3165 6.36915Z" fill="#4A2B0E"/>
<path d="M68.3521 4.07912L68.9965 4.86631L69.6051 4.04333L68.3521 4.07912Z" fill="#4A2B0E"/>
<path d="M78.8415 3.1488H76.6935C76.6935 3.1488 76.4787 3.39924 76.1565 3.50659C77.4811 3.39924 78.9131 3.43506 78.8415 3.1488Z" fill="#4A2B0E"/>
<path d="M76.1566 3.50659C75.59 3.5214 75.0313 3.64282 74.5098 3.86443C75.0661 3.78191 75.6162 3.66235 76.1566 3.50659V3.50659Z" fill="#4A2B0E"/>
<path d="M71.1802 3.29192L71.8604 3.39926L73.3282 3.18457L71.1802 3.29192Z" fill="#4A2B0E"/>
<path d="M101.503 3.47083H103.686C103.973 3.18457 103.364 2.89829 102.505 2.93407C101.646 2.96985 101.18 3.14879 101.503 3.47083Z" fill="#4A2B0E"/>
<path d="M94.7009 0.393599C95.0968 0.531057 95.4448 0.779475 95.7033 1.10922V0L94.7009 0.393599Z" fill="#4A2B0E"/>
<path d="M101.61 0.751382C101.861 0.46513 105.19 0.286253 102.147 0C101.861 0.286253 99.4621 0.25044 101.61 0.751382Z" fill="#4A2B0E"/>
<path d="M134.403 13.8475L133.866 13.5255L133.007 15.1357L134.403 13.8475Z" fill="#4A2B0E"/>
<path d="M160.716 32.5971C159.463 29.6988 159.463 32.597 158.317 29.9492C157.565 29.6272 159.248 32.0245 158.532 31.6309C159.821 32.9549 160.107 33.9568 160.716 32.5971Z" fill="#4A2B0E"/>
<path d="M158.532 31.6309C158.318 31.4162 158.031 31.2373 157.781 31.0226C158.018 31.2408 158.269 31.444 158.532 31.6309V31.6309Z" fill="#4A2B0E"/>
<path d="M2.48005 40.8625L0.833252 41.8287L2.12205 41.4708L2.48005 40.8625Z" fill="#4A2B0E"/>
<path d="M0.904666 44.0113L0.475063 43.6177C0.475063 43.6177 0.296063 43.403 0.475063 43.6177L0.904666 44.226C1.39993 44.8909 1.76438 45.6437 1.97866 46.4444C1.97866 46.9454 1.97867 46.4444 2.33667 46.4444C2.15767 46.4444 1.94286 46.8023 1.97866 46.7307C1.98472 46.3919 1.89807 46.0578 1.72806 45.7646L1.51326 45.371L1.19107 44.7627L0.833065 44.1902H1.01206L0.904666 44.0113Z" fill="#4A2B0E"/>
<path d="M134.296 133.573V133.286C133.902 133.286 133.508 133.286 132.721 133.68L134.296 133.573Z" fill="#4A2B0E"/>
<path d="M112.171 143.77L112.529 143.591L111.384 142.983L112.171 143.77Z" fill="#4A2B0E"/>
<path d="M94.1996 153.431C94.9872 153.109 95.7748 152.501 96.5624 152.215C94.9872 153.074 93.4478 152.322 94.1996 153.431Z" fill="#4A2B0E"/>
<path d="M0.47552 51.4897L0.15332 51.5613L1.08412 51.7402L0.47552 51.4897Z" fill="#4A2B0E"/>
<path d="M1.97887 54.7816C3.01707 53.9228 1.22707 53.6723 1.37027 52.8852L1.58507 52.6705L0.546875 52.8494C1.01228 53.4935 2.08627 54.1375 1.97887 54.7816Z" fill="#4A2B0E"/>
<path d="M0.296387 57.7157C0.690187 57.3937 0.869187 57.8946 0.296387 57.2148C0.337318 57.3793 0.337318 57.5512 0.296387 57.7157V57.7157Z" fill="#4A2B0E"/>
<path d="M0.188899 57.3579C-0.0259006 57.0359 -0.0975006 57.7515 0.188899 57.3579V57.3579Z" fill="#4A2B0E"/>
<path d="M1.15532 58.8249L0.546722 58.5744C0.331922 58.7891 0.546721 59.2185 0.188721 59.1469C0.618321 59.5047 0.868922 59.2901 1.15532 58.8249Z" fill="#4A2B0E"/>
<path d="M2.22947 58.8965L1.94307 58.7176C1.94307 58.7176 1.83567 58.8965 2.22947 58.8965Z" fill="#4A2B0E"/>
<path d="M1.33472 58.3955L1.94332 58.7176C1.94332 58.7176 2.48032 58.3956 1.69272 58.7176C2.05072 58.4314 1.69272 58.5029 1.33472 58.3955Z" fill="#4A2B0E"/>
<path d="M1.40616 58.0019C1.40616 57.6441 1.40616 57.2505 2.15796 57.501C1.58516 56.7138 0.833364 57.2147 1.40616 58.0019Z" fill="#4A2B0E"/>
<path d="M3.44687 54.388L3.62587 53.8871H3.08887C3.19627 53.8155 2.90987 54.5669 3.44687 54.388Z" fill="#4A2B0E"/>
<path d="M1.87109 61.9737C2.12169 61.9737 2.44389 61.5085 2.76609 61.3296L2.3365 61.1149C2.2291 61.3654 2.22909 61.759 1.87109 61.9737Z" fill="#4A2B0E"/>
<path d="M2.7666 61.3296L3.411 61.6517C3.4468 61.1865 3.0172 61.1865 2.7666 61.3296Z" fill="#4A2B0E"/>
<path d="M3.55403 58.3955L2.30103 57.9661L3.66143 58.5386L3.55403 58.3955Z" fill="#4A2B0E"/>
<path d="M2.73065 63.9059H2.01465L3.12445 64.0132L2.73065 63.9059Z" fill="#4A2B0E"/>
<path d="M3.44656 65.1583C2.87376 65.1583 2.76636 65.8024 2.37256 65.695C2.72484 65.9988 3.16249 66.1863 3.62555 66.2317C3.23175 66.0528 3.16016 65.7308 3.44656 65.1583Z" fill="#4A2B0E"/>
<path d="M4.306 66.4464L3.5542 66.2317C3.78496 66.36 4.04222 66.4335 4.306 66.4464Z" fill="#4A2B0E"/>
<path d="M3.6974 62.582C3.56442 62.6592 3.44834 62.7623 3.35609 62.8852C3.26383 63.0082 3.19728 63.1485 3.1604 63.2977L3.769 62.7609L3.6974 62.582Z" fill="#4A2B0E"/>
<path d="M3.44653 60.0415C3.98353 60.0415 4.66373 60.5783 4.98593 59.7195C4.48473 59.6837 4.30573 60.0415 3.44653 60.0415Z" fill="#4A2B0E"/>
<path d="M4.41336 61.8663V61.2581C4.23436 61.2581 4.01955 61.5801 3.73315 61.5086L4.41336 61.8663Z" fill="#4A2B0E"/>
<path d="M4.77142 62.0453L4.44922 61.9021L4.48502 62.1168L4.77142 62.0453Z" fill="#4A2B0E"/>
<path d="M4.55624 65.2298C4.70996 65.2788 4.85242 65.3577 4.97534 65.4622C5.09826 65.5666 5.19918 65.6944 5.27224 65.8381C5.27727 65.4922 5.20383 65.1497 5.05744 64.8362C4.84264 64.872 4.37724 64.9078 4.55624 65.2298Z" fill="#4A2B0E"/>
<path d="M4.23413 64.0138C4.23413 64.0138 4.34333 63.941 4.23413 64.0138V64.0138Z" fill="#4A2B0E"/>
<path d="M6.48999 68.7007L6.63319 68.6291L6.48999 68.6649V68.7007Z" fill="#4A2B0E"/>
<path d="M5.1651 64.7289C5.1651 64.4426 4.98611 64.371 4.69971 64.3353C4.85779 64.4709 4.98064 64.6428 5.05771 64.8362C5.05771 64.8362 5.2367 64.7646 5.1651 64.7289Z" fill="#4A2B0E"/>
<path d="M4.95029 67.1978C5.05863 67.0228 5.13161 66.8283 5.16509 66.6252C5.02189 66.7326 4.77129 67.1978 4.95029 67.1978Z" fill="#4A2B0E"/>
<path d="M4.12757 64.1922C4.12757 64.1922 4.05477 64.3013 4.12757 64.1922V64.1922Z" fill="#4A2B0E"/>
<path d="M4.12695 64.1922H4.69975C4.59402 64.0659 4.45876 63.9676 4.30595 63.9059L4.12695 64.1922Z" fill="#4A2B0E"/>
<path d="M11.3945 67.663C10.7143 67.9135 9.85508 67.663 10.3205 66.6969C9.60448 66.3749 7.59968 67.6273 6.74048 68.5934C6.93396 68.5074 7.148 68.4786 7.35733 68.5103C7.56666 68.542 7.76254 68.6329 7.92188 68.7722C8.17248 68.4144 8.24408 67.1978 9.03168 67.4125C9.81928 67.6272 9.03168 68.0924 8.85268 68.5934C9.53288 67.9493 10.3921 69.0227 11.5377 68.3429L10.6069 67.9135C10.6069 67.9135 11.2871 67.9135 11.3945 67.663Z" fill="#4A2B0E"/>
<path d="M6.23911 67.5557L6.0601 67.3767C6.0601 67.6629 5.8453 67.9492 5.4873 68.4859C5.63869 68.5563 5.80364 68.5928 5.97061 68.5928C6.13757 68.5928 6.30252 68.5563 6.45391 68.4859L6.09591 67.3767L6.23911 67.5557Z" fill="#4A2B0E"/>
<path d="M5.63046 66.3749C6.41806 66.3749 6.91926 66.6611 7.56366 65.9813C7.24146 65.373 6.77606 65.9813 6.31066 65.5519C6.91926 66.518 5.77366 65.5519 5.70206 66.3391C5.52085 66.2088 5.37354 66.037 5.27246 65.8381C5.30985 66.0632 5.30985 66.2929 5.27246 66.518H5.55886C5.55886 66.8758 5.37986 66.518 5.27246 66.518L6.13166 67.4125C6.06984 67.0251 5.89557 66.6643 5.63046 66.3749V66.3749Z" fill="#4A2B0E"/>
<path d="M7.02672 59.5406C7.02672 59.5406 7.02673 59.5406 6.84773 59.5406C6.66873 59.5406 7.02672 59.6837 7.02672 59.5406Z" fill="#4A2B0E"/>
<path d="M6.59708 60.0415C6.59708 60.0415 6.16748 60.0415 6.13168 59.791C6.09588 59.5405 6.45388 59.7911 6.66868 59.5048C6.88348 59.2186 5.95268 59.2185 5.80948 59.8626C5.68821 60.423 5.40136 60.9341 4.98608 61.3296C5.56628 60.9572 6.10618 60.5255 6.59708 60.0415V60.0415Z" fill="#4A2B0E"/>
<path d="M6.31055 63.2261L7.06235 63.9417L7.45615 63.2618H7.09815C7.02655 62.8682 6.63275 63.1903 6.31055 63.2261Z" fill="#4A2B0E"/>
<path d="M6.20353 68.9511L5.38013 69.1658L6.66893 69.2016L6.20353 68.9511Z" fill="#4A2B0E"/>
<path d="M6.74035 70.0603L6.09595 70.275L6.59715 70.4181L6.74035 70.0603Z" fill="#4A2B0E"/>
<path d="M20.9529 131.962L20.6665 132.213C20.8455 132.106 20.9887 131.998 20.9529 131.962Z" fill="#4A2B0E"/>
<path d="M12.6112 98.0415C11.931 98.4709 10.9286 98.9361 11.7162 98.8645H12.5038C12.4494 98.8067 12.4085 98.7374 12.3841 98.6619C12.3598 98.5863 12.3524 98.5063 12.3627 98.4276C12.373 98.3489 12.4006 98.2735 12.4436 98.2067C12.4865 98.14 12.5438 98.0835 12.6112 98.0415V98.0415Z" fill="#4A2B0E"/>
<path d="M16.9072 118.974H17.122L16.406 118.652L16.9072 118.974Z" fill="#4A2B0E"/>
<path d="M20.0936 119.367L19.5566 119.904C19.77 119.763 19.9527 119.581 20.0936 119.367V119.367Z" fill="#4A2B0E"/>
<path d="M31.2991 137.043L31.9793 136.507C31.5497 136.256 31.5497 136.721 31.2991 137.043Z" fill="#4A2B0E"/>
<path d="M11.287 81.5105C11.1306 81.7703 11.0442 82.0661 11.0364 82.3692C11.3944 81.8683 11.9314 81.5105 11.287 81.5105Z" fill="#4A2B0E"/>
<path d="M15.7976 138.546C16.1556 138.546 16.3346 138.546 16.442 138.367C16.5494 138.188 15.905 138.367 15.7976 138.546Z" fill="#4A2B0E"/>
<path d="M11.2151 83.1206C11.2303 83.0619 11.2303 83.0003 11.2151 82.9416C11.118 82.864 11.0388 82.7662 10.9832 82.655C10.9276 82.5438 10.8968 82.4219 10.8929 82.2976C10.6065 82.6554 10.6065 82.9775 11.2151 83.1206Z" fill="#4A2B0E"/>
<path d="M66.7053 147.957C66.7053 147.957 66.7769 147.921 66.7053 147.957V147.957Z" fill="#4A2B0E"/>
<path d="M78.9487 155.042H78.4475C78.4475 155.042 78.6265 155.149 78.9487 155.042Z" fill="#4A2B0E"/>
<path d="M16.406 84.6956C16.406 84.6956 16.5152 84.6228 16.406 84.6956V84.6956Z" fill="#4A2B0E"/>
<path d="M8.45856 74.3541C8.43048 74.4838 8.43048 74.618 8.45856 74.7477C8.47717 74.6171 8.47717 74.4847 8.45856 74.3541V74.3541Z" fill="#4A2B0E"/>
<path d="M8.42313 75.0339C8.38825 74.8929 8.38825 74.7456 8.42313 74.6046V75.0339Z" fill="#4A2B0E"/>
<path d="M46.4067 147.742C46.9079 147.635 46.7647 147.671 46.4067 147.742V147.742Z" fill="#4A2B0E"/>
<path d="M20.7025 104.912L20.6667 104.876L20.6309 104.947L20.7025 104.912Z" fill="#4A2B0E"/>
<path d="M21.3469 105.878C20.3803 105.448 20.5235 105.234 20.7025 104.912L18.4829 105.198L21.3469 105.878Z" fill="#4A2B0E"/>
<path d="M25.6425 134.503L25.4277 133.573C26.6807 132.964 26.9671 133.573 26.9313 132.463C25.6425 134.503 24.6043 131.39 23.3513 133.43V132.785C23.3513 132.785 23.3513 132.785 23.6377 132.785C23.6377 131.354 22.1699 133.966 21.4897 133.143C21.4487 132.999 21.4543 132.845 21.5057 132.703C21.5571 132.562 21.6517 132.441 21.7761 132.356C21.5601 132.485 21.3323 132.592 21.0959 132.678C21.0959 132.678 21.3465 132.284 21.3823 132.356H20.7737C20.3169 132.586 19.8369 132.765 19.3417 132.893C19.3417 132.606 19.6639 132.893 19.8787 132.571H18.9837C19.4849 132.141 20.3441 131.963 20.4515 132.106C21.7761 131.032 21.0601 131.533 20.4515 131.605C19.8429 131.676 20.2725 131.605 20.7737 131.104H21.0959C22.4921 130.352 21.9909 130.495 22.8859 130.209C22.4205 130.209 20.6305 131.211 20.0577 131.175C20.2367 131.175 20.3441 130.925 19.8429 130.817C20.7021 130.639 20.5231 130.531 20.4873 130.352H21.6329C21.3107 130.352 20.7021 130.352 20.2009 130.102C20.2009 129.601 21.2391 129.422 21.9909 129.35C22.2415 128.349 20.5231 129.959 20.3799 128.778C20.8811 127.955 20.3799 127.347 19.8071 126.309C20.2009 125.772 20.4873 126.309 20.8095 126.309L19.9503 125.736C19.9503 125.736 20.2367 125.736 20.3799 125.736C20.5231 125.736 19.2343 125.737 18.9837 124.949C17.7307 124.699 20.8811 123.625 19.4849 122.695C19.8071 122.516 20.1651 122.695 20.6305 122.695C20.1577 121.894 19.5239 121.199 18.7689 120.656L19.5207 119.868C18.6615 120.441 17.6591 119.618 16.8715 118.938C16.5364 119.065 16.213 119.22 15.9049 119.403L15.2963 118.33C15.6643 118.263 16.044 118.326 16.3703 118.509L16.0839 118.33C16.5493 117.936 17.1937 118.33 17.8023 118.33L17.0863 118.688C17.7452 119.012 18.4647 119.195 19.1985 119.224C19.0757 119.13 18.9775 119.007 18.9121 118.866C19.0637 118.913 19.2259 118.913 19.3775 118.866C19.3775 118.866 19.3775 118.866 18.9837 118.544L20.2725 118.365H19.7713L20.5947 117.006C19.3417 115.968 17.4801 115.038 17.0147 113.428C17.9455 113.857 18.5541 113.428 19.6639 113.642C18.4467 114.036 20.0935 114.859 19.8429 115.682C19.8429 115.252 20.4873 115.36 20.7021 115.682L19.6639 114.179C20.5589 114.179 20.3441 113.857 20.7379 113.499C18.9479 113.75 19.5923 112.39 19.0553 111.746C19.6281 111.746 20.2367 111.746 20.0935 112.64C21.4539 111.853 18.0171 111.531 19.1627 110.78C19.1627 110.959 19.1627 111.03 19.4133 111.138C18.8763 110.708 19.4133 109.706 19.8429 109.921V110.136C20.0935 108.991 19.8429 106.558 18.4109 106.343C19.1205 106.393 19.826 106.488 20.5231 106.629L15.4395 104.446C16.7641 104.661 19.8787 103.981 20.5947 104.947C20.6794 104.87 20.747 104.776 20.7933 104.672C20.8396 104.567 20.8635 104.454 20.8635 104.339C20.8635 104.225 20.8396 104.111 20.7933 104.007C20.747 103.902 20.6794 103.808 20.5947 103.731C20.4157 103.91 18.6973 104.196 18.5899 103.945C20.0219 103.23 19.3417 103.445 20.5947 102.55C20.3083 102.836 18.2677 102.55 18.3393 102.049C19.0781 101.993 19.8201 101.993 20.5589 102.049L18.5541 100.904C19.3188 101.11 20.1323 101.034 20.8453 100.689C20.4515 100.689 20.8453 99.7233 20.6663 99.4012L20.2009 99.9022C20.4873 98.6141 17.3727 98.6498 17.4443 97.3975C17.8739 97.3975 20.0219 97.7553 20.2725 97.0755C18.1991 96.6909 16.2184 95.9136 14.4371 94.7854L15.0457 94.5707L14.3297 93.7478C16.4682 94.4307 18.5314 95.3299 20.4873 96.4314C20.9527 95.9305 21.2033 96.4313 21.1317 95.5726C21.6687 95.2863 21.9909 95.9304 21.9909 96.1451L22.3131 94.4276C21.1317 94.4276 21.0601 93.1753 20.0577 93.2826L21.3823 95.0717C20.1651 95.0717 17.8023 94.1056 18.0887 92.9248C18.5541 92.6028 20.2367 92.9248 20.6305 92.9248C20.2367 92.9248 19.8071 91.8156 20.0935 91.7082L20.7737 92.1734C21.2033 91.4936 19.1269 91.1715 20.2367 90.3127C20.2367 90.0264 21.7045 89.3824 21.0243 89.3824C18.854 89.9548 16.6054 90.1723 14.3655 90.0265C14.925 89.3361 15.5616 88.7117 16.2629 88.1658C17.3011 87.6291 18.8763 88.6667 19.8429 88.1658C19.5217 88.1377 19.2133 88.0268 18.9479 87.8438C19.1985 87.5575 19.9861 87.8437 19.7713 87.2712C18.5183 87.2712 19.7713 85.9473 18.6973 87.0566C18.3035 86.4841 18.8763 86.3768 18.6973 85.6611C18.139 85.7312 17.5723 85.688 17.031 85.5344C16.4898 85.3807 15.985 85.1196 15.5469 84.7666C15.8512 84.7367 16.1448 84.6388 16.4061 84.4803C16.4061 83.2279 16.7999 82.4766 16.4061 81.2958C16.6567 81.1169 16.8715 80.4728 17.4443 80.5801C17.1937 80.5801 16.7641 80.4013 16.6209 80.0792C17.4443 79.0773 17.0147 80.8306 18.0887 80.0792C17.4085 80.0792 16.8715 79.3993 16.2987 79.0415C15.2605 79.5067 16.2987 80.2224 16.9789 80.6517C16.2473 80.8169 15.488 80.8158 14.7569 80.6486C14.0257 80.4814 13.3415 80.1523 12.7545 79.6856C12.1459 78.9342 13.5779 79.0057 13.3273 78.8984C13.0051 77.1451 10.3559 78.3617 10.8929 76.6084C11.6089 75.7496 12.6829 75.9285 13.2915 75.5707C13.9001 76.179 13.1125 76.9304 13.2915 77.3956L13.5063 76.6442C13.9001 76.6442 14.2939 77.1809 14.1149 77.5388C14.7951 76.7873 13.2557 74.6046 13.5063 73.0302C13.1125 73.0302 12.6471 72.6366 12.3607 73.0302L12.6471 73.3881C12.0743 74.0322 11.3583 72.9944 11.2151 73.6743C10.4991 73.3165 9.46092 73.0302 9.56832 72.0999L10.4991 71.5274C10.2127 71.5274 10.1053 72.2789 10.4991 72.3862C9.92632 72.3862 11.3941 70.6328 9.92633 70.8475L9.46093 71.6705C8.70913 71.3127 7.34873 71.098 7.42033 70.275C6.52533 71.0264 7.59932 70.2751 6.59692 71.3485C7.92152 70.3466 7.24133 73.1018 8.53013 71.8137C7.34873 72.8513 8.27953 72.8871 7.34873 73.9963C7.67093 73.8174 7.92153 73.4954 7.95733 73.9963H8.35113C8.41932 73.7882 8.55876 73.6109 8.74493 73.4954C9.63993 73.4954 9.96212 74.3899 10.4633 74.533C10.4633 74.9266 10.0337 74.5331 9.74733 74.8551L10.4991 75.0698C9.78312 75.4276 9.60413 76.4295 8.85233 75.8212L9.10293 76.5368C8.81653 77.1093 8.85232 77.7176 9.28192 77.9681C9.71152 78.2186 10.4275 78.5049 9.71153 78.4333L10.5707 79.3635H10.3917C10.6065 80.4012 12.3965 81.2242 11.2151 82.6912C11.4111 82.819 11.5617 83.0056 11.6453 83.2241C11.7289 83.4426 11.7412 83.6819 11.6805 83.9079L11.0361 84.1583C11.3225 84.5519 10.5349 85.5538 11.2867 85.6611C9.49673 86.4125 11.1077 88.0227 10.8571 88.9173H11.7521C11.8224 89.595 12.0558 90.2457 12.4323 90.8137H13.2557C13.9359 91.4578 12.7903 92.5312 12.8977 93.5688C12.5755 93.5688 12.6471 93.2468 12.8977 93.0321C11.1077 94.356 14.3297 95.6442 12.8977 96.825C13.1841 97.0754 12.8977 97.2901 12.8977 97.5048L12.5039 97.8984L12.9335 97.5763C12.9611 97.8865 13.0724 98.1834 13.2557 98.4352H12.3965C12.1101 98.7214 12.8261 98.6857 13.4705 98.4352L14.1865 99.4012C12.7903 99.6517 14.6519 100.224 13.1841 100.618C13.9001 100.832 13.7211 102.228 15.2247 102.407C15.0457 102.407 14.9383 102.407 14.9383 102.407C14.7593 102.8 14.5803 103.158 14.9383 103.48H13.8285L15.2963 104.303C15.0571 104.561 14.7316 104.721 14.3817 104.754C14.0319 104.787 13.6821 104.69 13.3989 104.482C14.6877 105.663 13.9001 105.448 15.1531 106.45H14.4371C14.4371 106.808 15.4037 107.381 14.8309 107.595C13.4705 108.347 14.5445 111.495 13.2557 113.499C15.3679 113.177 12.2891 114.429 13.9001 114.573C13.3989 114.573 13.1125 114.93 12.6829 114.573C13.1483 115.61 11.8595 116.075 13.2199 116.863C12.7187 116.863 12.5039 116.612 12.1817 116.684C11.8595 116.755 12.6113 117.042 12.1817 117.149C11.7521 117.256 11.7521 116.97 11.5731 116.791C11.5731 117.864 13.1125 118.008 14.5445 118.151C13.8285 118.652 13.9359 118.938 14.8309 119.367C14.3655 119.546 13.8643 119.832 13.7211 119.153C13.7211 119.51 12.9693 121.407 14.1149 121.479C13.7927 121.479 14.1149 121.979 14.1149 122.087C14.028 122.656 14.028 123.235 14.1149 123.804L14.3297 123.59C15.6901 123.983 14.6161 124.305 14.7235 124.949C13.6853 126.416 15.1889 125.629 13.9717 127.06H14.8309C16.6925 127.275 13.6853 128.313 14.3297 129.207L14.8309 128.921C15.1531 129.172 14.5087 129.494 13.7569 129.78C13.0051 130.066 12.1101 130.746 11.9669 131.139C11.8237 131.533 11.7521 130.889 11.6447 130.639C10.4275 132.821 12.7545 130.853 12.9335 132.213C12.2891 132.607 11.3941 132.213 11.2151 133.215C11.0361 134.217 12.1459 134.968 12.1459 136.113C12.2949 136.168 12.4249 136.265 12.5202 136.392C12.6155 136.519 12.672 136.67 12.6829 136.829C12.7155 136.694 12.7757 136.568 12.8596 136.458C12.9435 136.348 13.0493 136.256 13.1704 136.189C13.2915 136.121 13.4252 136.08 13.5632 136.067C13.7011 136.054 13.8402 136.07 13.9717 136.113C14.7951 136.399 14.8309 138.689 16.6567 138.081C16.685 138.137 16.6998 138.198 16.6998 138.26C16.6998 138.322 16.685 138.384 16.6567 138.439C17.0863 138.439 17.7307 138.689 18.3035 138.761C18.5153 138.797 18.732 138.79 18.9411 138.741C19.1501 138.692 19.3472 138.601 19.5207 138.475C18.4109 141.266 23.1007 138.833 21.5971 141.194L23.0291 141.838L22.8501 142.089C23.6377 142.733 24.2821 142.339 24.8907 142.089C24.8907 142.375 24.8907 142.482 24.6401 142.625C25.6425 143.806 25.8573 143.806 27.5757 143.198L27.2535 144.021C27.7905 143.735 28.4349 146.275 30.1891 146.06C30.1581 146.128 30.1135 146.188 30.058 146.237C30.0026 146.286 29.9375 146.324 29.8669 146.347C31.7643 146.347 32.1581 150.354 34.1987 147.778L35.5233 147.563C34.4135 146.704 36.3467 146.418 36.0961 145.703C36.6331 145.703 36.8837 147.205 36.0961 147.027V146.848C35.0937 148.243 37.3491 148.172 36.7763 149.173C39.2465 150.318 41.2871 152.322 43.6857 153.431L43.9363 152.108L44.7597 152.537C44.7597 152.93 44.7597 153.61 44.0795 153.324C44.0795 154.111 45.3325 153.145 45.4399 152.895C46.4423 153.897 44.4017 154.111 44.7597 154.29H45.2967V154.075C45.9053 153.753 46.1559 153.253 46.9077 153.575C47.6595 153.897 46.9077 154.433 46.9077 154.541C46.9077 154.648 46.9077 154.72 47.1583 154.541C47.5304 154.729 47.9129 154.896 48.3039 155.042C48.3039 154.684 48.3039 154.29 48.3039 153.932C48.9483 153.61 49.3779 154.29 49.1989 153.038C49.1989 153.968 50.3445 154.541 51.5259 154.72C52.7073 154.898 53.7097 154.72 53.9603 155.185C54.2834 154.915 54.6692 154.731 55.0822 154.65C55.4951 154.569 55.9219 154.593 56.3231 154.72C56.1083 154.469 56.0367 153.324 56.7885 153.503C56.4305 155.9 58.1131 154.576 58.6859 156.294C58.1489 155.149 60.8339 156.043 59.9747 154.397C60.5833 154.612 59.9747 155.328 60.4759 155.865C61.9437 154.934 63.7695 156.437 65.5595 156.079C65.5595 155.757 65.2731 155.292 65.5595 154.791L66.5977 156.33C66.9557 156.33 66.8483 154.505 67.5285 155.578C67.5285 155.328 67.2779 154.934 67.5285 154.827C71.1085 156.187 74.6885 153.181 78.2685 155.757C77.7315 155.185 78.0537 155.113 78.2685 155.042C78.0179 155.042 78.2685 154.29 78.2685 153.861L79.8795 154.934C79.8795 153.718 81.4905 154.684 81.5263 153.539L81.0609 153.789C81.5979 152.43 79.9511 150.927 79.8795 149.209C79.3067 150.784 77.8747 147.134 76.9081 149.388C76.6217 149.03 76.9081 148.816 76.9081 148.422C76.6933 149.173 76.3353 149.352 75.6909 149.066C73.9009 149.388 73.0775 148.708 71.0011 148.35L71.2159 149.173C70.7863 149.173 70.6789 148.851 70.4641 148.637C70.0345 149.961 71.6813 148.637 71.3233 150.068C70.6431 148.386 68.2087 150.068 67.7433 148.279C67.0631 148.279 67.9581 149.245 67.3137 149.281L67.0989 148.744V149.424C66.6693 149.424 66.4187 148.672 66.3829 148.243C66.3471 147.814 66.6693 148.243 66.7767 148.064C66.2039 147.456 65.2015 148.315 64.9867 148.064L65.6669 148.35C63.8411 148.923 61.6215 148.35 59.9031 149.352V149.746C58.5785 150.497 58.8649 149.281 57.3971 149.746C57.287 149.926 57.1265 150.069 56.9355 150.158C56.7445 150.247 56.5316 150.278 56.3231 150.247C56.7169 149.782 55.6787 149.281 56.3231 148.816C54.8911 149.531 55.6071 149.424 54.5689 150.819V150.139C54.2109 150.676 54.1393 150.998 53.3875 151.106C54.0319 150.605 53.1011 150.068 53.8171 149.388C52.7431 147.778 51.5617 150.497 51.4543 148.243C50.3445 149.817 52.3493 149.531 51.8839 149.817C52.0629 150.497 51.0605 150.998 50.6309 150.712C50.2013 150.426 50.6309 148.279 49.4853 147.885C49.4853 147.885 49.4853 147.885 49.7359 147.885C49.5211 147.313 48.7335 148.172 48.4829 147.313C47.8027 148.207 47.8743 146.955 47.2299 148.243H48.4113C47.6953 148.243 46.4781 149.639 45.8337 148.494C46.0979 148.254 46.4004 148.06 46.7287 147.921C46.7287 147.42 46.0843 147.921 45.9411 147.456C46.5855 146.168 47.3373 147.706 48.3397 146.955C48.3397 146.275 46.8003 147.42 47.6953 146.132C46.4781 147.706 46.6929 145.452 45.3683 146.454L45.7621 145.703C45.7621 145.703 45.1535 146.025 44.9387 145.917L45.7979 145.094C44.7955 145.667 44.9745 143.806 44.1869 144.021C45.4041 144.558 44.1869 145.058 44.1869 145.881C42.1821 146.204 44.1869 143.448 42.3969 143.019C42.6833 143.019 43.0413 143.878 42.3969 144.057C42.09 143.696 41.9135 143.242 41.8957 142.768C40.6785 142.375 41.6809 143.627 40.9649 143.878C40.9649 142.768 40.2131 143.878 39.5687 143.878L39.9625 143.091C38.9601 141.945 38.8169 144.522 37.9577 143.341L38.9959 142.518H38.2799L38.8527 141.731C37.8503 142.053 37.7429 141.731 37.2417 141.194C37.2417 141.802 36.4183 142.554 35.8455 142.268C35.2727 141.981 36.4541 141.659 35.5949 141.337C36.0245 140.944 36.5257 140.443 36.5257 141.337C36.5257 141.123 36.9553 140.944 37.0985 140.729C37.2417 140.514 36.1319 140.085 35.8455 139.906C35.9034 139.948 35.9523 140.002 35.9891 140.063C36.026 140.125 36.0502 140.193 36.0603 140.264L34.3419 140.693C34.3419 140.335 34.5925 140.156 34.8431 140.013C35.0937 139.87 34.2345 140.228 33.8407 140.013C34.2703 139.441 34.5925 138.797 35.2369 138.761H33.7691C33.7691 138.439 33.7691 137.723 33.7691 137.58C33.3753 136.865 31.6211 137.938 31.0841 137.008C31.0236 137.069 30.9508 137.116 30.8706 137.147C30.7904 137.178 30.7045 137.191 30.6187 137.187C29.9385 136.614 29.7237 135.505 28.3633 135.827V134.467C27.5399 134.467 28.3633 136.22 26.8597 135.97C25.3561 135.72 27.1103 134.861 26.8597 134.396C26.1437 134.718 24.8191 135.433 24.5685 134.109C25.2487 134.181 25.3561 134.467 25.6425 134.503ZM20.0577 131.283C20.2367 131.283 20.8095 131.283 20.2725 131.283C19.7355 131.283 19.7713 131.605 20.0577 131.283ZM18.6257 117.578C18.8763 117.578 18.6257 117.936 18.4109 118.187C18.3759 118.076 18.378 117.956 18.4167 117.847C18.4554 117.737 18.5288 117.643 18.6257 117.578V117.578ZM9.92633 77.0736C9.78313 77.6103 9.85473 77.3956 9.92633 77.0736V77.0736ZM9.92633 76.1432C9.87016 76.1175 9.80911 76.1041 9.74733 76.1041C9.68555 76.1041 9.62449 76.1175 9.56832 76.1432C9.78312 76.1432 9.89052 76.3221 9.89052 76.5368C9.89052 76.7515 10.2127 76.3221 9.96213 76.1432H9.92633ZM47.0151 154.219V153.932C47.4447 153.861 47.2657 154.004 47.0509 154.219H47.0151Z" fill="#4A2B0E"/>
<path d="M19.7358 119.332H19.2346C19.3077 119.384 19.3953 119.412 19.4852 119.412C19.5751 119.412 19.6628 119.384 19.7358 119.332V119.332Z" fill="#4A2B0E"/>
<path d="M31.1919 137.151L31.2277 137.187L31.3351 137.043L31.1919 137.151Z" fill="#4A2B0E"/>
<path d="M20.1653 87.9869C20.0723 88.1515 19.9362 88.2876 19.7715 88.3805C19.8246 88.3862 19.8783 88.3799 19.9286 88.3621C19.979 88.3443 20.0247 88.3154 20.0624 88.2777C20.1002 88.2399 20.129 88.1942 20.1468 88.1439C20.1646 88.0936 20.1709 88.0399 20.1653 87.9869V87.9869Z" fill="#4A2B0E"/>
<path d="M7.02637 72.3861L7.45597 72.8155C7.45597 72.565 7.45597 72.4218 7.45597 72.2429C7.45597 72.064 7.02637 72.5292 7.02637 72.3861Z" fill="#4A2B0E"/>
<path d="M9.9622 65.7666C9.9622 65.7666 9.96221 65.7666 9.74741 65.7666H9.3894C9.5326 66.0886 9.9264 66.196 9.9622 65.7666Z" fill="#4A2B0E"/>
<path d="M9.38947 70.776C10.0339 70.4539 9.67587 70.2393 9.38947 69.9172C8.42287 70.2751 8.92407 70.5613 9.38947 70.776Z" fill="#4A2B0E"/>
<path d="M9.3178 69.8814C9.28398 69.7645 9.28398 69.6404 9.3178 69.5236C8.7808 69.6667 9.1388 69.7025 9.3178 69.8814Z" fill="#4A2B0E"/>
<path d="M9.10316 75.2844C9.10316 75.0339 8.20816 75.4991 8.45876 75.2844C7.52796 75.4275 9.92656 76.0358 9.10316 75.2844Z" fill="#4A2B0E"/>
<path d="M11.502 69.6309L10.7144 70.0961L11.4662 70.0245L11.502 69.6309Z" fill="#4A2B0E"/>
<path d="M12.0387 72.7798V72.0999C11.9857 72.1353 11.9234 72.1542 11.8597 72.1542C11.7959 72.1542 11.7336 72.1353 11.6807 72.0999C11.7881 72.4219 11.7881 72.8871 12.0387 72.7798Z" fill="#4A2B0E"/>
<path d="M11.6806 72.064C11.6806 71.8493 11.6806 71.7062 11.3584 71.6347C11.429 71.802 11.5397 71.9494 11.6806 72.064V72.064Z" fill="#4A2B0E"/>
<path d="M12.0747 70.3466L11.9673 70.5613L12.0747 71.0265V70.3466Z" fill="#4A2B0E"/>
<path d="M14.1868 79.292L14.6522 79.8645C14.9386 79.8645 15.0818 79.614 14.867 79.3993C14.6522 79.1846 14.4374 79.113 14.1868 79.292Z" fill="#4A2B0E"/>
<path d="M15.8331 76.5011C15.8331 76.7515 15.5467 76.8231 15.2961 77.0378L16.3701 76.6799L15.8331 76.5011Z" fill="#4A2B0E"/>
<path d="M16.7644 78.3974C17.0866 78.3974 17.91 79.1488 17.5878 78.3974C17.2656 78.3259 16.8002 77.6818 16.7644 78.3974Z" fill="#4A2B0E"/>
<path d="M17.2296 89.3108L17.1938 89.1319L15.4038 89.2751L17.2296 89.3108Z" fill="#4A2B0E"/>
<path d="M21.8837 98.5782C22.3133 97.7194 20.7739 98.5782 21.3109 97.6121C20.8813 97.4332 20.8813 98.2562 20.4875 98.0415C20.9529 98.5424 20.7023 98.8287 21.8837 98.5782Z" fill="#4A2B0E"/>
<path d="M20.4873 98.0415L20.2009 97.791L20.4873 98.0415Z" fill="#4A2B0E"/>
<path d="M81.0254 155.829L81.5982 156.187L81.2044 155.614L81.0254 155.829Z" fill="#4A2B0E"/>
<path d="M81.9202 154.398L82.135 155.543L82.3856 154.469C82.3856 154.469 82.2066 154.648 81.9202 154.398Z" fill="#4A2B0E"/>
<path d="M22.528 131.64L22.4206 131.533L22.0984 132.571L22.528 131.64Z" fill="#4A2B0E"/>
<path d="M28.5067 133.465C28.2919 133.465 27.9339 133.465 27.7549 133.215C28.1487 133.322 27.7549 134.646 28.5067 133.465Z" fill="#4A2B0E"/>
</svg>
