<svg width="169" height="165" viewBox="0 0 169 165" fill="none" xmlns="http://www.w3.org/2000/svg">
<path d="M139.889 88.2369C128.105 80.8447 108.704 73.8939 90.2145 77.2038C92.9741 52.3794 79.6449 30.0651 76.968 25.5967C71.8625 17.0737 64.8805 5.46137 53.3726 3.9719C36.8145 1.82046 23.1817 22.2592 19.2353 28.1619C8.19656 44.7115 -2.84219 76.0729 11.729 101.339C13.7711 104.869 25.8862 124.894 46.2803 125.087C48.0468 125.096 49.8107 124.948 51.5513 124.646C54.9733 145.636 77.7131 156.339 80.5556 157.745C110.553 171.261 140.441 149.47 145.408 145.774C153.08 140.258 163.512 132.562 164.284 120.95C165.361 104.207 145.629 91.8226 139.889 88.2369Z" stroke="#4A2B0E" stroke-miterlimit="10"/>
<path d="M164.284 120.867C163.511 132.479 153.08 140.175 145.408 145.692C140.44 149.36 110.553 171.178 80.5552 157.662C77.5472 156.283 52.1857 144.395 51.137 120.867C50.1987 100.539 68.1918 87.2439 71.3655 85.0097C94.1053 68.9842 123.938 78.2244 139.889 88.2369C145.629 91.8226 165.36 104.207 164.284 120.867Z" stroke="#4A2B0E" stroke-miterlimit="10"/>
<path d="M138.591 91.3813C138.012 90.9676 137.929 91.5744 137.791 91.6296C138.978 92.1536 138.647 91.2434 138.591 91.3813Z" fill="#4A2B0E"/>
<path d="M148.968 97.2012H148.637C149.216 97.3943 149.768 97.6701 150.348 97.8907L148.968 97.2012Z" fill="#4A2B0E"/>
<path d="M156.585 105.007C156.75 103.573 153.963 102.056 152.832 100.484V100.097H151.645C153.53 101.476 155.195 103.131 156.585 105.007V105.007Z" fill="#4A2B0E"/>
<path d="M157.799 110.772C157.965 110.331 158.654 111.627 157.302 109.641V109.889C157.413 110.082 157.578 110.303 157.799 110.772Z" fill="#4A2B0E"/>
<path d="M157.302 109.889C156.778 109.007 157.302 110.634 157.302 109.889V109.889Z" fill="#4A2B0E"/>
<path d="M159.427 114.082C159.214 113.691 158.965 113.322 158.682 112.978C158.682 113.309 158.875 114.413 158.682 114.054C159.151 115.24 159.289 114.937 159.427 114.082Z" fill="#4A2B0E"/>
<path d="M160.503 115.102L160.145 114.468C160.089 114.606 160.117 114.799 160.503 115.102Z" fill="#4A2B0E"/>
<path d="M159.427 113.061L160.145 114.385C160.145 114.165 160.531 114.027 159.841 113.778C160.145 113.889 159.814 113.668 159.427 113.061Z" fill="#4A2B0E"/>
<path d="M159.234 112.317C159.234 111.544 158.82 110.551 159.703 111.682C159.124 110.469 158.627 110.082 158.517 110.248C158.6 110.982 158.845 111.689 159.234 112.317V112.317Z" fill="#4A2B0E"/>
<path d="M157.744 104.786L157.247 103.711L156.364 103.131C156.806 103.462 157.551 105.062 157.744 104.786Z" fill="#4A2B0E"/>
<path d="M159.676 121.915C159.869 121.915 160.255 121.584 160.559 121.502C160.862 121.419 160.559 120.867 160.559 120.536C160.228 121.005 159.979 121.888 159.676 121.915Z" fill="#4A2B0E"/>
<path d="M160.559 121.502C160.6 121.997 160.6 122.495 160.559 122.991C161.055 121.722 160.752 121.336 160.559 121.502Z" fill="#4A2B0E"/>
<path d="M161.635 115.075C161.111 114.303 160.669 113.558 160.145 112.841C160.697 113.723 161.249 114.606 161.745 115.599C161.723 115.421 161.686 115.246 161.635 115.075Z" fill="#4A2B0E"/>
<path d="M158.047 126.853V125.915C158.088 126.447 158.088 126.982 158.047 127.515V126.853Z" fill="#4A2B0E"/>
<path d="M156.198 130.08C156.198 129.363 155.122 130.356 155.343 129.694C154.868 130.502 154.488 131.363 154.211 132.259C154.724 131.409 155.399 130.668 156.198 130.08Z" fill="#4A2B0E"/>
<path d="M153.604 133.555C153.834 133.136 154.037 132.703 154.212 132.259C153.954 132.663 153.75 133.098 153.604 133.555V133.555Z" fill="#4A2B0E"/>
<path d="M159.896 125.363C159.731 125.363 159.4 125.529 158.93 126.218L159.703 125.915C159.784 125.737 159.849 125.552 159.896 125.363V125.363Z" fill="#4A2B0E"/>
<path d="M159.731 125.887L159.179 127.018L159.731 125.887Z" fill="#4A2B0E"/>
<path d="M159.952 125.225C159.952 125.225 160.006 125.307 159.952 125.225V125.225Z" fill="#4A2B0E"/>
<path d="M161.58 119.157C161.966 120.012 162.27 121.915 162.794 120.15C162.38 119.488 162.104 120.509 161.58 119.157Z" fill="#4A2B0E"/>
<path d="M160.89 124.756C161.139 124.26 161.221 123.736 161.414 123.239C161.249 123.239 160.973 123.46 160.89 122.991C160.932 123.579 160.932 124.169 160.89 124.756V124.756Z" fill="#4A2B0E"/>
<path d="M160.807 125.584L160.89 124.756L160.642 125.336L160.807 125.584Z" fill="#4A2B0E"/>
<path d="M155.895 131.79C155.58 132.551 155.12 133.244 154.542 133.831C155.298 133.209 155.983 132.506 156.585 131.735C156.529 131.514 156.502 130.99 155.895 131.79Z" fill="#4A2B0E"/>
<path d="M158.047 129.059V129.197C158.047 129.197 158.295 129.087 158.047 129.059Z" fill="#4A2B0E"/>
<path d="M147.671 139.954L147.864 139.927L147.836 139.844L147.671 139.954Z" fill="#4A2B0E"/>
<path d="M156.778 131.68C157.175 131.317 157.438 130.831 157.523 130.3C157.243 130.799 156.93 131.278 156.585 131.735C156.585 131.735 156.64 131.873 156.778 131.68Z" fill="#4A2B0E"/>
<path d="M152.031 135.514L153.163 134.852C152.776 135.127 152.004 135.293 152.031 135.514Z" fill="#4A2B0E"/>
<path d="M157.716 129.307C157.523 129.335 157.606 129.335 157.716 129.307V129.307Z" fill="#4A2B0E"/>
<path d="M157.716 129.308C157.628 129.633 157.563 129.965 157.523 130.3C157.705 129.944 157.861 129.575 157.992 129.197C157.912 129.257 157.816 129.295 157.716 129.308V129.308Z" fill="#4A2B0E"/>
<path d="M147.616 144.699C147.423 144.175 148.775 142.547 150.569 141.94C151.7 140.506 149.63 139.844 147.809 139.982C147.809 140.203 148.03 140.368 146.815 141.72C147.505 141.582 150.375 139.844 149.575 141.168C147.864 142.851 147.919 142.216 146.815 142.685C148.03 142.685 144.939 145.305 145.96 145.802L147.45 144.257C147.45 144.257 147.064 144.947 147.616 144.699Z" fill="#4A2B0E"/>
<path d="M150.486 137.886L151.01 137.362C150.275 137.838 149.463 138.184 148.609 138.382C147.837 139.348 147.781 139.651 147.809 139.844C148.775 139.127 149.713 138.41 150.569 137.665L150.486 137.886Z" fill="#4A2B0E"/>
<path d="M153.356 135.127C153.356 135.927 152.28 137.306 153.356 137.058C154.846 135.541 154.101 135.679 154.764 134.603C152.528 137.086 155.233 133.693 153.273 135.155L154.405 133.776C153.972 134.151 153.511 134.493 153.025 134.796C153.19 134.796 153.246 134.796 153.025 134.796C153.038 134.888 153.038 134.981 153.025 135.072C152.252 135.651 152.832 135.072 153.025 134.796C152.307 135.651 151.562 136.479 150.79 137.306C151.723 136.677 152.584 135.946 153.356 135.127Z" fill="#4A2B0E"/>
<path d="M163.346 123.432C163.243 123.006 163.243 122.562 163.346 122.136C163.622 121.446 163.65 122.136 163.843 122.136C163.843 121.612 163.622 120.398 163.153 121.86V122.108C162.766 123.488 161.58 124.867 161.58 124.646C162.282 124.437 162.9 124.013 163.346 123.432V123.432Z" fill="#4A2B0E"/>
<path d="M159.289 130.273C158.873 131.124 158.412 131.952 157.909 132.755L159.179 131.9H158.903C159.896 130.493 159.372 130.576 159.289 130.273Z" fill="#4A2B0E"/>
<path d="M147.23 139.899L147.147 139.182L146.374 140.892L147.23 139.899Z" fill="#4A2B0E"/>
<path d="M144.249 142.244L144.028 141.72L143.421 142.575L144.249 142.244Z" fill="#4A2B0E"/>
<path d="M5.823 48.6557L5.96099 47.7455C5.87805 48.0422 5.8317 48.3478 5.823 48.6557V48.6557Z" fill="#4A2B0E"/>
<path d="M3.91895 54.9445L4.13973 55.1653C4.08453 54.8343 4.00174 54.6963 3.91895 54.9445Z" fill="#4A2B0E"/>
<path d="M63.2797 140.837C62.8933 139.596 62.6726 138.079 62.3138 138.603L62.0654 139.265C62.5668 139.707 62.9789 140.24 63.2797 140.837Z" fill="#4A2B0E"/>
<path d="M14.2676 105.559V105.972L15.2335 106.331L14.2676 105.559Z" fill="#4A2B0E"/>
<path d="M11.7012 106.193L11.0388 104.538C11.2078 105.109 11.4295 105.663 11.7012 106.193V106.193Z" fill="#4A2B0E"/>
<path d="M22.4917 17.1011L22.7124 15.8875C21.6362 17.1839 22.3537 16.7977 22.4917 17.1011Z" fill="#4A2B0E"/>
<path d="M109.974 157.938C109.11 157.863 108.242 157.863 107.379 157.938C108.621 158.159 109.725 158.49 109.974 157.938Z" fill="#4A2B0E"/>
<path d="M11.094 52.9311C11.094 52.407 11.094 52.1588 11.094 52.1588C10.9008 52.6829 10.9284 53.0138 11.094 52.9311Z" fill="#4A2B0E"/>
<path d="M104.399 158.242H104.951C105.748 158.061 106.562 157.959 107.379 157.938C106.381 157.694 105.328 157.801 104.399 158.242V158.242Z" fill="#4A2B0E"/>
<path d="M129.43 85.6717L128.077 85.12C128.512 85.3405 128.965 85.5251 129.43 85.6717V85.6717Z" fill="#4A2B0E"/>
<path d="M131.417 150.022C132.079 149.636 131.417 150.022 131.417 150.022V150.022Z" fill="#4A2B0E"/>
<path d="M135.942 150.215C135.844 150.33 135.794 150.478 135.804 150.629C135.812 150.481 135.86 150.338 135.942 150.215Z" fill="#4A2B0E"/>
<path d="M96.4788 161.883C96.6167 162.021 96.5891 161.993 96.4788 161.883V161.883Z" fill="#4A2B0E"/>
<path d="M132.603 149.719C132.267 149.802 131.935 149.903 131.61 150.022C131.949 149.949 132.281 149.847 132.603 149.719V149.719Z" fill="#4A2B0E"/>
<path d="M132.327 149.553L132.934 149.277C132.989 149.139 132.879 149.112 132.327 149.553Z" fill="#4A2B0E"/>
<path d="M130.451 150.546C130.821 150.337 131.209 150.162 131.61 150.022C131.444 150.022 131.389 150.022 131.417 150.022L130.451 150.546Z" fill="#4A2B0E"/>
<path d="M74.1252 17.6528V17.8183C74.8428 18.3976 74.5944 18.0942 74.1252 17.6528Z" fill="#4A2B0E"/>
<path d="M47.7151 128.314C48.3498 127.542 48.8742 127.57 49.2053 127.653C49.4151 127.105 49.5362 126.528 49.5641 125.942C48.808 126.614 48.1813 127.418 47.7151 128.314Z" fill="#4A2B0E"/>
<path d="M11.7563 34.1473L10.2936 35.8298C10.6524 33.0716 11.839 31.527 10.2936 33.0716C11.0387 33.6508 10.1281 35.554 9.24497 37.4572C8.36187 39.3604 7.61673 41.3464 8.44464 41.8428L7.56156 43.0014C7.72714 42.6428 7.56155 42.5324 7.80992 42.1738C5.98853 44.408 8.25148 44.5459 6.87164 47.6904C6.3473 48.7937 5.82295 49.5384 5.87815 48.6558C5.74016 49.5936 5.57456 50.5038 5.46417 51.414C5.35378 52.3243 4.96743 51.8829 5.21581 51.1382L4.2499 55.2205C4.2499 55.8824 4.55348 57.3167 4.60867 57.9787C4.11193 58.9717 4.60867 57.4271 4.22232 57.6477V59.9923C3.55999 60.8198 3.47722 58.8614 3.89117 57.234C1.68342 58.9993 3.89114 59.1648 2.09735 63.6607V61.4266C0.855488 62.6678 0.8831 64.4331 0 66.9431C0.303566 66.3363 2.34575 62.1437 2.42854 64.7089C2.07146 65.681 2.0138 66.7378 2.26296 67.743C1.60064 67.743 1.65583 69.0394 1.57304 70.7219L0.689922 70.5564C0.855503 72.4044 1.37986 72.2941 1.73862 73.3147C1.79634 73.8863 1.70161 74.4631 1.4641 74.9863C1.2266 75.5095 0.85476 75.9606 0.386354 76.2936C0.386354 79.576 1.32465 74.0043 1.7662 77.8383C1.69099 79.085 1.77444 80.3361 2.01456 81.5619C2.34872 82.9185 2.76344 84.254 3.25645 85.5614C3.25645 87.4646 2.67689 85.3407 2.53891 86.0578C2.84437 86.571 3.17597 87.0682 3.5324 87.5473C3.5324 87.9611 3.39444 87.8783 3.25645 87.8232C3.89118 89.1471 4.13954 87.8232 4.96744 89.8091C5.51938 89.9746 5.40899 91.1331 5.51937 92.5674C5.56835 94.0773 6.0895 95.5338 7.00959 96.7323C7.00959 97.4771 6.37487 96.7324 6.15409 96.9806C7.29953 98.818 8.68208 100.497 10.266 101.973C10.5144 102.828 10.818 103.656 11.094 104.511C10.6524 102.525 12.5842 104.207 14.3228 105.531C14.1848 104.814 14.1296 104.18 14.0192 103.794C14.7367 104.621 15.5094 105.421 16.2821 106.193C16.2821 106.579 15.951 106.524 15.3439 106.193L15.8682 106.552C16.3097 107.683 15.5646 107.517 14.6263 107.131C14.6263 106.69 14.4608 106.248 14.378 105.835C13.4673 105.476 12.529 105.145 12.1978 105.586C12.5088 105.804 12.7875 106.064 13.0257 106.359C12.7774 106.359 12.6118 106.221 12.5842 106.359C12.5566 106.497 12.9429 106.69 13.4397 107.021L13.1085 108.234H13.5501C14.2676 109.558 15.0403 110.827 15.8682 112.123C18.7935 113.916 21.6635 114.882 25.7755 117.64C24.368 117.475 24.8372 118.412 24.2576 119.047C23.7333 117.502 20.9184 116.868 19.1798 114.799C20.0905 115.847 19.5938 115.93 19.1798 115.764C20.4769 116.73 21.9395 117.53 23.2642 118.357C22.7122 118.826 23.7333 119.378 24.5612 120.371C24.5612 118.716 27.9556 121.75 29.915 122.246C29.915 122.66 29.0871 122.991 27.1553 121.557C27.455 122 27.8708 122.354 28.3575 122.577C28.8441 122.801 29.3829 122.887 29.915 122.826C30.4144 122.788 30.9163 122.852 31.3904 123.014C31.8646 123.175 32.3014 123.43 32.6747 123.763C32.1503 123.543 31.8744 123.35 31.5708 123.46C32.9783 123.653 35.8759 125.198 35.048 125.28L34.4961 125.087C35.3792 125.473 36.5658 125.805 37.8077 126.191C39.0958 126.514 40.4054 126.744 41.7265 126.88C44.293 126.88 46.4179 126.88 46.6939 126.163C46.5408 126.749 46.2786 127.301 45.9212 127.79C46.4147 127.569 46.8859 127.301 47.3286 126.991C47.6646 126.67 48.0244 126.375 48.4049 126.108C49.4931 125.35 50.6267 124.659 51.7993 124.039C52.2133 124.039 52.3788 124.315 52.6824 124.481C52.2133 124.618 51.6614 125.804 51.0266 126.522C50.3919 127.239 49.84 127.68 49.3432 127.542H49.15C49.146 128.088 49.3205 128.621 49.6468 129.059C49.6468 128.783 50.723 127.294 50.9162 127.818C50.6402 129.032 50.4747 129.004 50.5575 129.611C50.6403 130.218 50.5575 130.631 50.6954 132.204C50.6954 131.211 52.3237 131.707 52.9032 132.976C52.5996 132.976 51.5234 133.721 51.137 133.279C52.1581 134.217 53.1516 135.1 54.145 136.038C53.4827 135.376 52.8756 136.507 52.9584 137.444C52.9584 136.948 54.5314 140.203 55.3317 140.947C55.1386 140.451 54.8902 139.982 54.7246 139.458C56.9599 143.044 58.8365 141.499 61.3478 144.45C60.7959 144.45 59.0573 144.919 60.382 146.547C63.3129 146.626 66.2077 147.214 68.937 148.284L69.1577 149.057L71.5587 150.16C68.1839 150.078 64.8495 149.406 61.7066 148.174C62.6173 149.47 61.7066 148.864 63.4176 150.381C63.7764 151.263 62.0377 150.022 61.5134 149.553C62.8105 150.877 64.1351 152.146 65.515 153.332C65.8737 152.477 69.4337 155.042 69.7097 154.27C67.9435 153.415 66.1773 152.532 64.4663 151.512C64.9078 150.684 68.661 151.512 71.6415 153.746C72.221 154.573 70.1512 154.739 70.0132 155.014C71.2918 155.409 72.4951 156.015 73.5733 156.807L71.9174 156.394C73.5732 157.8 75.4774 157.111 77.4368 159.152C78.1543 159.593 79.341 161.386 79.7274 160.917C79.3793 160.051 79.3287 159.093 79.5834 158.195C79.8381 157.296 80.3837 156.508 81.1348 155.952C82.6368 156.978 84.0831 158.083 85.4675 159.262C86.5438 160.559 82.8734 160.393 83.7565 161.496C83.7565 161.276 84.7224 161.248 85.0812 161.276C85.8815 161.772 84.4464 161.993 86.4334 162.379C87.0129 161.552 90.3521 163.427 87.5649 161.827C89.4966 162.02 89.4967 162.572 91.732 162.986C91.1525 162.296 94.1053 161.193 95.9267 161.165C95.9267 161.386 96.2027 161.772 96.3959 161.938C99.5543 162.42 102.754 162.577 105.944 162.407C106.276 162.627 108.069 162.765 107.379 163.207C108.022 162.858 108.709 162.599 109.422 162.434C111.712 162.876 106.938 162.958 108.732 163.648C108.732 163.096 111.491 162.434 113.037 161.827C112.374 161.083 109.394 162.296 107.821 162.876C107.683 161.69 110.249 160.117 113.699 158.849C116.459 157.883 115.107 159.29 115.548 159.014C117.242 158.744 118.818 157.976 120.074 156.807C121.157 155.847 122.502 155.232 123.938 155.042C125.869 155.042 124.545 156.366 125.124 156.725C123.476 157.425 121.74 157.898 119.964 158.131L121.978 157.828C121.07 158.454 120.032 158.868 118.943 159.042C120.654 159.345 127.911 156.063 131.996 154.573C132.575 153.994 133.652 153.166 132.934 153.194L131.775 153.911C130.395 153.911 133.679 152.008 132.023 152.532C133.545 151.017 135.296 149.752 137.212 148.781L138.04 149.25C137.874 149.084 136.384 149.719 135.887 150.27C136.605 149.443 139.833 149.222 140.22 147.512L138.398 147.981C139.704 146.312 141.248 144.844 142.979 143.623C141.682 143.623 142.621 144.009 140.772 144.092C142.621 144.368 136.053 147.153 138.564 147.043C136.577 146.905 135.942 148.119 133.624 148.284C133.817 148.505 134.535 148.284 132.851 149.195C132.794 149.341 132.72 149.479 132.631 149.608V149.608C132.965 149.519 133.317 149.519 133.652 149.608C133.183 150.656 130.506 151.953 129.76 152.725C129.015 153.497 130.036 152.229 129.347 152.229L128.215 153.304C127.801 152.808 125.124 153.553 127.332 152.173L125.207 153.111C123.738 153.28 122.319 153.749 121.04 154.49C119.991 154.683 118.667 155.98 119.412 155.235C118.308 155.677 117.204 156.256 116.072 156.642V156.504C114.334 156.835 112.65 157.662 110.774 158.021C108.877 158.595 106.869 158.699 104.923 158.324C103.508 158.733 102.022 158.836 100.563 158.628L100.204 158.104C99.2333 158.131 98.2621 158.057 97.3065 157.883C96.3131 157.662 95.43 157.497 95.0712 157.745C94.3813 156.89 92.6151 156.725 90.7661 156.228C89.028 156.03 87.3273 155.585 85.7159 154.904L85.3847 155.539C83.7289 154.821 81.9903 154.518 79.8653 153.691L79.6998 154.297C77.1801 153.101 74.8394 151.56 72.7453 149.719C73.0765 149.719 73.7113 150.132 74.0976 150.574C71.7795 147.402 67.0328 146.685 65.2666 143.513C64.6627 143.167 64.1662 142.661 63.8316 142.051H63.9971L63.7764 141.802L63.252 140.727C63.3492 141.051 63.4786 141.366 63.6384 141.664C63.062 141.027 62.4443 140.428 61.7894 139.872L62.0378 139.154L61.8722 138.989C61.541 138.106 61.1823 138.575 61.0995 139.292C60.7648 138.995 60.4046 138.727 60.0232 138.493C60.2164 137.886 59.7748 137.417 59.3057 136.92C59.0545 136.696 58.8663 136.41 58.7598 136.091C58.6533 135.771 58.6322 135.43 58.6986 135.1C57.7879 134.907 56.132 131.128 54.8902 131.045C54.8902 131.045 54.8902 130.659 55.1662 131.045C55.0253 129.991 54.6479 128.982 54.0623 128.094C54.3106 128.094 54.4486 127.377 54.6694 127.101C54.1386 126.205 53.5582 125.339 52.9308 124.508C52.9308 123.488 52.9308 122.495 52.9308 122.219C52.9308 121.943 52.9308 121.943 53.2343 121.722C53.5379 121.502 53.5931 121.915 53.8691 122.274C53.6759 121.915 53.5655 121.474 53.4 121.529C51.0542 122.219 50.1987 122.412 49.2604 122.605C48.187 122.817 47.1272 123.093 46.0868 123.432V122.908C45.0933 122.908 43.3271 123.46 42.7476 122.908C41.6713 122.219 38.884 121.75 35.7931 120.536C32.6275 119.315 29.7581 117.435 27.3761 115.02C27.3761 117.006 25.6099 112.786 24.6164 113.53C24.6164 113.006 24.1197 112.289 25.058 112.675C22.5191 110.937 22.2983 109.117 20.0353 108.262C20.0353 107.738 20.8908 108.262 20.8356 107.986C20.7805 107.71 19.9525 107.462 19.9249 107.076C19.8973 106.69 20.4493 107.076 20.8909 107.462C18.8763 105.173 17.7724 105.586 16.7513 106.055C16.609 105.442 16.3218 104.871 15.9137 104.391C15.5056 103.911 14.9885 103.536 14.4056 103.297C14.4056 102.607 14.2124 101.642 15.3991 103.297L13.4949 99.9871C12.8049 98.5804 12.0874 97.3667 11.6459 97.5046C11.6459 97.0909 11.0112 96.0979 10.7904 95.8773C9.87969 93.5327 9.90729 93.2846 8.9414 91.0228V91.7123C7.53396 91.1607 8.11347 89.8092 7.45115 87.9335C7.41854 86.8395 7.24224 85.7545 6.9268 84.7063C6.64443 83.6553 6.56021 82.5609 6.67844 81.4791L6.0713 81.8102C4.52588 81.5619 6.48525 77.7279 5.85052 75.1627L5.46417 76.1281C4.99502 74.6662 7.36835 72.101 7.61672 70.6115C7.7823 70.3081 7.61675 71.1081 7.86512 71.5218C8.9414 67.9085 7.03721 71.0253 7.03721 68.2395C7.53395 67.7706 8.16865 68.9842 8.38943 67.1637C8.53654 66.0376 8.53654 64.8972 8.38943 63.7711C8.1786 62.2283 8.41817 60.6574 9.07935 59.2475C8.6102 59.744 8.14107 60.2129 8.14107 58.8889C8.36184 56.8754 10.7628 54.0068 10.1557 51.9657C10.3213 51.7451 10.4316 51.6899 10.5144 51.7175C10.9719 49.7581 11.2764 47.7662 11.4251 45.7596C13.9088 45.2631 14.1848 36.5194 16.1718 37.4848C16.8341 36.0505 17.5792 34.7265 18.2967 33.2922V33.5129C19.3629 32.1066 20.0302 30.4392 20.2285 28.6859C20.7529 28.1895 20.6149 28.6859 20.6701 28.8238C22.6967 26.7314 24.2166 24.2027 25.1132 21.4317L25.8859 21.5696C26.1894 20.4939 30.6601 17.3495 33.2542 14.012C33.2684 14.1972 33.2198 14.3818 33.1162 14.536C34.7982 12.66 36.8833 11.189 39.2152 10.2331C41.3677 9.185 43.0787 8.49545 43.4099 7.06115C44.2889 6.49247 45.2117 5.99439 46.1696 5.57167C42.2508 6.39915 46.4731 4.38558 44.7345 4.41316C46.3352 3.72359 49.0396 4.4132 47.0803 4.71661H46.7491C46.5283 5.3786 47.7702 5.32346 49.0396 5.2683C50.3091 5.21313 51.7993 5.40613 51.5786 5.79229C55.2768 6.04922 58.7745 7.56839 61.4858 10.0953C64.2352 12.61 66.6636 15.454 68.7162 18.5631L69.0198 17.2943C69.5441 17.9839 70.0133 18.7562 70.51 19.4734C71.0068 20.1905 70.51 20.687 69.3509 19.1148C69.3509 20.2457 71.5035 21.4869 71.7243 21.4317C73.3525 24.8244 69.9305 20.8249 70.5376 21.8179L71.4207 23.0867V22.7281C72.5428 23.3751 73.4534 24.3331 74.0424 25.4864C74.6219 26.8379 73.8768 26.4518 74.0424 26.9758C74.0424 26.9758 74.0424 27.1689 74.4563 27.7205C75.0083 28.7135 75.5326 29.7065 76.0294 30.6719V29.1273C77.1057 30.2306 77.492 31.8855 77.5748 30.1202C78.0508 32.552 78.8978 34.8964 80.0861 37.0711C81.085 39.0511 81.898 41.1195 82.5146 43.2496C83.7722 45.1384 84.6444 47.2568 85.0812 49.4833C85.0812 48.8213 85.8262 48.1868 86.3506 50.3659C84.3636 50.0625 86.6266 54.5033 85.6055 56.5168C85.8815 55.6342 86.2402 57.1512 86.599 58.5579C86.9577 59.9646 87.2337 61.3162 87.7028 59.9371C87.7028 61.7851 87.0405 60.1577 86.7646 61.5644C87.3759 63.8462 87.5905 66.216 87.3993 68.5705L87.2613 70.4737V71.8252V73.3974C87.0405 75.4937 86.8474 77.6727 86.7646 79.769C86.7646 79.769 87.0681 79.1898 87.2613 78.9139C87.4545 78.6381 87.5373 78.6658 87.8684 79.0519C88.9544 79.374 90.0607 79.6228 91.18 79.7966C93.0014 79.438 93.0567 78.1692 95.568 78.7485C95.2092 78.583 94.7125 78.3071 95.568 78.1416H96.8374H97.8309H99.8179L103.764 78.3623C106.446 78.531 109.117 78.8347 111.767 79.2725C117.13 79.999 122.272 81.8813 126.835 84.7891C125.704 83.8237 126.587 84.1547 127.608 84.5408C127.001 84.1823 127.856 83.9892 127.856 83.6582C129.126 84.5132 130.368 85.4235 131.554 86.4164C132.713 85.9475 135.832 88.5679 136.66 88.0714L135.335 87.5197C137.515 87.5197 134.093 84.2099 134.894 83.1893C132.465 83.1893 130.34 79.0243 126.256 79.2725C125.593 78.7485 127.056 79.1071 126.752 78.6933C125.338 78.7964 123.928 78.4488 122.723 77.7003H122.999C117.48 76.1005 115.107 74.9421 108.566 73.5354L108.98 74.2525C108.189 74.0663 107.414 73.8173 106.662 73.5078C104.951 74.2801 110.608 74.0318 109.008 74.942C107.223 74.0401 105.239 73.6036 103.24 73.6733C100.811 73.5078 98.4656 73.4802 97.7205 72.7631C95.5404 72.7631 98.2725 73.5077 96.2855 73.5629L95.9543 73.1768L95.5403 73.7284C94.5745 73.7284 94.3261 73.2319 94.4917 72.8733C94.7474 72.8414 94.9978 72.7765 95.2368 72.6802C95.0006 72.6269 94.7555 72.6269 94.5193 72.6802H93.9397L93.305 72.9009C93.2766 72.8018 93.2766 72.6966 93.305 72.5975C93.305 72.7354 93.167 72.9837 93.305 73.0388H93.581L93.0842 73.1768C93.0696 73.0393 93.0696 72.9006 93.0842 72.7631V71.8252C93.0842 71.4942 93.0842 71.108 93.0842 70.8046V68.5153C93.0553 65.3467 92.6194 62.1949 91.7872 59.1372L91.5388 59.6337C91.1385 58.3616 90.8884 57.0471 90.7937 55.7169C90.7508 54.2703 90.4903 52.8384 90.021 51.4693V51.6347C89.4309 50.5968 88.9853 49.4832 88.6963 48.3248C89.3587 49.3729 88.6963 45.9527 89.5518 47.3594C87.5649 43.0013 88.3652 45.2356 86.323 42.6704L86.5438 41.8428C85.6124 41.0582 84.9074 40.0394 84.5016 38.8915C85.6607 40.4913 84.5016 37.1814 86.0194 38.8915C85.1363 33.7887 81.9627 32.6027 82.4043 29.8168C80.1137 28.4377 83.6461 34.0369 82.7906 33.044C82.7906 34.2024 81.0244 31.8028 80.4449 30.2857C79.8653 28.7687 80.8036 27.031 78.7339 23.5831C78.927 23.9417 79.0375 23.8865 79.2306 24.2451C78.7615 22.7556 77.3264 22.0109 76.8573 20.1353C75.5878 19.7216 75.643 18.0942 74.5391 18.4252L76.6917 21.3766C74.7392 19.7839 73.0934 17.8491 71.8346 15.6669C72.4614 16.008 73.0374 16.435 73.5456 16.9357C73.2145 15.9152 72.2762 15.4462 71.8899 14.4257C72.9937 14.0119 74.6495 17.9563 76.5537 19.4181C76.3881 18.2597 73.5733 16.2737 75.2015 16.6599C73.0489 16.1634 73.0765 13.1845 70.372 11.7226L71.0067 11.4468C70.3735 11.0484 69.7899 10.5762 69.2682 10.04L70.8964 10.6193C68.8818 9.35045 68.3022 6.8405 66.2601 5.59928C69.8477 8.82645 66.536 6.89565 67.6399 8.60578C65.2942 6.92323 64.8802 6.15095 64.4663 5.18555C64.0523 4.22016 63.5004 3.03403 60.2716 1.57215C61.2098 1.90314 63.1968 3.5857 61.7618 3.14438C60.7407 2.34448 59.2229 1.43424 58.5606 0.799837C54.0347 -0.524131 59.0297 1.62732 57.0151 1.40666C55.7457 0.165439 54.7246 1.10326 52.8204 1.07568V0.413723C47.6322 -0.193095 51.413 1.51702 46.9147 1.43427L48.7361 0.303369L46.3627 0.799837L46.7491 0C45.4521 0.41374 44.6793 0.855076 43.8514 1.04815C43.0235 1.24123 42.1956 1.43431 41.0917 1.82047C41.8369 2.09629 41.0918 2.97893 39.298 3.97191C37.8353 4.3029 39.7395 3.03408 37.0626 4.55112C37.2557 4.08541 37.5804 3.68601 37.997 3.40187C38.4136 3.11774 38.9041 2.96115 39.4083 2.95128C39.4083 2.67545 39.8499 2.26172 39.9051 2.01348C38.2097 2.51042 36.6325 3.34554 35.2688 4.46838C35.6103 4.24276 35.9819 4.06633 36.3727 3.9443C35.2545 4.95986 34.2035 6.04706 33.2266 7.19903C32.5367 7.4197 32.8403 6.92324 33.2266 6.45433C32.5643 7.06115 32.2331 7.64039 31.2948 8.52303C31.2948 7.88863 30.7705 7.50243 32.1228 6.15088C31.1459 7.15735 30.2247 8.21632 29.3631 9.32295C28.9767 9.32295 27.3485 10.3159 27.5969 9.79181C25.6651 11.1985 24.4232 14.5912 22.0775 16.6047C22.0015 16.9848 21.8411 17.3429 21.6084 17.6529C19.4878 19.6037 17.7637 21.945 16.5305 24.5486C15.9234 24.9071 15.2887 25.2105 14.6816 25.5967C13.4673 27.9412 17.0825 24.0796 15.0679 27.9688C13.7157 30.727 13.7432 28.5205 12.9705 29.2928C12.6456 31.6775 11.6933 33.9333 10.2108 35.8298C10.686 35.2336 11.2024 34.6714 11.7563 34.1473ZM2.37333 64.6262C2.37333 63.9918 2.09736 62.6954 2.53891 62.3092C3.20123 63.1367 2.75969 63.6056 2.37333 64.6262ZM16.0338 110C15.4783 109.611 15.0854 109.032 14.9299 108.372C15.3577 108.872 15.728 109.418 16.0338 110V110ZM123.8 154.132C122.42 154.435 122.916 154.435 123.8 154.104V154.132ZM126.366 153.387C126.587 153.194 126.532 153.111 126.366 153.084C126.014 153.44 125.562 153.681 125.069 153.773C125.345 153.856 125.704 153.828 126.366 153.36V153.387ZM74.9531 27.5551V27.031C75.505 27.8585 75.2843 27.5551 74.9531 27.5551Z" fill="#4A2B0E"/>
<path d="M12.0327 106.138C11.9864 106.004 11.9864 105.858 12.0327 105.724C12.0327 105.586 11.8119 105.641 12.0327 106.138Z" fill="#4A2B0E"/>
<path d="M22.4641 17.3218C22.4811 17.2774 22.4811 17.2283 22.4641 17.1839V17.3218Z" fill="#4A2B0E"/>
<path d="M84.8052 162.158C84.4462 161.974 84.12 161.731 83.8394 161.441C83.8394 161.441 83.9497 161.8 84.8052 162.158Z" fill="#4A2B0E"/>
<path d="M138.288 145.692L136.936 146.74C137.37 146.44 137.857 146.225 138.371 146.105C138.371 146.105 137.847 145.995 138.288 145.692Z" fill="#4A2B0E"/>
<path d="M152.942 139.954C153.08 139.734 153.356 139.596 153.494 139.348L153.218 139.182C152.418 139.927 151.976 140.644 152.942 139.954Z" fill="#4A2B0E"/>
<path d="M140.855 146.657C141.269 147.043 142.069 146.271 143.007 145.471L142.842 145.609C142.676 144.754 141.738 145.719 140.855 146.657Z" fill="#4A2B0E"/>
<path d="M143.228 145.305C143.522 145.051 143.836 144.821 144.166 144.616C144.083 144.285 143.752 144.836 143.228 145.305Z" fill="#4A2B0E"/>
<path d="M129.319 151.677C129.871 151.539 129.319 150.877 129.705 150.932C129.981 149.995 126.67 153.249 129.319 151.677Z" fill="#4A2B0E"/>
<path d="M142.731 147.622L141.958 147.319L141.682 148.146L142.731 147.622Z" fill="#4A2B0E"/>
<path d="M134.065 152.311L135.887 151.484C135.887 151.484 135.887 151.236 136.246 151.015C135.169 151.677 133.927 152.146 134.065 152.311Z" fill="#4A2B0E"/>
<path d="M136.218 151.015C136.7 150.802 137.14 150.503 137.515 150.132C137.267 150.326 136.632 150.712 136.218 151.015Z" fill="#4A2B0E"/>
<path d="M140.551 149.305L139.999 149.498L138.757 150.188L140.551 149.305Z" fill="#4A2B0E"/>
<path d="M114.279 159.786C113.589 160.007 112.899 160.283 112.209 160.448C112.043 160.697 112.651 160.807 113.423 160.448C114.196 160.09 114.638 159.952 114.279 159.786Z" fill="#4A2B0E"/>
<path d="M121.123 159.952C120.751 159.969 120.381 159.893 120.047 159.731L120.24 160.586L121.123 159.952Z" fill="#4A2B0E"/>
<path d="M114.969 161.772C114.803 162.048 111.961 163.207 114.72 162.489C114.886 162.186 116.9 161.469 114.969 161.772Z" fill="#4A2B0E"/>
<path d="M82.377 158.738L82.9013 158.931L83.3429 157.58L82.377 158.738Z" fill="#4A2B0E"/>
<path d="M56.5186 143.926C58.064 146.271 57.5949 143.926 58.9195 146.05C59.5818 146.298 57.8432 144.285 58.5055 144.588C57.1533 143.568 56.7393 142.768 56.5186 143.926Z" fill="#4A2B0E"/>
<path d="M58.5056 144.588L59.1955 145.085C58.9898 144.888 58.7576 144.721 58.5056 144.588V144.588Z" fill="#4A2B0E"/>
<path d="M134.342 88.9264L135.583 89.947L134.921 89.0368L134.342 88.9264Z" fill="#4A2B0E"/>
<path d="M137.515 89.5333L137.377 90.4987L138.619 90.278C138.288 90.1401 137.653 89.8367 137.515 89.5333Z" fill="#4A2B0E"/>
<path d="M5.68486 46.3388L5.51929 46.6974L6.54036 46.2561L5.68486 46.3388Z" fill="#4A2B0E"/>
<path d="M13.2189 28.024C12.7221 28.6859 12.4186 29.6237 12.0046 30.3133C12.7222 28.6859 14.2124 28.3549 13.2189 28.024Z" fill="#4A2B0E"/>
<path d="M167.624 120.674C167.624 121.198 168.148 121.06 168.258 121.143C168.12 120.205 167.486 120.702 167.624 120.674Z" fill="#4A2B0E"/>
<path d="M165.222 112.482L165.498 112.565L164.588 111.599L165.222 112.482Z" fill="#4A2B0E"/>
<path d="M162.049 105.642C161.525 106.772 163.622 107.876 163.788 109.31V109.613L164.753 109.834C163.815 108.317 162.38 106.772 162.049 105.642Z" fill="#4A2B0E"/>
<path d="M161.442 101.09C161.442 101.532 160.642 100.594 161.939 101.945V101.725L161.442 101.09Z" fill="#4A2B0E"/>
<path d="M161.938 101.725C162.435 102.387 161.938 101.09 161.938 101.725V101.725Z" fill="#4A2B0E"/>
<path d="M159.372 98.9666C159.703 99.1321 160.007 99.3527 160.338 99.5458C160.338 99.2148 159.786 98.47 160.145 98.6355C159.262 97.946 159.234 98.277 159.372 98.9666Z" fill="#4A2B0E"/>
<path d="M158.296 98.7182L158.765 99.0217C158.654 98.8837 158.572 98.7458 158.296 98.7182Z" fill="#4A2B0E"/>
<path d="M159.648 99.6836L158.655 99.0217C158.655 99.2423 158.406 99.4629 159.096 99.325C158.793 99.4629 159.179 99.4078 159.648 99.6836Z" fill="#4A2B0E"/>
<path d="M159.951 100.29C160.144 100.897 160.531 101.559 159.593 100.952C161.055 102.414 161.331 101.78 159.951 100.29Z" fill="#4A2B0E"/>
<path d="M161.055 105.862C161.055 106.11 161.055 106.386 161.193 106.662L161.8 107.076C161.442 106.855 161.248 105.642 161.055 105.862Z" fill="#4A2B0E"/>
<path d="M155.122 93.9465C154.929 93.9465 155.122 94.6084 154.901 94.8567L155.619 95.2153C155.536 94.8015 154.957 94.2223 155.122 93.9465Z" fill="#4A2B0E"/>
<path d="M154.901 94.8567L153.797 94.3602C154.515 95.0773 154.791 95.0497 154.901 94.8567Z" fill="#4A2B0E"/>
<path d="M157.247 99.2699C157.854 99.5457 158.461 99.8216 159.068 100.153C158.378 99.7388 157.661 99.3802 156.999 99.0217L157.247 99.2699Z" fill="#4A2B0E"/>
<path d="M151.81 91.1055L152.611 91.133L151.258 90.9675L151.81 91.1055Z" fill="#4A2B0E"/>
<path d="M149.437 89.3953C150.072 89.3953 149.437 88.4575 149.879 88.5678C149.234 88.2071 148.518 87.9907 147.781 87.9335C148.481 88.2226 149.064 88.7371 149.437 89.3953Z" fill="#4A2B0E"/>
<path d="M146.705 87.7404C147.06 87.8253 147.419 87.8898 147.781 87.9335C147.435 87.8114 147.072 87.7462 146.705 87.7404Z" fill="#4A2B0E"/>
<path d="M152.418 93.0086C152.438 92.8248 152.42 92.6385 152.363 92.4625C152.305 92.2865 152.211 92.1246 152.086 91.988V92.7328L152.418 93.0086Z" fill="#4A2B0E"/>
<path d="M152.059 92.7604L151.341 92.126L152.059 92.7604Z" fill="#4A2B0E"/>
<path d="M152.5 93.0914C152.5 93.0914 152.418 93.1187 152.5 93.0914V93.0914Z" fill="#4A2B0E"/>
<path d="M155.536 96.8427C154.818 96.5944 153.604 95.9049 154.211 97.2013C154.846 97.2289 154.515 96.5117 155.536 96.8427Z" fill="#4A2B0E"/>
<path d="M152.445 94.0016L153.246 94.9119C153.246 94.774 153.246 94.4706 153.66 94.5533L152.445 94.0016Z" fill="#4A2B0E"/>
<path d="M151.893 93.7809L152.445 94.0292L152.142 93.6982L151.893 93.7809Z" fill="#4A2B0E"/>
<path d="M148.057 89.3677C147.482 89.2461 146.943 88.9911 146.484 88.623C146.962 89.1247 147.489 89.5774 148.057 89.9746C148.223 89.8642 148.665 89.7815 148.057 89.3677Z" fill="#4A2B0E"/>
<path d="M141.296 85.2579L141.323 85.3958L141.406 85.3131L141.296 85.2579Z" fill="#4A2B0E"/>
<path d="M148.085 90.1124C148.2 90.2666 148.35 90.3917 148.523 90.4779C148.695 90.5641 148.885 90.6089 149.078 90.6089C148.72 90.4276 148.378 90.2154 148.057 89.9745C148.057 89.9745 147.919 90.0572 148.085 90.1124Z" fill="#4A2B0E"/>
<path d="M145.104 86.9681C145.254 87.2487 145.439 87.5083 145.656 87.7404C145.546 87.437 145.27 86.9129 145.104 86.9681Z" fill="#4A2B0E"/>
<path d="M149.851 90.7469C150.017 90.5538 149.851 90.6366 149.851 90.7469V90.7469Z" fill="#4A2B0E"/>
<path d="M149.851 90.7469C149.598 90.6767 149.34 90.6305 149.078 90.6089C149.331 90.7574 149.6 90.8776 149.879 90.9675C149.854 90.8968 149.844 90.8216 149.851 90.7469Z" fill="#4A2B0E"/>
<path d="M137.736 87.5473C138.067 87.106 139.475 87.3543 140.11 88.43C141.269 88.6506 141.627 86.7474 141.324 85.3959C141.158 85.589 141.048 85.7544 139.861 85.3959C140.082 85.8372 141.71 87.2991 140.606 87.2163C139.144 86.6647 139.64 86.4164 139.144 85.782C139.337 86.6922 136.963 85.6441 136.77 86.6923L138.067 87.0509C138.012 87.2715 137.488 87.2439 137.736 87.5473Z" fill="#4A2B0E"/>
<path d="M143.145 86.6095L143.587 86.8026C143.165 86.3728 142.828 85.8675 142.593 85.3131C141.793 85.0924 141.544 85.3131 141.379 85.3131L143.338 86.6371L143.145 86.6095Z" fill="#4A2B0E"/>
<path d="M145.38 88.0162C144.746 88.2921 143.669 87.8507 143.89 88.7885C145.049 89.5333 144.967 88.9264 145.822 89.1747C143.835 88.0162 146.54 89.1747 145.38 88.0714C145.762 88.2276 146.131 88.412 146.484 88.6231C146.187 88.3494 145.91 88.0544 145.656 87.7404V87.7404C145.656 87.7404 145.656 87.9059 145.656 87.7404H145.436C144.967 87.2715 145.436 87.5749 145.656 87.7404L143.559 86.7474C144.125 87.2261 144.735 87.651 145.38 88.0162V88.0162Z" fill="#4A2B0E"/>
<path d="M152.5 97.3116C152.486 97.2865 152.478 97.2579 152.478 97.2289C152.478 97.1998 152.486 97.1713 152.5 97.1461C152.5 97.1461 152.307 97.1185 152.5 97.3116Z" fill="#4A2B0E"/>
<path d="M152.059 96.5117C152.206 96.5123 152.351 96.5447 152.485 96.6066C152.618 96.6684 152.736 96.7584 152.832 96.8703C153.08 97.3116 152.639 97.091 152.528 97.2289C152.887 97.2289 153.632 97.6978 153.108 96.7875H152.942C152.39 96.0428 152.004 94.7188 152.169 94.7464C152.011 95.3209 151.974 95.9219 152.059 96.5117V96.5117Z" fill="#4A2B0E"/>
<path d="M148.747 92.2087L147.064 91.3261L147.533 92.2915L147.671 92.0156C148.444 92.7604 148.499 92.3191 148.747 92.2087Z" fill="#4A2B0E"/>
<path d="M141.268 84.8993L141.82 84.4856L140.385 84.6787L141.268 84.8993Z" fill="#4A2B0E"/>
<path d="M139.061 83.6857L139.419 83.2444L138.674 83.2168L139.061 83.6857Z" fill="#4A2B0E"/>
<path d="M61.9275 139.513L62.3691 139.789C62.2334 139.68 62.0852 139.587 61.9275 139.513V139.513Z" fill="#4A2B0E"/>
<path d="M59.8302 136.562H59.5542C59.775 136.7 59.913 136.7 59.8302 136.562Z" fill="#4A2B0E"/>
<path d="M79.5065 76.7349C78.513 76.5142 77.3264 76.2936 77.6851 76.7349L78.1543 77.1487C78.5465 76.8644 79.0223 76.7188 79.5065 76.7349V76.7349Z" fill="#4A2B0E"/>
<path d="M53.4275 107.821L53.6759 107.655L53.3171 106.938L53.4275 107.821Z" fill="#4A2B0E"/>
<path d="M55.4973 109.145L54.8074 109.944C55.0765 109.714 55.3091 109.444 55.4973 109.145V109.145Z" fill="#4A2B0E"/>
<path d="M77.6855 151.677L78.5135 151.456C77.7132 151.07 77.9063 151.677 77.6855 151.677Z" fill="#4A2B0E"/>
<path d="M115.189 74.7765C114.667 74.475 114.111 74.2343 113.533 74.0594C114.306 74.5834 114.858 75.2179 115.189 74.7765Z" fill="#4A2B0E"/>
<path d="M55.9663 142.189C56.2699 142.409 56.4631 142.437 56.5734 142.354C56.6838 142.271 56.1871 142.051 55.9663 142.189Z" fill="#4A2B0E"/>
<path d="M111.381 73.7284L111.74 73.9215C112.305 73.8743 112.874 73.9208 113.423 74.0594C113.139 73.8349 112.803 73.6867 112.445 73.6288C112.088 73.5708 111.722 73.6051 111.381 73.7284V73.7284Z" fill="#4A2B0E"/>
<path d="M145.85 141.14H146.015C146.015 141.14 145.932 141.058 145.85 141.14Z" fill="#4A2B0E"/>
<path d="M165.223 128.232C165.122 128.56 165.002 128.882 164.864 129.197C165.038 128.898 165.159 128.572 165.223 128.232V128.232Z" fill="#4A2B0E"/>
<path d="M130.119 79.0243C130.644 79.1898 130.119 79.0243 130.119 79.0243V79.0243Z" fill="#4A2B0E"/>
<path d="M131.499 82.1963C131.437 82.2036 131.378 82.2247 131.325 82.2582C131.273 82.2916 131.228 82.3364 131.196 82.3894C131.276 82.2971 131.381 82.23 131.499 82.1963Z" fill="#4A2B0E"/>
<path d="M130.699 79.5759C130.533 79.4074 130.348 79.2593 130.147 79.1346L130.699 79.5759Z" fill="#4A2B0E"/>
<path d="M130.699 79.2725L131.085 79.4931C131.085 79.4931 131.251 79.3277 130.699 79.2725Z" fill="#4A2B0E"/>
<path d="M129.429 78.776C129.699 78.8673 129.958 78.9876 130.202 79.1346C130.202 79.1346 130.202 79.1346 130.202 79.1346L129.429 78.776Z" fill="#4A2B0E"/>
<path d="M110.222 159.4C110.801 159.097 110.581 159.179 110.222 159.4V159.4Z" fill="#4A2B0E"/>
<path d="M71.0896 88.7058L71.1172 88.6506L71.062 88.6782L71.0896 88.7058Z" fill="#4A2B0E"/>
<path d="M69.9858 90.1401C69.9858 89.0919 70.4549 88.8989 70.9793 88.6782L69.4614 87.6852L69.9858 90.1401Z" fill="#4A2B0E"/>
<path d="M68.192 145.636C67.9988 145.25 67.778 144.864 67.6125 144.45C69.2959 144.726 69.8754 145.609 69.5166 144.312C68.1092 145.691 66.0394 141.416 64.632 142.602L64.3836 141.747C64.5216 141.913 64.632 141.885 64.77 142.051C64.4112 140.313 62.9762 142.051 61.8723 140.451C61.5687 139.816 61.4859 139.265 61.8723 139.513L60.5752 138.575C60.3269 138.217 60.5753 138.106 60.9064 138.575C60.381 138.009 59.8924 137.411 59.4438 136.782V136.782C58.8954 136.6 58.368 136.36 57.8708 136.065C57.8708 135.403 58.2019 136.065 58.3123 136.065C57.9383 135.801 57.5875 135.506 57.2636 135.183C57.4292 134.465 58.3123 135.182 58.7538 135.955C59.7197 134.024 57.788 135.293 57.5948 132.507L58.3399 133.445C58.9746 132.286 58.0915 131.707 58.3399 130.245C58.0087 130.631 57.8984 133.279 56.8497 132.286C56.8284 132.003 56.7487 131.726 56.6158 131.475C56.4828 131.223 56.2994 131.002 56.077 130.824C56.7117 130.576 56.2977 129.969 55.939 129.142L56.7945 128.921C56.215 128.121 55.8286 128.314 55.3042 127.873C55.2356 127.505 55.2937 127.125 55.4691 126.794C55.6446 126.464 55.9269 126.202 56.2701 126.053C55.9942 124.398 55.4698 127.432 54.8351 125.501C54.8068 124.071 54.4278 122.669 53.7312 121.419C53.9244 120.371 54.2832 121.557 54.5039 121.171C54.2501 120.898 54.0106 120.613 53.7864 120.315C53.7864 120.095 54.0072 120.15 54.1176 120.315C53.8692 119.543 53.2345 120.315 53.0137 119.019C52.5446 118.854 53.0137 118.219 53.2621 117.474C53.5388 117.142 53.7229 116.743 53.7956 116.316C53.8683 115.89 53.827 115.452 53.676 115.047C53.952 114.716 54.1728 115.295 54.5315 115.24C54.3892 113.987 54.1306 112.75 53.7588 111.544C54.0498 111.107 54.3727 110.692 54.7247 110.303C53.7588 111.13 53.4552 109.613 53.2345 108.179C52.8808 108.375 52.5479 108.606 52.241 108.869C52.241 108.152 52.241 107.434 52.4894 106.745C52.7102 106.552 52.9033 106.745 53.1241 107.296V106.883C53.7312 106.331 54.0348 106.883 54.3108 107.517L53.538 108.014C53.8968 108.676 54.3107 109.282 54.8351 109.365C54.7911 109.137 54.7911 108.903 54.8351 108.676C54.8351 108.841 55.0283 108.979 55.1387 108.951C55.249 108.924 55.1387 108.648 55.0007 108.289H56.077L55.7458 108.041L57.3188 106C56.8616 103.672 57.1115 101.261 58.0363 99.0768C58.2295 100.125 58.9195 99.8767 59.6094 100.401C58.4503 100.566 58.6435 102.47 57.8432 103.683C58.2847 103.021 58.5607 103.38 58.5883 103.683C58.7538 102.773 59.0298 101.918 59.2782 100.925C59.8301 101.366 59.9957 100.732 60.6304 100.346C59.1954 99.9871 61.0168 98.1666 61.4032 97.0633C61.8171 97.3116 61.9827 97.7804 61.1272 98.801C62.783 98.2493 61.1272 96.291 62.645 95.7117C62.4242 95.96 62.2587 96.0703 62.3691 96.3185C62.3691 95.4359 64.0525 94.2775 64.0525 94.8843L63.8317 95.1325C65.3495 93.5603 68.4955 90.4711 68.0264 89.3954C68.3238 89.8755 68.5734 90.3835 68.7715 90.9124C68.7715 89.0919 69.0475 87.2163 69.3511 85.3958C69.7098 86.4164 72.1108 87.5472 71.1173 89.0643C71.829 88.8158 72.4396 88.3411 72.8558 87.7128C72.4971 87.7128 71.2829 87.0508 71.6416 86.6922C72.6414 86.8007 73.6499 86.8007 74.6497 86.6922C74.0701 86.6922 73.7113 85.1476 74.4565 84.7339C74.4565 85.0097 75.3396 86.0302 75.174 86.3336L76.1399 83.9063C75.8363 84.4304 76.6918 85.0649 77.3266 85.258C76.9678 85.0925 78.8996 84.5407 79.3135 84.1546H78.3752C80.583 83.4098 79.5067 81.0654 81.8248 80.3482C81.6592 80.762 81.8248 82.4169 83.0391 82.2238C83.2599 81.3412 84.0602 77.6727 86.13 76.7073L86.6543 77.0383L88.1997 76.128C87.3718 77.6175 85.2192 80.5688 84.1982 82.0859C85.1364 82.0859 84.5845 82.4996 85.7988 82.0859C86.3507 82.3617 85.3296 82.9134 84.9985 83.0789C85.9046 82.8382 86.8269 82.663 87.7582 82.5548C87.3994 81.6722 89.7451 81.0929 89.4692 80.3758L86.5439 82.0859C86.1575 81.2584 87.703 79.0518 89.9383 78.7484C90.573 79.0242 89.9383 80.4309 89.9383 80.7344C90.5512 80.2536 91.3119 80.0001 92.0909 80.0172L91.263 80.6516C92.4772 80.8171 93.0292 79.107 94.547 79.8242C95.0713 79.8242 96.12 80.9274 96.1752 80.3758C95.238 78.8602 94.9403 77.0351 95.3473 75.3006C96.543 75.6119 97.7001 76.056 98.7969 76.6246C99.6524 77.4245 97.5827 78.6381 98.3278 79.3828C98.3278 79.1346 98.7969 78.776 98.9901 78.6933C99.1833 78.6105 98.7693 79.4656 99.9284 79.3828C100.122 78.445 102.247 79.5208 100.453 78.6105C101.612 78.3623 101.667 78.8035 102.992 78.8035C102.578 78.1416 104.289 76.79 105.503 76.6521C105.503 76.9003 105.641 77.2314 105.779 77.3693C108.125 77.6451 109.311 78.3071 111.491 78.6657C111.657 78.9139 112.651 79.3552 112.126 79.6862C112.54 79.4634 113.016 79.3858 113.478 79.4656C114.582 80.5413 111.988 79.2449 112.761 80.431C112.954 79.9069 114.61 80.0724 115.521 79.9344C115.521 79.0518 113.368 79.3 112.375 79.4104C112.568 78.2795 114.472 77.452 116.928 77.452C118.832 77.6451 117.535 78.3898 117.894 78.3071C121.178 79.4931 121.399 77.121 123.938 78.9139C124.793 79.9896 123.496 80.3206 123.551 80.8998C122.061 80.6792 121.537 79.6862 120.516 79.438L121.62 80.1551C120.927 80.2571 120.22 80.1312 119.605 79.7966C120.35 80.6516 125.124 81.617 127.387 83.272C127.912 83.272 128.795 83.272 128.546 82.8858L127.718 82.6652C127.222 81.8101 129.512 82.4996 128.629 81.8376C130.043 81.6911 131.465 82.0318 132.658 82.8031V83.6857C132.658 83.4651 131.913 82.8031 131.389 82.8307C132.162 82.8307 133.155 84.8718 134.148 84.2649C133.9 83.9064 133.652 83.5478 133.376 83.2168C134.816 83.137 136.25 83.4619 137.515 84.1546C137.295 83.1064 137.157 84.1546 136.687 82.7479C136.936 84.2098 133.348 80.9551 134.093 82.7479C133.597 81.2585 132.603 81.5343 131.72 79.9897C131.72 80.2655 131.968 80.6792 130.892 79.9897C130.782 80.0015 130.671 80.0015 130.561 79.9897V79.9897C130.753 80.1664 130.888 80.3971 130.947 80.6516C130.147 80.955 128.353 80.2379 127.608 80.293C127.001 79.9069 128.022 80.0999 127.746 79.6862H126.67C126.808 79.0794 125.207 78.0588 126.946 78.3071L125.511 77.7555C124.718 77.1127 123.763 76.7021 122.751 76.5694C122.089 76.2108 120.764 76.7073 121.509 76.4315L119.053 76.1005V75.9625C117.843 75.6496 116.604 75.4647 115.355 75.4109C114.006 75.2784 112.699 74.865 111.519 74.1973C110.506 74.2815 109.487 74.1786 108.511 73.8938L108.318 73.3146C107.242 73.3146 105.199 72.4872 104.675 73.0112C103.654 71.3839 99.5144 72.4871 97.6379 72.2665V72.9836C96.2547 73.0585 94.8845 73.2898 93.5535 73.6732L93.7191 74.28C92.4221 74.9696 90.1867 74.28 88.0617 74.7765C88.0617 74.5007 88.6964 74.4455 89.1104 74.5283C87.7445 74.2544 86.3257 74.532 85.1641 75.3006C84.0826 76.0159 82.8404 76.4519 81.5489 76.5694C81.3687 76.7375 81.1553 76.8661 80.9224 76.9469C80.6895 77.0276 80.4423 77.0588 80.1966 77.0383H80.3346H80.0862H79.2031C79.4594 77.0745 79.7195 77.0745 79.9758 77.0383C79.4048 77.2587 78.8663 77.5557 78.3752 77.921L78.2648 77.2038H78.1269C77.4093 77.2038 77.7681 77.7003 78.2924 78.0037C78.0497 78.2236 77.8364 78.4739 77.6577 78.7484C76.7194 78.0313 76.2503 79.8518 75.0636 79.1346C74.8704 79.7414 72.3039 81.2585 72.6903 82.4169C72.6903 82.279 72.3867 82.4169 72.6903 82.1411C71.9806 82.3173 71.3555 82.737 70.9241 83.3271L70.179 82.7754C69.9306 83.4098 69.7098 84.0167 69.5166 84.6511C68.4404 84.8166 67.9436 84.8442 68.33 83.7409C67.0881 85.9751 67.0329 85.2028 66.1774 87.2439L65.9015 86.775C65.3495 87.2439 65.0459 88.5679 64.4112 88.5127C62.507 88.8161 58.8919 94.0292 55.7734 96.7875C57.5396 97.0081 54.1176 98.0011 55.0835 98.8286C54.6143 98.8286 54.1176 99.2147 54.2004 98.47C53.4001 100.456 52.0754 101.008 52.3238 102.8C51.8823 102.8 52.0202 102.139 51.7167 102.221C51.4131 102.304 51.7167 103.021 51.4407 103.131C51.1647 103.242 51.2751 102.69 51.2751 102.304C50.4196 104.4 51.2751 105.062 52.379 105.614C52.1814 105.725 52.0087 105.875 51.8714 106.055C51.7342 106.235 51.6353 106.441 51.581 106.661C51.5267 106.88 51.518 107.109 51.5556 107.332C51.5932 107.555 51.6762 107.769 51.7995 107.958C51.3579 108.179 50.7783 108.676 51.0819 107.352C51.0819 107.71 50.4196 108.758 50.116 109.807C49.8125 110.855 49.7573 111.848 50.116 111.985C49.8401 112.151 49.8125 112.978 49.8677 113.199C49.6193 114.882 49.5365 115.02 49.3985 116.675L49.6193 116.233C50.5576 116.95 49.7573 117.612 49.8677 118.991C49.095 122.053 50.1988 120.26 49.6193 123.35L50.254 123.101C51.6891 123.101 49.6745 125.86 50.7232 127.487L50.668 126.853C51.3855 127.625 49.3433 129.969 49.6193 130.99C49.6193 131.238 49.3157 130.742 49.1226 130.466C49.1226 133.224 50.0608 130.466 50.9163 132.259C50.6128 132.755 49.6469 132.259 50.0333 133.528C49.8677 134.383 53.0413 136.286 53.0965 138.272C53.0965 137.748 53.2897 137.279 54.0072 137.858C54.8351 138.879 54.8075 141.747 56.5461 141.995C56.573 142.051 56.587 142.113 56.587 142.175C56.587 142.237 56.573 142.298 56.5461 142.354C57.4016 143.016 59.0022 144.671 59.8853 144.671C58.809 147.015 65.0735 148.284 63.6385 149.774L66.1222 151.677H65.929C66.3327 152.121 66.8281 152.471 67.3809 152.705C67.9337 152.938 68.5306 153.049 69.1303 153.028C69.4339 153.387 69.1303 153.36 68.9371 153.442C69.5557 154.192 70.3306 154.797 71.2077 155.217C72.0847 155.636 73.0428 155.859 74.0149 155.869L73.877 156.587C74.6221 156.587 76.9678 159.676 80.031 160.062C79.9176 160.165 79.7706 160.224 79.6171 160.228C81.3401 160.647 82.969 161.386 84.4189 162.407C85.9368 163.262 87.3994 163.538 88.2549 162.407H90.4351C87.8686 161.552 91.0698 161.441 90.0763 160.779C91.0974 160.779 92.56 162.103 91.2906 161.965L91.0974 161.8C90.3799 163.069 94.3538 162.738 94.1606 163.593C99.3574 164.465 104.647 164.641 109.891 164.117L109.173 163.206L110.884 162.986C111.381 163.151 111.629 163.675 110.388 163.841C111.133 164.282 112.402 163.013 112.375 162.793C114.886 162.793 111.657 164.117 112.375 164.006L113.368 163.758H113.12C113.865 163.207 113.837 162.71 115.3 162.434C116.266 162.434 115.907 162.903 116.293 162.848C116.68 162.793 116.293 162.848 116.873 162.848C117.452 162.848 118.336 162.6 119.025 162.379L117.977 161.855C118.805 161.221 119.936 161.276 118.722 160.724C120.346 160.985 122.012 160.745 123.496 160.035C124.8 159.421 126.158 158.932 127.553 158.573C128.618 157.547 129.901 156.774 131.306 156.311C130.864 156.311 130.285 155.649 131.582 155.125C131.941 157 134.342 154.656 135.887 155.29C134.562 155.014 139.337 153.084 137.295 152.808C138.398 152.339 137.709 153.359 138.73 153.277C140.772 151.208 144.249 150.353 147.009 148.064C147.009 147.843 146.208 147.871 146.595 147.153H148.802C149.272 146.629 148.471 145.636 149.961 145.554C149.713 145.554 149.299 145.416 149.63 145.085C152.764 143.367 155.567 141.107 157.909 138.41C160.338 135.651 162.601 132.893 165.25 129.942C164.395 130.687 164.643 129.942 164.947 129.307C164.643 129.721 164.395 129.059 164.063 129.004C164.784 128.193 165.439 127.326 166.023 126.411C165.361 125.611 166.796 123.046 166.023 122.577C166.023 122.908 166.023 123.239 166.023 123.57C165.278 122.191 163.401 124.867 162.187 124.287C162.628 125.032 161.883 125.722 161.276 126.439C160.843 126.742 160.506 127.163 160.306 127.652C160.105 128.141 160.049 128.677 160.145 129.197C159.676 129.445 159.952 128.645 159.565 128.701C159.841 129.418 159.565 130.052 158.737 130.88V130.687C157.116 132.993 155.04 134.946 152.638 136.424L153.273 136.727C152.889 137.013 152.446 137.211 151.976 137.306C151.976 138.658 153.687 135.817 153.797 137.168C152.169 136.975 149.382 140.947 147.837 140.203C146.815 140.975 148.582 140.589 147.561 141.333H147.064V141.94C146.827 142.113 146.542 142.206 146.25 142.206C145.957 142.206 145.672 142.113 145.436 141.94C145.629 141.94 145.85 141.527 146.015 141.361C144.856 141.609 143.614 143.347 143.255 143.43L144.387 142.906C141.793 145.333 138.04 147.153 135.556 149.553L135.915 149.691C133.955 151.429 133.983 150.436 131.61 151.953C131.174 152.534 130.594 152.991 129.926 153.277C130.423 152.642 128.436 153.277 129.098 152.449C126.835 154.132 128.05 153.442 126.835 155.208L126.256 154.904C125.869 155.594 125.897 155.814 124.628 156.449C125.538 155.621 123.496 156.063 124.49 155.042C121.399 155.042 120.764 157.635 118.97 156.476C118.115 158.242 121.73 156.476 121.012 156.973C121.758 157.221 120.267 158.324 119.329 158.462C118.391 158.6 117.287 157.276 115.024 157.828C115.245 157.828 115.245 157.662 115.465 157.607C114.555 157.469 113.92 158.49 112.706 158.186C112.292 159.152 111.326 158.352 111.354 159.483C112.056 159.304 112.747 159.083 113.423 158.821C112.319 159.428 111.381 160.779 109.256 160.531C109.539 160.173 109.897 159.881 110.305 159.676C109.67 159.455 109.229 160.062 108.566 159.841C108.566 158.738 111.105 159.179 112.237 158.159C111.547 157.8 109.974 159.317 110.415 158.159C109.725 159.759 108.152 158.435 106.717 159.648V158.986C106.363 159.237 105.958 159.406 105.531 159.483L106.276 158.573C105.089 159.373 103.82 158.131 102.66 158.573C105.172 158.352 103.268 159.317 104.371 159.731C101.225 160.862 102.495 158.076 99.1005 158.38C99.542 158.38 100.839 158.793 100.094 159.097C99.4128 158.973 98.7645 158.71 98.1898 158.324C95.9268 158.324 98.4934 159.042 97.4999 159.373C96.7823 158.49 96.3684 159.566 95.2921 159.676V159.014C92.7532 158.269 94.409 160.31 92.0909 159.483L93.2499 158.711C92.836 158.711 92.422 158.711 92.0081 158.711L92.3944 158.021C91.358 158.222 90.2839 158.025 89.3864 157.469C89.5796 158.021 88.9172 158.6 87.7582 158.352C87.0958 157.773 88.3653 157.855 86.7371 157.524C87.2338 157.249 87.7582 156.807 88.2825 157.524C88.2825 157.331 88.7517 157.221 88.8897 157.028C88.1997 156.394 86.8751 156.421 86.3231 156.173C86.5262 156.272 86.7125 156.402 86.8751 156.559H84.3361C84.0878 156.2 84.3362 156.118 84.7777 156.035C84.2419 156.021 83.7074 155.975 83.1771 155.897C83.5634 155.456 83.729 154.932 84.7501 155.042L82.432 154.821C82.432 154.573 81.6593 153.773 81.9904 153.718C81.0521 152.918 78.7892 153.332 77.5473 152.091C77.3239 152.168 77.0808 152.168 76.8574 152.091C75.5604 151.153 74.7325 149.884 72.8007 149.332C72.8007 148.864 72.5799 148.422 72.4971 147.953C71.2001 147.236 72.911 149.801 70.7585 148.615C69.1579 147.815 70.7585 147.567 70.4273 146.988C69.725 147.007 69.031 146.832 68.4222 146.481C67.8134 146.131 67.3135 145.619 66.9777 145.002C67.5297 145.03 67.7505 145.388 68.192 145.636ZM56.9601 132.066C57.236 132.314 57.9259 132.728 57.6776 133.114C56.8221 133.114 57.0153 132.673 56.9601 132.066ZM55.5526 105.724C55.5526 106.055 55.387 106.386 54.9731 106.717C55.0685 106.338 55.2695 105.994 55.5526 105.724V105.724ZM124.545 77.452C123.744 76.9555 123.993 77.2038 124.517 77.452H124.545ZM126.118 78.3071C126.339 78.3071 126.339 78.3071 126.311 78.0864C126.283 77.8658 125.759 78.0864 125.345 77.8933C125.373 78.0864 125.538 78.2795 126.09 78.3071H126.118ZM116.487 162.71H116.1C116.9 162.186 116.652 162.407 116.487 162.71Z" fill="#4A2B0E"/>
<path d="M55.2489 108.979C55.1232 109.019 54.9882 109.019 54.8625 108.979C54.9177 109.172 55.0281 109.227 55.2489 108.979Z" fill="#4A2B0E"/>
<path d="M99.1003 79.0794C98.8525 79.0342 98.6228 78.9194 98.438 78.7484C98.4104 78.9139 98.576 79.0242 99.1003 79.0794Z" fill="#4A2B0E"/>
<path d="M135.252 81.0103L134.148 80.6793C134.487 80.7943 134.777 81.0171 134.976 81.3136C135.032 81.1481 134.921 80.8448 135.252 81.0103Z" fill="#4A2B0E"/>
<path d="M141.738 89.4505C141.903 89.4505 142.014 89.6436 142.207 89.6436V89.3678C141.738 89.0092 141.186 88.954 141.738 89.4505Z" fill="#4A2B0E"/>
<path d="M135.197 83.4651C135.032 84.0167 135.721 84.1823 136.467 84.4581C136.936 83.7961 136.053 83.6306 135.197 83.4651Z" fill="#4A2B0E"/>
<path d="M136.66 84.5132C136.885 84.5956 137.098 84.7068 137.295 84.8442C137.543 84.6236 137.074 84.6512 136.66 84.5132Z" fill="#4A2B0E"/>
<path d="M128.326 78.776C128.629 79.0518 128.822 78.2244 128.933 78.5002C129.595 78.0037 126.256 78.3623 128.326 78.776Z" fill="#4A2B0E"/>
<path d="M134.921 85.4234L135.004 84.6786L134.369 84.9821L134.921 85.4234Z" fill="#4A2B0E"/>
<path d="M129.623 82.3066L130.671 82.9962C130.671 82.9962 130.864 82.9962 131.085 82.9962C130.395 82.7203 129.678 82.1135 129.623 82.3066Z" fill="#4A2B0E"/>
<path d="M131.085 82.9135C131.368 83.0955 131.689 83.2089 132.023 83.2444C131.722 83.1046 131.408 82.9938 131.085 82.9135Z" fill="#4A2B0E"/>
<path d="M133.348 84.8166L133.072 84.5408L132.3 84.127L133.348 84.8166Z" fill="#4A2B0E"/>
<path d="M117.066 77.8933H115.686C115.493 78.0864 115.824 78.3071 116.321 78.3347C116.818 78.3623 117.204 78.1692 117.066 77.8933Z" fill="#4A2B0E"/>
<path d="M120.433 80.8171C120.13 80.5964 120.157 80.431 120.047 80.1552L119.743 80.9826L120.433 80.8171Z" fill="#4A2B0E"/>
<path d="M116.68 79.9621C116.486 80.1552 114.665 80.2104 116.293 80.5138C116.486 80.2931 117.811 80.4586 116.68 79.9621Z" fill="#4A2B0E"/>
<path d="M97.0032 76.8452L97.3343 76.8176L97.224 75.4109L97.0032 76.8452Z" fill="#4A2B0E"/>
<path d="M81.0244 83.8236C82.487 83.5202 81.0244 82.8582 82.4318 82.7755C82.625 82.3617 81.2451 82.7755 81.4935 82.4445C81.0244 83.0789 80.4172 83.1616 81.0244 83.8236Z" fill="#4A2B0E"/>
<path d="M81.604 82.4445L81.9627 82.0859C81.8285 82.1898 81.708 82.3103 81.604 82.4445V82.4445Z" fill="#4A2B0E"/>
<path d="M167.182 124.343C167.38 123.981 167.547 123.603 167.679 123.212C167.509 123.46 167.315 123.691 167.099 123.901L167.182 124.343Z" fill="#4A2B0E"/>
<path d="M166.575 121.971L167.513 121.805L166.768 121.033C166.713 121.336 166.713 121.805 166.575 121.971Z" fill="#4A2B0E"/>
<path d="M57.6774 129.032H57.4566C57.2911 129.225 57.4566 129.418 57.4566 129.831L57.6774 129.032Z" fill="#4A2B0E"/>
<path d="M63.3625 139.872L63.2245 139.706L62.8933 140.534L63.3625 139.872Z" fill="#4A2B0E"/>
<path d="M71.8346 146.353C71.531 146.078 70.9791 145.912 70.6755 145.609C71.5034 146.16 71.3379 147.236 71.8346 146.353Z" fill="#4A2B0E"/>
</svg>
