<svg width="77" height="208" viewBox="0 0 77 208" fill="none" xmlns="http://www.w3.org/2000/svg">
<path d="M23.6535 4.21466C22.9172 4.21466 23.1514 4.81673 23.0176 4.91708C24.2224 4.85018 23.62 4.01396 23.6535 4.21466Z" fill="#4A2B0E"/>
<path d="M35.6349 3.41183L35.4006 3.67943L37.2079 3.07733L35.6349 3.41183Z" fill="#4A2B0E"/>
<path d="M45.1396 4.01394C45.1396 3.41184 44.4033 3.41176 43.6336 3.51211C43.1988 3.53549 42.7631 3.53549 42.3283 3.51211C41.7964 3.59888 41.2539 3.59888 40.7219 3.51211L40.4207 3.21107L39.4502 4.11429H41.3578H43.0646C43.7393 3.92142 44.4495 3.88708 45.1396 4.01394V4.01394Z" fill="#4A2B0E"/>
<path d="M43.8008 7.32548C44.2693 7.09133 44.1689 7.32542 43.8008 6.95747C43.8251 7.07892 43.8251 7.20403 43.8008 7.32548V7.32548Z" fill="#4A2B0E"/>
<path d="M43.8343 7.05787C43.8343 6.85717 43.4326 7.42582 43.8343 7.05787V7.05787Z" fill="#4A2B0E"/>
<path d="M44.035 9.73389L43.6668 8.19522C43.3656 8.49627 43.2987 9.90109 43.0979 9.36589C43.2987 10.9715 43.5664 10.637 44.035 9.73389Z" fill="#4A2B0E"/>
<path d="M44.9051 11.239V10.4363C44.9051 10.4363 44.5704 10.7707 44.9051 11.239Z" fill="#4A2B0E"/>
<path d="M44.3696 8.73038L44.7378 10.4364C44.7378 10.2022 45.3067 10.2022 44.7378 9.63359C44.972 9.80084 44.6374 9.43283 44.3696 8.73038Z" fill="#4A2B0E"/>
<path d="M44.5704 7.82725C44.8381 7.55966 45.0054 6.95757 45.407 7.62656C45.2732 6.25512 44.4365 6.95756 44.5704 7.82725Z" fill="#4A2B0E"/>
<path d="M46.4444 2.87666L45.7416 2.47528L44.7041 2.8098C45.2061 2.64255 46.2101 3.24461 46.4444 2.87666Z" fill="#4A2B0E"/>
<path d="M43.332 19.4343C43.5998 19.4343 44.0349 18.8991 44.3361 18.7653L44.0683 17.628C43.901 18.2301 43.7336 19.334 43.332 19.4343Z" fill="#4A2B0E"/>
<path d="M44.3362 18.7653L44.8047 20.5048C44.8382 18.9661 44.6374 18.6984 44.3362 18.7653Z" fill="#4A2B0E"/>
<path d="M46.2439 11.5402L45.3403 8.69695L46.2439 12.0754V11.5402Z" fill="#4A2B0E"/>
<path d="M43.3658 25.9905L42.7634 25.0205L43.667 26.7599L43.3658 25.9905Z" fill="#4A2B0E"/>
<path d="M43.4994 30.339C42.9974 29.6366 42.7297 31.3425 42.395 30.5731C42.5355 31.6585 42.8639 32.7112 43.3656 33.684C43.1258 32.5757 43.1719 31.4247 43.4994 30.339Z" fill="#4A2B0E"/>
<path d="M43.9344 35.2227C43.7779 34.7091 43.5879 34.2062 43.3655 33.7174C43.481 34.2441 43.6727 34.7512 43.9344 35.2227V35.2227Z" fill="#4A2B0E"/>
<path d="M44.6708 23.4149C44.4647 23.5821 44.2957 23.7903 44.1746 24.0265C44.0536 24.2627 43.9832 24.5215 43.968 24.7864L44.6708 24.084V23.4149Z" fill="#4A2B0E"/>
<path d="M44.6711 23.2478V23.415C44.6711 23.415 44.7715 23.3147 44.6711 23.2478Z" fill="#4A2B0E"/>
<path d="M45.541 15.989C45.9092 17.026 46.3442 19.0998 46.9801 17.0928C46.4781 16.3569 46.2104 17.5277 45.541 15.989Z" fill="#4A2B0E"/>
<path d="M45.5746 22.4115V20.5717C45.3738 20.5717 45.1061 20.9396 44.9053 20.5717L45.5746 22.4115Z" fill="#4A2B0E"/>
<path d="M45.8088 23.3147L45.5745 22.4115L45.541 23.0805L45.8088 23.3147Z" fill="#4A2B0E"/>
<path d="M44.5373 32.045C44.8281 32.8841 44.9751 33.7661 44.9723 34.6541C45.0557 33.6077 45.0557 32.5564 44.9723 31.5099C44.9054 31.3761 44.4703 30.9412 44.5373 32.045Z" fill="#4A2B0E"/>
<path d="M44.6711 28.1648V28.332C44.6711 28.332 44.7715 28.1314 44.6711 28.1648Z" fill="#4A2B0E"/>
<path d="M45.3735 44.2543L45.5074 44.1205L45.3735 44.087V44.2543Z" fill="#4A2B0E"/>
<path d="M45.2399 31.3426C45.347 30.76 45.2526 30.1584 44.9722 29.6366C45.0077 30.2605 45.0077 30.886 44.9722 31.5099C44.9722 31.5099 45.3068 31.5767 45.2399 31.3426Z" fill="#4A2B0E"/>
<path d="M44.3695 37.8653C44.3695 37.4305 44.6038 36.9622 44.7042 36.4939C44.5034 36.8953 44.1687 37.7315 44.3695 37.8653Z" fill="#4A2B0E"/>
<path d="M44.5035 28.5328C44.3362 28.7335 44.4031 28.7 44.5035 28.5328V28.5328Z" fill="#4A2B0E"/>
<path d="M44.5034 28.5328C44.612 28.8981 44.7696 29.2469 44.972 29.5698C44.9055 29.1306 44.8161 28.6952 44.7042 28.2653L44.5034 28.5328Z" fill="#4A2B0E"/>
<path d="M50.0928 46.8968C49.4235 46.8968 48.7207 44.7895 49.3231 42.9832C48.7207 41.2773 46.6122 42.4814 45.4744 44.087C45.7756 44.087 46.0433 44.0871 46.5453 45.8934C46.8465 45.2578 47.1477 41.8793 47.8505 43.3511C48.3191 45.6926 47.8505 45.3247 47.4155 46.4954C48.1852 45.4585 48.8211 49.4391 49.9924 48.837L49.4235 46.7965C49.5574 46.7296 49.959 47.4655 50.0928 46.8968Z" fill="#4A2B0E"/>
<path d="M45.3738 40.6416V39.9057C45.2551 40.8144 44.9835 41.6966 44.5706 42.5148C44.9722 43.7524 45.2399 43.9867 45.4742 44.0536V40.4074L45.3738 40.6416Z" fill="#4A2B0E"/>
<path d="M45.1392 36.5942C45.8754 37.1294 46.277 38.9022 47.0133 37.7984C47.0133 35.6241 46.344 36.2931 45.9758 34.9886C46.277 38.5008 45.5408 34.0185 45.2396 36.5607C45.108 35.9318 45.0186 35.2948 44.9718 34.6541C44.9718 35.2896 44.9718 35.8918 44.7041 36.4939C44.7041 36.3266 44.7041 36.2932 44.7041 36.4939L44.9718 36.6611C44.9718 37.6646 44.8045 36.6611 44.7041 36.4939L45.2396 39.8389C45.2883 38.7563 45.2547 37.6717 45.1392 36.5942V36.5942Z" fill="#4A2B0E"/>
<path d="M48.5196 18.9661C48.4192 19.3006 48.4861 19.3675 48.5196 18.9661V18.9661Z" fill="#4A2B0E"/>
<path d="M48.0846 20.371C47.811 20.0073 47.6908 19.551 47.7499 19.0999C47.9842 18.364 48.118 19.0999 48.3523 19.0999C48.5866 19.0999 47.8168 17.3605 47.4822 18.8992V19.1668C47.2144 20.5717 46.3443 22.5118 46.2439 22.1438C46.9841 21.7001 47.6135 21.0938 48.0846 20.371V20.371Z" fill="#4A2B0E"/>
<path d="M46.7461 28.5328L47.1477 31.4429L47.7166 29.9377H47.3485C47.4823 28.5328 47.0138 28.7669 46.7461 28.5328Z" fill="#4A2B0E"/>
<path d="M45.0388 44.6221L44.269 44.2876L45.4069 45.9267L45.0388 44.6221Z" fill="#4A2B0E"/>
<path d="M45.3405 48.4354L44.6711 48.3351L45.1732 49.3386L45.3405 48.4354Z" fill="#4A2B0E"/>
<path d="M8.69339 200.131L7.42163 199.462C7.83249 199.709 8.2571 199.932 8.69339 200.131V200.131Z" fill="#4A2B0E"/>
<path d="M16.0901 203.509L16.3244 203.208C15.8893 203.342 15.7554 203.442 16.0901 203.509Z" fill="#4A2B0E"/>
<path d="M67.9974 135.238C67.395 136.442 66.391 137.814 67.1273 137.68L67.8636 137.312C67.7619 136.619 67.8075 135.912 67.9974 135.238Z" fill="#4A2B0E"/>
<path d="M67.094 197.455H67.5625C67.6888 197.166 67.7787 196.863 67.8303 196.552C67.6075 196.871 67.3614 197.172 67.094 197.455V197.455Z" fill="#4A2B0E"/>
<path d="M67.7632 200.465C67.082 200.641 66.3883 200.764 65.6882 200.833C66.3966 200.838 67.0999 200.714 67.7632 200.465Z" fill="#4A2B0E"/>
<path d="M1.93334 164.774L1.13013 163.804C1.23053 165.376 1.56521 164.674 1.93334 164.774Z" fill="#4A2B0E"/>
<path d="M59.3296 85.9328C59.6879 86.722 60.1252 87.4728 60.6348 88.1739C60.1997 86.9697 59.9989 85.799 59.3296 85.9328Z" fill="#4A2B0E"/>
<path d="M15.186 195.113C14.7509 195.113 14.4832 195.113 14.4163 195.113C14.8848 195.314 15.186 195.314 15.186 195.113Z" fill="#4A2B0E"/>
<path d="M62.3415 90.4486C62.3558 90.2816 62.3558 90.1137 62.3415 89.9467C61.7635 89.4153 61.247 88.8206 60.802 88.1739C60.999 89.1036 61.5513 89.9199 62.3415 90.4486V90.4486Z" fill="#4A2B0E"/>
<path d="M19.0686 45.9268C19.0686 45.9268 19.0686 45.7261 19.0686 45.6592C19.0686 45.5923 19.0351 45.7261 19.0686 45.9268Z" fill="#4A2B0E"/>
<path d="M26.7661 10.4028C26.7661 10.7708 26.7661 11.3394 26.7661 11.8746C26.8371 11.3866 26.8371 10.8909 26.7661 10.4028V10.4028Z" fill="#4A2B0E"/>
<path d="M46.7123 64.023C46.5115 63.1868 46.7123 64.023 46.7123 64.023V64.023Z" fill="#4A2B0E"/>
<path d="M48.988 59.6078C48.988 59.6078 49.1888 59.8754 49.3562 59.8754C49.2781 59.8629 49.204 59.8321 49.14 59.7856C49.076 59.7391 49.024 59.6783 48.988 59.6078V59.6078Z" fill="#4A2B0E"/>
<path d="M69.2361 95.0982C69.3365 94.9309 69.3365 94.9644 69.2361 95.0982V95.0982Z" fill="#4A2B0E"/>
<path d="M46.846 62.7186C46.8108 63.0857 46.8108 63.4553 46.846 63.8224V62.7186Z" fill="#4A2B0E"/>
<path d="M46.545 62.9528V62.2169C46.545 62.2169 46.2103 62.2169 46.545 62.9528Z" fill="#4A2B0E"/>
<path d="M46.9801 65.3278C46.9513 64.8711 46.9513 64.413 46.9801 63.9563C46.9801 64.1124 46.9801 64.1793 46.9801 64.157V65.3278Z" fill="#4A2B0E"/>
<path d="M3.23854 107.508V107.341C3.0712 106.505 3.0712 106.872 3.23854 107.508Z" fill="#4A2B0E"/>
<path d="M75.0259 156.211L74.9925 156.144L74.959 156.245L75.0259 156.211Z" fill="#4A2B0E"/>
<path d="M75.4271 158.987C75.1088 158.588 74.8986 158.114 74.8165 157.61C74.7345 157.107 74.7834 156.59 74.9585 156.111L72.8167 156.98L75.4271 158.987Z" fill="#4A2B0E"/>
<path d="M4.00816 183.707L3.53962 185.781C2.2344 183.439 2.46867 181.633 1.73239 183.606C4.00816 183.606 2.70294 191.467 5.0791 191.534C5.0791 192.036 4.84484 192.37 4.74444 193.006C4.74444 192.437 4.74444 192.504 4.74444 192.103C4.65593 192.363 4.59973 192.632 4.57711 192.906C4.53924 193.194 4.53924 193.487 4.57711 193.775C4.65238 194.215 4.83645 194.629 5.11258 194.98C5.79981 195.686 6.28515 196.564 6.51819 197.522C6.99758 197.825 7.45599 198.16 7.89035 198.525C9.1621 199.629 10.0657 200.599 8.8609 200.131C9.86714 200.637 10.9071 201.073 11.9733 201.435C12.7766 201.904 12.4084 202.138 11.6052 201.67C12.4458 202.119 13.3322 202.478 14.2491 202.74L16.4579 203.175C17.1273 202.974 18.5664 202.673 19.2357 202.539C20.2063 203.041 18.6668 202.706 18.901 203.008L21.2437 202.807C22.0804 203.509 20.1393 203.877 18.5329 203.476C20.3736 206.051 20.5409 203.309 24.9586 205.048H22.7832C24.055 206.486 25.7953 206.185 28.2049 207.122C27.6025 206.687 23.4526 204.78 25.9626 204.379C26.9195 204.691 27.9508 204.691 28.9077 204.379C28.9077 205.182 30.1795 205.048 31.7859 205.048V206.118C33.5597 205.851 33.4258 205.282 34.4633 204.847C35.0363 204.816 35.6058 204.956 36.1 205.247C36.5942 205.539 36.9912 205.97 37.241 206.486C40.3535 206.486 35.0991 205.148 38.7805 204.948C41.2825 205.206 43.8106 204.897 46.1768 204.044C47.984 204.312 45.909 204.747 46.5449 205.015L48.0844 204.044C48.486 204.044 48.3856 204.312 48.3187 204.446C49.6239 204.044 48.3187 203.409 50.4271 202.941C50.8956 201.736 54.8782 204.345 57.3548 202.64C58.0241 202.874 57.1205 203.342 57.3548 203.71C59.3848 203.092 61.313 202.179 63.0777 201C64.064 200.973 65.0477 200.884 66.0228 200.733C63.9478 200.733 66.0228 198.96 67.4284 197.388H65.6212L67.7296 195.782C68.1312 195.782 68.2651 196.117 68.1647 196.652C68.2808 196.538 68.372 196.402 68.4324 196.251C68.6993 196.22 68.9687 196.22 69.2356 196.251C69.2356 196.251 69.5034 196.251 69.6372 196.552C69.7711 196.853 69.6372 197.12 69.6372 197.522C69.0799 197.554 68.5212 197.554 67.9639 197.522C67.6627 198.391 67.1272 199.428 67.5957 199.897C67.9269 199.558 68.3113 199.275 68.7336 199.06C68.7336 199.295 68.5328 199.529 68.7336 199.562C68.9344 199.596 69.2356 199.194 69.6707 198.659L71.5114 199.094L71.3441 198.659L72.3481 198.291L73.419 193.207C71.9816 189.776 71.0895 186.142 70.7751 182.436C71.5449 183.673 72.1807 182.804 73.1847 182.938C72.0134 184.175 73.3856 186.684 72.984 189.126C73.1848 187.855 73.6533 188.189 73.8206 188.524L73.1513 184.008C73.988 184.008 73.8541 183.138 74.2892 182.001C72.5489 182.737 73.3856 178.656 72.984 176.783C73.5529 176.783 74.1218 177.184 73.8206 179.358C75.2597 177.017 72.0803 176.013 73.2851 173.806C73.2851 174.341 73.2851 174.642 73.2851 174.843C72.8835 173.572 73.2852 170.528 73.921 171.297V171.832C74.3226 168.286 74.5234 160.961 73.1178 160.392C73.8003 160.548 74.455 160.808 75.0589 161.162L70.5743 154.472C71.7457 155.074 74.7577 153.033 75.3266 156.01C75.649 154.805 75.649 153.536 75.3266 152.331C75.1593 152.9 73.5194 153.702 73.4525 152.899C74.2931 151.618 74.9678 150.236 75.4605 148.785C75.1593 149.655 73.2852 148.618 73.3856 147.246C73.6533 147.481 75.2932 147.246 75.4605 147.715L73.6868 144.37C73.988 145.24 75.2597 144.57 75.8287 143.801C75.427 144.136 75.8287 140.824 75.8287 139.921L75.3601 141.359C75.6948 137.513 72.8166 137.513 72.8836 133.699C73.2852 134.168 75.2932 134.87 75.5275 132.897C72.9203 131.036 70.8812 128.488 69.6372 125.537L70.1727 124.902L69.4699 122.326C71.7548 124.927 73.7209 127.79 75.3266 130.856C75.7617 129.384 75.9625 130.455 75.8956 128.28C76.4311 127.511 76.6988 129.451 76.7323 130.087C76.7323 128.414 76.9331 126.742 77 125.002C75.8621 125.236 75.7617 121.156 74.8247 121.356L76.1299 126.842C75.0255 127.076 72.7831 123.731 72.984 120.152C73.3856 119.249 74.992 120.788 75.3601 120.687C74.8629 119.516 74.6563 118.242 74.7577 116.974L75.4271 118.48C75.7283 116.439 73.7537 115.135 74.6908 112.793C74.6908 111.99 75.996 110.217 75.2932 110.117C74.4638 110.83 73.4618 111.314 72.3872 111.519C71.3126 111.725 70.2029 111.645 69.1687 111.288C69.4826 109.473 69.9301 107.685 70.5074 105.936C71.3775 104.498 73.1178 107.742 73.8541 106.471C73.5529 106.471 73.0843 105.769 72.9505 105.468C72.9505 104.564 73.921 105.702 73.5864 103.829C72.415 103.829 73.0844 99.9483 72.5154 103.059C71.913 101.253 72.5154 101.052 72.0469 98.8779C71.4445 99.6807 69.3026 97.3726 68.4994 95.7336C68.8006 95.7336 69.0683 95.2988 69.1687 95.0312C68.8779 91.8892 67.7192 88.8897 65.822 86.3677C65.822 85.9328 65.0522 84.3606 65.822 84.6282C65.141 84.3618 64.5331 83.9376 64.0482 83.3906C63.4793 81.1494 65.7216 85.1969 65.6212 83.1899C65.0188 83.4909 63.1111 81.5843 61.7725 80.6811C61.3039 81.7181 63.9478 83.5244 65.1192 84.4945C64.0148 85.3642 61.237 84.2603 58.4257 81.8854C56.2504 79.8784 58.4257 80.3467 57.8233 80.0791C56.8221 78.6382 55.4605 77.4849 53.8742 76.7341C53.1343 76.3875 52.4875 75.8701 51.9871 75.2245C51.4867 74.5789 51.147 73.8237 50.996 73.0211C50.996 70.6796 52.569 72.1849 52.9371 71.4824C54.3093 73.4894 54.3762 74.8274 55.3468 76.2992L54.5435 74.426C55.4309 75.0465 56.1545 75.873 56.652 76.8344C55.8241 75.1246 54.885 73.4708 53.8407 71.8838C53.2387 70.6821 52.8213 69.3966 52.6025 68.0706C52.2849 66.892 52.1162 65.6783 52.1005 64.4579C51.6654 63.7889 51.1299 62.5847 50.8956 63.2203L51.2638 64.5249C50.7952 65.8963 49.7912 62.2168 49.7912 63.9562C48.6365 62.0821 48.0012 59.9349 47.9505 57.7345L48.9211 57.1324C48.6199 57.1324 48.5195 58.8383 48.9211 59.5408C48.2852 58.5038 49.8582 55.4934 48.4191 54.4899L47.8836 56.3296C46.8044 54.4348 46.1747 52.3177 46.0429 50.1413C45.1058 51.2452 46.0429 50.6431 45.1393 52.3491C46.4445 50.8104 45.6413 58.1693 46.9465 55.694C45.7417 57.5003 46.6453 58.6377 45.8421 60.9792C46.1433 60.9792 46.3441 60.1094 46.478 62.083C46.6057 62.1899 46.7183 62.3138 46.8126 62.451V62.451C46.838 62.0782 46.9654 61.7194 47.1808 61.4139C48.0175 62.2167 48.5864 65.2941 49.1888 66.2307C49.1888 67.4015 48.7203 65.8293 48.486 66.5318L49.4231 67.9702C48.7537 68.2713 49.1219 71.3151 47.8836 68.7395L48.5864 71.3152C48.7834 73.2354 49.593 75.0413 50.8956 76.4664C51.498 77.6372 53.3722 78.5069 52.2678 78.0052C53.2049 78.9752 54.142 79.9118 55.079 80.7815V80.9488C57.3883 83.8924 61.0362 85.9327 62.241 89.8464C63.2144 90.6722 63.9627 91.7309 64.4164 92.9238L63.9144 93.4255C64.2263 94.1679 64.3966 94.9621 64.4164 95.7671C64.4164 96.7371 64.6841 97.5733 65.0857 97.8075C63.747 99.6138 65.9893 104.899 65.8555 107.675H66.6921C66.9148 109.657 67.2613 111.624 67.7296 113.562L68.4659 113.362C68.7319 116.154 68.7319 118.965 68.4659 121.758C68.1647 121.557 68.2316 120.754 68.4659 120.152C66.8595 123.999 69.9384 128.18 68.6667 131.692C68.8865 132.366 68.8865 133.092 68.6667 133.766C68.6667 133.766 68.6667 133.766 68.6667 133.565V133.933L68.2985 135.138C68.4502 134.799 68.5843 134.453 68.7002 134.101C68.7208 134.998 68.8104 135.893 68.9679 136.777L68.1647 137.211V137.446C67.83 138.416 68.5328 138.215 69.1352 137.713C69.2342 138.167 69.3917 138.605 69.6038 139.018C68.2985 139.787 70.0054 141.66 68.5998 142.697C69.2691 143.4 69.0014 147.715 70.3735 148.283C70.3735 148.283 70.1058 148.618 70.1058 148.083C69.7968 149.176 69.7968 150.334 70.1058 151.428L69.0683 151.863L70.3735 154.338C69.7042 155.776 69.3026 156.378 68.5663 154.907C69.6372 158.486 68.901 157.783 69.9719 160.827L69.336 160.66C69.336 161.73 70.1058 163.503 69.5368 164.005C68.1647 166.346 68.7336 175.88 67.0937 181.967C69.1352 180.931 66.0228 184.777 67.4953 185.112C67.0268 185.446 66.6921 186.283 66.3574 185.112C66.5917 188.29 65.2865 189.761 66.3574 192.036C65.8889 192.37 65.755 191.333 65.4538 191.601C65.1526 191.869 65.7885 192.304 65.4538 192.37C65.1192 192.437 65.0857 192.17 64.8849 191.936C64.8849 192.738 66.1901 193.708 67.3949 194.779C65.822 194.779 65.6547 195.013 65.253 196.15C64.9853 196.15 64.5168 195.983 64.4164 195.816C64.316 195.649 64.6172 195.381 65.0522 195.113C65.4873 194.846 62.743 195.883 61.9063 196.083C60.5342 196.317 59.3294 196.685 59.3628 197.154C58.7402 197.072 58.1077 197.189 57.5556 197.488C55.079 197.722 54.8448 197.656 52.4016 197.99H53.1045C52.2678 199.361 51.0964 198.458 49.1219 198.759C44.5369 198.124 47.1808 199.361 42.6292 198.492L42.9304 199.295C42.5623 201.034 38.9144 198.391 36.237 199.027L37.1741 199.495C35.735 200.097 33.225 197.12 31.8193 196.853C31.5181 196.853 32.3214 196.652 32.7565 196.552C29.1085 195.414 32.2544 197.589 29.4097 197.722C28.9412 197.12 30.146 196.318 28.3053 196.117C27.4686 195.615 22.8502 197.589 20.5744 196.117C21.0429 196.619 21.545 197.12 20.2397 197.288C19.0724 197.031 17.9461 196.615 16.893 196.05C16.2906 195.749 15.7551 195.548 15.5878 195.481C15.1806 195.386 14.7567 195.386 14.3495 195.481C14.3162 195.408 14.299 195.328 14.299 195.247C14.299 195.166 14.3162 195.087 14.3495 195.013L13.6467 194.745L13.0778 194.578C12.6453 194.446 12.2207 194.29 11.806 194.11C11.622 193.735 11.3595 193.404 11.0363 193.14C11.3344 192.952 11.5701 192.681 11.7131 192.359C11.8561 192.037 11.9001 191.68 11.8395 191.334C11.7397 190.269 11.538 189.216 11.2371 188.189C10.6681 186.048 10.0992 184.075 11.2371 183.974L10.6681 179.292H10.9359C11.0433 177.499 10.5226 175.725 9.46331 174.274C9.46331 173.572 9.86491 174.073 9.99878 174.274C10.3934 171.376 9.86656 168.427 8.49276 165.845L9.39637 165.677C8.8609 164.707 10.2665 159.255 9.0617 155.04C9.15005 155.083 9.22844 155.144 9.29185 155.219C9.35525 155.294 9.40225 155.381 9.42983 155.475C8.19155 150.692 11.1032 143.835 8.05768 142.095L7.18754 138.917C7.18754 143.065 5.84886 138.349 5.41378 140.088C5.17951 138.449 6.18353 135.84 6.4178 137.814L6.25046 138.148C7.85689 138.817 6.65206 132.997 7.75647 133.064C7.45527 124.969 8.39235 117.075 8.79396 109.649L7.5222 110.452L7.78995 107.842C8.09115 107.173 8.79396 106.973 8.62663 108.813C9.3629 107.909 8.25849 105.668 7.99076 105.468C8.72703 101.855 9.32943 107.006 9.42983 105.869V104.364L9.2625 104.698C8.60811 103.602 8.39289 102.3 8.66009 101.052C9.09516 99.6807 9.49677 100.417 9.63064 99.8814C9.63064 99.8814 9.63064 99.7141 9.63064 99.0786C9.76273 98.0209 9.95267 96.9712 10.1996 95.9343C9.83145 96.2688 9.39637 96.6033 9.02823 97.0047C8.79396 95.5329 9.69757 94.0611 8.29195 95.2987C8.94506 94.5596 9.4151 93.6773 9.66411 92.7231C9.86492 92.121 10.0657 91.4855 10.2665 91.0506C10.5236 90.4766 10.8142 89.9182 11.1367 89.3781C12.1198 87.5178 13.3466 85.7967 14.7846 84.2603C15.6239 82.1411 16.8241 80.1832 18.3321 78.4734C17.7966 78.9083 16.6922 78.4735 18.0644 76.8344C19.47 78.7745 21.4111 74.0581 23.3522 72.1514C21.9465 73.4894 24.6574 65.4614 22.5824 67.8364C23.0844 65.9966 23.4191 67.8364 24.1888 66.5653C24.1888 61.9492 26.0965 56.7979 26.1634 51.2786C25.8622 51.2786 25.3602 52.048 25.0255 50.8772L26.6654 48.0675C26.6654 46.9971 25.0255 46.9971 26.1299 45.0905C25.8622 45.3581 25.4606 45.7595 25.4271 45.0905C27.3348 34.4534 24.7578 23.3815 27.3013 12.5772C26.7658 14.0489 26.6989 13.0789 26.6654 11.9416C26.6654 12.6775 25.9291 11.9416 25.5275 12.1088L26.565 7.55966C25.4271 6.75687 26.3642 2.70937 25.2933 2.27452L25.5275 3.71284C24.2223 1.83965 22.8167 6.42236 21.2103 6.18821C22.6828 8.2621 19.2357 11.8077 21.2103 15.2196C20.9091 15.989 20.7083 14.5842 20.3401 14.9856C20.7051 15.5613 20.9418 16.2088 21.0342 16.8841C21.1266 17.5593 21.0725 18.2466 20.8756 18.8991V18.665C20.8891 23.3787 20.5422 28.0866 19.8381 32.7474L20.6413 32.3126C20.5795 33.0756 20.387 33.8223 20.0724 34.5203C21.2437 36.0924 20.0724 30.8073 21.478 32.2122C19.8716 33.9516 21.2437 41.6116 19.3361 42.7155C19.3361 44.7559 20.3067 42.1468 20.2063 44.1873L19.6708 44.7225L20.2732 45.2577C20.2732 46.5957 19.47 47.2312 19.0684 47.2647C19.1016 46.8417 19.1016 46.4166 19.0684 45.9936C18.7696 47.7947 18.6575 49.6218 18.7337 51.4459L19.1688 49.5058C19.1688 55.0919 18.0644 61.7151 18.0309 66.9333L18.466 66.6322C18.4884 67.7897 18.2361 68.936 17.7297 69.9772C17.3616 70.8469 17.0938 71.1144 16.2237 73.0211V72.8539C16.049 73.9208 15.5991 74.9238 14.9185 75.764C15.2197 74.6267 13.0108 76.9682 13.4794 75.4964C11.4713 79.4435 12.6427 77.5703 11.9733 80.7815L11.0697 80.9488C11.0226 82.1612 10.6018 83.3295 9.86491 84.2938C10.5343 82.4206 8.22501 84.9628 8.89436 82.822C7.22255 84.1349 6.04328 85.9736 5.54764 88.0402L4.87831 90.3816C4.7064 91.019 4.31539 91.5756 3.77389 91.9537C4.3763 93.2917 4.84484 92.2882 5.14604 91.1175C5.44725 89.9467 6.01619 88.3412 5.88232 89.1774C6.35086 88.7091 6.45126 89.1775 6.38432 90.2479C6.41376 91.1519 6.30083 92.0549 6.04966 92.9238C5.71498 94.4291 3.23841 95.1315 2.70294 99.0786C2.70294 98.7106 2.70294 98.6438 2.70294 98.2758C2.06706 99.6807 2.70294 101.219 2.00013 102.959C2.97068 104.029 1.79932 105.267 3.10454 105.668V102.123C3.10454 104.163 4.6775 106.17 3.70695 109.415C3.37201 108.8 3.14558 108.132 3.03761 107.441C2.56907 108.378 3.03761 109.314 2.70294 110.318C1.36425 109.95 2.70295 105.969 1.8328 103.628C1.19692 104.631 2.50214 107.809 1.16345 106.605C2.83681 108.311 0.661448 110.452 2.00013 113.295L1.19692 113.094C1.46029 113.744 1.60755 114.434 1.63199 115.135L0.627981 113.73C1.46466 115.87 -0.275641 117.844 0.226366 119.884C0.226366 115.603 1.16346 118.948 1.76586 117.142C2.76988 122.393 -0.3091 120.152 0.0255713 126.073C0.0255713 125.27 0.527573 123.062 0.895712 124.3C0.758163 125.449 0.465457 126.574 0.0255713 127.645C0.259841 131.525 0.828781 127.043 1.33079 128.682C0.393708 130.02 1.76586 130.588 2.10053 132.294H1.29733C0.895721 136.743 2.97067 133.432 2.50213 137.412L1.33079 135.773L1.69893 137.847L0.76184 137.446C1.35449 139.095 1.50449 140.871 1.19692 142.597C1.73239 142.062 2.63601 142.831 2.76988 144.805C2.36827 146.143 1.96666 144.069 2.20093 146.845C1.66545 146.243 0.996119 145.574 1.69893 144.336C1.43119 144.336 1.16345 143.734 0.895712 143.634C0.621888 145.16 0.621888 146.723 0.895712 148.25C0.854483 147.894 0.854483 147.535 0.895712 147.18L2.2344 151.127C1.96667 151.796 1.69892 151.127 1.43119 150.792C1.68626 151.639 1.8985 152.499 2.06707 153.368C1.39773 153.067 0.728382 153.201 0.326776 151.528L1.29733 155.308C1.02959 155.575 0.627975 157.315 0.360238 156.847C0.0925005 158.987 1.9332 161.964 1.63199 164.808C1.86019 165.1 2.00996 165.445 2.06707 165.811C1.69865 168.531 1.89228 171.297 2.636 173.94L1.59852 175.813C2.06706 178.255 2.87027 173.304 3.64002 177.318C4.27589 180.195 2.7364 178.489 2.50213 179.526C3.82797 181.486 4.34364 183.884 3.94122 186.216C3.8969 185.379 3.91928 184.54 4.00816 183.707V183.707ZM25.6949 204.479C25.0925 204.479 23.8207 204.981 23.4191 204.479C24.2223 203.61 24.6909 204.111 25.6949 204.479V204.479ZM70.9425 194.812C71.085 195.579 70.9548 196.372 70.5743 197.053C70.5683 196.291 70.6928 195.533 70.9425 194.812V194.812ZM49.992 73.4226C50.5275 75.0282 50.3936 74.4595 49.992 73.4226V73.4226ZM49.1888 70.0776C48.988 69.81 48.8876 69.8434 48.8207 70.0776C49.1523 70.5417 49.3597 71.0829 49.4231 71.6497C49.4882 71.4071 49.501 71.1533 49.4606 70.9053C49.4202 70.6574 49.3276 70.4208 49.1888 70.2113V70.0776ZM9.39637 99.5803L9.12863 100.049C9.06169 98.7776 9.39637 99.2124 9.39637 99.5803Z" fill="#4A2B0E"/>
<path d="M67.7298 200.097C67.532 200.074 67.3456 199.993 67.1943 199.863C66.9935 200.097 67.0269 200.265 67.7298 200.097Z" fill="#4A2B0E"/>
<path d="M74.2226 105.468C74.209 105.864 74.106 106.253 73.9214 106.605C74.1222 106.571 74.2561 106.304 74.2226 105.468Z" fill="#4A2B0E"/>
<path d="M45.2397 55.5269L45.6414 57.2663C45.5109 56.739 45.5109 56.1879 45.6414 55.6606C45.541 55.6941 45.3067 56.0621 45.2397 55.5269Z" fill="#4A2B0E"/>
<path d="M49.2225 40.0061C49.2225 39.7385 49.2225 39.4709 49.0552 39.2033H48.687C48.7539 40.3741 49.0886 41.1099 49.2225 40.0061Z" fill="#4A2B0E"/>
<path d="M47.7495 53.6203C48.4188 53.4196 48.0842 52.3492 47.7495 51.145V51.3791C46.9128 51.078 47.3144 52.3492 47.7495 53.6203Z" fill="#4A2B0E"/>
<path d="M47.8168 50.8773C47.8168 50.4759 47.8168 50.1079 47.8168 49.74C47.8168 49.372 47.683 50.2083 47.8168 50.8773Z" fill="#4A2B0E"/>
<path d="M47.817 66.6657C47.817 66.0302 46.88 66.465 47.0808 66.0636C46.2106 65.5953 48.9215 69.8769 47.817 66.6657Z" fill="#4A2B0E"/>
<path d="M49.8918 52.4494L49.1221 52.9511L49.8583 53.5867L49.8918 52.4494Z" fill="#4A2B0E"/>
<path d="M50.3938 61.9827V60.0092C50.3938 60.0092 50.126 59.8085 50.0256 59.5409C50.1595 60.812 50.1595 62.15 50.3938 61.9827Z" fill="#4A2B0E"/>
<path d="M49.9924 59.6411C49.966 59.1134 49.853 58.5935 49.6577 58.1025C49.7221 58.6245 49.8341 59.1395 49.9924 59.6411Z" fill="#4A2B0E"/>
<path d="M50.4273 55.0586L50.2935 55.6607L50.3939 57.0321L50.4273 55.0586Z" fill="#4A2B0E"/>
<path d="M59.2627 80.9153L60.8357 82.3871C61.2038 82.3871 60.8357 81.785 60.3671 81.2832C59.8986 80.7815 59.2627 80.4805 59.2627 80.9153Z" fill="#4A2B0E"/>
<path d="M57.0535 74.5263C57.15 74.888 57.15 75.2685 57.0535 75.6301L57.8901 75.0615L57.0535 74.5263Z" fill="#4A2B0E"/>
<path d="M61.0696 79.109C61.4378 79.109 63.6801 80.9153 61.9063 78.9083C61.5382 78.9418 59.9987 77.47 61.0696 79.109Z" fill="#4A2B0E"/>
<path d="M71.7122 109.013L71.6453 108.478L69.9719 108.712L71.7122 109.013Z" fill="#4A2B0E"/>
<path d="M76.6653 137.211C77.1004 134.669 75.6279 136.609 76.1299 134.301C75.7283 133.733 75.7282 136.175 75.3601 135.572C75.7952 137.111 75.5274 137.914 76.6653 137.211Z" fill="#4A2B0E"/>
<path d="M75.36 135.572C75.2956 135.308 75.206 135.05 75.0923 134.803C75.1631 135.066 75.2526 135.323 75.36 135.572V135.572Z" fill="#4A2B0E"/>
<path d="M27.6027 4.44882L27.9039 2.80978L27.3684 3.88018L27.6027 4.44882Z" fill="#4A2B0E"/>
<path d="M26.1301 1.37146L27.2011 0.936594L26.1636 0C26.3309 0.367949 26.4648 1.07041 26.1301 1.37146Z" fill="#4A2B0E"/>
<path d="M30.2465 206.921V206.654C29.9787 206.353 29.6106 206.319 28.8074 206.252L30.2465 206.921Z" fill="#4A2B0E"/>
<path d="M5.0459 198.86L5.58137 199.261C5.54951 198.849 5.54951 198.435 5.58137 198.023V198.023C5.28017 198.325 5.17977 198.592 5.0459 198.86Z" fill="#4A2B0E"/>
<path d="M1.4314 178.255C1.4314 179.024 1.73261 179.894 1.76608 180.63C1.4314 179.057 2.70315 177.954 1.4314 178.255Z" fill="#4A2B0E"/>
<path d="M48.2183 17.8287C48.2183 17.8287 48.2183 17.1932 48.2183 17.0594C48.2023 17.3156 48.2023 17.5725 48.2183 17.8287Z" fill="#4A2B0E"/>
<path d="M47.2812 19.5682C47.5155 20.739 47.4486 19.334 47.6159 19.7354V20.0031V19.0665C47.482 19.2337 47.4151 19.8693 47.2812 19.5682Z" fill="#4A2B0E"/>
<path d="M46.4111 17.3605V16.9591C46.4111 16.6915 46.4111 16.6246 46.4111 16.4239C46.3587 16.7339 46.3587 17.0505 46.4111 17.3605V17.3605Z" fill="#4A2B0E"/>
<path d="M46.4783 18.2636V18.0629C46.4783 18.0629 46.4448 17.9291 46.4783 18.2636Z" fill="#4A2B0E"/>
<path d="M46.5117 17.695V18.0629C46.5117 18.2636 46.5117 18.6315 46.5117 18.0629C46.5452 18.2636 46.5117 17.9291 46.5117 17.695Z" fill="#4A2B0E"/>
<path d="M46.5784 17.8623C46.6464 18.1369 46.6464 18.4239 46.5784 18.6985C46.8796 18.4978 46.7122 17.6616 46.5784 17.8623Z" fill="#4A2B0E"/>
<path d="M47.4152 20.7724V21.1069V20.7055C47.549 20.9062 47.3817 20.4045 47.4152 20.7724Z" fill="#4A2B0E"/>
<path d="M45.8419 16.8253C45.8151 17.1593 45.8151 17.4948 45.8419 17.8288V17.5278C45.8189 17.2942 45.8189 17.0589 45.8419 16.8253V16.8253Z" fill="#4A2B0E"/>
<path d="M46.0095 17.8288V18.2636C46.0095 18.2636 46.2103 18.0964 46.0095 17.8288Z" fill="#4A2B0E"/>
<path d="M46.679 19.5682V18.6316L46.6455 19.5682H46.679Z" fill="#4A2B0E"/>
<path d="M45.5078 16.8588L45.4744 16.2901L45.5078 17.1598V16.8588Z" fill="#4A2B0E"/>
<path d="M45.2732 16.9925C45.2732 16.4908 45.2732 16.1898 45.2732 15.8887C45.2324 16.1884 45.2324 16.4922 45.2732 16.7918C45.1059 16.5577 45.1393 16.5911 45.2732 16.9925Z" fill="#4A2B0E"/>
<path d="M45.8086 18.1633C45.8204 17.9293 45.8204 17.6949 45.8086 17.4609V18.1633Z" fill="#4A2B0E"/>
<path d="M46.2104 18.9661C46.1376 19.4316 46.1376 19.9055 46.2104 20.3709C46.4446 19.9026 46.2104 19.5682 46.2104 18.9661Z" fill="#4A2B0E"/>
<path d="M46.0096 19.033C45.9932 18.8103 45.9932 18.5866 46.0096 18.3639V19.033Z" fill="#4A2B0E"/>
<path d="M46.0093 19.3006V19.0664L45.9758 18.9995L46.0093 19.3006Z" fill="#4A2B0E"/>
<path d="M45.3403 17.9627C45.3403 18.2972 45.3403 18.2971 45.3403 18.364C45.3403 18.4309 45.3403 18.5647 45.3403 18.5647C45.3403 18.5647 45.3738 17.9292 45.3403 17.9627Z" fill="#4A2B0E"/>
<path d="M45.0056 17.695V18.0629C45.0725 17.8287 44.9721 17.4943 45.0056 17.695Z" fill="#4A2B0E"/>
<path d="M45.5073 17.9961C45.493 18.1407 45.493 18.2863 45.5073 18.4309C45.4945 18.3422 45.4945 18.252 45.5073 18.1633C45.5073 18.1633 45.5408 18.063 45.5073 17.9961Z" fill="#4A2B0E"/>
<path d="M45.3065 23.0135C45.3065 22.3445 45.3065 21.7089 45.3065 22.4114C45.1845 21.1181 44.9833 19.8333 44.7041 18.5646C44.7395 18.8758 44.7395 19.19 44.7041 19.5012C44.8895 19.9604 45.0024 20.4457 45.0388 20.9396C45.0388 21.2741 45.0388 20.7054 44.8045 20.3709C44.8045 21.1737 44.8045 21.5751 45.0388 22.7793V22.3444C45.1104 22.5741 45.2 22.7978 45.3065 23.0135V23.0135Z" fill="#4A2B0E"/>
<path d="M44.9721 18.4978C44.8597 18.2155 44.7701 17.9246 44.7044 17.628C44.6845 17.8841 44.6845 18.1413 44.7044 18.3974H44.9052L44.9721 18.4978Z" fill="#4A2B0E"/>
<path d="M45.1729 18.4978C45.1938 19.1042 45.2609 19.708 45.3736 20.3042C45.3736 20.3042 45.3736 19.6686 45.3736 19.3676C45.3736 19.5683 45.3736 18.9661 45.3736 18.5647C45.3736 18.1633 45.3736 18.5647 45.3736 18.364C45.361 18.2641 45.361 18.1629 45.3736 18.063V18.063C45.3736 18.063 45.3736 18.2302 45.3736 18.063C45.39 18.1514 45.39 18.2422 45.3736 18.3306C45.343 18.2441 45.343 18.1495 45.3736 18.063V18.063V18.4978C45.3736 18.4978 45.1059 18.4978 45.1729 18.4978Z" fill="#4A2B0E"/>
<path d="M46.478 21.5083C46.478 21.5083 46.478 21.1404 46.478 21.2073C46.4963 21.3964 46.4963 21.5869 46.478 21.776C46.5366 21.4891 46.5366 21.1932 46.478 20.9063C46.3214 20.5187 46.2092 20.1147 46.1433 19.702C46.2102 20.4379 46.2102 20.9062 46.478 21.5083Z" fill="#4A2B0E"/>
<path d="M45.8423 20.1702V20.5716V21.1737V20.8058C45.8423 20.8058 45.8758 20.4712 45.8423 20.1702Z" fill="#4A2B0E"/>
<path d="M44.7044 18.0963L44.604 17.3269L44.7044 18.4308V18.0963Z" fill="#4A2B0E"/>
<path d="M44.5372 18.2302L44.4368 17.5612V17.9626L44.5372 18.2302Z" fill="#4A2B0E"/>
<path d="M34.7644 27.964V28.1648C34.7801 28.0988 34.7801 28.03 34.7644 27.964V27.964Z" fill="#4A2B0E"/>
<path d="M35.0991 27.9641V27.6297C35.0656 27.8304 35.0656 27.9641 35.0991 27.9641Z" fill="#4A2B0E"/>
<path d="M39.7514 18.9995C39.7514 18.3974 39.3832 17.4608 39.5171 18.1967V18.8992C39.5171 18.8992 39.6844 18.8323 39.7514 18.9995Z" fill="#4A2B0E"/>
<path d="M37.1408 23.7829V23.9836C37.1408 23.7495 37.1408 23.5153 37.1408 23.2811C37.1243 23.448 37.1243 23.616 37.1408 23.7829Z" fill="#4A2B0E"/>
<path d="M37.5423 26.76V26.2916C37.5282 26.4474 37.5282 26.6042 37.5423 26.76V26.76Z" fill="#4A2B0E"/>
<path d="M33.1245 29.0011V29.7369C33.1245 29.7369 33.1914 29.369 33.1245 29.0011Z" fill="#4A2B0E"/>
<path d="M42.5626 18.7653C42.5201 18.6207 42.452 18.4848 42.3618 18.3639C42.4957 18.7653 42.6296 19.3674 42.5626 18.7653Z" fill="#4A2B0E"/>
<path d="M33.7607 20.3375C33.7438 20.482 33.7438 20.6279 33.7607 20.7724C33.7948 20.6295 33.7948 20.4805 33.7607 20.3375V20.3375Z" fill="#4A2B0E"/>
<path d="M23.8208 22.377C23.8208 22.377 23.8535 22.2789 23.8208 22.377V22.377Z" fill="#4A2B0E"/>
<path d="M43.7339 17.9947C43.7339 17.9947 43.7666 17.8639 43.7339 17.9947V17.9947Z" fill="#4A2B0E"/>
<path d="M29.8452 26.9271C29.8117 27.1613 29.8452 27.0944 29.8452 26.9271V26.9271Z" fill="#4A2B0E"/>
<path d="M39.7178 27.1613C39.7178 26.2582 39.7178 26.3585 39.7178 26.5592L39.3496 24.4854L39.7178 27.1613Z" fill="#4A2B0E"/>
<path d="M34.0281 28.2986L34.2289 28.9342C34.1226 29.4641 34.1226 30.0099 34.2289 30.5398C33.8943 28.2986 34.5971 30.2387 34.2289 27.9976V28.4659C34.5301 29.5029 34.2289 26.8268 34.2289 27.1278C34.2708 27.3713 34.2708 27.6202 34.2289 27.8637V27.2951C34.2289 27.2951 34.2289 27.73 34.2289 27.6965V27.4958C34.2289 27.1613 34.2289 26.5927 34.2289 26.3585C34.2289 26.693 34.2289 26.5927 34.2289 26.8938V26.3251C34.2289 26.8937 34.2289 27.4624 34.2289 27.3955C34.664 29.6366 34.229 26.8268 34.664 28.0979V28.3989C34.7705 28.9405 34.9389 29.468 35.166 29.9711C34.9346 29.1376 34.7668 28.2878 34.664 27.429C34.664 27.5962 34.664 27.6631 34.664 27.1948C34.664 27.9976 34.664 27.7969 34.8983 27.73V28.8003C34.9452 28.3556 34.9452 27.9071 34.8983 27.4623C35.1094 27.9636 35.2447 28.4935 35.2999 29.0345C35.2999 29.2017 34.9987 27.7635 35.2999 27.5293C35.5007 27.8973 35.5342 27.5293 35.5676 26.7934C35.6105 27.1153 35.6105 27.4415 35.5676 27.7634V26.8938C35.5922 27.0264 35.5922 27.1625 35.5676 27.2951C35.5676 26.9606 35.5676 26.2582 35.5676 25.9572C35.5676 24.7864 36.0362 27.6296 35.9692 26.2582C35.9931 26.6146 35.9931 26.9722 35.9692 27.3286C36.0229 26.7165 36.0229 26.1009 35.9692 25.4888L36.2035 26.1579C36.0263 25.3338 35.9476 24.4917 35.9692 23.6491L35.735 22.7794V22.1773C35.735 22.3446 35.735 22.7125 35.735 23.1474V22.9132C35.8632 23.4286 35.9417 23.955 35.9692 24.4854C35.9692 24.2847 35.9692 24.084 35.9692 23.8498C35.9692 24.4854 35.9692 25.2212 36.2035 25.8233V25.5557C36.2035 25.7229 36.2035 25.8902 36.2035 25.9905C36.2035 26.0909 36.2035 25.9906 36.2035 25.5892L36.4378 26.7599V26.2916L36.7725 26.9941C36.6491 25.8266 36.6491 24.6493 36.7725 23.4818C36.7725 24.3515 36.7724 24.8867 37.1071 25.9237C36.8728 24.8533 37.1071 26.4254 36.8394 26.2247C36.8769 26.4798 36.8769 26.739 36.8394 26.9941V25.9572C36.8716 26.2936 36.9622 26.6218 37.1071 26.9271C36.8059 25.2546 37.1071 25.7898 37.1071 25.2546C37.1071 25.8233 37.1071 26.3919 37.1071 26.2916C37.4418 27.4958 37.1071 24.318 37.2745 25.355C37.2745 25.355 37.2745 25.355 37.2745 25.5557C37.2745 25.0539 37.4753 25.5557 37.5087 25.9237C37.7095 26.1244 38.0442 25.9237 37.8769 24.4519C37.8769 24.6526 38.1111 26.1578 38.1446 26.4589L39.1486 21.8428C39.4431 23.414 39.6553 24.9994 39.7845 26.5927C39.7845 26.5927 39.7845 26.9607 39.9853 26.5927C40.1861 26.2248 39.6506 24.8533 39.6506 24.7529C39.9853 26.0575 39.8514 25.4554 40.1526 26.5592C40.0248 25.8745 39.9465 25.1814 39.9184 24.4854C39.9184 24.753 40.2196 26.3251 40.2196 26.5258V24.6526C40.2196 24.9871 40.4538 26.2247 40.5542 26.7599C40.5542 26.392 40.5542 26.7599 40.5542 26.5592V26.1579C40.7885 26.392 40.3534 23.5152 40.5542 23.5821C40.6261 24.4492 40.7603 25.3101 40.9558 26.1579C40.9558 25.2213 40.4873 21.5417 40.5542 20.8058V21.3411V20.7055C40.5542 22.1438 40.8889 25.1877 40.9558 26.3919C40.9558 26.7933 40.9558 27.0275 41.1566 26.9606C41.2485 27.2203 41.2485 27.5037 41.1566 27.7634L41.4579 28.0644C41.4579 26.9606 41.4579 26.9271 41.4579 25.9905V27.1948C41.4579 26.0909 41.1567 24.0171 41.4579 24.1843C41.7591 24.3516 41.7256 26.1578 41.7925 26.5258C41.7925 26.1578 41.7925 25.7899 41.7925 26.0575V26.6596C41.7925 27.061 41.7925 25.1543 42.0268 26.1912C42.0268 26.1912 42.3615 27.5962 42.2611 26.9606C41.9933 25.6895 41.3909 21.7759 41.324 20.8058C41.324 20.8058 41.7256 21.9766 41.8594 22.6122C41.9933 23.2477 42.0937 24.9871 42.2945 25.9572C42.2945 25.6561 42.2945 25.2881 42.2945 25.1543C42.2945 25.0205 42.2945 26.1244 42.4953 25.9572C42.4953 24.8199 42.6961 25.9571 42.4953 24.9871C42.4953 24.6526 42.4953 25.2212 42.7296 25.1543C42.5759 24.2147 42.5087 23.263 42.5288 22.3111C42.5288 22.6122 42.5288 22.9801 42.5288 23.1474C42.5288 23.3146 42.9304 23.7159 43.0977 23.6825C43.2127 24.0417 43.2912 24.4115 43.332 24.7864C43.3146 24.5749 43.3146 24.3623 43.332 24.1508C43.5997 25.1209 43.332 24.3181 43.332 25.4888C43.2611 25.0344 43.2611 24.5718 43.332 24.1174C43.1647 23.1139 43.1312 24.1174 43.0977 24.385C42.8984 23.2143 42.8311 22.025 42.8969 20.8393C42.8969 20.4714 43.0977 21.7424 43.0977 21.5417C43.0977 21.3411 43.0977 19.0664 43.3655 20.0365C43.6332 21.0065 43.6332 21.8093 43.7336 22.4449C43.834 23.0804 43.4659 21.9097 43.399 21.9431V22.3445C43.399 22.6456 43.399 22.8797 43.399 22.6456C43.5998 23.4149 43.901 22.6456 44.2356 23.4149C44.2652 23.0923 44.2652 22.7675 44.2356 22.4449C44.2356 21.7424 44.2356 21.4414 44.2356 21.1069C44.2356 20.7724 44.2356 19.8023 44.4364 20.1703V21.1737C44.4364 20.9061 44.4364 20.6051 44.4364 20.9062C44.4364 20.4379 44.838 22.2442 44.7042 20.9062L44.5034 20.2372C44.5034 19.702 44.5034 18.5981 44.5034 18.8992C44.3026 17.9291 44.5034 18.8992 44.2356 17.8622C44.5368 19.334 43.9344 17.8623 44.2356 19.3675C44.0861 18.7902 43.9074 18.2208 43.7002 17.6615C43.7002 17.996 43.7002 18.2971 43.7002 18.1633V18.4978C43.7153 18.6647 43.7153 18.8326 43.7002 18.9995C43.7297 19.4004 43.7297 19.8029 43.7002 20.2038C43.7002 20.0365 43.7002 19.8024 43.7002 19.4679V20.0699C43.5167 19.5316 43.4262 18.9661 43.4324 18.3974C43.4324 17.996 43.1647 17.8622 43.1647 18.1633C43.1647 18.4643 43.1647 19.033 43.1647 18.4309V18.9327V18.4978C42.9639 18.4978 42.9639 19.8023 42.5623 18.4978C42.5623 18.6985 42.5623 18.966 42.3615 18.7653V18.1299C42.3615 18.364 42.0268 17.4943 42.0937 18.1299C41.759 16.3905 41.6587 17.7953 41.4579 17.5277V18.364C41.4579 18.364 41.4579 18.5647 41.2236 18.9327V19.6686C41.2236 20.3041 40.8889 19.1668 40.7216 19.2672C40.5542 19.3675 40.7216 19.0665 40.7216 19.2672C40.2865 17.6281 40.4873 20.5383 40.1192 19.2672C40.1192 19.5348 40.1192 19.4344 40.1192 19.2672V18.8992C40.1192 19.0664 40.1192 19.2337 40.1192 19.3006C40.1192 19.3675 40.1192 19.3005 40.1192 19.6016V18.7988C40.1192 18.4978 40.1192 19.1668 40.1192 19.7689V20.2706C39.8849 18.9995 40.1192 20.7055 39.7845 19.3675C39.7299 20.0131 39.7299 20.662 39.7845 21.3076C39.7766 21.2186 39.7766 21.129 39.7845 21.04C39.7845 20.8728 39.7845 20.739 39.7845 21.04L39.5837 20.0031V21.4079C39.4039 20.8332 39.3026 20.2369 39.2825 19.6351C39.2825 20.8727 39.2825 20.1369 39.2825 21.3411V20.672C39.2825 20.672 39.2825 21.6086 39.2825 21.0734C38.9813 19.8358 38.6466 21.0735 38.1446 19.8693C38.4793 21.8093 37.8769 19.0329 38.1446 20.5382C38.1007 20.1715 38.1007 19.801 38.1446 19.4344C38.1446 19.9027 37.7765 18.732 37.8434 20.0031C37.8434 19.5682 37.8434 19.3341 37.8434 19.0665C37.8434 18.7989 37.8434 19.4679 37.8434 19.0665C37.8286 18.8772 37.8286 18.6871 37.8434 18.4978C37.7888 19.4407 37.8677 20.3867 38.0777 21.3076C38.0777 20.7055 37.8769 20.8059 38.0777 21.6756C38.0777 21.2407 37.8434 20.8059 38.0777 20.6386C38.3119 20.4714 37.6091 20.0365 37.7765 21.1069C37.7765 20.8393 37.7765 21.1069 37.7765 21.1069C37.7765 21.1069 37.7765 21.1069 37.5087 21.1069V21.2741C37.5087 22.5786 37.5087 21.5752 37.5087 21.7424C37.1406 20.8727 37.5087 22.2107 37.0736 21.2072V21.9766C37.3079 23.6826 36.7055 21.0066 36.6721 21.6756V22.1438C36.3976 21.3221 36.1741 20.4843 36.0027 19.6351C35.9862 19.513 35.9862 19.3893 36.0027 19.2672C35.668 18.2971 36.0027 20.3375 36.0027 20.5717C35.9293 20.0649 35.8288 19.5625 35.7015 19.0665C35.7015 18.6316 35.7015 20.9397 35.4003 19.8693C35.4985 20.2636 35.5546 20.6672 35.5676 21.0734C35.5676 21.0734 35.0322 19.4679 35.1326 20.8393C35.1481 20.7284 35.1481 20.6158 35.1326 20.5048C35.0841 20.9607 35.0841 21.4204 35.1326 21.8763C34.664 19.1668 34.8648 23.2811 34.4632 20.7724L34.2624 20.9397V20.672C34.0616 20.672 34.2624 21.1403 34.2624 21.7424C34.2481 21.5643 34.2481 21.3853 34.2624 21.2072C33.9612 20.7389 33.9612 20.8393 33.9612 22.1438V21.3076C33.9612 21.8093 33.4592 20.1034 33.3588 21.0734C33.3588 21.0734 33.3588 20.8393 33.3588 20.7055C33.3588 21.709 32.4217 18.5312 32.7899 21.5083V22.2777C33.0576 22.4784 32.7898 23.5822 33.1245 24.0505C33.4592 24.5188 32.7899 23.1808 32.8568 23.0136V23.1808C32.656 21.6086 32.5221 22.679 32.3548 21.6086C31.9532 21.6086 31.4177 20.9397 31.0161 20.9397L31.2169 22.1438C31.2169 21.8762 31.0161 21.2073 31.2169 21.2407C31.2169 20.5717 31.2169 21.8427 31.2169 22.1103C30.9492 21.642 31.2169 20.7055 31.0161 20.672C31.0161 21.1738 31.0161 21.709 31.0161 21.6756C31.0006 21.4082 31.0006 21.1401 31.0161 20.8727C31.0161 20.8727 31.0161 20.8727 31.0161 20.8727H30.8153L31.0496 21.8093C31.0496 22.3111 31.0496 21.8093 31.0496 22.8797C30.6814 21.2072 30.3133 22.378 30.1794 21.8428C30.1794 22.5787 30.1794 22.5787 29.9117 22.5118C29.6439 22.4449 30.1459 23.7829 29.9117 23.6491C29.6439 21.4414 29.577 22.7125 29.2423 21.1404C29.4766 22.1773 28.9411 21.4413 29.2423 22.9466C29.12 22.5079 29.0305 22.0606 28.9746 21.6086C28.9746 22.4783 28.3722 21.1069 28.1379 21.6086C28.1636 21.9984 28.1636 22.3896 28.1379 22.7794L27.7698 21.3411C27.7698 21.5083 27.9706 23.047 27.7698 22.0435C27.7698 22.2776 27.7698 22.6455 27.7698 22.7459C27 21.4079 26.8327 24.0839 25.8622 21.5083C25.8622 22.0435 25.8622 22.1104 25.8622 22.1438C25.8622 22.1773 25.8622 22.8798 25.8622 23.2477L25.4606 22.2107C25.4606 23.3145 25.2263 22.2108 25.4606 23.3481V23.1474C25.4606 24.4185 25.996 25.8902 26.2303 27.4623C26.2303 26.0575 26.8327 29.5028 26.6988 27.4623C26.7171 27.7631 26.7171 28.0648 26.6988 28.3656C26.6988 27.6631 26.6988 27.5293 26.6988 27.7969V27.9641C26.9331 27.7634 27.1674 28.3989 27.569 28.8003V28.031C27.6804 28.1894 27.7495 28.3737 27.7698 28.5663C27.7698 27.3621 27.569 28.5662 27.4686 27.1948C27.7698 28.8004 27.9371 27.1948 28.2718 28.9676C28.2718 28.9676 28.1045 28.0644 28.2718 28.0644V28.5328V27.8972C28.4272 28.2479 28.5287 28.6201 28.573 29.0011C28.573 29.0011 28.573 29.0011 28.573 29.1683C28.7738 29.737 28.8073 28.9342 28.8742 29.1683V28.8673C29.1085 28.3655 29.5435 28.8673 29.6774 27.9307V27.5627C29.6774 26.8268 29.9117 27.9306 30.1125 27.5627C30.1125 27.1947 30.1125 26.994 30.1125 27.0275C30.1125 27.0609 30.3468 27.8638 30.3468 28.3656C30.4121 27.6982 30.4121 27.026 30.3468 26.3585V26.9606C30.2928 26.6171 30.2928 26.2672 30.3468 25.9237C30.3468 26.4923 30.581 26.8602 30.581 27.5627C31.0161 28.8672 30.581 26.1578 31.15 28.0979C31.15 26.392 30.7818 27.1947 30.7818 26.8268C30.7818 26.4588 30.7818 25.5557 30.7818 25.6895C30.7818 25.8233 31.2504 27.8638 31.4512 27.7969C31.652 27.73 31.4512 27.7969 31.4512 27.7969C31.4512 27.7969 31.4512 27.1948 31.7189 27.7969C31.7189 26.7599 31.7189 27.7969 31.7189 26.5258V26.8603C31.7189 26.4923 31.7189 24.9537 31.9197 25.6561C31.9352 25.9347 31.9352 26.2138 31.9197 26.4924C31.9197 26.8603 31.9197 26.2248 31.9197 26.4924C31.9197 27.8304 31.7189 26.8269 31.9197 27.8304C32.1205 28.8338 31.9197 26.8603 32.1205 28.2986C31.9532 26.4589 32.3548 28.4659 32.1205 27.0944V27.8637C32.1205 27.8637 32.1205 27.362 32.1205 27.3955V28.3989C32.1205 27.5292 32.4217 29.1349 32.4552 28.6331C32.2544 28.6331 32.2878 27.6965 32.087 27.1613C32.087 26.0575 32.5556 29.1683 32.7899 28.7669C32.6612 28.5067 32.5926 28.221 32.5891 27.9307C32.717 28.2103 32.8179 28.5015 32.8903 28.8003C32.8903 28.5996 32.8903 27.9976 32.8903 27.4958C33.0911 28.4324 32.8903 27.0944 32.8903 26.7599V27.5627C33.1915 28.031 32.6894 25.8903 32.8903 26.4924V27.5962V27.2951V28.1983C32.8903 27.5293 32.8903 27.6965 33.0911 27.9307C33.0028 27.4328 33.0028 26.9233 33.0911 26.4254C33.0911 26.8937 33.0911 27.1948 33.2919 27.061C33.2919 27.5627 33.2919 28.1982 33.2919 27.4623C33.2919 27.7299 33.2919 27.9641 33.2919 28.2317C33.2919 28.4993 33.5261 28.2317 33.5596 28.2317C33.5931 28.2317 33.5596 28.2317 33.5596 28.031V26.8938C33.574 27.1612 33.574 27.4291 33.5596 27.6965C33.5435 27.5073 33.5435 27.317 33.5596 27.1278C33.6084 27.6731 33.6084 28.2217 33.5596 28.7669V28.031C33.6656 28.3584 33.744 28.694 33.7939 29.0345C33.7939 29.4024 33.7939 27.73 34.0951 28.1983C34.0786 28.0874 34.0786 27.9746 34.0951 27.8637C34.0951 27.8637 34.4967 28.7669 34.5302 27.8637L34.7979 29.0011C34.7979 28.7335 34.4297 27.5627 34.5971 27.0944C34.7644 26.6261 34.7979 28.0644 34.8983 28.3989C34.8983 27.7968 34.8983 26.5927 35.0991 27.4958C34.1285 28.5328 34.0616 28.1982 34.0281 28.2986ZM35.5007 27.5293C35.5007 27.73 35.5007 28.2317 35.5007 27.7634C35.5007 27.2951 35.4338 27.2952 35.5007 27.5293ZM37.5757 25.2546C37.5757 25.5222 37.5757 25.4219 37.5757 25.2546C37.5757 25.0874 37.5087 25.1878 37.5757 25.1878V25.2546ZM43.332 18.732C43.2316 18.4978 43.2651 18.4978 43.332 18.732V18.732ZM43.5328 19.0665C43.5515 18.9558 43.5515 18.8427 43.5328 18.732C43.5328 18.9327 43.5328 18.9326 43.5328 18.8992C43.5328 18.8657 43.4993 19.2337 43.5328 19.0665ZM28.573 21.6086V21.8093C28.6065 22.0435 28.6065 21.8428 28.573 21.6086Z" fill="#4A2B0E"/>
<path d="M37.4754 26.3919C37.4754 26.3919 37.4754 26.1244 37.4754 25.9572C37.4594 26.1017 37.4594 26.2474 37.4754 26.3919V26.3919Z" fill="#4A2B0E"/>
<path d="M42.3952 26.1578C42.3763 26.0135 42.3763 25.8673 42.3952 25.723C42.3611 25.8659 42.3611 26.0149 42.3952 26.1578Z" fill="#4A2B0E"/>
<path d="M44.0683 17.5947V17.7954C44.0683 17.7954 44.0683 17.7954 44.0683 18.063C44.0683 18.3306 44.0349 17.5947 44.0683 17.5947Z" fill="#4A2B0E"/>
<path d="M45.5746 22.4115V22.0435C45.5493 22.1648 45.5493 22.2901 45.5746 22.4115V22.4115Z" fill="#4A2B0E"/>
<path d="M44.5369 20.2371C44.5369 20.9061 44.5369 20.6719 44.5369 20.5381C44.5703 19.5681 44.5703 19.9026 44.5369 20.2371Z" fill="#4A2B0E"/>
<path d="M43.6335 18.4978C43.6335 18.6985 43.6335 17.6615 43.6335 17.9291C43.4996 17.1263 43.5331 19.0664 43.6335 18.4978Z" fill="#4A2B0E"/>
<path d="M44.9388 22.4449L44.8049 21.6087L44.8719 22.2776L44.9388 22.4449Z" fill="#4A2B0E"/>
<path d="M44.3359 21.8428V22.0434C44.3027 21.9458 44.3027 21.84 44.3359 21.7424C44.3359 21.7424 44.3024 21.6421 44.3359 21.8428Z" fill="#4A2B0E"/>
<path d="M44.838 22.7124L44.771 22.5452L44.7041 22.4783L44.838 22.7124Z" fill="#4A2B0E"/>
<path d="M43.2314 21.8428V22.077C43.2314 22.378 43.2314 22.5453 43.2314 22.4115C43.2633 22.2233 43.2633 22.031 43.2314 21.8428Z" fill="#4A2B0E"/>
<path d="M43.6335 24.4184C43.6335 24.686 43.6335 25.2547 43.6335 25.1543C43.6335 25.054 43.7674 24.6191 43.6335 24.4184Z" fill="#4A2B0E"/>
<path d="M41.7929 23.348H41.8263L41.5586 21.6421L41.7929 23.348Z" fill="#4A2B0E"/>
<path d="M40.956 27.5962C40.956 27.9976 40.956 26.5592 40.956 27.0275C40.956 26.6261 40.956 26.6596 40.7552 26.2916C40.7436 26.735 40.8116 27.1768 40.956 27.5962V27.5962Z" fill="#4A2B0E"/>
<path d="M23.3856 21.5418L23.2517 21.1738L23.3856 21.7425V21.5418Z" fill="#4A2B0E"/>
<path d="M23.4191 22.7793L23.2183 21.7089V22.7125C23.2183 22.7125 23.3521 22.5452 23.4191 22.7793Z" fill="#4A2B0E"/>
<path d="M34.8314 29.0345L34.8649 29.0679L34.6641 28.0979L34.8314 29.0345Z" fill="#4A2B0E"/>
<path d="M34.0621 30.406C34.0621 30.406 34.0621 30.2387 34.0621 30.406C34.0621 30.5732 33.8613 29.2018 34.0621 30.406Z" fill="#4A2B0E"/>
<path d="M48.2184 8.19521C48.2184 8.19521 48.2184 7.55963 48.2184 7.42583C48.2003 7.68196 48.2003 7.93908 48.2184 8.19521Z" fill="#4A2B0E"/>
<path d="M47.2812 9.93465C47.5155 11.1054 47.4486 9.73394 47.6159 10.1353V10.4029V9.43292C47.6159 9.43292 47.4151 10.2691 47.2812 9.93465Z" fill="#4A2B0E"/>
<path d="M46.4111 7.76037V7.3255C46.4111 7.05791 46.4111 7.02448 46.4111 6.82378C46.3587 7.13378 46.3587 7.45037 46.4111 7.76037V7.76037Z" fill="#4A2B0E"/>
<path d="M46.4783 8.6301V8.46289C46.4783 8.46289 46.4448 8.46285 46.4783 8.6301Z" fill="#4A2B0E"/>
<path d="M46.5117 8.06142V8.4628C46.5117 8.63005 46.5117 9.03149 46.5117 8.29559C46.5452 8.66354 46.5117 8.46282 46.5117 8.06142Z" fill="#4A2B0E"/>
<path d="M46.5784 8.2287C46.6426 8.50376 46.6426 8.7899 46.5784 9.06495C46.8796 8.8977 46.7122 8.06145 46.5784 8.2287Z" fill="#4A2B0E"/>
<path d="M47.4152 11.1723V11.5068V11.1055C47.549 11.3062 47.3817 10.8044 47.4152 11.1723Z" fill="#4A2B0E"/>
<path d="M45.8422 7.22525C45.8156 7.54806 45.8156 7.87252 45.8422 8.19533V7.89419C45.8181 7.67184 45.8181 7.4476 45.8422 7.22525Z" fill="#4A2B0E"/>
<path d="M46.0095 8.19522V8.66347C46.0095 8.66347 46.2103 8.46282 46.0095 8.19522Z" fill="#4A2B0E"/>
<path d="M46.679 9.93458V9.03145L46.6455 9.96804L46.679 9.93458Z" fill="#4A2B0E"/>
<path d="M45.5078 7.25865L45.4744 6.65656L45.5078 7.55969V7.25865Z" fill="#4A2B0E"/>
<path d="M45.2732 7.35906C45.2732 6.89076 45.2732 6.55621 45.2732 6.25516C45.2324 6.55482 45.2324 6.8586 45.2732 7.15827C45.1059 6.95757 45.1393 6.99111 45.2732 7.35906Z" fill="#4A2B0E"/>
<path d="M45.8086 8.46275C45.8241 8.2177 45.8241 7.97191 45.8086 7.72685V8.42927V8.46275Z" fill="#4A2B0E"/>
<path d="M46.2104 9.33247C46.1389 9.80926 46.1389 10.294 46.2104 10.7708C46.4447 10.269 46.2104 9.93457 46.2104 9.33247Z" fill="#4A2B0E"/>
<path d="M46.0092 9.43295C45.9911 9.22149 45.9911 9.00885 46.0092 8.79739V9.43295Z" fill="#4A2B0E"/>
<path d="M46.0093 9.66697V9.43282L45.9758 9.36591L46.0093 9.66697Z" fill="#4A2B0E"/>
<path d="M45.3403 8.46289C45.3403 8.76394 45.3403 8.79737 45.3403 8.86427C45.3403 8.93117 45.3403 9.06503 45.3403 9.03158C45.3403 8.99813 45.3738 8.46289 45.3403 8.46289Z" fill="#4A2B0E"/>
<path d="M45.0056 8.06153V8.42943C45.0725 8.22873 44.9721 7.89428 45.0056 8.06153Z" fill="#4A2B0E"/>
<path d="M45.5075 8.46289C45.4923 8.60744 45.4923 8.75321 45.5075 8.89776C45.4938 8.82031 45.4938 8.74102 45.5075 8.66358V8.46289Z" fill="#4A2B0E"/>
<path d="M45.3065 13.38C45.3065 12.711 45.3065 12.1089 45.3065 12.7779C45.1865 11.4954 44.9853 10.2217 44.7041 8.96455C44.7404 9.2757 44.7404 9.59 44.7041 9.90115C44.8898 10.3486 45.0028 10.823 45.0388 11.3061C45.0388 11.674 45.0388 11.1054 44.8045 10.7709C44.8045 11.5737 44.8045 11.9751 45.0388 13.1793V12.7109C45.1078 12.9415 45.1974 13.1654 45.3065 13.38V13.38Z" fill="#4A2B0E"/>
<path d="M44.9719 8.998C44.8537 8.71777 44.7641 8.42638 44.7041 8.12827C44.6852 8.39553 44.6852 8.66387 44.7041 8.93113H44.9049L44.9719 8.998Z" fill="#4A2B0E"/>
<path d="M45.1729 8.86422C45.1919 9.47068 45.259 10.0747 45.3736 10.6705C45.3736 10.6705 45.3736 10.0684 45.3736 9.73395C45.3736 9.93465 45.3736 9.33251 45.3736 8.96456C45.3736 8.59661 45.3736 8.96457 45.3736 8.76387V8.42935C45.388 8.51797 45.388 8.60839 45.3736 8.69701C45.3736 8.69701 45.3736 8.5297 45.3736 8.42935V8.83073C45.3736 8.83073 45.1059 8.96457 45.1729 8.86422Z" fill="#4A2B0E"/>
<path d="M46.478 11.8078C46.478 11.8078 46.478 11.4064 46.478 11.4733C46.4963 11.6624 46.4963 11.8529 46.478 12.042C46.5367 11.7663 46.5367 11.4814 46.478 11.2058V11.2058C46.3209 10.8069 46.2087 10.3918 46.1433 9.96812C46.2102 10.8044 46.2102 11.2726 46.478 11.8078Z" fill="#4A2B0E"/>
<path d="M45.8423 10.5702V10.9381V11.5403V11.1722C45.8423 11.1722 45.8758 10.8378 45.8423 10.5702Z" fill="#4A2B0E"/>
<path d="M44.7044 8.49621L44.604 7.72685L44.7044 8.79725V8.49621Z" fill="#4A2B0E"/>
<path d="M44.5372 8.5966L44.4368 7.96104V8.329L44.5372 8.5966Z" fill="#4A2B0E"/>
<path d="M35.0991 18.4978V18.1633C35.0855 18.2744 35.0855 18.3867 35.0991 18.4978V18.4978Z" fill="#4A2B0E"/>
<path d="M39.7514 9.36588C39.7514 8.76378 39.3832 7.82722 39.5171 8.56312V9.29902C39.5171 9.29902 39.6844 9.23208 39.7514 9.36588Z" fill="#4A2B0E"/>
<path d="M37.1407 14.1493V14.3834C37.1407 14.1158 37.1407 13.8817 37.1407 13.681C37.1253 13.8367 37.1253 13.9936 37.1407 14.1493V14.1493Z" fill="#4A2B0E"/>
<path d="M37.5425 17.1263V16.6914C37.5288 16.836 37.5288 16.9816 37.5425 17.1263V17.1263Z" fill="#4A2B0E"/>
<path d="M33.1245 19.3675V20.1034C33.1245 20.1034 33.1914 19.7355 33.1245 19.3675Z" fill="#4A2B0E"/>
<path d="M42.5626 9.16524C42.5247 9.00861 42.4564 8.86088 42.3618 8.73038C42.4957 9.13178 42.6296 9.76734 42.5626 9.16524Z" fill="#4A2B0E"/>
<path d="M33.7607 10.7373C33.7438 10.8818 33.7438 11.0277 33.7607 11.1722C33.7948 11.0293 33.7948 10.8803 33.7607 10.7373V10.7373Z" fill="#4A2B0E"/>
<path d="M23.8208 12.7764C23.8208 12.7764 23.8535 12.6456 23.8208 12.7764V12.7764Z" fill="#4A2B0E"/>
<path d="M43.7339 8.46283C43.7339 8.46283 43.7674 8.22868 43.7339 8.46283V8.46283Z" fill="#4A2B0E"/>
<path d="M29.8452 17.2937C29.8117 17.5279 29.8452 17.4944 29.8452 17.2937V17.2937Z" fill="#4A2B0E"/>
<path d="M39.7178 17.5612C39.7178 16.658 39.7178 16.7584 39.7178 16.9256L39.3496 14.8852L39.7178 17.5612Z" fill="#4A2B0E"/>
<path d="M34.0285 18.6651L34.2293 19.3006C34.1228 19.8418 34.1228 20.3986 34.2293 20.9398C33.8946 18.6652 34.5974 20.6387 34.2293 18.3975V18.8658C34.5305 19.9362 34.2293 17.2268 34.2293 17.5278C34.2711 17.7825 34.2711 18.0424 34.2293 18.2972V17.7285C34.2293 17.7285 34.2293 18.1299 34.2293 18.0965V17.8958C34.2293 17.5279 34.2293 16.9927 34.2293 16.7585C34.2293 17.0596 34.2293 16.9926 34.2293 17.2602V16.6916C34.2293 17.2937 34.2293 17.8624 34.2293 17.7955C34.6643 20.0032 34.2293 17.1933 34.6644 18.4979V18.7989C34.7748 19.3286 34.9432 19.8446 35.1663 20.3376C34.9317 19.5049 34.7639 18.6548 34.6644 17.7955C34.6644 17.9627 34.6644 18.0631 34.6644 17.5948C34.6644 18.3976 34.6644 18.1634 34.8986 18.13V19.1669C34.9434 18.722 34.9434 18.2737 34.8986 17.8288C35.1079 18.3423 35.2431 18.883 35.3002 19.4345C35.3002 19.4345 34.999 18.13 35.3002 17.8958C35.501 18.2972 35.5345 17.8957 35.568 17.1933C35.6119 17.5039 35.6119 17.8193 35.568 18.13V17.2937C35.568 17.2937 35.568 17.5613 35.568 17.6951C35.568 17.8289 35.568 16.6247 35.568 16.3237C35.568 15.1529 36.0365 17.9962 35.9696 16.6582C35.9961 17.0145 35.9961 17.3722 35.9696 17.7285C36.0232 17.1052 36.0232 16.4786 35.9696 15.8553L36.2038 16.5578C36.0264 15.7225 35.9478 14.8692 35.9696 14.0156C35.9696 13.6477 35.7688 13.3131 35.7353 13.1459V12.5438C35.7353 12.7445 35.7353 13.1124 35.7353 13.5473V13.2797C35.8607 13.8069 35.9391 14.3443 35.9696 14.8853C35.9696 14.6846 35.9696 14.4505 35.9696 14.2498C35.9696 14.8853 35.9696 15.5878 36.2038 16.2233V15.9223C36.2038 16.0895 36.2038 16.2567 36.2038 16.357C36.2038 16.4574 36.2038 16.3571 36.2038 15.9557L36.4381 17.1264V16.6582L36.7728 17.3606C36.6589 16.2485 36.6589 15.1277 36.7728 14.0156C36.7728 14.8853 36.7728 15.4205 37.1074 16.4575C36.8732 15.3536 37.1074 16.9257 36.8397 16.725C36.8773 16.9801 36.8773 17.2393 36.8397 17.4944V16.4909C36.8685 16.8172 36.9594 17.1351 37.1074 17.4275C36.8062 15.7884 37.1074 16.3236 37.1074 15.7884C37.1074 16.3571 37.1074 16.9257 37.1074 16.7919C37.4421 18.0295 37.1075 14.8184 37.2748 15.8553C37.2748 15.8553 37.2748 15.8553 37.2748 16.0895C37.2748 15.5877 37.4756 16.0895 37.5091 16.4575C37.7099 16.6247 38.0445 16.4575 37.8772 14.9857C37.8772 15.1529 38.1115 16.6582 38.1449 16.9592L37.7433 12.1758C38.038 13.7582 38.2503 15.3548 38.3792 16.9592C38.3792 16.9592 38.3792 17.3272 38.58 16.9592C38.7808 16.5913 39.5171 15.1529 39.5171 15.1529C39.8518 16.4909 39.7179 15.8553 40.0191 16.9926C39.8909 16.2966 39.8126 15.5925 39.7848 14.8853C39.7848 15.1864 40.086 16.7585 40.086 16.9592V15.086C40.1613 15.7827 40.273 16.4749 40.4207 17.1599C40.4207 16.792 40.4207 17.1598 40.4207 16.9926V16.5578C40.655 16.8254 40.2199 13.9152 40.4207 13.9821C40.4927 14.8602 40.6269 15.7321 40.8223 16.5912C40.8223 15.6212 40.3538 11.9752 40.4207 11.2058V11.741V11.1055C40.4207 12.5438 40.7554 15.6212 40.8223 16.7919C40.8223 17.2267 40.8223 17.4275 41.0231 17.3606C41.1125 17.6322 41.1125 17.9253 41.0231 18.1968L41.3243 18.4979C41.3243 17.3606 41.3243 17.3271 41.3243 16.424V17.5948C41.3243 16.4909 41.0231 14.4169 41.3243 14.5842C41.6255 14.7514 41.592 16.5913 41.659 16.9592C41.659 16.5578 41.659 16.1899 41.659 16.4575V17.0596C41.659 17.461 41.659 15.5543 41.8932 16.6247C41.8932 16.6247 42.2279 18.0296 42.1275 17.3606C41.8598 16.1229 41.2574 12.1758 41.1904 11.2392C41.1904 11.2392 41.5921 12.4099 41.7259 13.012C41.8598 13.6141 41.9602 15.4204 42.161 16.357C42.161 16.056 42.161 15.6881 42.161 15.5543C42.161 15.4205 42.161 16.4908 42.3618 16.357C42.3618 15.2197 42.5626 16.3571 42.3618 15.3871C42.3618 15.0526 42.3618 15.5878 42.5961 15.3871C42.4416 14.4588 42.3744 13.5181 42.3953 12.5773C42.3953 12.8449 42.3953 13.2128 42.3953 13.38C42.3953 13.5473 42.7969 13.9487 42.9642 13.9487C43.0797 14.2963 43.1582 14.655 43.1985 15.0191C43.1814 14.8076 43.1814 14.595 43.1985 14.3835C43.4662 15.3536 43.1985 14.5843 43.1985 15.7216C43.1283 15.2783 43.1283 14.8267 43.1985 14.3835C43.0311 13.38 42.9977 14.2163 42.9642 14.6512C42.7641 13.4693 42.6967 12.2688 42.7634 11.072C42.7634 10.704 42.9642 11.9751 42.9642 11.7744C42.9642 11.5737 42.9642 9.29918 43.2319 10.2692C43.4997 11.2393 43.4997 12.0421 43.6001 12.6776C43.7005 13.3132 43.3323 12.1423 43.2654 12.1758V12.6107C43.2654 12.9117 43.2654 13.1459 43.2654 12.8783C43.4662 13.6811 43.7674 12.8783 44.1021 13.6811C44.1334 13.3585 44.1334 13.0336 44.1021 12.711V12.711C44.1021 11.9751 44.1021 11.6741 44.1021 11.373C44.1021 11.072 44.1021 10.035 44.3029 10.4364V11.44C44.3029 11.1389 44.3029 10.8378 44.3029 11.1723C44.3029 10.704 44.7045 12.5103 44.5706 11.1723L44.3698 10.4699C44.3698 9.96817 44.3698 8.86427 44.3698 9.16532C44.169 8.16183 44.3698 9.16533 44.1021 8.12838C44.4033 9.56673 43.8009 8.12843 44.1021 9.63367C43.9575 9.05494 43.7787 8.48526 43.5666 7.92769C43.5666 8.26219 43.5666 8.56329 43.5666 8.39604V8.69708C43.59 8.86351 43.59 9.03237 43.5666 9.19881C43.5952 9.58853 43.5952 9.97985 43.5666 10.3696C43.5666 10.3696 43.5666 10.0016 43.5666 9.63367V10.2357C43.3832 9.69744 43.2926 9.13188 43.2989 8.56325C43.2989 8.16185 43.0311 7.99458 43.0311 8.32908C43.0311 8.16183 43.0311 9.16538 43.0311 8.59673V9.06498V8.89777C42.8303 8.89777 42.8303 10.1689 42.4287 8.89777C42.4287 9.09847 42.4287 9.33264 42.2279 9.13194V8.49639C42.2279 8.73054 41.8933 7.89429 41.9602 8.49639C41.6255 6.79044 41.5251 8.19526 41.3243 7.89421V8.73046C41.3243 8.73046 41.3243 8.96465 41.09 9.29915V10.0351C41.09 10.6706 40.7554 9.5667 40.588 9.66705C40.4207 9.7674 40.588 9.4329 40.588 9.66705C40.153 8.02801 40.3538 10.9716 39.9856 9.66705C39.9856 9.93465 39.9856 9.86775 39.9856 9.66705V9.26567C39.9856 9.46637 39.9856 9.60015 39.9856 9.66705C39.9525 9.76467 39.9525 9.87058 39.9856 9.96819V9.19881C39.9856 8.93121 39.9856 9.60016 39.9856 10.2023V10.6706C39.7514 9.39951 39.9856 11.1389 39.651 9.7675C39.596 10.4242 39.596 11.0843 39.651 11.741C39.6421 11.6409 39.6421 11.5401 39.651 11.44C39.651 11.44 39.651 11.1389 39.651 11.44L39.4502 10.4364V11.8079C39.268 11.2452 39.1666 10.6597 39.1489 10.0685C39.1489 11.3062 39.1489 10.5368 39.1489 11.741V11.1055C39.1489 11.1055 39.1489 12.0086 39.1489 11.4734C38.8477 10.2692 38.5131 11.4734 38.0111 10.3026C38.3457 12.2093 37.7433 9.46637 38.0111 10.9382C37.9649 10.5717 37.9649 10.2009 38.0111 9.83436C38.0111 10.3027 37.6429 9.16534 37.7099 10.4364C37.7099 9.96814 37.7099 9.76744 37.7099 9.49984C37.7099 9.23224 37.7099 9.90124 37.7099 9.49984C37.6949 9.29942 37.6949 9.09819 37.7099 8.89777C37.6578 9.85176 37.7366 10.8084 37.9441 11.741C37.9441 11.1055 37.7433 11.2058 37.9441 12.0755C37.9441 11.6741 37.7099 11.2058 37.9441 11.0385C38.1784 10.8713 37.4756 10.4699 37.6429 11.5069C37.6429 11.2727 37.6429 11.5069 37.6429 11.5069C37.6429 11.5069 37.6429 11.5069 37.3752 11.5069V11.6741C37.3752 12.9452 37.3752 11.9752 37.3752 12.1424C37.007 11.2393 37.3752 12.5772 36.9401 11.5737V12.3766C37.1744 14.0825 36.572 11.4065 36.5385 12.0755V12.5103C36.5385 13.1124 35.9696 10.2358 35.8692 10.0351C35.8522 9.91299 35.8522 9.78912 35.8692 9.66705C35.5345 8.697 35.8692 10.704 35.8692 10.9716C35.8031 10.4636 35.7025 9.96069 35.568 9.46636C35.568 8.99806 35.568 11.3062 35.2668 10.2692C35.367 10.6518 35.4232 11.0446 35.4341 11.44C35.4341 11.44 34.8986 9.86776 34.999 11.2392C35.0177 11.1285 35.0177 11.0155 34.999 10.9048C34.949 11.3606 34.949 11.8205 34.999 12.2762C34.5305 9.53335 34.7313 13.6811 34.3297 11.1389L34.1289 11.3062V11.072C33.9281 10.9047 34.1289 11.5403 34.1289 12.1424C34.1146 11.9643 34.1146 11.7853 34.1289 11.6072C33.8277 11.1389 33.8277 11.2392 33.8277 12.5103V11.7076C33.8277 12.1758 33.3257 10.4699 33.2253 11.4734C33.2253 11.4734 33.2253 11.2058 33.2253 11.1055C33.2253 12.0755 32.2882 8.89775 32.6563 11.9082V12.6776C32.924 12.8783 32.6563 13.9487 32.991 14.4505C33.3257 14.9522 32.6563 13.5808 32.7233 13.4135C32.5225 11.8748 32.3886 12.9118 32.2212 11.8414C31.8196 11.8414 31.2842 11.2058 30.8826 11.1723L31.0834 12.3766C31.0834 12.109 30.8826 11.4399 31.0834 11.4734C31.0834 10.8044 31.0834 12.0755 31.0834 12.3431C30.8156 11.8748 31.0834 10.9048 30.8826 10.8713C30.8826 11.3731 30.8826 11.8748 30.8826 11.8414C30.8826 11.8079 30.8826 11.1054 30.8826 11.072C30.8826 11.0385 30.8826 11.072 30.8826 11.072H30.6818L30.916 12.0086C30.916 12.4769 30.916 12.0086 30.916 13.0455C30.5479 11.4065 30.1797 12.5438 30.0459 12.0421C30.0459 12.7445 30.0459 12.7445 29.7781 12.6776C29.5104 12.6107 30.0124 13.9486 29.7781 13.8483C29.5104 11.6071 29.4435 12.9117 29.1088 11.3395C29.3431 12.3765 28.8076 11.6407 29.1088 13.1125C28.9828 12.6746 28.8932 12.227 28.8411 11.7744C28.8411 12.6776 28.2386 11.3061 28.0044 11.7744C28.0325 12.1642 28.0325 12.5554 28.0044 12.9452L27.6362 11.5069C27.6362 11.5069 27.837 13.1793 27.6362 12.2093C27.6362 12.4434 27.6362 12.8113 27.6362 12.9117C26.8665 11.5737 26.6992 14.2163 25.7286 11.6407C25.7286 12.2093 25.7286 12.2762 25.7286 12.3096C25.7516 12.6772 25.7516 13.0459 25.7286 13.4135L25.327 12.3431C25.327 13.447 25.0928 12.3431 25.327 13.5139V13.3132C25.327 14.5508 25.8625 16.0226 26.0968 17.6281C26.0968 16.1898 26.6992 19.6686 26.5653 17.6281C26.5856 17.9177 26.5856 18.2083 26.5653 18.4979C26.5653 17.7954 26.5653 17.6616 26.5653 17.9627V18.4979C26.7996 18.2972 27.0338 18.9327 27.4354 19.3341V18.5647C27.4354 18.5647 27.4354 18.8993 27.6362 19.0666C27.6362 17.8958 27.4354 19.0665 27.335 17.7285C27.6362 19.3006 27.8036 17.7286 28.1382 19.468C28.1382 19.468 27.9709 18.5647 28.1382 18.5647V19.0666V18.431C28.3013 18.7789 28.4032 19.1523 28.4395 19.5348C28.4395 19.5348 28.4395 19.5348 28.4395 19.702C28.6403 20.2707 28.6737 19.4679 28.7407 19.702V19.4345C28.9749 18.9327 29.41 19.4344 29.5439 18.4644V18.0965C29.5439 17.394 29.7781 18.4979 29.979 18.0965C29.979 17.7285 29.979 17.5278 29.979 17.5613C29.979 17.5947 30.2132 18.364 30.2132 18.8658C30.2781 18.2095 30.2781 17.5485 30.2132 16.8922V17.4944C30.1593 17.1509 30.1593 16.801 30.2132 16.4575C30.2132 16.9927 30.4475 17.3606 30.4475 18.0965C30.8826 19.401 30.4475 16.6916 31.0164 18.6317C31.0164 16.9258 30.6483 17.7285 30.6483 17.3271C30.6483 16.9257 30.6483 16.0561 30.6483 16.2233C30.6483 16.3906 31.1168 18.3641 31.3176 18.2972C31.5184 18.2303 31.3176 18.2972 31.3176 18.2972C31.3176 18.2972 31.3176 17.6951 31.5854 18.2972C31.5854 17.2602 31.5854 18.2972 31.5854 17.0261V17.3606C31.5854 16.9926 31.5854 15.4539 31.7862 16.1898C31.8016 16.4572 31.8016 16.7252 31.7862 16.9926C31.7862 17.394 31.7862 16.725 31.7862 16.9926C31.7862 18.2971 31.5854 17.2937 31.7862 18.3307C31.987 19.3676 31.7862 17.3271 31.987 18.7654C31.8196 16.9591 32.2212 18.9662 31.987 17.5613V18.3641C31.9652 18.1975 31.9652 18.0289 31.987 17.8623V18.8993C31.987 17.9961 32.2882 19.6352 32.3216 19.1334C32.1208 19.1334 32.1543 18.1968 31.9535 17.6281C31.7527 17.0595 32.422 19.6686 32.6563 19.2338C32.6563 19.2338 32.4555 18.799 32.4555 18.431C32.5849 18.6985 32.6859 18.9788 32.7567 19.2673C32.7567 19.0666 32.7567 18.4644 32.7567 17.9627C32.9575 18.9327 32.7567 17.5613 32.7567 17.2602V18.063C33.0579 18.5313 32.5559 16.3906 32.7567 16.9592V18.0965V17.7955V18.6986C32.7567 17.9961 32.7567 18.1634 32.9575 18.3975C32.869 17.9109 32.869 17.4123 32.9575 16.9257C32.9575 17.394 32.9575 17.6951 33.1583 17.5613C33.1583 18.063 33.1583 18.6651 33.1583 17.9627C33.1583 18.2303 33.1583 18.4645 33.1583 18.7321C33.1583 18.9997 33.3926 18.7321 33.4261 18.7321C33.414 18.7058 33.4078 18.6773 33.4078 18.6484C33.4078 18.6196 33.414 18.591 33.4261 18.5647V17.4275C33.4261 17.7285 33.4261 17.9627 33.4261 18.1968C33.4084 18.0189 33.4084 17.8396 33.4261 17.6616C33.4779 18.2068 33.4779 18.7555 33.4261 19.3006V18.5314C33.5285 18.8597 33.6068 19.1951 33.6603 19.5348C33.6603 19.9028 33.6603 18.2638 33.9615 18.7321C33.9445 18.6212 33.9445 18.5084 33.9615 18.3975C33.9615 18.3975 34.3631 19.3007 34.3966 18.3975L34.6644 19.5683C34.6644 19.2673 34.2962 18.0964 34.4635 17.6281C34.6309 17.1599 34.6644 18.6317 34.7648 18.9327C34.7648 18.3306 34.7647 17.1264 34.9655 18.063C34.1289 18.7655 34.0619 18.4978 34.0285 18.6651ZM35.501 17.9292C35.501 18.0964 35.501 18.6317 35.501 18.1634C35.501 17.6951 35.4341 17.6616 35.501 17.9292ZM37.576 15.6546C37.576 15.9222 37.576 15.6546 37.576 15.6546C37.576 15.6546 37.509 15.4539 37.576 15.6546ZM43.3323 8.96463C43.2319 8.86428 43.2654 8.96466 43.3323 9.09846V8.96463ZM43.5331 9.29915C43.5487 9.1882 43.5487 9.07559 43.5331 8.96463C43.5331 9.16533 43.5331 9.19884 43.5331 9.13194C43.5331 9.06504 43.4997 9.63368 43.5331 9.43298V9.29915ZM28.5733 11.8748V12.0755C28.6068 12.4434 28.6068 12.2427 28.5733 12.0086V11.8748Z" fill="#4A2B0E"/>
<path d="M37.4754 16.7918C37.4754 16.7918 37.4754 16.4908 37.4754 16.357C37.4594 16.5015 37.4594 16.6473 37.4754 16.7918V16.7918Z" fill="#4A2B0E"/>
<path d="M42.3954 16.5242C42.3762 16.3911 42.3762 16.2559 42.3954 16.1228C42.295 16.3235 42.3285 16.4908 42.3954 16.5242Z" fill="#4A2B0E"/>
<path d="M44.0686 7.96104V8.19522C44.0686 8.19522 44.0686 8.19514 44.0686 8.42929C44.0442 8.27415 44.0442 8.11619 44.0686 7.96104Z" fill="#4A2B0E"/>
<path d="M45.5746 12.7779V12.4099C45.5448 12.5308 45.5448 12.6571 45.5746 12.7779V12.7779Z" fill="#4A2B0E"/>
<path d="M44.5369 10.6036C44.5369 11.2726 44.5369 11.0384 44.5369 10.9046C44.5703 9.96801 44.5703 10.3025 44.5369 10.6036Z" fill="#4A2B0E"/>
<path d="M43.6335 8.96453C43.6335 9.13178 43.6335 8.09486 43.6335 8.36245C43.4996 7.52621 43.5331 9.43283 43.6335 8.96453Z" fill="#4A2B0E"/>
<path d="M44.9388 12.8112L44.8049 12.0085L44.8719 12.6775L44.9388 12.8112Z" fill="#4A2B0E"/>
<path d="M44.336 12.2761V12.4768C44.3024 12.3908 44.3024 12.2952 44.336 12.2092C44.336 12.2092 44.3025 12.042 44.336 12.2761Z" fill="#4A2B0E"/>
<path d="M44.4703 12.2092C44.4703 12.2092 44.4703 12.2092 44.4703 12.0419C44.4633 12.0975 44.4633 12.1536 44.4703 12.2092Z" fill="#4A2B0E"/>
<path d="M44.838 13.079L44.771 12.9118L44.7041 12.8783L44.838 13.079Z" fill="#4A2B0E"/>
<path d="M43.2314 12.2762V12.5437C43.2314 12.8113 43.2314 12.9786 43.2314 12.8783C43.2634 12.6788 43.2634 12.4756 43.2314 12.2762V12.2762Z" fill="#4A2B0E"/>
<path d="M43.6335 14.7849C43.6335 15.0859 43.6335 15.6211 43.6335 15.5542C43.6335 15.4873 43.7674 15.1528 43.6335 14.7849Z" fill="#4A2B0E"/>
<path d="M41.7929 13.7479L41.8263 13.7144L41.5586 12.0419L41.7929 13.7479Z" fill="#4A2B0E"/>
<path d="M40.956 17.996C40.956 18.364 40.956 16.9256 40.956 17.4273C40.956 17.0259 40.956 17.0259 40.7552 16.6914C40.7436 17.1348 40.8116 17.5766 40.956 17.996V17.996Z" fill="#4A2B0E"/>
<path d="M23.3856 11.9081L23.2517 11.5736L23.3856 12.1423V11.9081Z" fill="#4A2B0E"/>
<path d="M23.4191 13.1793L23.2183 12.1088V13.0789C23.2183 13.0789 23.3521 12.9451 23.4191 13.1793Z" fill="#4A2B0E"/>
<path d="M34.8314 19.4343L34.8649 19.4678L34.6641 18.4977L34.8314 19.4343Z" fill="#4A2B0E"/>
<path d="M34.0621 20.8059C34.0621 20.8059 34.0621 20.6052 34.0621 20.6386C34.0621 20.6721 33.8613 19.6017 34.0621 20.8059Z" fill="#4A2B0E"/>
</svg>
