<svg id="Layer_2" data-name="Layer 2" xmlns="http://www.w3.org/2000/svg" viewBox="0 0 448.5 448.5"><defs><style>.cls-1{fill:#ceb289;}.cls-2{fill:#fff;}</style></defs><circle class="cls-1" cx="224.25" cy="224.25" r="224.25"/><path class="cls-2" d="M403.63,191.25a212.36,212.36,0,1,0,150.17,62.2A211,211,0,0,0,403.63,191.25ZM352.47,542.6a26.26,26.26,0,0,1,23.15,27.63,26.28,26.28,0,0,1-23.15-27.63Zm-21.13-9.74a26.29,26.29,0,0,1,18.55,30.92,26.29,26.29,0,0,1-18.55-30.92ZM312,519.94a26.28,26.28,0,0,1,13.48,33.44A26.27,26.27,0,0,1,312,519.94ZM287.2,268.37a29.73,29.73,0,0,1,20.38-8.29,29.81,29.81,0,0,1-29.51,28.3A29.71,29.71,0,0,1,287.2,268.37Zm-41,90a26.14,26.14,0,0,1,18.42-6.09A26.28,26.28,0,0,1,237,375.39,26.24,26.24,0,0,1,246.22,358.33Zm-2.77-8.68a26.26,26.26,0,0,1,30.92-18.54,26.28,26.28,0,0,1-30.92,18.54Zm-2.36,33.87a26.24,26.24,0,0,1,17.24-8.89,26.27,26.27,0,0,1-23.68,27.19A26.29,26.29,0,0,1,241.09,383.52ZM240,409.21a26.17,26.17,0,0,1,15.63-11.48,26.26,26.26,0,0,1-19.13,30.56A26.23,26.23,0,0,1,240,409.21Zm2.91,25.55A26.23,26.23,0,0,1,256.52,421a26.25,26.25,0,0,1-14.11,33.18A26.25,26.25,0,0,1,242.88,434.76Zm6.87,24.77a26.2,26.2,0,0,1,11.32-15.75,26.28,26.28,0,0,1-8.75,35A26.23,26.23,0,0,1,249.75,459.53Zm10.66,23.4a26.19,26.19,0,0,1,8.72-17.32A26.26,26.26,0,0,1,266,501.52,26.24,26.24,0,0,1,260.41,482.93Zm20.09,3a26.27,26.27,0,0,1,2.49,36,26.3,26.3,0,0,1-2.49-36Zm6.61-180.2a26.19,26.19,0,0,1-19.18-2.95,26.28,26.28,0,0,1,35.14-8.07A26.21,26.21,0,0,1,287.11,305.7Zm7.8,198.46A26.26,26.26,0,0,1,303,539.29a26.29,26.29,0,0,1-8.08-35.13ZM260.12,281.78a26.13,26.13,0,0,1,9-17.17,26.3,26.3,0,0,1-3.8,35.85A26.17,26.17,0,0,1,260.12,281.78Zm7.77,30.09a26.23,26.23,0,0,1,19.4-.11,26.27,26.27,0,0,1-33.45,13.48A26.2,26.2,0,0,1,267.89,311.87Zm-18.82-24.5a26.29,26.29,0,0,1,1.85,36,26.29,26.29,0,0,1-1.85-36ZM232.8,313a26.27,26.27,0,0,1,7.47,35.27A26.27,26.27,0,0,1,232.8,313Zm-12.05,27.85a26.27,26.27,0,0,1,12.89,33.67,26.28,26.28,0,0,1-12.89-33.67Zm-7.54,29.39a26.27,26.27,0,0,1,18,31.24,26.26,26.26,0,0,1-18-31.24Zm-2.86,30.22a26.29,26.29,0,0,1,22.66,28,26.27,26.27,0,0,1-22.66-28Zm20.08,37A26.22,26.22,0,0,1,239,454.9a26.28,26.28,0,0,1-26.77-24.15A26.2,26.2,0,0,1,230.43,437.5Zm-11.56,22.87A26.27,26.27,0,0,1,249.09,480a26.28,26.28,0,0,1-30.22-19.66Zm11.18,28.22A26.26,26.26,0,0,1,263,503.28a26.27,26.27,0,0,1-32.92-14.69Zm15.44,26.12a26.26,26.26,0,0,1,34.82,9.36,26.29,26.29,0,0,1-34.82-9.36ZM282,547.11a26.13,26.13,0,0,1-17.17-9,26.27,26.27,0,0,1,35.85,3.8A26.22,26.22,0,0,1,282,547.11Zm5.59,11a26.28,26.28,0,0,1,36-1.86,26.25,26.25,0,0,1-36,1.86Zm25.63,16.26A26.28,26.28,0,0,1,348.5,567a26.25,26.25,0,0,1-35.27,7.46Zm47.24,12.3a26.16,26.16,0,0,1-19.39-.24,26.28,26.28,0,0,1,33.67-12.89A26.2,26.2,0,0,1,360.47,586.72Zm29.2,4.51a26.15,26.15,0,0,1-19.2,2.79,26.28,26.28,0,0,1,31.25-18A26.25,26.25,0,0,1,389.67,591.23Zm-5.91-25.09a26.21,26.21,0,0,1-8.9-17.24,26.27,26.27,0,0,1,27.19,23.67A26.21,26.21,0,0,1,383.76,566.14ZM504.18,294.68a26.28,26.28,0,0,1,35.14,8.07,26.26,26.26,0,0,1-35.14-8.07Zm11.1,228.65a26.18,26.18,0,0,1-11,16,26.29,26.29,0,0,1,8.08-35.13A26.16,26.16,0,0,1,515.28,523.33Zm3.08-19.94a26.18,26.18,0,0,1,8.39-17.49,26.27,26.27,0,0,1-2.49,36A26.28,26.28,0,0,1,518.36,503.39Zm14.22-19.2a26.16,26.16,0,0,1,5.54-18.58,26.27,26.27,0,0,1,3.18,35.91A26.21,26.21,0,0,1,532.58,484.19Zm11-21.18a26.18,26.18,0,0,1,2.57-19.23,26.28,26.28,0,0,1,8.75,35A26.25,26.25,0,0,1,543.61,463Zm7.59-22.64a26.18,26.18,0,0,1-.47-19.4,26.3,26.3,0,0,1,14.12,33.18A26.2,26.2,0,0,1,551.2,440.37Zm3.94-23.56a26.23,26.23,0,0,1-3.49-19.08,26.28,26.28,0,0,1,19.13,30.56A26.26,26.26,0,0,1,555.14,416.81Zm.22-23.88a26.26,26.26,0,0,1-6.44-18.3,26.27,26.27,0,0,1,23.68,27.19A26.24,26.24,0,0,1,555.36,392.93Zm-3.52-23.63a26.11,26.11,0,0,1-9.22-17.06,26.29,26.29,0,0,1,27.64,23.15A26.19,26.19,0,0,1,551.84,369.3Zm-7.18-22.78a26.19,26.19,0,0,1-11.78-15.41,26.28,26.28,0,0,1,30.93,18.54A26.18,26.18,0,0,1,544.66,346.52ZM534,325.15a26.18,26.18,0,0,1-14-13.39,26.3,26.3,0,0,1,33.44,13.48A26.23,26.23,0,0,1,534,325.15Zm4.1-60.54a26.28,26.28,0,0,1,3.81,35.85,26.28,26.28,0,0,1-3.81-35.85Zm-18.06,3.76a29.76,29.76,0,0,1,9.14,20,29.79,29.79,0,0,1-29.51-28.3A29.72,29.72,0,0,1,520.05,268.37ZM481.88,534a26.15,26.15,0,0,1,13.38-14,26.27,26.27,0,0,1-13.48,33.44A26.2,26.2,0,0,1,481.88,534ZM460.5,544.64a26.18,26.18,0,0,1,15.41-11.78,26.28,26.28,0,0,1-18.54,30.92A26.15,26.15,0,0,1,460.5,544.64Zm-5.72-2a26.28,26.28,0,0,1-23.15,27.63,26.26,26.26,0,0,1,23.15-27.63ZM414.1,555.34a26.13,26.13,0,0,1,18.29-6.44,26.25,26.25,0,0,1-27.19,23.67A26.16,26.16,0,0,1,414.1,555.34Zm3.48,35.89a26.19,26.19,0,0,1-12-15.2,26.27,26.27,0,0,1,31.24,18A26.16,26.16,0,0,1,417.58,591.23Zm29.2-4.51a26.23,26.23,0,0,1-14.28-13.13,26.27,26.27,0,0,1,33.67,12.89A26.16,26.16,0,0,1,446.78,586.72Zm28.13-9A26.25,26.25,0,0,1,458.75,567,26.28,26.28,0,0,1,494,574.42,26.13,26.13,0,0,1,474.91,577.7Zm26.37-13.31a26.25,26.25,0,0,1-17.64-8.09,26.28,26.28,0,0,1,36,1.86A26.19,26.19,0,0,1,501.28,564.39Zm24-17.28a26.22,26.22,0,0,1-18.68-5.22,26.27,26.27,0,0,1,35.85-3.8A26.11,26.11,0,0,1,525.24,547.11Zm21-20.81a26.18,26.18,0,0,1-19.27-2.23,26.26,26.26,0,0,1,34.82-9.36A26.17,26.17,0,0,1,546.21,526.3Zm17.46-23.83a26.26,26.26,0,0,1-19.39.81,26.27,26.27,0,0,1,32.93-14.69A26.21,26.21,0,0,1,563.67,502.47Zm13.51-26.27a26.24,26.24,0,0,1-19,3.83,26.28,26.28,0,0,1,30.22-19.66A26.19,26.19,0,0,1,577.18,476.2Zm9.23-28.06a26.22,26.22,0,0,1-18.18,6.76A26.26,26.26,0,0,1,595,430.75,26.17,26.17,0,0,1,586.41,448.14ZM591.14,419a26.2,26.2,0,0,1-16.9,9.52,26.29,26.29,0,0,1,22.66-28A26.16,26.16,0,0,1,591.14,419Zm.11-29.54a26.16,26.16,0,0,1-15.2,12,26.29,26.29,0,0,1,18-31.24A26.2,26.2,0,0,1,591.25,389.44Zm-4.75-48.59a26.28,26.28,0,0,1-12.89,33.67,26.27,26.27,0,0,1,12.89-33.67Zm-12-27.85A26.27,26.27,0,0,1,567,348.27,26.27,26.27,0,0,1,574.45,313Zm-10-7.26a26.2,26.2,0,0,1-8.08,17.64,26.29,26.29,0,0,1,1.85-36A26.19,26.19,0,0,1,564.41,305.74Z" transform="translate(-179.38 -179.38)"/></svg>