<svg width="1920" height="2160" viewBox="0 0 1920 2160" fill="none" xmlns="http://www.w3.org/2000/svg">
<mask id="mask0_2_7689" style="mask-type:alpha" maskUnits="userSpaceOnUse" x="0" y="0" width="1920" height="2160">
<rect width="1920" height="2160" fill="#C4C4C4"/>
</mask>
<g mask="url(#mask0_2_7689)">
<path d="M1920.8 2455.56L1920.8 4.34021L2.76294 4.3401L2.76286 2455.56L1920.8 2455.56Z" fill="#FFFAF7"/>
<path d="M-0.241926 2436.65L3.15529 2436.65L3.15529 2377.55L59.057 2377.55L59.057 2436.65L62.4542 2436.65L62.4542 2377.55L118.356 2377.55L118.356 2436.65L121.753 2436.65L121.753 2377.55L177.655 2377.55L177.655 2436.65L181.052 2436.65L181.052 2377.55L236.954 2377.55L236.954 2436.65L240.351 2436.65L240.351 2377.55L296.253 2377.55L296.253 2436.65L299.65 2436.65L299.65 2377.55L355.552 2377.55L355.552 2436.65L358.949 2436.65L358.949 2377.55L414.85 2377.55L414.85 2436.65L418.248 2436.65L418.248 2377.55L474.149 2377.55L474.149 2436.65L477.547 2436.65L477.547 2377.55L533.448 2377.55L533.448 2436.65L536.846 2436.65L536.846 2377.55L592.747 2377.55L592.747 2436.65L595.836 2436.65L595.836 2377.55L651.737 2377.55L651.737 2436.65L655.135 2436.65L655.135 2377.55L711.036 2377.55L711.036 2436.65L714.434 2436.65L714.434 2377.55L770.49 2377.55L770.49 2436.65L773.887 2436.65L773.887 2377.55L829.789 2377.55L829.789 2436.65L833.186 2436.65L833.186 2377.55L889.088 2377.55L889.088 2436.65L892.33 2436.65L892.33 2377.55L948.232 2377.55L948.232 2436.65L951.629 2436.65L951.629 2377.55L1007.53 2377.55L1007.53 2436.65L1010.93 2436.65L1010.93 2377.55L1066.83 2377.55L1066.83 2436.65L1070.23 2436.65L1070.23 2377.55L1126.13 2377.55L1126.13 2436.65L1129.53 2436.65L1129.53 2377.55L1185.43 2377.55L1185.43 2436.65L1188.82 2436.65L1188.82 2377.55L1244.88 2377.55L1244.88 2436.65L1248.28 2436.65L1248.28 2377.55L1304.18 2377.55L1304.18 2436.65L1307.58 2436.65L1307.58 2377.55L1363.32 2377.55L1363.32 2436.65L1366.72 2436.65L1366.72 2377.55L1422.62 2377.55L1422.62 2436.65L1426.02 2436.65L1426.02 2377.55L1481.92 2377.55L1481.92 2436.65L1485.32 2436.65L1485.32 2377.55L1541.38 2377.55L1541.38 2436.65L1544.77 2436.65L1544.77 2377.55L1600.67 2377.55L1600.67 2436.65L1604.07 2436.65L1604.07 2377.55L1659.97 2377.55L1659.97 2436.65L1663.37 2436.65L1663.37 2377.55L1719.27 2377.55L1719.27 2436.65L1722.67 2436.65L1722.67 2377.55L1778.26 2377.55L1778.26 2436.65L1781.66 2436.65L1781.66 2377.55L1837.56 2377.55L1837.56 2436.65L1840.96 2436.65L1840.96 2377.55L1896.71 2377.55L1896.71 2436.65L1900.1 2436.65L1900.1 2377.55L1920.8 2377.55L1920.8 2373.37L1900.1 2373.37L1900.1 2305.52L1920.8 2305.52L1920.8 2301.34L1900.1 2301.34L1900.1 2233.48L1920.8 2233.48L1920.8 2229.3L1900.1 2229.3L1900.1 2161.45L1920.8 2161.45L1920.8 2157.27L1900.1 2157.27L1900.1 2089.41L1920.8 2089.41L1920.8 2085.23L1900.1 2085.23L1900.1 2017.37L1920.8 2017.37L1920.8 2013.19L1900.1 2013.19L1900.1 1945.34L1920.8 1945.34L1920.8 1941.16L1900.1 1941.16L1900.1 1873.3L1920.8 1873.3L1920.8 1869.12L1900.1 1869.12L1900.1 1802.06L1920.8 1802.06L1920.8 1797.88L1900.1 1797.88L1900.1 1730.03L1920.8 1730.03L1920.8 1725.85L1900.1 1725.85L1900.1 1657.99L1920.8 1657.99L1920.8 1653.81L1900.1 1653.81L1900.1 1585.95L1920.8 1585.95L1920.8 1581.78L1900.1 1581.78L1900.1 1513.92L1920.8 1513.92L1920.8 1509.74L1900.1 1509.74L1900.1 1441.88L1920.8 1441.88L1920.8 1437.7L1900.1 1437.7L1900.1 1370.25L1920.8 1370.25L1920.8 1366.07L1900.1 1366.07L1900.1 1298.21L1920.8 1298.21L1920.8 1294.03L1900.1 1294.03L1900.1 1226.17L1920.8 1226.17L1920.8 1221.99L1900.1 1221.99L1900.1 1154.14L1920.8 1154.14L1920.8 1149.96L1900.1 1149.96L1900.1 1082.1L1920.8 1082.1L1920.8 1077.92L1900.1 1077.92L1900.1 1010.07L1920.8 1010.07L1920.8 1005.89L1900.1 1005.89L1900.1 938.03L1920.8 938.03L1920.8 933.852L1900.1 933.852L1900.1 866.791L1920.8 866.791L1920.8 862.612L1900.1 862.612L1900.1 794.556L1920.8 794.556L1920.8 790.377L1900.1 790.377L1900.1 722.52L1920.8 722.52L1920.8 718.341L1900.1 718.341L1900.1 650.484L1920.8 650.484L1920.8 646.305L1900.1 646.305L1900.1 578.448L1920.8 578.448L1920.8 574.269L1900.1 574.269L1900.1 506.413L1920.8 506.413L1920.8 502.234L1900.1 502.234L1900.1 434.974L1920.8 434.974L1920.8 430.994L1900.1 430.994L1900.1 363.137L1920.8 363.137L1920.8 358.958L1900.1 358.958L1900.1 291.101L1920.8 291.101L1920.8 286.922L1900.1 286.922L1900.1 218.866L1920.8 218.866L1920.8 214.687L1900.1 214.687L1900.1 147.029L1920.8 147.029L1920.8 142.851L1900.1 142.851L1900.1 75.1927L1920.8 75.1927L1920.8 71.0138L1900.1 71.0138L1900.1 3.35587L1920.8 3.35587L1920.8 -0.822998L1.45679 -0.823083L1.45679 1.16686L-0.241821 1.16686L-0.241926 2436.65ZM1896.71 2305.72L1896.71 2373.57L1840.8 2373.57L1840.8 2305.72L1896.71 2305.72ZM1837.56 2305.72L1837.56 2373.57L1781.66 2373.57L1781.66 2305.72L1837.56 2305.72ZM1778.26 2305.72L1778.26 2373.57L1722.36 2373.57L1722.36 2305.72L1778.26 2305.72ZM1718.96 2305.72L1718.96 2373.57L1663.06 2373.57L1663.06 2305.72L1718.96 2305.72ZM1659.66 2305.72L1659.66 2373.57L1603.76 2373.57L1603.76 2305.72L1659.66 2305.72ZM1600.52 2305.72L1600.52 2373.57L1544.62 2373.57L1544.62 2305.72L1600.52 2305.72ZM1541.22 2305.72L1541.22 2373.57L1485.17 2373.57L1485.17 2305.72L1541.22 2305.72ZM1481.77 2305.72L1481.77 2373.57L1425.87 2373.57L1425.87 2305.72L1481.77 2305.72ZM1422.47 2305.72L1422.47 2373.57L1366.57 2373.57L1366.57 2305.72L1422.47 2305.72ZM1363.32 2305.72L1363.32 2373.57L1307.42 2373.57L1307.42 2305.72L1363.32 2305.72ZM1304.03 2305.72L1304.03 2373.57L1248.12 2373.57L1248.12 2305.72L1304.03 2305.72ZM1244.73 2305.72L1244.73 2373.57L1188.67 2373.57L1188.67 2305.72L1244.73 2305.72ZM1185.27 2305.72L1185.27 2373.57L1129.37 2373.57L1129.37 2305.72L1185.27 2305.72ZM1125.97 2305.72L1125.97 2373.57L1070.07 2373.57L1070.07 2305.72L1125.97 2305.72ZM1066.83 2305.72L1066.83 2373.57L1010.93 2373.57L1010.93 2305.72L1066.83 2305.72ZM1007.53 2305.72L1007.53 2373.57L951.629 2373.57L951.629 2305.72L1007.53 2305.72ZM948.232 2305.72L948.232 2373.57L892.33 2373.57L892.33 2305.72L948.232 2305.72ZM888.933 2305.72L888.933 2373.57L833.031 2373.57L833.031 2305.72L888.933 2305.72ZM829.789 2305.72L829.789 2373.57L773.887 2373.57L773.887 2305.72L829.789 2305.72ZM770.49 2305.72L770.49 2373.57L714.434 2373.57L714.434 2305.72L770.49 2305.72ZM711.036 2305.72L711.036 2373.57L655.135 2373.57L655.135 2305.72L711.036 2305.72ZM651.737 2305.72L651.737 2373.57L595.836 2373.57L595.836 2305.72L651.737 2305.72ZM592.438 2305.72L592.438 2373.57L536.537 2373.57L536.537 2305.72L592.438 2305.72ZM533.294 2305.72L533.294 2373.57L477.392 2373.57L477.392 2305.72L533.294 2305.72ZM473.995 2305.72L473.995 2373.57L418.094 2373.57L418.094 2305.72L473.995 2305.72ZM414.696 2305.72L414.696 2373.57L358.794 2373.57L358.794 2305.72L414.696 2305.72ZM355.397 2305.72L355.397 2373.57L299.496 2373.57L299.496 2305.72L355.397 2305.72ZM296.253 2305.72L296.253 2373.57L240.197 2373.57L240.197 2305.72L296.253 2305.72ZM236.799 2305.72L236.799 2373.57L180.898 2373.57L180.898 2305.72L236.799 2305.72ZM177.5 2305.72L177.5 2373.57L121.599 2373.57L121.599 2305.72L177.5 2305.72ZM118.201 2305.72L118.201 2373.57L62.2999 2373.57L62.2999 2305.72L118.201 2305.72ZM59.057 2305.72L59.057 2373.57L3.15529 2373.57L3.1553 2305.72L59.057 2305.72ZM1896.71 2233.68L1896.71 2301.54L1840.8 2301.54L1840.8 2233.68L1896.71 2233.68ZM1837.56 2233.68L1837.56 2301.54L1781.66 2301.54L1781.66 2233.68L1837.56 2233.68ZM1778.26 2233.68L1778.26 2301.54L1722.36 2301.54L1722.36 2233.68L1778.26 2233.68ZM1718.96 2233.68L1718.96 2301.54L1663.06 2301.54L1663.06 2233.68L1718.96 2233.68ZM1659.66 2233.68L1659.66 2301.54L1603.76 2301.54L1603.76 2233.68L1659.66 2233.68ZM1600.52 2233.68L1600.52 2301.54L1544.62 2301.54L1544.62 2233.68L1600.52 2233.68ZM1541.22 2233.68L1541.22 2301.54L1485.17 2301.54L1485.17 2233.68L1541.22 2233.68ZM1481.77 2233.68L1481.77 2301.54L1425.87 2301.54L1425.87 2233.68L1481.77 2233.68ZM1422.47 2233.68L1422.47 2301.54L1366.57 2301.54L1366.57 2233.68L1422.47 2233.68ZM1363.32 2233.68L1363.32 2301.54L1307.42 2301.54L1307.42 2233.68L1363.32 2233.68ZM1304.03 2233.68L1304.03 2301.54L1248.12 2301.54L1248.12 2233.68L1304.03 2233.68ZM1244.73 2233.68L1244.73 2301.54L1188.67 2301.54L1188.67 2233.68L1244.73 2233.68ZM1185.27 2233.68L1185.27 2301.54L1129.37 2301.54L1129.37 2233.68L1185.27 2233.68ZM1125.97 2233.68L1125.97 2301.54L1070.07 2301.54L1070.07 2233.68L1125.97 2233.68ZM1066.83 2233.68L1066.83 2301.54L1010.93 2301.54L1010.93 2233.68L1066.83 2233.68ZM1007.53 2233.68L1007.53 2301.54L951.629 2301.54L951.629 2233.68L1007.53 2233.68ZM948.232 2233.68L948.232 2301.54L892.33 2301.54L892.33 2233.68L948.232 2233.68ZM888.933 2233.68L888.933 2301.54L833.031 2301.54L833.031 2233.68L888.933 2233.68ZM829.789 2233.68L829.789 2301.54L773.887 2301.54L773.887 2233.68L829.789 2233.68ZM770.49 2233.68L770.49 2301.54L714.434 2301.54L714.434 2233.68L770.49 2233.68ZM711.036 2233.68L711.036 2301.54L655.135 2301.54L655.135 2233.68L711.036 2233.68ZM651.737 2233.68L651.737 2301.54L595.836 2301.54L595.836 2233.68L651.737 2233.68ZM592.438 2233.68L592.438 2301.54L536.537 2301.54L536.537 2233.68L592.438 2233.68ZM533.294 2233.68L533.294 2301.54L477.392 2301.54L477.392 2233.68L533.294 2233.68ZM473.995 2233.68L473.995 2301.54L418.094 2301.54L418.094 2233.68L473.995 2233.68ZM414.696 2233.68L414.696 2301.54L358.794 2301.54L358.794 2233.68L414.696 2233.68ZM355.397 2233.68L355.397 2301.54L299.496 2301.54L299.496 2233.68L355.397 2233.68ZM296.253 2233.68L296.253 2301.54L240.197 2301.54L240.197 2233.68L296.253 2233.68ZM236.799 2233.68L236.799 2301.54L180.898 2301.54L180.898 2233.68L236.799 2233.68ZM177.5 2233.68L177.5 2301.54L121.599 2301.54L121.599 2233.68L177.5 2233.68ZM118.201 2233.68L118.201 2301.54L62.2999 2301.54L62.3 2233.68L118.201 2233.68ZM59.057 2233.68L59.057 2301.54L3.1553 2301.54L3.1553 2233.68L59.057 2233.68ZM1896.71 2161.84L1896.71 2229.7L1840.8 2229.7L1840.8 2161.84L1896.71 2161.84ZM1837.56 2161.84L1837.56 2229.7L1781.66 2229.7L1781.66 2161.84L1837.56 2161.84ZM1778.26 2161.84L1778.26 2229.7L1722.36 2229.7L1722.36 2161.84L1778.26 2161.84ZM1718.96 2161.84L1718.96 2229.7L1663.06 2229.7L1663.06 2161.84L1718.96 2161.84ZM1659.66 2161.84L1659.66 2229.7L1603.76 2229.7L1603.76 2161.84L1659.66 2161.84ZM1600.52 2161.84L1600.52 2229.7L1544.62 2229.7L1544.62 2161.84L1600.52 2161.84ZM1541.22 2161.84L1541.22 2229.7L1485.17 2229.7L1485.17 2161.84L1541.22 2161.84ZM1481.77 2161.84L1481.77 2229.7L1425.87 2229.7L1425.87 2161.84L1481.77 2161.84ZM1422.47 2161.84L1422.47 2229.7L1366.57 2229.7L1366.57 2161.84L1422.47 2161.84ZM1363.32 2161.84L1363.32 2229.7L1307.42 2229.7L1307.42 2161.84L1363.32 2161.84ZM1304.03 2161.84L1304.03 2229.7L1248.12 2229.7L1248.12 2161.84L1304.03 2161.84ZM1244.73 2161.84L1244.73 2229.7L1188.67 2229.7L1188.67 2161.84L1244.73 2161.84ZM1185.27 2161.84L1185.27 2229.7L1129.37 2229.7L1129.37 2161.84L1185.27 2161.84ZM1125.97 2161.84L1125.97 2229.7L1070.07 2229.7L1070.07 2161.84L1125.97 2161.84ZM1066.83 2161.84L1066.83 2229.7L1010.93 2229.7L1010.93 2161.84L1066.83 2161.84ZM1007.53 2161.84L1007.53 2229.7L951.629 2229.7L951.629 2161.84L1007.53 2161.84ZM948.232 2161.84L948.232 2229.7L892.33 2229.7L892.33 2161.84L948.232 2161.84ZM888.933 2161.84L888.933 2229.7L833.031 2229.7L833.031 2161.84L888.933 2161.84ZM829.789 2161.84L829.789 2229.7L773.887 2229.7L773.887 2161.84L829.789 2161.84ZM770.49 2161.84L770.49 2229.7L714.434 2229.7L714.434 2161.84L770.49 2161.84ZM711.036 2161.84L711.036 2229.7L655.135 2229.7L655.135 2161.84L711.036 2161.84ZM651.737 2161.84L651.737 2229.7L595.836 2229.7L595.836 2161.84L651.737 2161.84ZM592.438 2161.84L592.438 2229.7L536.537 2229.7L536.537 2161.84L592.438 2161.84ZM533.294 2161.84L533.294 2229.7L477.392 2229.7L477.392 2161.84L533.294 2161.84ZM473.995 2161.84L473.995 2229.7L418.094 2229.7L418.094 2161.84L473.995 2161.84ZM414.696 2161.84L414.696 2229.7L358.794 2229.7L358.794 2161.84L414.696 2161.84ZM355.397 2161.84L355.397 2229.7L299.496 2229.7L299.496 2161.84L355.397 2161.84ZM296.253 2161.84L296.253 2229.7L240.197 2229.7L240.197 2161.84L296.253 2161.84ZM236.799 2161.84L236.799 2229.7L180.898 2229.7L180.898 2161.84L236.799 2161.84ZM177.5 2161.84L177.5 2229.7L121.599 2229.7L121.599 2161.84L177.5 2161.84ZM118.201 2161.84L118.201 2229.7L62.3 2229.7L62.3 2161.84L118.201 2161.84ZM59.057 2161.84L59.057 2229.7L3.1553 2229.7L3.1553 2161.84L59.057 2161.84ZM1896.71 2089.81L1896.71 2157.66L1840.8 2157.66L1840.8 2089.81L1896.71 2089.81ZM1837.56 2089.81L1837.56 2157.66L1781.66 2157.66L1781.66 2089.81L1837.56 2089.81ZM1778.26 2089.81L1778.26 2157.66L1722.36 2157.66L1722.36 2089.81L1778.26 2089.81ZM1718.96 2089.81L1718.96 2157.66L1663.06 2157.66L1663.06 2089.81L1718.96 2089.81ZM1659.66 2089.81L1659.66 2157.66L1603.76 2157.66L1603.76 2089.81L1659.66 2089.81ZM1600.52 2089.81L1600.52 2157.66L1544.62 2157.66L1544.62 2089.81L1600.52 2089.81ZM1541.22 2089.81L1541.22 2157.66L1485.17 2157.66L1485.17 2089.81L1541.22 2089.81ZM1481.77 2089.81L1481.77 2157.66L1425.87 2157.66L1425.87 2089.81L1481.77 2089.81ZM1422.47 2089.81L1422.47 2157.66L1366.57 2157.66L1366.57 2089.81L1422.47 2089.81ZM1363.32 2089.81L1363.32 2157.66L1307.42 2157.66L1307.42 2089.81L1363.32 2089.81ZM1304.03 2089.81L1304.03 2157.66L1248.12 2157.66L1248.12 2089.81L1304.03 2089.81ZM1244.73 2089.81L1244.73 2157.66L1188.67 2157.66L1188.67 2089.81L1244.73 2089.81ZM1185.27 2089.81L1185.27 2157.66L1129.37 2157.66L1129.37 2089.81L1185.27 2089.81ZM1125.97 2089.81L1125.97 2157.66L1070.07 2157.66L1070.07 2089.81L1125.97 2089.81ZM1066.83 2089.81L1066.83 2157.66L1010.93 2157.66L1010.93 2089.81L1066.83 2089.81ZM1007.53 2089.81L1007.53 2157.66L951.629 2157.66L951.629 2089.81L1007.53 2089.81ZM948.232 2089.81L948.232 2157.66L892.33 2157.66L892.33 2089.81L948.232 2089.81ZM888.933 2089.81L888.933 2157.66L833.031 2157.66L833.031 2089.81L888.933 2089.81ZM829.789 2089.81L829.789 2157.66L773.887 2157.66L773.887 2089.81L829.789 2089.81ZM770.49 2089.81L770.49 2157.66L714.434 2157.66L714.434 2089.81L770.49 2089.81ZM711.036 2089.81L711.036 2157.66L655.135 2157.66L655.135 2089.81L711.036 2089.81ZM651.737 2089.81L651.737 2157.66L595.836 2157.66L595.836 2089.81L651.737 2089.81ZM592.438 2089.81L592.438 2157.66L536.537 2157.66L536.537 2089.81L592.438 2089.81ZM533.294 2089.81L533.294 2157.66L477.392 2157.66L477.392 2089.81L533.294 2089.81ZM473.995 2089.81L473.995 2157.66L418.094 2157.66L418.094 2089.81L473.995 2089.81ZM414.696 2089.81L414.696 2157.66L358.794 2157.66L358.794 2089.81L414.696 2089.81ZM355.397 2089.81L355.397 2157.66L299.496 2157.66L299.496 2089.81L355.397 2089.81ZM296.253 2089.81L296.253 2157.66L240.197 2157.66L240.197 2089.81L296.253 2089.81ZM236.799 2089.81L236.799 2157.66L180.898 2157.66L180.898 2089.81L236.799 2089.81ZM177.5 2089.81L177.5 2157.66L121.599 2157.66L121.599 2089.81L177.5 2089.81ZM118.201 2089.81L118.201 2157.66L62.3 2157.66L62.3 2089.81L118.201 2089.81ZM59.057 2089.81L59.057 2157.66L3.1553 2157.66L3.15531 2089.81L59.057 2089.81ZM1896.71 2017.97L1896.71 2085.83L1840.8 2085.83L1840.8 2017.97L1896.71 2017.97ZM1837.56 2017.97L1837.56 2085.83L1781.66 2085.83L1781.66 2017.97L1837.56 2017.97ZM1778.26 2017.97L1778.26 2085.83L1722.36 2085.83L1722.36 2017.97L1778.26 2017.97ZM1718.96 2017.97L1718.96 2085.83L1663.06 2085.83L1663.06 2017.97L1718.96 2017.97ZM1659.66 2017.97L1659.66 2085.83L1603.76 2085.83L1603.76 2017.97L1659.66 2017.97ZM1600.52 2017.97L1600.52 2085.83L1544.62 2085.83L1544.62 2017.97L1600.52 2017.97ZM1541.22 2017.97L1541.22 2085.83L1485.17 2085.83L1485.17 2017.97L1541.22 2017.97ZM1481.77 2017.97L1481.77 2085.83L1425.87 2085.83L1425.87 2017.97L1481.77 2017.97ZM1422.47 2017.97L1422.47 2085.83L1366.57 2085.83L1366.57 2017.97L1422.47 2017.97ZM1363.32 2017.97L1363.32 2085.83L1307.42 2085.83L1307.42 2017.97L1363.32 2017.97ZM1304.03 2017.97L1304.03 2085.83L1248.12 2085.83L1248.12 2017.97L1304.03 2017.97ZM1244.73 2017.97L1244.73 2085.83L1188.67 2085.83L1188.67 2017.97L1244.73 2017.97ZM1185.27 2017.97L1185.27 2085.83L1129.37 2085.83L1129.37 2017.97L1185.27 2017.97ZM1125.97 2017.97L1125.97 2085.83L1070.07 2085.83L1070.07 2017.97L1125.97 2017.97ZM1066.83 2017.97L1066.83 2085.83L1010.93 2085.83L1010.93 2017.97L1066.83 2017.97ZM1007.53 2017.97L1007.53 2085.83L951.629 2085.83L951.629 2017.97L1007.53 2017.97ZM948.232 2017.97L948.232 2085.83L892.33 2085.83L892.33 2017.97L948.232 2017.97ZM888.933 2017.97L888.933 2085.83L833.031 2085.83L833.031 2017.97L888.933 2017.97ZM829.789 2017.97L829.789 2085.83L773.887 2085.83L773.887 2017.97L829.789 2017.97ZM770.49 2017.97L770.49 2085.83L714.434 2085.83L714.434 2017.97L770.49 2017.97ZM711.036 2017.97L711.036 2085.83L655.135 2085.83L655.135 2017.97L711.036 2017.97ZM651.737 2017.97L651.737 2085.83L595.836 2085.83L595.836 2017.97L651.737 2017.97ZM592.438 2017.97L592.438 2085.83L536.537 2085.83L536.537 2017.97L592.438 2017.97ZM533.294 2017.97L533.294 2085.83L477.392 2085.83L477.392 2017.97L533.294 2017.97ZM473.995 2017.97L473.995 2085.83L418.094 2085.83L418.094 2017.97L473.995 2017.97ZM414.696 2017.97L414.696 2085.83L358.794 2085.83L358.794 2017.97L414.696 2017.97ZM355.397 2017.97L355.397 2085.83L299.496 2085.83L299.496 2017.97L355.397 2017.97ZM296.253 2017.97L296.253 2085.83L240.197 2085.83L240.197 2017.97L296.253 2017.97ZM236.799 2017.97L236.799 2085.83L180.898 2085.83L180.898 2017.97L236.799 2017.97ZM177.5 2017.97L177.5 2085.83L121.599 2085.83L121.599 2017.97L177.5 2017.97ZM118.201 2017.97L118.201 2085.83L62.3 2085.83L62.3 2017.97L118.201 2017.97ZM59.057 2017.97L59.057 2085.83L3.15531 2085.83L3.15531 2017.97L59.057 2017.97ZM1896.71 1946.13L1896.71 2013.99L1840.8 2013.99L1840.8 1946.13L1896.71 1946.13ZM1837.56 1946.13L1837.56 2013.99L1781.66 2013.99L1781.66 1946.13L1837.56 1946.13ZM1778.26 1946.13L1778.26 2013.99L1722.36 2013.99L1722.36 1946.13L1778.26 1946.13ZM1718.96 1946.13L1718.96 2013.99L1663.06 2013.99L1663.06 1946.13L1718.96 1946.13ZM1659.66 1946.13L1659.66 2013.99L1603.76 2013.99L1603.76 1946.13L1659.66 1946.13ZM1600.52 1946.13L1600.52 2013.99L1544.62 2013.99L1544.62 1946.13L1600.52 1946.13ZM1541.22 1946.13L1541.22 2013.99L1485.17 2013.99L1485.17 1946.13L1541.22 1946.13ZM1481.77 1946.13L1481.77 2013.99L1425.87 2013.99L1425.87 1946.13L1481.77 1946.13ZM1422.47 1946.13L1422.47 2013.99L1366.57 2013.99L1366.57 1946.13L1422.47 1946.13ZM1363.32 1946.13L1363.32 2013.99L1307.42 2013.99L1307.42 1946.13L1363.32 1946.13ZM1304.03 1946.13L1304.03 2013.99L1248.12 2013.99L1248.12 1946.13L1304.03 1946.13ZM1244.73 1946.13L1244.73 2013.99L1188.67 2013.99L1188.67 1946.13L1244.73 1946.13ZM1185.27 1946.13L1185.27 2013.99L1129.37 2013.99L1129.37 1946.13L1185.27 1946.13ZM1125.97 1946.13L1125.97 2013.99L1070.07 2013.99L1070.07 1946.13L1125.97 1946.13ZM1066.83 1946.13L1066.83 2013.99L1010.93 2013.99L1010.93 1946.13L1066.83 1946.13ZM1007.53 1946.13L1007.53 2013.99L951.629 2013.99L951.629 1946.13L1007.53 1946.13ZM948.232 1946.13L948.232 2013.99L892.33 2013.99L892.33 1946.13L948.232 1946.13ZM888.933 1946.13L888.933 2013.99L833.031 2013.99L833.031 1946.13L888.933 1946.13ZM829.789 1946.13L829.789 2013.99L773.887 2013.99L773.887 1946.13L829.789 1946.13ZM770.49 1946.13L770.49 2013.99L714.434 2013.99L714.434 1946.13L770.49 1946.13ZM711.036 1946.13L711.036 2013.99L655.135 2013.99L655.135 1946.13L711.036 1946.13ZM651.737 1946.13L651.737 2013.99L595.836 2013.99L595.836 1946.13L651.737 1946.13ZM592.438 1946.13L592.438 2013.99L536.537 2013.99L536.537 1946.13L592.438 1946.13ZM533.294 1946.13L533.294 2013.99L477.392 2013.99L477.392 1946.13L533.294 1946.13ZM473.995 1946.13L473.995 2013.99L418.094 2013.99L418.094 1946.13L473.995 1946.13ZM414.696 1946.13L414.696 2013.99L358.794 2013.99L358.794 1946.13L414.696 1946.13ZM355.397 1946.13L355.397 2013.99L299.496 2013.99L299.496 1946.13L355.397 1946.13ZM296.253 1946.13L296.253 2013.99L240.197 2013.99L240.197 1946.13L296.253 1946.13ZM236.799 1946.13L236.799 2013.99L180.898 2013.99L180.898 1946.13L236.799 1946.13ZM177.5 1946.13L177.5 2013.99L121.599 2013.99L121.599 1946.13L177.5 1946.13ZM118.201 1946.13L118.201 2013.99L62.3 2013.99L62.3 1946.13L118.201 1946.13ZM59.057 1946.13L59.057 2013.99L3.15531 2013.99L3.15531 1946.13L59.057 1946.13ZM1896.71 1874.1L1896.71 1941.95L1840.8 1941.95L1840.8 1874.1L1896.71 1874.1ZM1837.56 1874.1L1837.56 1941.95L1781.66 1941.95L1781.66 1874.1L1837.56 1874.1ZM1778.26 1874.1L1778.26 1941.95L1722.36 1941.95L1722.36 1874.1L1778.26 1874.1ZM1718.96 1874.1L1718.96 1941.95L1663.06 1941.95L1663.06 1874.1L1718.96 1874.1ZM1659.66 1874.1L1659.66 1941.95L1603.76 1941.95L1603.76 1874.1L1659.66 1874.1ZM1600.52 1874.1L1600.52 1941.95L1544.62 1941.95L1544.62 1874.1L1600.52 1874.1ZM1541.22 1874.1L1541.22 1941.95L1485.17 1941.95L1485.17 1874.1L1541.22 1874.1ZM1481.77 1874.1L1481.77 1941.95L1425.87 1941.95L1425.87 1874.1L1481.77 1874.1ZM1422.47 1874.1L1422.47 1941.95L1366.57 1941.95L1366.57 1874.1L1422.47 1874.1ZM1363.32 1874.1L1363.32 1941.95L1307.42 1941.95L1307.42 1874.1L1363.32 1874.1ZM1304.03 1874.1L1304.03 1941.95L1248.12 1941.95L1248.12 1874.1L1304.03 1874.1ZM1244.73 1874.1L1244.73 1941.95L1188.67 1941.95L1188.67 1874.1L1244.73 1874.1ZM1185.27 1874.1L1185.27 1941.95L1129.37 1941.95L1129.37 1874.1L1185.27 1874.1ZM1125.97 1874.1L1125.97 1941.95L1070.07 1941.95L1070.07 1874.1L1125.97 1874.1ZM1066.83 1874.1L1066.83 1941.95L1010.93 1941.95L1010.93 1874.1L1066.83 1874.1ZM1007.53 1874.1L1007.53 1941.95L951.629 1941.95L951.629 1874.1L1007.53 1874.1ZM948.232 1874.1L948.232 1941.95L892.33 1941.95L892.33 1874.1L948.232 1874.1ZM888.933 1874.1L888.933 1941.95L833.031 1941.95L833.031 1874.1L888.933 1874.1ZM829.789 1874.1L829.789 1941.95L773.887 1941.95L773.887 1874.1L829.789 1874.1ZM770.49 1874.1L770.49 1941.95L714.434 1941.95L714.434 1874.1L770.49 1874.1ZM711.036 1874.1L711.036 1941.95L655.135 1941.95L655.135 1874.1L711.036 1874.1ZM651.737 1874.1L651.737 1941.95L595.836 1941.95L595.836 1874.1L651.737 1874.1ZM592.438 1874.1L592.438 1941.95L536.537 1941.95L536.537 1874.1L592.438 1874.1ZM533.294 1874.1L533.294 1941.95L477.392 1941.95L477.392 1874.1L533.294 1874.1ZM473.995 1874.1L473.995 1941.95L418.094 1941.95L418.094 1874.1L473.995 1874.1ZM414.696 1874.1L414.696 1941.95L358.794 1941.95L358.794 1874.1L414.696 1874.1ZM355.397 1874.1L355.397 1941.95L299.496 1941.95L299.496 1874.1L355.397 1874.1ZM296.253 1874.1L296.253 1941.95L240.197 1941.95L240.197 1874.1L296.253 1874.1ZM236.799 1874.1L236.799 1941.95L180.898 1941.95L180.898 1874.1L236.799 1874.1ZM177.5 1874.1L177.5 1941.95L121.599 1941.95L121.599 1874.1L177.5 1874.1ZM118.201 1874.1L118.201 1941.95L62.3 1941.95L62.3 1874.1L118.201 1874.1ZM59.057 1874.1L59.057 1941.95L3.15531 1941.95L3.15532 1874.1L59.057 1874.1ZM1896.71 1802.06L1896.71 1870.12L1840.8 1870.12L1840.8 1802.06L1896.71 1802.06ZM1837.56 1802.06L1837.56 1870.12L1781.66 1870.12L1781.66 1802.06L1837.56 1802.06ZM1778.26 1802.06L1778.26 1870.12L1722.36 1870.12L1722.36 1802.06L1778.26 1802.06ZM1718.96 1802.06L1718.96 1870.12L1663.06 1870.12L1663.06 1802.06L1718.96 1802.06ZM1659.66 1802.06L1659.66 1870.12L1603.76 1870.12L1603.76 1802.06L1659.66 1802.06ZM1600.52 1802.06L1600.52 1870.12L1544.62 1870.12L1544.62 1802.06L1600.52 1802.06ZM1541.22 1802.06L1541.22 1870.12L1485.17 1870.12L1485.17 1802.06L1541.22 1802.06ZM1481.77 1802.06L1481.77 1870.12L1425.87 1870.12L1425.87 1802.06L1481.77 1802.06ZM1422.47 1802.06L1422.47 1870.12L1366.57 1870.12L1366.57 1802.06L1422.47 1802.06ZM1363.32 1802.06L1363.32 1870.12L1307.42 1870.12L1307.42 1802.06L1363.32 1802.06ZM1304.03 1802.06L1304.03 1870.12L1248.12 1870.12L1248.12 1802.06L1304.03 1802.06ZM1244.73 1802.06L1244.73 1870.12L1188.67 1870.12L1188.67 1802.06L1244.73 1802.06ZM1185.27 1802.06L1185.27 1870.12L1129.37 1870.12L1129.37 1802.06L1185.27 1802.06ZM1125.97 1802.06L1125.97 1870.12L1070.07 1870.12L1070.07 1802.06L1125.97 1802.06ZM1066.83 1802.06L1066.83 1870.12L1010.93 1870.12L1010.93 1802.06L1066.83 1802.06ZM1007.53 1802.06L1007.53 1870.12L951.629 1870.12L951.629 1802.06L1007.53 1802.06ZM948.232 1802.06L948.232 1870.12L892.33 1870.12L892.33 1802.06L948.232 1802.06ZM888.933 1802.06L888.933 1870.12L833.031 1870.12L833.031 1802.06L888.933 1802.06ZM829.789 1802.06L829.789 1870.12L773.887 1870.12L773.887 1802.06L829.789 1802.06ZM770.49 1802.06L770.49 1870.12L714.434 1870.12L714.434 1802.06L770.49 1802.06ZM711.036 1802.06L711.036 1870.12L655.135 1870.12L655.135 1802.06L711.036 1802.06ZM651.737 1802.06L651.737 1870.12L595.836 1870.12L595.836 1802.06L651.737 1802.06ZM592.438 1802.06L592.438 1870.12L536.537 1870.12L536.537 1802.06L592.438 1802.06ZM533.294 1802.06L533.294 1870.12L477.392 1870.12L477.392 1802.06L533.294 1802.06ZM473.995 1802.06L473.995 1870.12L418.094 1870.12L418.094 1802.06L473.995 1802.06ZM414.696 1802.06L414.696 1870.12L358.794 1870.12L358.794 1802.06L414.696 1802.06ZM355.397 1802.06L355.397 1870.12L299.496 1870.12L299.496 1802.06L355.397 1802.06ZM296.253 1802.06L296.253 1870.12L240.197 1870.12L240.197 1802.06L296.253 1802.06ZM236.799 1802.06L236.799 1870.12L180.898 1870.12L180.898 1802.06L236.799 1802.06ZM177.5 1802.06L177.5 1870.12L121.599 1870.12L121.599 1802.06L177.5 1802.06ZM118.201 1802.06L118.201 1870.12L62.3 1870.12L62.3 1802.06L118.201 1802.06ZM59.0571 1802.06L59.057 1870.12L3.15532 1870.12L3.15532 1802.06L59.0571 1802.06ZM1896.71 1730.03L1896.71 1797.88L1840.8 1797.88L1840.8 1730.03L1896.71 1730.03ZM1837.56 1730.03L1837.56 1797.88L1781.66 1797.88L1781.66 1730.03L1837.56 1730.03ZM1778.26 1730.03L1778.26 1797.88L1722.36 1797.88L1722.36 1730.03L1778.26 1730.03ZM1718.96 1730.03L1718.96 1797.88L1663.06 1797.88L1663.06 1730.03L1718.96 1730.03ZM1659.66 1730.03L1659.66 1797.88L1603.76 1797.88L1603.76 1730.03L1659.66 1730.03ZM1600.52 1730.03L1600.52 1797.88L1544.62 1797.88L1544.62 1730.03L1600.52 1730.03ZM1541.22 1730.03L1541.22 1797.88L1485.17 1797.88L1485.17 1730.03L1541.22 1730.03ZM1481.77 1730.03L1481.77 1797.88L1425.87 1797.88L1425.87 1730.03L1481.77 1730.03ZM1422.47 1730.03L1422.47 1797.88L1366.57 1797.88L1366.57 1730.03L1422.47 1730.03ZM1363.32 1730.03L1363.32 1797.88L1307.42 1797.88L1307.42 1730.03L1363.32 1730.03ZM1304.03 1730.03L1304.03 1797.88L1248.12 1797.88L1248.12 1730.03L1304.03 1730.03ZM1244.73 1730.03L1244.73 1797.88L1188.67 1797.88L1188.67 1730.03L1244.73 1730.03ZM1185.27 1730.03L1185.27 1797.88L1129.37 1797.88L1129.37 1730.03L1185.27 1730.03ZM1125.97 1730.03L1125.97 1797.88L1070.07 1797.88L1070.07 1730.03L1125.97 1730.03ZM1066.83 1730.03L1066.83 1797.88L1010.93 1797.88L1010.93 1730.03L1066.83 1730.03ZM1007.53 1730.03L1007.53 1797.88L951.629 1797.88L951.629 1730.03L1007.53 1730.03ZM948.232 1730.03L948.232 1797.88L892.33 1797.88L892.33 1730.03L948.232 1730.03ZM888.933 1730.03L888.933 1797.88L833.031 1797.88L833.031 1730.03L888.933 1730.03ZM829.789 1730.03L829.789 1797.88L773.887 1797.88L773.887 1730.03L829.789 1730.03ZM770.49 1730.03L770.49 1797.88L714.434 1797.88L714.434 1730.03L770.49 1730.03ZM711.036 1730.03L711.036 1797.88L655.135 1797.88L655.135 1730.03L711.036 1730.03ZM651.737 1730.03L651.737 1797.88L595.836 1797.88L595.836 1730.03L651.737 1730.03ZM592.438 1730.03L592.438 1797.88L536.537 1797.88L536.537 1730.03L592.438 1730.03ZM533.294 1730.03L533.294 1797.88L477.392 1797.88L477.392 1730.03L533.294 1730.03ZM473.995 1730.03L473.995 1797.88L418.094 1797.88L418.094 1730.03L473.995 1730.03ZM414.696 1730.03L414.696 1797.88L358.794 1797.88L358.794 1730.03L414.696 1730.03ZM355.397 1730.03L355.397 1797.88L299.496 1797.88L299.496 1730.03L355.397 1730.03ZM296.253 1730.03L296.253 1797.88L240.197 1797.88L240.197 1730.03L296.253 1730.03ZM236.799 1730.03L236.799 1797.88L180.898 1797.88L180.898 1730.03L236.799 1730.03ZM177.5 1730.03L177.5 1797.88L121.599 1797.88L121.599 1730.03L177.5 1730.03ZM118.201 1730.03L118.201 1797.88L62.3 1797.88L62.3 1730.03L118.201 1730.03ZM59.0571 1730.03L59.0571 1797.88L3.15532 1797.88L3.15532 1730.03L59.0571 1730.03ZM1896.71 1658.19L1896.71 1726.05L1840.8 1726.05L1840.8 1658.19L1896.71 1658.19ZM1837.56 1658.19L1837.56 1726.05L1781.66 1726.05L1781.66 1658.19L1837.56 1658.19ZM1778.26 1658.19L1778.26 1726.05L1722.36 1726.05L1722.36 1658.19L1778.26 1658.19ZM1718.96 1658.19L1718.96 1726.05L1663.06 1726.05L1663.06 1658.19L1718.96 1658.19ZM1659.66 1658.19L1659.66 1726.05L1603.76 1726.05L1603.76 1658.19L1659.66 1658.19ZM1600.52 1658.19L1600.52 1726.05L1544.62 1726.05L1544.62 1658.19L1600.52 1658.19ZM1541.22 1658.19L1541.22 1726.05L1485.17 1726.05L1485.17 1658.19L1541.22 1658.19ZM1481.77 1658.19L1481.77 1726.05L1425.87 1726.05L1425.87 1658.19L1481.77 1658.19ZM1422.47 1658.19L1422.47 1726.05L1366.57 1726.05L1366.57 1658.19L1422.47 1658.19ZM1363.32 1658.19L1363.32 1726.05L1307.42 1726.05L1307.42 1658.19L1363.32 1658.19ZM1304.03 1658.19L1304.03 1726.05L1248.12 1726.05L1248.12 1658.19L1304.03 1658.19ZM1244.73 1658.19L1244.73 1726.05L1188.67 1726.05L1188.67 1658.19L1244.73 1658.19ZM1185.27 1658.19L1185.27 1726.05L1129.37 1726.05L1129.37 1658.19L1185.27 1658.19ZM1125.97 1658.19L1125.97 1726.05L1070.07 1726.05L1070.07 1658.19L1125.97 1658.19ZM1066.83 1658.19L1066.83 1726.05L1010.93 1726.05L1010.93 1658.19L1066.83 1658.19ZM1007.53 1658.19L1007.53 1726.05L951.629 1726.05L951.629 1658.19L1007.53 1658.19ZM948.232 1658.19L948.232 1726.05L892.33 1726.05L892.33 1658.19L948.232 1658.19ZM888.933 1658.19L888.933 1726.05L833.031 1726.05L833.031 1658.19L888.933 1658.19ZM829.789 1658.19L829.789 1726.05L773.887 1726.05L773.887 1658.19L829.789 1658.19ZM770.49 1658.19L770.49 1726.05L714.434 1726.05L714.434 1658.19L770.49 1658.19ZM711.036 1658.19L711.036 1726.05L655.135 1726.05L655.135 1658.19L711.036 1658.19ZM651.737 1658.19L651.737 1726.05L595.836 1726.05L595.836 1658.19L651.737 1658.19ZM592.438 1658.19L592.438 1726.05L536.537 1726.05L536.537 1658.19L592.438 1658.19ZM533.294 1658.19L533.294 1726.05L477.392 1726.05L477.392 1658.19L533.294 1658.19ZM473.995 1658.19L473.995 1726.05L418.094 1726.05L418.094 1658.19L473.995 1658.19ZM414.696 1658.19L414.696 1726.05L358.794 1726.05L358.794 1658.19L414.696 1658.19ZM355.397 1658.19L355.397 1726.05L299.496 1726.05L299.496 1658.19L355.397 1658.19ZM296.253 1658.19L296.253 1726.05L240.197 1726.05L240.197 1658.19L296.253 1658.19ZM236.799 1658.19L236.799 1726.05L180.898 1726.05L180.898 1658.19L236.799 1658.19ZM177.5 1658.19L177.5 1726.05L121.599 1726.05L121.599 1658.19L177.5 1658.19ZM118.201 1658.19L118.201 1726.05L62.3 1726.05L62.3 1658.19L118.201 1658.19ZM59.0571 1658.19L59.0571 1726.05L3.15532 1726.05L3.15532 1658.19L59.0571 1658.19ZM1896.71 1586.15L1896.71 1654.01L1840.8 1654.01L1840.8 1586.15L1896.71 1586.15ZM1837.56 1586.15L1837.56 1654.01L1781.66 1654.01L1781.66 1586.15L1837.56 1586.15ZM1778.26 1586.15L1778.26 1654.01L1722.36 1654.01L1722.36 1586.15L1778.26 1586.15ZM1718.96 1586.15L1718.96 1654.01L1663.06 1654.01L1663.06 1586.15L1718.96 1586.15ZM1659.66 1586.15L1659.66 1654.01L1603.76 1654.01L1603.76 1586.15L1659.66 1586.15ZM1600.52 1586.15L1600.52 1654.01L1544.62 1654.01L1544.62 1586.15L1600.52 1586.15ZM1541.22 1586.15L1541.22 1654.01L1485.17 1654.01L1485.17 1586.15L1541.22 1586.15ZM1481.77 1586.15L1481.77 1654.01L1425.87 1654.01L1425.87 1586.15L1481.77 1586.15ZM1422.47 1586.15L1422.47 1654.01L1366.57 1654.01L1366.57 1586.15L1422.47 1586.15ZM1363.32 1586.15L1363.32 1654.01L1307.42 1654.01L1307.42 1586.15L1363.32 1586.15ZM1304.03 1586.15L1304.03 1654.01L1248.12 1654.01L1248.12 1586.15L1304.03 1586.15ZM1244.73 1586.15L1244.73 1654.01L1188.67 1654.01L1188.67 1586.15L1244.73 1586.15ZM1185.27 1586.15L1185.27 1654.01L1129.37 1654.01L1129.37 1586.15L1185.27 1586.15ZM1125.97 1586.15L1125.97 1654.01L1070.07 1654.01L1070.07 1586.15L1125.97 1586.15ZM1066.83 1586.15L1066.83 1654.01L1010.93 1654.01L1010.93 1586.15L1066.83 1586.15ZM1007.53 1586.15L1007.53 1654.01L951.629 1654.01L951.629 1586.15L1007.53 1586.15ZM948.232 1586.15L948.232 1654.01L892.33 1654.01L892.33 1586.15L948.232 1586.15ZM888.933 1586.15L888.933 1654.01L833.031 1654.01L833.031 1586.15L888.933 1586.15ZM829.789 1586.15L829.789 1654.01L773.887 1654.01L773.887 1586.15L829.789 1586.15ZM770.49 1586.15L770.49 1654.01L714.434 1654.01L714.434 1586.15L770.49 1586.15ZM711.036 1586.15L711.036 1654.01L655.135 1654.01L655.135 1586.15L711.036 1586.15ZM651.737 1586.15L651.737 1654.01L595.836 1654.01L595.836 1586.15L651.737 1586.15ZM592.438 1586.15L592.438 1654.01L536.537 1654.01L536.537 1586.15L592.438 1586.15ZM533.294 1586.15L533.294 1654.01L477.392 1654.01L477.392 1586.15L533.294 1586.15ZM473.995 1586.15L473.995 1654.01L418.094 1654.01L418.094 1586.15L473.995 1586.15ZM414.696 1586.15L414.696 1654.01L358.794 1654.01L358.794 1586.15L414.696 1586.15ZM355.397 1586.15L355.397 1654.01L299.496 1654.01L299.496 1586.15L355.397 1586.15ZM296.253 1586.15L296.253 1654.01L240.197 1654.01L240.197 1586.15L296.253 1586.15ZM236.799 1586.15L236.799 1654.01L180.898 1654.01L180.898 1586.15L236.799 1586.15ZM177.5 1586.15L177.5 1654.01L121.599 1654.01L121.599 1586.15L177.5 1586.15ZM118.201 1586.15L118.201 1654.01L62.3 1654.01L62.3 1586.15L118.201 1586.15ZM59.0571 1586.15L59.0571 1654.01L3.15532 1654.01L3.15533 1586.15L59.0571 1586.15ZM1896.71 1514.32L1896.71 1582.17L1840.8 1582.17L1840.8 1514.32L1896.71 1514.32ZM1837.56 1514.32L1837.56 1582.17L1781.66 1582.17L1781.66 1514.32L1837.56 1514.32ZM1778.26 1514.32L1778.26 1582.17L1722.36 1582.17L1722.36 1514.32L1778.26 1514.32ZM1718.96 1514.32L1718.96 1582.17L1663.06 1582.17L1663.06 1514.32L1718.96 1514.32ZM1659.66 1514.32L1659.66 1582.17L1603.76 1582.17L1603.76 1514.32L1659.66 1514.32ZM1600.52 1514.32L1600.52 1582.17L1544.62 1582.17L1544.62 1514.32L1600.52 1514.32ZM1541.22 1514.32L1541.22 1582.17L1485.17 1582.17L1485.17 1514.32L1541.22 1514.32ZM1481.77 1514.32L1481.77 1582.17L1425.87 1582.17L1425.87 1514.32L1481.77 1514.32ZM1422.47 1514.32L1422.47 1582.17L1366.57 1582.17L1366.57 1514.32L1422.47 1514.32ZM1363.32 1514.32L1363.32 1582.17L1307.42 1582.17L1307.42 1514.32L1363.32 1514.32ZM1304.03 1514.32L1304.03 1582.17L1248.12 1582.17L1248.12 1514.32L1304.03 1514.32ZM1244.73 1514.32L1244.73 1582.17L1188.67 1582.17L1188.67 1514.32L1244.73 1514.32ZM1185.27 1514.32L1185.27 1582.17L1129.37 1582.17L1129.37 1514.32L1185.27 1514.32ZM1125.97 1514.32L1125.97 1582.17L1070.07 1582.17L1070.07 1514.32L1125.97 1514.32ZM1066.83 1514.32L1066.83 1582.17L1010.93 1582.17L1010.93 1514.32L1066.83 1514.32ZM1007.53 1514.32L1007.53 1582.17L951.629 1582.17L951.629 1514.32L1007.53 1514.32ZM948.232 1514.32L948.232 1582.17L892.33 1582.17L892.33 1514.32L948.232 1514.32ZM888.933 1514.32L888.933 1582.17L833.031 1582.17L833.031 1514.32L888.933 1514.32ZM829.789 1514.32L829.789 1582.17L773.887 1582.17L773.887 1514.32L829.789 1514.32ZM770.49 1514.32L770.49 1582.17L714.434 1582.17L714.434 1514.32L770.49 1514.32ZM711.036 1514.32L711.036 1582.17L655.135 1582.17L655.135 1514.32L711.036 1514.32ZM651.737 1514.32L651.737 1582.17L595.836 1582.17L595.836 1514.32L651.737 1514.32ZM592.438 1514.32L592.438 1582.17L536.537 1582.17L536.537 1514.32L592.438 1514.32ZM533.294 1514.32L533.294 1582.17L477.392 1582.17L477.392 1514.32L533.294 1514.32ZM473.995 1514.32L473.995 1582.17L418.094 1582.17L418.094 1514.32L473.995 1514.32ZM414.696 1514.32L414.696 1582.17L358.794 1582.17L358.794 1514.32L414.696 1514.32ZM355.397 1514.32L355.397 1582.17L299.496 1582.17L299.496 1514.32L355.397 1514.32ZM296.253 1514.32L296.253 1582.17L240.197 1582.17L240.197 1514.32L296.253 1514.32ZM236.799 1514.32L236.799 1582.17L180.898 1582.17L180.898 1514.32L236.799 1514.32ZM177.5 1514.32L177.5 1582.17L121.599 1582.17L121.599 1514.32L177.5 1514.32ZM118.201 1514.32L118.201 1582.17L62.3 1582.17L62.3 1514.32L118.201 1514.32ZM59.0571 1514.32L59.0571 1582.17L3.15533 1582.17L3.15533 1514.32L59.0571 1514.32ZM1896.71 1442.48L1896.71 1510.34L1840.8 1510.34L1840.8 1442.48L1896.71 1442.48ZM1837.56 1442.48L1837.56 1510.34L1781.66 1510.34L1781.66 1442.48L1837.56 1442.48ZM1778.26 1442.48L1778.26 1510.34L1722.36 1510.34L1722.36 1442.48L1778.26 1442.48ZM1718.96 1442.48L1718.96 1510.34L1663.06 1510.34L1663.06 1442.48L1718.96 1442.48ZM1659.66 1442.48L1659.66 1510.34L1603.76 1510.34L1603.76 1442.48L1659.66 1442.48ZM1600.52 1442.48L1600.52 1510.34L1544.62 1510.34L1544.62 1442.48L1600.52 1442.48ZM1541.22 1442.48L1541.22 1510.34L1485.17 1510.34L1485.17 1442.48L1541.22 1442.48ZM1481.77 1442.48L1481.77 1510.34L1425.87 1510.34L1425.87 1442.48L1481.77 1442.48ZM1422.47 1442.48L1422.47 1510.34L1366.57 1510.34L1366.57 1442.48L1422.47 1442.48ZM1363.32 1442.48L1363.32 1510.34L1307.42 1510.34L1307.42 1442.48L1363.32 1442.48ZM1304.03 1442.48L1304.03 1510.34L1248.12 1510.34L1248.12 1442.48L1304.03 1442.48ZM1244.73 1442.48L1244.73 1510.34L1188.67 1510.34L1188.67 1442.48L1244.73 1442.48ZM1185.27 1442.48L1185.27 1510.34L1129.37 1510.34L1129.37 1442.48L1185.27 1442.48ZM1125.97 1442.48L1125.97 1510.34L1070.07 1510.34L1070.07 1442.48L1125.97 1442.48ZM1066.83 1442.48L1066.83 1510.34L1010.93 1510.34L1010.93 1442.48L1066.83 1442.48ZM1007.53 1442.48L1007.53 1510.34L951.629 1510.34L951.629 1442.48L1007.53 1442.48ZM948.232 1442.48L948.232 1510.34L892.33 1510.34L892.33 1442.48L948.232 1442.48ZM888.933 1442.48L888.933 1510.34L833.031 1510.34L833.031 1442.48L888.933 1442.48ZM829.789 1442.48L829.789 1510.34L773.887 1510.34L773.887 1442.48L829.789 1442.48ZM770.49 1442.48L770.49 1510.34L714.434 1510.34L714.434 1442.48L770.49 1442.48ZM711.036 1442.48L711.036 1510.34L655.135 1510.34L655.135 1442.48L711.036 1442.48ZM651.737 1442.48L651.737 1510.34L595.836 1510.34L595.836 1442.48L651.737 1442.48ZM592.438 1442.48L592.438 1510.34L536.537 1510.34L536.537 1442.48L592.438 1442.48ZM533.294 1442.48L533.294 1510.34L477.392 1510.34L477.392 1442.48L533.294 1442.48ZM473.995 1442.48L473.995 1510.34L418.094 1510.34L418.094 1442.48L473.995 1442.48ZM414.696 1442.48L414.696 1510.34L358.794 1510.34L358.794 1442.48L414.696 1442.48ZM355.397 1442.48L355.397 1510.34L299.496 1510.34L299.496 1442.48L355.397 1442.48ZM296.253 1442.48L296.253 1510.34L240.197 1510.34L240.197 1442.48L296.253 1442.48ZM236.799 1442.48L236.799 1510.34L180.898 1510.34L180.898 1442.48L236.799 1442.48ZM177.5 1442.48L177.5 1510.34L121.599 1510.34L121.599 1442.48L177.5 1442.48ZM118.201 1442.48L118.201 1510.34L62.3 1510.34L62.3 1442.48L118.201 1442.48ZM59.0571 1442.48L59.0571 1510.34L3.15533 1510.34L3.15533 1442.48L59.0571 1442.48ZM1896.71 1370.25L1896.71 1438.3L1840.8 1438.3L1840.8 1370.25L1896.71 1370.25ZM1837.56 1370.25L1837.56 1438.3L1781.66 1438.3L1781.66 1370.25L1837.56 1370.25ZM1778.26 1370.25L1778.26 1438.3L1722.36 1438.3L1722.36 1370.25L1778.26 1370.25ZM1718.96 1370.25L1718.96 1438.3L1663.06 1438.3L1663.06 1370.25L1718.96 1370.25ZM1659.66 1370.25L1659.66 1438.3L1603.76 1438.3L1603.76 1370.25L1659.66 1370.25ZM1600.52 1370.25L1600.52 1438.3L1544.62 1438.3L1544.62 1370.25L1600.52 1370.25ZM1541.22 1370.25L1541.22 1438.3L1485.17 1438.3L1485.17 1370.25L1541.22 1370.25ZM1481.77 1370.25L1481.77 1438.3L1425.87 1438.3L1425.87 1370.25L1481.77 1370.25ZM1422.47 1370.25L1422.47 1438.3L1366.57 1438.3L1366.57 1370.25L1422.47 1370.25ZM1363.32 1370.25L1363.32 1438.3L1307.42 1438.3L1307.42 1370.25L1363.32 1370.25ZM1304.03 1370.25L1304.03 1438.3L1248.12 1438.3L1248.12 1370.25L1304.03 1370.25ZM1244.73 1370.25L1244.73 1438.3L1188.67 1438.3L1188.67 1370.25L1244.73 1370.25ZM1185.27 1370.25L1185.27 1438.3L1129.37 1438.3L1129.37 1370.25L1185.27 1370.25ZM1125.97 1370.25L1125.97 1438.3L1070.07 1438.3L1070.07 1370.25L1125.97 1370.25ZM1066.83 1370.25L1066.83 1438.3L1010.93 1438.3L1010.93 1370.25L1066.83 1370.25ZM1007.53 1370.25L1007.53 1438.3L951.629 1438.3L951.629 1370.25L1007.53 1370.25ZM948.232 1370.25L948.232 1438.3L892.33 1438.3L892.33 1370.25L948.232 1370.25ZM888.933 1370.25L888.933 1438.3L833.031 1438.3L833.031 1370.25L888.933 1370.25ZM829.789 1370.25L829.789 1438.3L773.887 1438.3L773.887 1370.25L829.789 1370.25ZM770.49 1370.25L770.49 1438.3L714.434 1438.3L714.434 1370.25L770.49 1370.25ZM711.036 1370.25L711.036 1438.3L655.135 1438.3L655.135 1370.25L711.036 1370.25ZM651.737 1370.25L651.737 1438.3L595.836 1438.3L595.836 1370.25L651.737 1370.25ZM592.438 1370.25L592.438 1438.3L536.537 1438.3L536.537 1370.25L592.438 1370.25ZM533.294 1370.25L533.294 1438.3L477.392 1438.3L477.392 1370.25L533.294 1370.25ZM473.995 1370.25L473.995 1438.3L418.094 1438.3L418.094 1370.25L473.995 1370.25ZM414.696 1370.25L414.696 1438.3L358.794 1438.3L358.794 1370.25L414.696 1370.25ZM355.397 1370.25L355.397 1438.3L299.496 1438.3L299.496 1370.25L355.397 1370.25ZM296.253 1370.25L296.253 1438.3L240.197 1438.3L240.197 1370.25L296.253 1370.25ZM236.799 1370.25L236.799 1438.3L180.898 1438.3L180.898 1370.25L236.799 1370.25ZM177.5 1370.25L177.5 1438.3L121.599 1438.3L121.599 1370.25L177.5 1370.25ZM118.201 1370.25L118.201 1438.3L62.3 1438.3L62.3 1370.25L118.201 1370.25ZM59.0571 1370.25L59.0571 1438.3L3.15533 1438.3L3.15534 1370.25L59.0571 1370.25ZM1896.71 1298.41L1896.71 1366.27L1840.8 1366.27L1840.8 1298.41L1896.71 1298.41ZM1837.56 1298.41L1837.56 1366.27L1781.66 1366.27L1781.66 1298.41L1837.56 1298.41ZM1778.26 1298.41L1778.26 1366.27L1722.36 1366.27L1722.36 1298.41L1778.26 1298.41ZM1718.96 1298.41L1718.96 1366.27L1663.06 1366.27L1663.06 1298.41L1718.96 1298.41ZM1659.66 1298.41L1659.66 1366.27L1603.76 1366.27L1603.76 1298.41L1659.66 1298.41ZM1600.52 1298.41L1600.52 1366.27L1544.62 1366.27L1544.62 1298.41L1600.52 1298.41ZM1541.22 1298.41L1541.22 1366.27L1485.17 1366.27L1485.17 1298.41L1541.22 1298.41ZM1481.77 1298.41L1481.77 1366.27L1425.87 1366.27L1425.87 1298.41L1481.77 1298.41ZM1422.47 1298.41L1422.47 1366.27L1366.57 1366.27L1366.57 1298.41L1422.47 1298.41ZM1363.32 1298.41L1363.32 1366.27L1307.42 1366.27L1307.42 1298.41L1363.32 1298.41ZM1304.03 1298.41L1304.03 1366.27L1248.12 1366.27L1248.12 1298.41L1304.03 1298.41ZM1244.73 1298.41L1244.73 1366.27L1188.67 1366.27L1188.67 1298.41L1244.73 1298.41ZM1185.27 1298.41L1185.27 1366.27L1129.37 1366.27L1129.37 1298.41L1185.27 1298.41ZM1125.97 1298.41L1125.97 1366.27L1070.07 1366.27L1070.07 1298.41L1125.97 1298.41ZM1066.83 1298.41L1066.83 1366.27L1010.93 1366.27L1010.93 1298.41L1066.83 1298.41ZM1007.53 1298.41L1007.53 1366.27L951.629 1366.27L951.629 1298.41L1007.53 1298.41ZM948.232 1298.41L948.232 1366.27L892.33 1366.27L892.33 1298.41L948.232 1298.41ZM888.933 1298.41L888.933 1366.27L833.031 1366.27L833.031 1298.41L888.933 1298.41ZM829.789 1298.41L829.789 1366.27L773.887 1366.27L773.887 1298.41L829.789 1298.41ZM770.49 1298.41L770.49 1366.27L714.434 1366.27L714.434 1298.41L770.49 1298.41ZM711.036 1298.41L711.036 1366.27L655.135 1366.27L655.135 1298.41L711.036 1298.41ZM651.737 1298.41L651.737 1366.27L595.836 1366.27L595.836 1298.41L651.737 1298.41ZM592.438 1298.41L592.438 1366.27L536.537 1366.27L536.537 1298.41L592.438 1298.41ZM533.294 1298.41L533.294 1366.27L477.392 1366.27L477.392 1298.41L533.294 1298.41ZM473.995 1298.41L473.995 1366.27L418.094 1366.27L418.094 1298.41L473.995 1298.41ZM414.696 1298.41L414.696 1366.27L358.794 1366.27L358.794 1298.41L414.696 1298.41ZM355.397 1298.41L355.397 1366.27L299.496 1366.27L299.496 1298.41L355.397 1298.41ZM296.253 1298.41L296.253 1366.27L240.197 1366.27L240.197 1298.41L296.253 1298.41ZM236.799 1298.41L236.799 1366.27L180.898 1366.27L180.898 1298.41L236.799 1298.41ZM177.5 1298.41L177.5 1366.27L121.599 1366.27L121.599 1298.41L177.5 1298.41ZM118.201 1298.41L118.201 1366.27L62.3 1366.27L62.3 1298.41L118.201 1298.41ZM59.0571 1298.41L59.0571 1366.27L3.15534 1366.27L3.15534 1298.41L59.0571 1298.41ZM1896.71 1226.37L1896.71 1294.23L1840.8 1294.23L1840.8 1226.37L1896.71 1226.37ZM1837.56 1226.37L1837.56 1294.23L1781.66 1294.23L1781.66 1226.37L1837.56 1226.37ZM1778.26 1226.37L1778.26 1294.23L1722.36 1294.23L1722.36 1226.37L1778.26 1226.37ZM1718.96 1226.37L1718.96 1294.23L1663.06 1294.23L1663.06 1226.37L1718.96 1226.37ZM1659.66 1226.37L1659.66 1294.23L1603.76 1294.23L1603.76 1226.37L1659.66 1226.37ZM1600.52 1226.37L1600.52 1294.23L1544.62 1294.23L1544.62 1226.37L1600.52 1226.37ZM1541.22 1226.37L1541.22 1294.23L1485.17 1294.23L1485.17 1226.37L1541.22 1226.37ZM1481.77 1226.37L1481.77 1294.23L1425.87 1294.23L1425.87 1226.37L1481.77 1226.37ZM1422.47 1226.37L1422.47 1294.23L1366.57 1294.23L1366.57 1226.37L1422.47 1226.37ZM1363.32 1226.37L1363.32 1294.23L1307.42 1294.23L1307.42 1226.37L1363.32 1226.37ZM1304.03 1226.37L1304.03 1294.23L1248.12 1294.23L1248.12 1226.37L1304.03 1226.37ZM1244.73 1226.37L1244.73 1294.23L1188.67 1294.23L1188.67 1226.37L1244.73 1226.37ZM1185.27 1226.37L1185.27 1294.23L1129.37 1294.23L1129.37 1226.37L1185.27 1226.37ZM1125.97 1226.37L1125.97 1294.23L1070.07 1294.23L1070.07 1226.37L1125.97 1226.37ZM1066.83 1226.37L1066.83 1294.23L1010.93 1294.23L1010.93 1226.37L1066.83 1226.37ZM1007.53 1226.37L1007.53 1294.23L951.629 1294.23L951.629 1226.37L1007.53 1226.37ZM948.232 1226.37L948.232 1294.23L892.33 1294.23L892.33 1226.37L948.232 1226.37ZM888.933 1226.37L888.933 1294.23L833.031 1294.23L833.031 1226.37L888.933 1226.37ZM829.789 1226.37L829.789 1294.23L773.887 1294.23L773.887 1226.37L829.789 1226.37ZM770.49 1226.37L770.49 1294.23L714.434 1294.23L714.434 1226.37L770.49 1226.37ZM711.036 1226.37L711.036 1294.23L655.135 1294.23L655.135 1226.37L711.036 1226.37ZM651.737 1226.37L651.737 1294.23L595.836 1294.23L595.836 1226.37L651.737 1226.37ZM592.438 1226.37L592.438 1294.23L536.537 1294.23L536.537 1226.37L592.438 1226.37ZM533.294 1226.37L533.294 1294.23L477.392 1294.23L477.392 1226.37L533.294 1226.37ZM473.995 1226.37L473.995 1294.23L418.094 1294.23L418.094 1226.37L473.995 1226.37ZM414.696 1226.37L414.696 1294.23L358.795 1294.23L358.795 1226.37L414.696 1226.37ZM355.397 1226.37L355.397 1294.23L299.496 1294.23L299.496 1226.37L355.397 1226.37ZM296.253 1226.37L296.253 1294.23L240.197 1294.23L240.197 1226.37L296.253 1226.37ZM236.799 1226.37L236.799 1294.23L180.898 1294.23L180.898 1226.37L236.799 1226.37ZM177.5 1226.37L177.5 1294.23L121.599 1294.23L121.599 1226.37L177.5 1226.37ZM118.201 1226.37L118.201 1294.23L62.3 1294.23L62.3 1226.37L118.201 1226.37ZM59.0571 1226.37L59.0571 1294.23L3.15534 1294.23L3.15534 1226.37L59.0571 1226.37ZM1896.71 1154.54L1896.71 1222.39L1840.8 1222.39L1840.8 1154.54L1896.71 1154.54ZM1837.56 1154.54L1837.56 1222.39L1781.66 1222.39L1781.66 1154.54L1837.56 1154.54ZM1778.26 1154.54L1778.26 1222.39L1722.36 1222.39L1722.36 1154.54L1778.26 1154.54ZM1718.96 1154.54L1718.96 1222.39L1663.06 1222.39L1663.06 1154.54L1718.96 1154.54ZM1659.66 1154.54L1659.66 1222.39L1603.76 1222.39L1603.76 1154.54L1659.66 1154.54ZM1600.52 1154.54L1600.52 1222.39L1544.62 1222.39L1544.62 1154.54L1600.52 1154.54ZM1541.22 1154.54L1541.22 1222.39L1485.17 1222.39L1485.17 1154.54L1541.22 1154.54ZM1481.77 1154.54L1481.77 1222.39L1425.87 1222.39L1425.87 1154.54L1481.77 1154.54ZM1422.47 1154.54L1422.47 1222.39L1366.57 1222.39L1366.57 1154.54L1422.47 1154.54ZM1363.32 1154.54L1363.32 1222.39L1307.42 1222.39L1307.42 1154.54L1363.32 1154.54ZM1304.03 1154.54L1304.03 1222.39L1248.12 1222.39L1248.12 1154.54L1304.03 1154.54ZM1244.73 1154.54L1244.73 1222.39L1188.67 1222.39L1188.67 1154.54L1244.73 1154.54ZM1185.27 1154.54L1185.27 1222.39L1129.37 1222.39L1129.37 1154.54L1185.27 1154.54ZM1125.97 1154.54L1125.97 1222.39L1070.07 1222.39L1070.07 1154.54L1125.97 1154.54ZM1066.83 1154.54L1066.83 1222.39L1010.93 1222.39L1010.93 1154.54L1066.83 1154.54ZM1007.53 1154.54L1007.53 1222.39L951.629 1222.39L951.629 1154.54L1007.53 1154.54ZM948.232 1154.54L948.232 1222.39L892.33 1222.39L892.33 1154.54L948.232 1154.54ZM888.933 1154.54L888.933 1222.39L833.031 1222.39L833.031 1154.54L888.933 1154.54ZM829.789 1154.54L829.789 1222.39L773.887 1222.39L773.887 1154.54L829.789 1154.54ZM770.49 1154.54L770.49 1222.39L714.434 1222.39L714.434 1154.54L770.49 1154.54ZM711.036 1154.54L711.036 1222.39L655.135 1222.39L655.135 1154.54L711.036 1154.54ZM651.737 1154.54L651.737 1222.39L595.836 1222.39L595.836 1154.54L651.737 1154.54ZM592.438 1154.54L592.438 1222.39L536.537 1222.39L536.537 1154.54L592.438 1154.54ZM533.294 1154.54L533.294 1222.39L477.392 1222.39L477.392 1154.54L533.294 1154.54ZM473.995 1154.54L473.995 1222.39L418.094 1222.39L418.094 1154.54L473.995 1154.54ZM414.696 1154.54L414.696 1222.39L358.795 1222.39L358.795 1154.54L414.696 1154.54ZM355.397 1154.54L355.397 1222.39L299.496 1222.39L299.496 1154.54L355.397 1154.54ZM296.253 1154.54L296.253 1222.39L240.197 1222.39L240.197 1154.54L296.253 1154.54ZM236.799 1154.54L236.799 1222.39L180.898 1222.39L180.898 1154.54L236.799 1154.54ZM177.5 1154.54L177.5 1222.39L121.599 1222.39L121.599 1154.54L177.5 1154.54ZM118.201 1154.54L118.201 1222.39L62.3 1222.39L62.3 1154.54L118.201 1154.54ZM59.0571 1154.54L59.0571 1222.39L3.15534 1222.39L3.15535 1154.54L59.0571 1154.54ZM1896.71 1082.5L1896.71 1150.36L1840.8 1150.36L1840.8 1082.5L1896.71 1082.5ZM1837.56 1082.5L1837.56 1150.36L1781.66 1150.36L1781.66 1082.5L1837.56 1082.5ZM1778.26 1082.5L1778.26 1150.36L1722.36 1150.36L1722.36 1082.5L1778.26 1082.5ZM1718.96 1082.5L1718.96 1150.36L1663.06 1150.36L1663.06 1082.5L1718.96 1082.5ZM1659.66 1082.5L1659.66 1150.36L1603.76 1150.36L1603.76 1082.5L1659.66 1082.5ZM1600.52 1082.5L1600.52 1150.36L1544.62 1150.36L1544.62 1082.5L1600.52 1082.5ZM1541.22 1082.5L1541.22 1150.36L1485.17 1150.36L1485.17 1082.5L1541.22 1082.5ZM1481.77 1082.5L1481.77 1150.36L1425.87 1150.36L1425.87 1082.5L1481.77 1082.5ZM1422.47 1082.5L1422.47 1150.36L1366.57 1150.36L1366.57 1082.5L1422.47 1082.5ZM1363.32 1082.5L1363.32 1150.36L1307.42 1150.36L1307.42 1082.5L1363.32 1082.5ZM1304.03 1082.5L1304.03 1150.36L1248.12 1150.36L1248.12 1082.5L1304.03 1082.5ZM1244.73 1082.5L1244.73 1150.36L1188.67 1150.36L1188.67 1082.5L1244.73 1082.5ZM1185.27 1082.5L1185.27 1150.36L1129.37 1150.36L1129.37 1082.5L1185.27 1082.5ZM1125.97 1082.5L1125.97 1150.36L1070.07 1150.36L1070.07 1082.5L1125.97 1082.5ZM1066.83 1082.5L1066.83 1150.36L1010.93 1150.36L1010.93 1082.5L1066.83 1082.5ZM1007.53 1082.5L1007.53 1150.36L951.629 1150.36L951.629 1082.5L1007.53 1082.5ZM948.232 1082.5L948.232 1150.36L892.33 1150.36L892.33 1082.5L948.232 1082.5ZM888.933 1082.5L888.933 1150.36L833.031 1150.36L833.031 1082.5L888.933 1082.5ZM829.789 1082.5L829.789 1150.36L773.887 1150.36L773.887 1082.5L829.789 1082.5ZM770.49 1082.5L770.49 1150.36L714.434 1150.36L714.434 1082.5L770.49 1082.5ZM711.036 1082.5L711.036 1150.36L655.135 1150.36L655.135 1082.5L711.036 1082.5ZM651.737 1082.5L651.737 1150.36L595.836 1150.36L595.836 1082.5L651.737 1082.5ZM592.438 1082.5L592.438 1150.36L536.537 1150.36L536.537 1082.5L592.438 1082.5ZM533.294 1082.5L533.294 1150.36L477.392 1150.36L477.392 1082.5L533.294 1082.5ZM473.995 1082.5L473.995 1150.36L418.094 1150.36L418.094 1082.5L473.995 1082.5ZM414.696 1082.5L414.696 1150.36L358.795 1150.36L358.795 1082.5L414.696 1082.5ZM355.397 1082.5L355.397 1150.36L299.496 1150.36L299.496 1082.5L355.397 1082.5ZM296.253 1082.5L296.253 1150.36L240.197 1150.36L240.197 1082.5L296.253 1082.5ZM236.799 1082.5L236.799 1150.36L180.898 1150.36L180.898 1082.5L236.799 1082.5ZM177.5 1082.5L177.5 1150.36L121.599 1150.36L121.599 1082.5L177.5 1082.5ZM118.201 1082.5L118.201 1150.36L62.3 1150.36L62.3 1082.5L118.201 1082.5ZM59.0571 1082.5L59.0571 1150.36L3.15535 1150.36L3.15535 1082.5L59.0571 1082.5ZM1896.71 1010.66L1896.71 1078.52L1840.8 1078.52L1840.8 1010.66L1896.71 1010.66ZM1837.56 1010.66L1837.56 1078.52L1781.66 1078.52L1781.66 1010.66L1837.56 1010.66ZM1778.26 1010.66L1778.26 1078.52L1722.36 1078.52L1722.36 1010.66L1778.26 1010.66ZM1718.96 1010.66L1718.96 1078.52L1663.06 1078.52L1663.06 1010.66L1718.96 1010.66ZM1659.66 1010.66L1659.66 1078.52L1603.76 1078.52L1603.76 1010.66L1659.66 1010.66ZM1600.52 1010.66L1600.52 1078.52L1544.62 1078.52L1544.62 1010.66L1600.52 1010.66ZM1541.22 1010.66L1541.22 1078.52L1485.17 1078.52L1485.17 1010.66L1541.22 1010.66ZM1481.77 1010.66L1481.77 1078.52L1425.87 1078.52L1425.87 1010.66L1481.77 1010.66ZM1422.47 1010.66L1422.47 1078.52L1366.57 1078.52L1366.57 1010.66L1422.47 1010.66ZM1363.32 1010.66L1363.32 1078.52L1307.42 1078.52L1307.42 1010.66L1363.32 1010.66ZM1304.03 1010.66L1304.03 1078.52L1248.12 1078.52L1248.12 1010.66L1304.03 1010.66ZM1244.73 1010.66L1244.73 1078.52L1188.67 1078.52L1188.67 1010.66L1244.73 1010.66ZM1185.27 1010.66L1185.27 1078.52L1129.37 1078.52L1129.37 1010.66L1185.27 1010.66ZM1125.97 1010.66L1125.97 1078.52L1070.07 1078.52L1070.07 1010.66L1125.97 1010.66ZM1066.83 1010.66L1066.83 1078.52L1010.93 1078.52L1010.93 1010.66L1066.83 1010.66ZM1007.53 1010.66L1007.53 1078.52L951.629 1078.52L951.629 1010.66L1007.53 1010.66ZM948.232 1010.66L948.232 1078.52L892.33 1078.52L892.33 1010.66L948.232 1010.66ZM888.933 1010.66L888.933 1078.52L833.031 1078.52L833.031 1010.66L888.933 1010.66ZM829.789 1010.66L829.789 1078.52L773.887 1078.52L773.887 1010.66L829.789 1010.66ZM770.49 1010.66L770.49 1078.52L714.434 1078.52L714.434 1010.66L770.49 1010.66ZM711.036 1010.66L711.036 1078.52L655.135 1078.52L655.135 1010.66L711.036 1010.66ZM651.737 1010.66L651.737 1078.52L595.836 1078.52L595.836 1010.66L651.737 1010.66ZM592.438 1010.66L592.438 1078.52L536.537 1078.52L536.537 1010.66L592.438 1010.66ZM533.294 1010.66L533.294 1078.52L477.392 1078.52L477.392 1010.66L533.294 1010.66ZM473.995 1010.66L473.995 1078.52L418.094 1078.52L418.094 1010.66L473.995 1010.66ZM414.696 1010.66L414.696 1078.52L358.795 1078.52L358.795 1010.66L414.696 1010.66ZM355.397 1010.66L355.397 1078.52L299.496 1078.52L299.496 1010.66L355.397 1010.66ZM296.253 1010.66L296.253 1078.52L240.197 1078.52L240.197 1010.66L296.253 1010.66ZM236.799 1010.66L236.799 1078.52L180.898 1078.52L180.898 1010.66L236.799 1010.66ZM177.5 1010.66L177.5 1078.52L121.599 1078.52L121.599 1010.66L177.5 1010.66ZM118.201 1010.66L118.201 1078.52L62.3 1078.52L62.3 1010.66L118.201 1010.66ZM59.0571 1010.66L59.0571 1078.52L3.15535 1078.52L3.15535 1010.66L59.0571 1010.66ZM1896.71 938.627L1896.71 1006.48L1840.8 1006.48L1840.8 938.627L1896.71 938.627ZM1837.56 938.627L1837.56 1006.48L1781.66 1006.48L1781.66 938.627L1837.56 938.627ZM1778.26 938.627L1778.26 1006.48L1722.36 1006.48L1722.36 938.627L1778.26 938.627ZM1718.96 938.627L1718.96 1006.48L1663.06 1006.48L1663.06 938.627L1718.96 938.627ZM1659.66 938.627L1659.66 1006.48L1603.76 1006.48L1603.76 938.627L1659.66 938.627ZM1600.52 938.627L1600.52 1006.48L1544.62 1006.48L1544.62 938.627L1600.52 938.627ZM1541.22 938.627L1541.22 1006.48L1485.17 1006.48L1485.17 938.627L1541.22 938.627ZM1481.77 938.627L1481.77 1006.48L1425.87 1006.48L1425.87 938.627L1481.77 938.627ZM1422.47 938.627L1422.47 1006.48L1366.57 1006.48L1366.57 938.627L1422.47 938.627ZM1363.32 938.627L1363.32 1006.48L1307.42 1006.48L1307.42 938.627L1363.32 938.627ZM1304.03 938.627L1304.03 1006.48L1248.12 1006.48L1248.12 938.627L1304.03 938.627ZM1244.73 938.627L1244.73 1006.48L1188.67 1006.48L1188.67 938.627L1244.73 938.627ZM1185.27 938.627L1185.27 1006.48L1129.37 1006.48L1129.37 938.627L1185.27 938.627ZM1125.97 938.627L1125.97 1006.48L1070.07 1006.48L1070.07 938.627L1125.97 938.627ZM1066.83 938.627L1066.83 1006.48L1010.93 1006.48L1010.93 938.627L1066.83 938.627ZM1007.53 938.627L1007.53 1006.48L951.629 1006.48L951.629 938.627L1007.53 938.627ZM948.232 938.627L948.232 1006.48L892.33 1006.48L892.33 938.627L948.232 938.627ZM888.933 938.627L888.933 1006.48L833.031 1006.48L833.031 938.627L888.933 938.627ZM829.789 938.627L829.789 1006.48L773.887 1006.48L773.887 938.627L829.789 938.627ZM770.49 938.627L770.49 1006.48L714.434 1006.48L714.434 938.627L770.49 938.627ZM711.036 938.627L711.036 1006.48L655.135 1006.48L655.135 938.627L711.036 938.627ZM651.737 938.627L651.737 1006.48L595.836 1006.48L595.836 938.627L651.737 938.627ZM592.438 938.627L592.438 1006.48L536.537 1006.48L536.537 938.627L592.438 938.627ZM533.294 938.627L533.294 1006.48L477.392 1006.48L477.392 938.627L533.294 938.627ZM473.995 938.627L473.995 1006.48L418.094 1006.48L418.094 938.627L473.995 938.627ZM414.696 938.627L414.696 1006.48L358.795 1006.48L358.795 938.627L414.696 938.627ZM355.397 938.627L355.397 1006.48L299.496 1006.48L299.496 938.627L355.397 938.627ZM296.253 938.627L296.253 1006.48L240.197 1006.48L240.197 938.627L296.253 938.627ZM236.799 938.627L236.799 1006.48L180.898 1006.48L180.898 938.627L236.799 938.627ZM177.5 938.627L177.5 1006.48L121.599 1006.48L121.599 938.627L177.5 938.627ZM118.201 938.627L118.201 1006.48L62.3 1006.48L62.3 938.627L118.201 938.627ZM59.0571 938.627L59.0571 1006.48L3.15535 1006.48L3.15536 938.627L59.0571 938.627ZM1896.71 866.791L1896.71 934.648L1840.8 934.648L1840.8 866.791L1896.71 866.791ZM1837.56 866.791L1837.56 934.648L1781.66 934.648L1781.66 866.791L1837.56 866.791ZM1778.26 866.791L1778.26 934.648L1722.36 934.648L1722.36 866.791L1778.26 866.791ZM1718.96 866.791L1718.96 934.648L1663.06 934.648L1663.06 866.791L1718.96 866.791ZM1659.66 866.791L1659.66 934.648L1603.76 934.648L1603.76 866.791L1659.66 866.791ZM1600.52 866.791L1600.52 934.648L1544.62 934.648L1544.62 866.791L1600.52 866.791ZM1541.22 866.791L1541.22 934.648L1485.17 934.648L1485.17 866.791L1541.22 866.791ZM1481.77 866.791L1481.77 934.648L1425.87 934.647L1425.87 866.791L1481.77 866.791ZM1422.47 866.791L1422.47 934.647L1366.57 934.647L1366.57 866.791L1422.47 866.791ZM1363.32 866.791L1363.32 934.647L1307.42 934.647L1307.42 866.791L1363.32 866.791ZM1304.03 866.79L1304.03 934.647L1248.12 934.647L1248.12 866.79L1304.03 866.79ZM1244.73 866.79L1244.73 934.647L1188.67 934.647L1188.67 866.79L1244.73 866.79ZM1185.27 866.79L1185.27 934.647L1129.37 934.647L1129.37 866.79L1185.27 866.79ZM1125.97 866.79L1125.97 934.647L1070.07 934.647L1070.07 866.79L1125.97 866.79ZM1066.83 866.79L1066.83 934.647L1010.93 934.647L1010.93 866.79L1066.83 866.79ZM1007.53 866.79L1007.53 934.647L951.629 934.647L951.629 866.79L1007.53 866.79ZM948.232 866.79L948.232 934.647L892.33 934.647L892.33 866.79L948.232 866.79ZM888.933 866.79L888.933 934.647L833.031 934.647L833.031 866.79L888.933 866.79ZM829.789 866.79L829.789 934.647L773.887 934.647L773.887 866.79L829.789 866.79ZM770.49 866.79L770.49 934.647L714.434 934.647L714.434 866.79L770.49 866.79ZM711.036 866.79L711.036 934.647L655.135 934.647L655.135 866.79L711.036 866.79ZM651.737 866.79L651.737 934.647L595.836 934.647L595.836 866.79L651.737 866.79ZM592.438 866.79L592.438 934.647L536.537 934.647L536.537 866.79L592.438 866.79ZM533.294 866.79L533.294 934.647L477.392 934.647L477.392 866.79L533.294 866.79ZM473.995 866.79L473.995 934.647L418.094 934.647L418.094 866.79L473.995 866.79ZM414.696 866.79L414.696 934.647L358.795 934.647L358.795 866.79L414.696 866.79ZM355.397 866.79L355.397 934.647L299.496 934.647L299.496 866.79L355.397 866.79ZM296.253 866.79L296.253 934.647L240.197 934.647L240.197 866.79L296.253 866.79ZM236.799 866.79L236.799 934.647L180.898 934.647L180.898 866.79L236.799 866.79ZM177.5 866.79L177.5 934.647L121.599 934.647L121.599 866.79L177.5 866.79ZM118.202 866.79L118.201 934.647L62.3 934.647L62.3 866.79L118.202 866.79ZM59.0571 866.79L59.0571 934.647L3.15536 934.647L3.15536 866.79L59.0571 866.79ZM1896.71 794.556L1896.71 862.612L1840.8 862.612L1840.8 794.556L1896.71 794.556ZM1837.56 794.556L1837.56 862.612L1781.66 862.612L1781.66 794.556L1837.56 794.556ZM1778.26 794.556L1778.26 862.612L1722.36 862.612L1722.36 794.556L1778.26 794.556ZM1718.96 794.556L1718.96 862.612L1663.06 862.612L1663.06 794.556L1718.96 794.556ZM1659.66 794.556L1659.66 862.612L1603.76 862.612L1603.76 794.556L1659.66 794.556ZM1600.52 794.556L1600.52 862.612L1544.62 862.612L1544.62 794.556L1600.52 794.556ZM1541.22 794.556L1541.22 862.612L1485.17 862.612L1485.17 794.556L1541.22 794.556ZM1481.77 794.556L1481.77 862.612L1425.87 862.612L1425.87 794.556L1481.77 794.556ZM1422.47 794.556L1422.47 862.612L1366.57 862.612L1366.57 794.556L1422.47 794.556ZM1363.32 794.556L1363.32 862.612L1307.42 862.612L1307.42 794.556L1363.32 794.556ZM1304.03 794.556L1304.03 862.612L1248.12 862.612L1248.12 794.556L1304.03 794.556ZM1244.73 794.556L1244.73 862.612L1188.67 862.612L1188.67 794.556L1244.73 794.556ZM1185.27 794.556L1185.27 862.612L1129.37 862.612L1129.37 794.556L1185.27 794.556ZM1125.97 794.556L1125.97 862.612L1070.07 862.612L1070.07 794.556L1125.97 794.556ZM1066.83 794.556L1066.83 862.612L1010.93 862.612L1010.93 794.556L1066.83 794.556ZM1007.53 794.556L1007.53 862.612L951.629 862.612L951.629 794.556L1007.53 794.556ZM948.232 794.556L948.232 862.612L892.33 862.612L892.33 794.556L948.232 794.556ZM888.933 794.556L888.933 862.612L833.031 862.612L833.031 794.556L888.933 794.556ZM829.789 794.556L829.789 862.612L773.887 862.612L773.887 794.556L829.789 794.556ZM770.49 794.556L770.49 862.612L714.434 862.612L714.434 794.556L770.49 794.556ZM711.036 794.556L711.036 862.612L655.135 862.612L655.135 794.556L711.036 794.556ZM651.737 794.556L651.737 862.612L595.836 862.612L595.836 794.556L651.737 794.556ZM592.438 794.556L592.438 862.612L536.537 862.612L536.537 794.556L592.438 794.556ZM533.294 794.556L533.294 862.612L477.392 862.612L477.392 794.556L533.294 794.556ZM473.995 794.556L473.995 862.612L418.094 862.612L418.094 794.556L473.995 794.556ZM414.696 794.556L414.696 862.612L358.795 862.612L358.795 794.556L414.696 794.556ZM355.397 794.556L355.397 862.612L299.496 862.612L299.496 794.556L355.397 794.556ZM296.253 794.556L296.253 862.612L240.197 862.612L240.197 794.556L296.253 794.556ZM236.799 794.556L236.799 862.612L180.898 862.612L180.898 794.556L236.799 794.556ZM177.5 794.556L177.5 862.612L121.599 862.612L121.599 794.556L177.5 794.556ZM118.202 794.556L118.202 862.612L62.3 862.612L62.3 794.556L118.202 794.556ZM59.0571 794.556L59.0571 862.612L3.15536 862.612L3.15536 794.556L59.0571 794.556ZM1896.71 722.719L1896.71 790.576L1840.8 790.576L1840.8 722.719L1896.71 722.719ZM1837.56 722.719L1837.56 790.576L1781.66 790.576L1781.66 722.719L1837.56 722.719ZM1778.26 722.719L1778.26 790.576L1722.36 790.576L1722.36 722.719L1778.26 722.719ZM1718.96 722.719L1718.96 790.576L1663.06 790.576L1663.06 722.719L1718.96 722.719ZM1659.66 722.719L1659.66 790.576L1603.76 790.576L1603.76 722.719L1659.66 722.719ZM1600.52 722.719L1600.52 790.576L1544.62 790.576L1544.62 722.719L1600.52 722.719ZM1541.22 722.719L1541.22 790.576L1485.17 790.576L1485.17 722.719L1541.22 722.719ZM1481.77 722.719L1481.77 790.576L1425.87 790.576L1425.87 722.719L1481.77 722.719ZM1422.47 722.719L1422.47 790.576L1366.57 790.576L1366.57 722.719L1422.47 722.719ZM1363.32 722.719L1363.32 790.576L1307.42 790.576L1307.42 722.719L1363.32 722.719ZM1304.03 722.719L1304.03 790.576L1248.12 790.576L1248.12 722.719L1304.03 722.719ZM1244.73 722.719L1244.73 790.576L1188.67 790.576L1188.67 722.719L1244.73 722.719ZM1185.27 722.719L1185.27 790.576L1129.37 790.576L1129.37 722.719L1185.27 722.719ZM1125.97 722.719L1125.97 790.576L1070.07 790.576L1070.07 722.719L1125.97 722.719ZM1066.83 722.719L1066.83 790.576L1010.93 790.576L1010.93 722.719L1066.83 722.719ZM1007.53 722.719L1007.53 790.576L951.629 790.576L951.629 722.719L1007.53 722.719ZM948.232 722.719L948.232 790.576L892.33 790.576L892.33 722.719L948.232 722.719ZM888.933 722.719L888.933 790.576L833.031 790.576L833.031 722.719L888.933 722.719ZM829.789 722.719L829.789 790.576L773.887 790.576L773.887 722.719L829.789 722.719ZM770.49 722.719L770.49 790.576L714.434 790.576L714.434 722.719L770.49 722.719ZM711.036 722.719L711.036 790.576L655.135 790.576L655.135 722.719L711.036 722.719ZM651.737 722.719L651.737 790.576L595.836 790.576L595.836 722.719L651.737 722.719ZM592.438 722.719L592.438 790.576L536.537 790.576L536.537 722.719L592.438 722.719ZM533.294 722.719L533.294 790.576L477.392 790.576L477.392 722.719L533.294 722.719ZM473.995 722.719L473.995 790.576L418.094 790.576L418.094 722.719L473.995 722.719ZM414.696 722.719L414.696 790.576L358.795 790.576L358.795 722.719L414.696 722.719ZM355.397 722.719L355.397 790.576L299.496 790.576L299.496 722.719L355.397 722.719ZM296.253 722.719L296.253 790.576L240.197 790.576L240.197 722.719L296.253 722.719ZM236.799 722.719L236.799 790.576L180.898 790.576L180.898 722.719L236.799 722.719ZM177.5 722.719L177.5 790.576L121.599 790.576L121.599 722.719L177.5 722.719ZM118.202 722.719L118.202 790.576L62.3 790.576L62.3 722.719L118.202 722.719ZM59.0571 722.719L59.0571 790.576L3.15536 790.576L3.15536 722.719L59.0571 722.719ZM1896.71 650.882L1896.71 718.739L1840.8 718.739L1840.8 650.882L1896.71 650.882ZM1837.56 650.882L1837.56 718.739L1781.66 718.739L1781.66 650.882L1837.56 650.882ZM1778.26 650.882L1778.26 718.739L1722.36 718.739L1722.36 650.882L1778.26 650.882ZM1718.96 650.882L1718.96 718.739L1663.06 718.739L1663.06 650.882L1718.96 650.882ZM1659.66 650.882L1659.66 718.739L1603.76 718.739L1603.76 650.882L1659.66 650.882ZM1600.52 650.882L1600.52 718.739L1544.62 718.739L1544.62 650.882L1600.52 650.882ZM1541.22 650.882L1541.22 718.739L1485.17 718.739L1485.17 650.882L1541.22 650.882ZM1481.77 650.882L1481.77 718.739L1425.87 718.739L1425.87 650.882L1481.77 650.882ZM1422.47 650.882L1422.47 718.739L1366.57 718.739L1366.57 650.882L1422.47 650.882ZM1363.32 650.882L1363.32 718.739L1307.42 718.739L1307.42 650.882L1363.32 650.882ZM1304.03 650.882L1304.03 718.739L1248.12 718.739L1248.12 650.882L1304.03 650.882ZM1244.73 650.882L1244.73 718.739L1188.67 718.739L1188.67 650.882L1244.73 650.882ZM1185.27 650.882L1185.27 718.739L1129.37 718.739L1129.37 650.882L1185.27 650.882ZM1125.97 650.882L1125.97 718.739L1070.07 718.739L1070.07 650.882L1125.97 650.882ZM1066.83 650.882L1066.83 718.739L1010.93 718.739L1010.93 650.882L1066.83 650.882ZM1007.53 650.882L1007.53 718.739L951.629 718.739L951.629 650.882L1007.53 650.882ZM948.232 650.882L948.232 718.739L892.33 718.739L892.33 650.882L948.232 650.882ZM888.933 650.882L888.933 718.739L833.031 718.739L833.031 650.882L888.933 650.882ZM829.789 650.882L829.789 718.739L773.887 718.739L773.887 650.882L829.789 650.882ZM770.49 650.882L770.49 718.739L714.434 718.739L714.434 650.882L770.49 650.882ZM711.036 650.882L711.036 718.739L655.135 718.739L655.135 650.882L711.036 650.882ZM651.737 650.882L651.737 718.739L595.836 718.739L595.836 650.882L651.737 650.882ZM592.438 650.882L592.438 718.739L536.537 718.739L536.537 650.882L592.438 650.882ZM533.294 650.882L533.294 718.739L477.392 718.739L477.392 650.882L533.294 650.882ZM473.995 650.882L473.995 718.739L418.094 718.739L418.094 650.882L473.995 650.882ZM414.696 650.882L414.696 718.739L358.795 718.739L358.795 650.882L414.696 650.882ZM355.397 650.882L355.397 718.739L299.496 718.739L299.496 650.882L355.397 650.882ZM296.253 650.882L296.253 718.739L240.197 718.739L240.197 650.882L296.253 650.882ZM236.799 650.882L236.799 718.739L180.898 718.739L180.898 650.882L236.799 650.882ZM177.5 650.882L177.5 718.739L121.599 718.739L121.599 650.882L177.5 650.882ZM118.202 650.882L118.202 718.739L62.3 718.739L62.3 650.882L118.202 650.882ZM59.0571 650.882L59.0571 718.739L3.15536 718.739L3.15537 650.882L59.0571 650.882ZM1896.71 578.846L1896.71 646.703L1840.8 646.703L1840.8 578.846L1896.71 578.846ZM1837.56 578.846L1837.56 646.703L1781.66 646.703L1781.66 578.846L1837.56 578.846ZM1778.26 578.846L1778.26 646.703L1722.36 646.703L1722.36 578.846L1778.26 578.846ZM1718.96 578.846L1718.96 646.703L1663.06 646.703L1663.06 578.846L1718.96 578.846ZM1659.66 578.846L1659.66 646.703L1603.76 646.703L1603.76 578.846L1659.66 578.846ZM1600.52 578.846L1600.52 646.703L1544.62 646.703L1544.62 578.846L1600.52 578.846ZM1541.22 578.846L1541.22 646.703L1485.17 646.703L1485.17 578.846L1541.22 578.846ZM1481.77 578.846L1481.77 646.703L1425.87 646.703L1425.87 578.846L1481.77 578.846ZM1422.47 578.846L1422.47 646.703L1366.57 646.703L1366.57 578.846L1422.47 578.846ZM1363.32 578.846L1363.32 646.703L1307.42 646.703L1307.42 578.846L1363.32 578.846ZM1304.03 578.846L1304.03 646.703L1248.12 646.703L1248.12 578.846L1304.03 578.846ZM1244.73 578.846L1244.73 646.703L1188.67 646.703L1188.67 578.846L1244.73 578.846ZM1185.27 578.846L1185.27 646.703L1129.37 646.703L1129.37 578.846L1185.27 578.846ZM1125.97 578.846L1125.97 646.703L1070.07 646.703L1070.07 578.846L1125.97 578.846ZM1066.83 578.846L1066.83 646.703L1010.93 646.703L1010.93 578.846L1066.83 578.846ZM1007.53 578.846L1007.53 646.703L951.629 646.703L951.629 578.846L1007.53 578.846ZM948.232 578.846L948.232 646.703L892.33 646.703L892.33 578.846L948.232 578.846ZM888.933 578.846L888.933 646.703L833.031 646.703L833.031 578.846L888.933 578.846ZM829.789 578.846L829.789 646.703L773.887 646.703L773.887 578.846L829.789 578.846ZM770.49 578.846L770.49 646.703L714.434 646.703L714.434 578.846L770.49 578.846ZM711.036 578.846L711.036 646.703L655.135 646.703L655.135 578.846L711.036 578.846ZM651.737 578.846L651.737 646.703L595.836 646.703L595.836 578.846L651.737 578.846ZM592.438 578.846L592.438 646.703L536.537 646.703L536.537 578.846L592.438 578.846ZM533.294 578.846L533.294 646.703L477.392 646.703L477.392 578.846L533.294 578.846ZM473.995 578.846L473.995 646.703L418.094 646.703L418.094 578.846L473.995 578.846ZM414.696 578.846L414.696 646.703L358.795 646.703L358.795 578.846L414.696 578.846ZM355.397 578.846L355.397 646.703L299.496 646.703L299.496 578.846L355.397 578.846ZM296.253 578.846L296.253 646.703L240.197 646.703L240.197 578.846L296.253 578.846ZM236.799 578.846L236.799 646.703L180.898 646.703L180.898 578.846L236.799 578.846ZM177.5 578.846L177.5 646.703L121.599 646.703L121.599 578.846L177.5 578.846ZM118.202 578.846L118.202 646.703L62.3 646.703L62.3 578.846L118.202 578.846ZM59.0571 578.846L59.0571 646.703L3.15537 646.703L3.15537 578.846L59.0571 578.846ZM1896.71 507.01L1896.71 574.866L1840.8 574.866L1840.8 507.01L1896.71 507.01ZM1837.56 507.01L1837.56 574.866L1781.66 574.866L1781.66 507.01L1837.56 507.01ZM1778.26 507.01L1778.26 574.866L1722.36 574.866L1722.36 507.01L1778.26 507.01ZM1718.96 507.01L1718.96 574.866L1663.06 574.866L1663.06 507.01L1718.96 507.01ZM1659.66 507.01L1659.66 574.866L1603.76 574.866L1603.76 507.01L1659.66 507.01ZM1600.52 507.01L1600.52 574.866L1544.62 574.866L1544.62 507.01L1600.52 507.01ZM1541.22 507.01L1541.22 574.866L1485.17 574.866L1485.17 507.01L1541.22 507.01ZM1481.77 507.01L1481.77 574.866L1425.87 574.866L1425.87 507.009L1481.77 507.01ZM1422.47 507.009L1422.47 574.866L1366.57 574.866L1366.57 507.009L1422.47 507.009ZM1363.32 507.009L1363.32 574.866L1307.42 574.866L1307.42 507.009L1363.32 507.009ZM1304.03 507.009L1304.03 574.866L1248.12 574.866L1248.12 507.009L1304.03 507.009ZM1244.73 507.009L1244.73 574.866L1188.67 574.866L1188.67 507.009L1244.73 507.009ZM1185.27 507.009L1185.27 574.866L1129.37 574.866L1129.37 507.009L1185.27 507.009ZM1125.97 507.009L1125.97 574.866L1070.07 574.866L1070.07 507.009L1125.97 507.009ZM1066.83 507.009L1066.83 574.866L1010.93 574.866L1010.93 507.009L1066.83 507.009ZM1007.53 507.009L1007.53 574.866L951.629 574.866L951.629 507.009L1007.53 507.009ZM948.232 507.009L948.232 574.866L892.33 574.866L892.33 507.009L948.232 507.009ZM888.933 507.009L888.933 574.866L833.031 574.866L833.031 507.009L888.933 507.009ZM829.789 507.009L829.789 574.866L773.887 574.866L773.887 507.009L829.789 507.009ZM770.49 507.009L770.49 574.866L714.434 574.866L714.434 507.009L770.49 507.009ZM711.036 507.009L711.036 574.866L655.135 574.866L655.135 507.009L711.036 507.009ZM651.737 507.009L651.737 574.866L595.836 574.866L595.836 507.009L651.737 507.009ZM592.438 507.009L592.438 574.866L536.537 574.866L536.537 507.009L592.438 507.009ZM533.294 507.009L533.294 574.866L477.392 574.866L477.392 507.009L533.294 507.009ZM473.995 507.009L473.995 574.866L418.094 574.866L418.094 507.009L473.995 507.009ZM414.696 507.009L414.696 574.866L358.795 574.866L358.795 507.009L414.696 507.009ZM355.397 507.009L355.397 574.866L299.496 574.866L299.496 507.009L355.397 507.009ZM296.253 507.009L296.253 574.866L240.197 574.866L240.197 507.009L296.253 507.009ZM236.799 507.009L236.799 574.866L180.898 574.866L180.898 507.009L236.799 507.009ZM177.5 507.009L177.5 574.866L121.599 574.866L121.599 507.009L177.5 507.009ZM118.202 507.009L118.202 574.866L62.3 574.866L62.3 507.009L118.202 507.009ZM59.0571 507.009L59.0571 574.866L3.15537 574.866L3.15537 507.009L59.0571 507.009ZM1896.71 434.974L1896.71 502.831L1840.8 502.831L1840.8 434.974L1896.71 434.974ZM1837.56 434.974L1837.56 502.831L1781.66 502.831L1781.66 434.974L1837.56 434.974ZM1778.26 434.974L1778.26 502.831L1722.36 502.831L1722.36 434.974L1778.26 434.974ZM1718.96 434.974L1718.96 502.831L1663.06 502.831L1663.06 434.974L1718.96 434.974ZM1659.66 434.974L1659.66 502.831L1603.76 502.831L1603.76 434.974L1659.66 434.974ZM1600.52 434.974L1600.52 502.831L1544.62 502.831L1544.62 434.974L1600.52 434.974ZM1541.22 434.974L1541.22 502.831L1485.17 502.831L1485.17 434.974L1541.22 434.974ZM1481.77 434.974L1481.77 502.831L1425.87 502.831L1425.87 434.974L1481.77 434.974ZM1422.47 434.974L1422.47 502.831L1366.57 502.831L1366.57 434.974L1422.47 434.974ZM1363.32 434.974L1363.32 502.831L1307.42 502.831L1307.42 434.974L1363.32 434.974ZM1304.03 434.974L1304.03 502.831L1248.12 502.831L1248.12 434.974L1304.03 434.974ZM1244.73 434.974L1244.73 502.831L1188.67 502.831L1188.67 434.974L1244.73 434.974ZM1185.27 434.974L1185.27 502.831L1129.37 502.831L1129.37 434.974L1185.27 434.974ZM1125.97 434.974L1125.97 502.831L1070.07 502.831L1070.07 434.974L1125.97 434.974ZM1066.83 434.974L1066.83 502.831L1010.93 502.831L1010.93 434.974L1066.83 434.974ZM1007.53 434.974L1007.53 502.831L951.629 502.831L951.629 434.974L1007.53 434.974ZM948.232 434.974L948.232 502.831L892.33 502.831L892.33 434.974L948.232 434.974ZM888.933 434.974L888.933 502.831L833.031 502.831L833.031 434.974L888.933 434.974ZM829.789 434.974L829.789 502.831L773.887 502.831L773.887 434.974L829.789 434.974ZM770.49 434.974L770.49 502.831L714.434 502.831L714.434 434.974L770.49 434.974ZM711.036 434.974L711.036 502.831L655.135 502.831L655.135 434.974L711.036 434.974ZM651.737 434.974L651.737 502.831L595.836 502.831L595.836 434.974L651.737 434.974ZM592.438 434.974L592.438 502.831L536.537 502.831L536.537 434.974L592.438 434.974ZM533.294 434.974L533.294 502.831L477.392 502.831L477.392 434.974L533.294 434.974ZM473.995 434.974L473.995 502.831L418.094 502.831L418.094 434.974L473.995 434.974ZM414.696 434.974L414.696 502.831L358.795 502.831L358.795 434.974L414.696 434.974ZM355.397 434.974L355.397 502.831L299.496 502.831L299.496 434.974L355.397 434.974ZM296.253 434.974L296.253 502.831L240.197 502.831L240.197 434.974L296.253 434.974ZM236.799 434.974L236.799 502.831L180.898 502.831L180.898 434.974L236.799 434.974ZM177.5 434.974L177.5 502.831L121.599 502.831L121.599 434.974L177.5 434.974ZM118.202 434.974L118.202 502.831L62.3 502.831L62.3 434.974L118.202 434.974ZM59.0571 434.974L59.0571 502.831L3.15537 502.831L3.15538 434.974L59.0571 434.974ZM1896.71 363.137L1896.71 430.994L1840.8 430.994L1840.8 363.137L1896.71 363.137ZM1837.56 363.137L1837.56 430.994L1781.66 430.994L1781.66 363.137L1837.56 363.137ZM1778.26 363.137L1778.26 430.994L1722.36 430.994L1722.36 363.137L1778.26 363.137ZM1718.96 363.137L1718.96 430.994L1663.06 430.994L1663.06 363.137L1718.96 363.137ZM1659.66 363.137L1659.66 430.994L1603.76 430.994L1603.76 363.137L1659.66 363.137ZM1600.52 363.137L1600.52 430.994L1544.62 430.994L1544.62 363.137L1600.52 363.137ZM1541.22 363.137L1541.22 430.994L1485.17 430.994L1485.17 363.137L1541.22 363.137ZM1481.77 363.137L1481.77 430.994L1425.87 430.994L1425.87 363.137L1481.77 363.137ZM1422.47 363.137L1422.47 430.994L1366.57 430.994L1366.57 363.137L1422.47 363.137ZM1363.32 363.137L1363.32 430.994L1307.42 430.994L1307.42 363.137L1363.32 363.137ZM1304.03 363.137L1304.03 430.994L1248.12 430.994L1248.12 363.137L1304.03 363.137ZM1244.73 363.137L1244.73 430.994L1188.67 430.994L1188.67 363.137L1244.73 363.137ZM1185.27 363.137L1185.27 430.994L1129.37 430.994L1129.37 363.137L1185.27 363.137ZM1125.97 363.137L1125.97 430.994L1070.07 430.994L1070.07 363.137L1125.97 363.137ZM1066.83 363.137L1066.83 430.994L1010.93 430.994L1010.93 363.137L1066.83 363.137ZM1007.53 363.137L1007.53 430.994L951.629 430.994L951.629 363.137L1007.53 363.137ZM948.232 363.137L948.232 430.994L892.33 430.994L892.33 363.137L948.232 363.137ZM888.933 363.137L888.933 430.994L833.031 430.994L833.031 363.137L888.933 363.137ZM829.789 363.137L829.789 430.994L773.887 430.994L773.887 363.137L829.789 363.137ZM770.49 363.137L770.49 430.994L714.434 430.994L714.434 363.137L770.49 363.137ZM711.036 363.137L711.036 430.994L655.135 430.994L655.135 363.137L711.036 363.137ZM651.737 363.137L651.737 430.994L595.836 430.994L595.836 363.137L651.737 363.137ZM592.438 363.137L592.438 430.994L536.537 430.994L536.537 363.137L592.438 363.137ZM533.294 363.137L533.294 430.994L477.392 430.994L477.392 363.137L533.294 363.137ZM473.995 363.137L473.995 430.994L418.094 430.994L418.094 363.137L473.995 363.137ZM414.696 363.137L414.696 430.994L358.795 430.994L358.795 363.137L414.696 363.137ZM355.397 363.137L355.397 430.994L299.496 430.994L299.496 363.137L355.397 363.137ZM296.253 363.137L296.253 430.994L240.197 430.994L240.197 363.137L296.253 363.137ZM236.799 363.137L236.799 430.994L180.898 430.994L180.898 363.137L236.799 363.137ZM177.5 363.137L177.5 430.994L121.599 430.994L121.599 363.137L177.5 363.137ZM118.202 363.137L118.202 430.994L62.3 430.994L62.3 363.137L118.202 363.137ZM59.0571 363.137L59.0571 430.994L3.15538 430.994L3.15538 363.137L59.0571 363.137ZM1896.71 291.101L1896.71 358.958L1840.8 358.958L1840.8 291.101L1896.71 291.101ZM1837.56 291.101L1837.56 358.958L1781.66 358.958L1781.66 291.101L1837.56 291.101ZM1778.26 291.101L1778.26 358.958L1722.36 358.958L1722.36 291.101L1778.26 291.101ZM1718.96 291.101L1718.96 358.958L1663.06 358.958L1663.06 291.101L1718.96 291.101ZM1659.66 291.101L1659.66 358.958L1603.76 358.958L1603.76 291.101L1659.66 291.101ZM1600.52 291.101L1600.52 358.958L1544.62 358.958L1544.62 291.101L1600.52 291.101ZM1541.22 291.101L1541.22 358.958L1485.17 358.958L1485.17 291.101L1541.22 291.101ZM1481.77 291.101L1481.77 358.958L1425.87 358.958L1425.87 291.101L1481.77 291.101ZM1422.47 291.101L1422.47 358.958L1366.57 358.958L1366.57 291.101L1422.47 291.101ZM1363.32 291.101L1363.32 358.958L1307.42 358.958L1307.42 291.101L1363.32 291.101ZM1304.03 291.101L1304.03 358.958L1248.12 358.958L1248.12 291.101L1304.03 291.101ZM1244.73 291.101L1244.73 358.958L1188.67 358.958L1188.67 291.101L1244.73 291.101ZM1185.27 291.101L1185.27 358.958L1129.37 358.958L1129.37 291.101L1185.27 291.101ZM1125.97 291.101L1125.97 358.958L1070.07 358.958L1070.07 291.101L1125.97 291.101ZM1066.83 291.101L1066.83 358.958L1010.93 358.958L1010.93 291.101L1066.83 291.101ZM1007.53 291.101L1007.53 358.958L951.629 358.958L951.629 291.101L1007.53 291.101ZM948.232 291.101L948.232 358.958L892.33 358.958L892.33 291.101L948.232 291.101ZM888.933 291.101L888.933 358.958L833.031 358.958L833.031 291.101L888.933 291.101ZM829.789 291.101L829.789 358.958L773.887 358.958L773.887 291.101L829.789 291.101ZM770.49 291.101L770.49 358.958L714.434 358.958L714.434 291.101L770.49 291.101ZM711.036 291.101L711.036 358.958L655.135 358.958L655.135 291.101L711.036 291.101ZM651.737 291.101L651.737 358.958L595.836 358.958L595.836 291.101L651.737 291.101ZM592.438 291.101L592.438 358.958L536.537 358.958L536.537 291.101L592.438 291.101ZM533.294 291.101L533.294 358.958L477.392 358.958L477.392 291.101L533.294 291.101ZM473.995 291.101L473.995 358.958L418.094 358.958L418.094 291.101L473.995 291.101ZM414.696 291.101L414.696 358.958L358.795 358.958L358.795 291.101L414.696 291.101ZM355.397 291.101L355.397 358.958L299.496 358.958L299.496 291.101L355.397 291.101ZM296.253 291.101L296.253 358.958L240.197 358.958L240.197 291.101L296.253 291.101ZM236.799 291.101L236.799 358.958L180.898 358.958L180.898 291.101L236.799 291.101ZM177.5 291.101L177.5 358.958L121.599 358.958L121.599 291.101L177.5 291.101ZM118.202 291.101L118.202 358.958L62.3 358.958L62.3 291.101L118.202 291.101ZM59.0571 291.101L59.0571 358.958L3.15538 358.958L3.15538 291.101L59.0571 291.101ZM1896.71 219.065L1896.71 287.121L1840.8 287.121L1840.8 219.065L1896.71 219.065ZM1837.56 219.065L1837.56 287.121L1781.66 287.121L1781.66 219.065L1837.56 219.065ZM1778.26 219.065L1778.26 287.121L1722.36 287.121L1722.36 219.065L1778.26 219.065ZM1718.96 219.065L1718.96 287.121L1663.06 287.121L1663.06 219.065L1718.96 219.065ZM1659.66 219.065L1659.66 287.121L1603.76 287.121L1603.76 219.065L1659.66 219.065ZM1600.52 219.065L1600.52 287.121L1544.62 287.121L1544.62 219.065L1600.52 219.065ZM1541.22 219.065L1541.22 287.121L1485.17 287.121L1485.17 219.065L1541.22 219.065ZM1481.77 219.065L1481.77 287.121L1425.87 287.121L1425.87 219.065L1481.77 219.065ZM1422.47 219.065L1422.47 287.121L1366.57 287.121L1366.57 219.065L1422.47 219.065ZM1363.32 219.065L1363.32 287.121L1307.42 287.121L1307.42 219.065L1363.32 219.065ZM1304.03 219.065L1304.03 287.121L1248.12 287.121L1248.12 219.065L1304.03 219.065ZM1244.73 219.065L1244.73 287.121L1188.67 287.121L1188.67 219.065L1244.73 219.065ZM1185.27 219.065L1185.27 287.121L1129.37 287.121L1129.37 219.065L1185.27 219.065ZM1125.97 219.065L1125.97 287.121L1070.07 287.121L1070.07 219.065L1125.97 219.065ZM1066.83 219.065L1066.83 287.121L1010.93 287.121L1010.93 219.065L1066.83 219.065ZM1007.53 219.065L1007.53 287.121L951.629 287.121L951.629 219.065L1007.53 219.065ZM948.232 219.065L948.232 287.121L892.33 287.121L892.33 219.065L948.232 219.065ZM888.933 219.065L888.933 287.121L833.031 287.121L833.031 219.065L888.933 219.065ZM829.789 219.065L829.789 287.121L773.887 287.121L773.887 219.065L829.789 219.065ZM770.49 219.065L770.49 287.121L714.434 287.121L714.434 219.065L770.49 219.065ZM711.036 219.065L711.036 287.121L655.135 287.121L655.135 219.065L711.036 219.065ZM651.737 219.065L651.737 287.121L595.836 287.121L595.836 219.065L651.737 219.065ZM592.438 219.065L592.438 287.121L536.537 287.121L536.537 219.065L592.438 219.065ZM533.294 219.065L533.294 287.121L477.392 287.121L477.392 219.065L533.294 219.065ZM473.995 219.065L473.995 287.121L418.094 287.121L418.094 219.065L473.995 219.065ZM414.696 219.065L414.696 287.121L358.795 287.121L358.795 219.065L414.696 219.065ZM355.397 219.065L355.397 287.121L299.496 287.121L299.496 219.065L355.397 219.065ZM296.253 219.065L296.253 287.121L240.197 287.121L240.197 219.065L296.253 219.065ZM236.799 219.065L236.799 287.121L180.898 287.121L180.898 219.065L236.799 219.065ZM177.5 219.065L177.5 287.121L121.599 287.121L121.599 219.065L177.5 219.065ZM118.202 219.065L118.202 287.121L62.3 287.121L62.3 219.065L118.202 219.065ZM59.0571 219.065L59.0571 287.121L3.15538 287.121L3.15539 219.065L59.0571 219.065ZM1896.71 147.029L1896.71 214.886L1840.8 214.886L1840.8 147.029L1896.71 147.029ZM1837.56 147.029L1837.56 214.886L1781.66 214.886L1781.66 147.029L1837.56 147.029ZM1778.26 147.029L1778.26 214.886L1722.36 214.886L1722.36 147.029L1778.26 147.029ZM1718.96 147.029L1718.96 214.886L1663.06 214.886L1663.06 147.029L1718.96 147.029ZM1659.66 147.029L1659.66 214.886L1603.76 214.886L1603.76 147.029L1659.66 147.029ZM1600.52 147.029L1600.52 214.886L1544.62 214.886L1544.62 147.029L1600.52 147.029ZM1541.22 147.029L1541.22 214.886L1485.17 214.886L1485.17 147.029L1541.22 147.029ZM1481.77 147.029L1481.77 214.886L1425.87 214.886L1425.87 147.029L1481.77 147.029ZM1422.47 147.029L1422.47 214.886L1366.57 214.886L1366.57 147.029L1422.47 147.029ZM1363.32 147.029L1363.32 214.886L1307.42 214.886L1307.42 147.029L1363.32 147.029ZM1304.03 147.029L1304.03 214.886L1248.12 214.886L1248.12 147.029L1304.03 147.029ZM1244.73 147.029L1244.73 214.886L1188.67 214.886L1188.67 147.029L1244.73 147.029ZM1185.27 147.029L1185.27 214.886L1129.37 214.886L1129.37 147.029L1185.27 147.029ZM1125.97 147.029L1125.97 214.886L1070.07 214.886L1070.07 147.029L1125.97 147.029ZM1066.83 147.029L1066.83 214.886L1010.93 214.886L1010.93 147.029L1066.83 147.029ZM1007.53 147.029L1007.53 214.886L951.629 214.886L951.629 147.029L1007.53 147.029ZM948.232 147.029L948.232 214.886L892.33 214.886L892.33 147.029L948.232 147.029ZM888.933 147.029L888.933 214.886L833.031 214.886L833.031 147.029L888.933 147.029ZM829.789 147.029L829.789 214.886L773.887 214.886L773.887 147.029L829.789 147.029ZM770.49 147.029L770.49 214.886L714.434 214.886L714.434 147.029L770.49 147.029ZM711.036 147.029L711.036 214.886L655.135 214.886L655.135 147.029L711.036 147.029ZM651.737 147.029L651.737 214.886L595.836 214.886L595.836 147.029L651.737 147.029ZM592.438 147.029L592.438 214.886L536.537 214.886L536.537 147.029L592.438 147.029ZM533.294 147.029L533.294 214.886L477.392 214.886L477.392 147.029L533.294 147.029ZM473.995 147.029L473.995 214.886L418.094 214.886L418.094 147.029L473.995 147.029ZM414.696 147.029L414.696 214.886L358.795 214.886L358.795 147.029L414.696 147.029ZM355.397 147.029L355.397 214.886L299.496 214.886L299.496 147.029L355.397 147.029ZM296.253 147.029L296.253 214.886L240.197 214.886L240.197 147.029L296.253 147.029ZM236.799 147.029L236.799 214.886L180.898 214.886L180.898 147.029L236.799 147.029ZM177.5 147.029L177.5 214.886L121.599 214.886L121.599 147.029L177.5 147.029ZM118.202 147.029L118.202 214.886L62.3 214.886L62.3 147.029L118.202 147.029ZM59.0571 147.029L59.0571 214.886L3.15539 214.886L3.15539 147.029L59.0571 147.029ZM1896.71 75.1927L1896.71 143.05L1840.8 143.05L1840.8 75.1927L1896.71 75.1927ZM1837.56 75.1927L1837.56 143.05L1781.66 143.05L1781.66 75.1927L1837.56 75.1927ZM1778.26 75.1927L1778.26 143.05L1722.36 143.05L1722.36 75.1927L1778.26 75.1927ZM1718.96 75.1927L1718.96 143.05L1663.06 143.05L1663.06 75.1927L1718.96 75.1927ZM1659.66 75.1927L1659.66 143.05L1603.76 143.05L1603.76 75.1927L1659.66 75.1927ZM1600.52 75.1927L1600.52 143.05L1544.62 143.05L1544.62 75.1927L1600.52 75.1927ZM1541.22 75.1927L1541.22 143.05L1485.17 143.05L1485.17 75.1927L1541.22 75.1927ZM1481.77 75.1927L1481.77 143.05L1425.87 143.05L1425.87 75.1927L1481.77 75.1927ZM1422.47 75.1927L1422.47 143.05L1366.57 143.05L1366.57 75.1927L1422.47 75.1927ZM1363.32 75.1927L1363.32 143.05L1307.42 143.05L1307.42 75.1927L1363.32 75.1927ZM1304.03 75.1927L1304.03 143.05L1248.12 143.05L1248.12 75.1927L1304.03 75.1927ZM1244.73 75.1927L1244.73 143.05L1188.67 143.05L1188.67 75.1927L1244.73 75.1927ZM1185.27 75.1927L1185.27 143.05L1129.37 143.05L1129.37 75.1927L1185.27 75.1927ZM1125.97 75.1927L1125.97 143.05L1070.07 143.05L1070.07 75.1927L1125.97 75.1927ZM1066.83 75.1926L1066.83 143.05L1010.93 143.05L1010.93 75.1926L1066.83 75.1926ZM1007.53 75.1926L1007.53 143.05L951.629 143.05L951.629 75.1926L1007.53 75.1926ZM948.232 75.1926L948.232 143.05L892.33 143.05L892.33 75.1926L948.232 75.1926ZM888.933 75.1926L888.933 143.05L833.031 143.05L833.031 75.1926L888.933 75.1926ZM829.789 75.1926L829.789 143.05L773.887 143.05L773.887 75.1926L829.789 75.1926ZM770.49 75.1926L770.49 143.05L714.434 143.05L714.434 75.1926L770.49 75.1926ZM711.036 75.1926L711.036 143.05L655.135 143.05L655.135 75.1926L711.036 75.1926ZM651.737 75.1926L651.737 143.05L595.836 143.05L595.836 75.1926L651.737 75.1926ZM592.438 75.1926L592.438 143.05L536.537 143.05L536.537 75.1926L592.438 75.1926ZM533.294 75.1926L533.294 143.05L477.392 143.05L477.392 75.1926L533.294 75.1926ZM473.995 75.1926L473.995 143.05L418.094 143.05L418.094 75.1926L473.995 75.1926ZM414.696 75.1926L414.696 143.05L358.795 143.05L358.795 75.1926L414.696 75.1926ZM355.397 75.1926L355.397 143.05L299.496 143.05L299.496 75.1926L355.397 75.1926ZM296.253 75.1926L296.253 143.05L240.197 143.05L240.197 75.1926L296.253 75.1926ZM236.799 75.1926L236.799 143.05L180.898 143.05L180.898 75.1926L236.799 75.1926ZM177.5 75.1926L177.5 143.05L121.599 143.05L121.599 75.1926L177.5 75.1926ZM118.202 75.1926L118.202 143.05L62.3 143.05L62.3 75.1926L118.202 75.1926ZM59.0571 75.1926L59.0571 143.05L3.15539 143.05L3.15539 75.1926L59.0571 75.1926ZM1896.71 3.35587L1896.71 71.2128L1840.8 71.2128L1840.8 3.35587L1896.71 3.35587ZM1837.56 3.35587L1837.56 71.2128L1781.66 71.2128L1781.66 3.35587L1837.56 3.35587ZM1778.26 3.35587L1778.26 71.2128L1722.36 71.2128L1722.36 3.35587L1778.26 3.35587ZM1718.96 3.35587L1718.96 71.2128L1663.06 71.2128L1663.06 3.35586L1718.96 3.35587ZM1659.66 3.35586L1659.66 71.2128L1603.76 71.2128L1603.76 3.35586L1659.66 3.35586ZM1600.52 3.35586L1600.52 71.2128L1544.62 71.2128L1544.62 3.35586L1600.52 3.35586ZM1541.22 3.35586L1541.22 71.2128L1485.17 71.2128L1485.17 3.35586L1541.22 3.35586ZM1481.77 3.35586L1481.77 71.2128L1425.87 71.2128L1425.87 3.35585L1481.77 3.35586ZM1422.47 3.35585L1422.47 71.2128L1366.57 71.2128L1366.57 3.35585L1422.47 3.35585ZM1363.32 3.35585L1363.32 71.2128L1307.42 71.2128L1307.42 3.35585L1363.32 3.35585ZM1304.03 3.35585L1304.03 71.2128L1248.12 71.2128L1248.12 3.35584L1304.03 3.35585ZM1244.73 3.35584L1244.73 71.2128L1188.67 71.2128L1188.67 3.35584L1244.73 3.35584ZM1185.27 3.35584L1185.27 71.2128L1129.37 71.2128L1129.37 3.35584L1185.27 3.35584ZM1125.97 3.35584L1125.97 71.2128L1070.07 71.2128L1070.07 3.35584L1125.97 3.35584ZM1066.83 3.35584L1066.83 71.2128L1010.93 71.2128L1010.93 3.35583L1066.83 3.35584ZM1007.53 3.35583L1007.53 71.2128L951.629 71.2128L951.629 3.35583L1007.53 3.35583ZM948.232 3.35583L948.232 71.2128L892.33 71.2128L892.33 3.35583L948.232 3.35583ZM888.933 3.35583L888.933 71.2128L833.031 71.2128L833.031 3.35583L888.933 3.35583ZM829.789 3.35583L829.789 71.2128L773.887 71.2128L773.887 3.35582L829.789 3.35583ZM770.49 3.35582L770.49 71.2128L714.434 71.2128L714.434 3.35582L770.49 3.35582ZM711.036 3.35582L711.036 71.2128L655.135 71.2128L655.135 3.35582L711.036 3.35582ZM651.737 3.35582L651.737 71.2128L595.836 71.2127L595.836 3.35582L651.737 3.35582ZM592.438 3.35582L592.438 71.2127L536.537 71.2127L536.537 3.35581L592.438 3.35582ZM533.294 3.35581L533.294 71.2127L477.392 71.2127L477.392 3.35581L533.294 3.35581ZM473.995 3.35581L473.995 71.2127L418.094 71.2127L418.094 3.35581L473.995 3.35581ZM414.696 3.35581L414.696 71.2127L358.795 71.2127L358.795 3.35581L414.696 3.35581ZM355.397 3.3558L355.397 71.2127L299.496 71.2127L299.496 3.3558L355.397 3.3558ZM296.253 3.3558L296.253 71.2127L240.197 71.2127L240.197 3.3558L296.253 3.3558ZM236.799 3.3558L236.799 71.2127L180.898 71.2127L180.898 3.3558L236.799 3.3558ZM177.5 3.3558L177.5 71.2127L121.599 71.2127L121.599 3.35579L177.5 3.3558ZM118.202 3.35579L118.202 71.2127L62.3 71.2127L62.3 3.35579L118.202 3.35579ZM59.0571 3.35579L59.0571 71.2127L3.15539 71.2127L3.1554 3.35579L59.0571 3.35579Z" fill="#EBEEFA"/>
</g>
</svg>
